<svg width="152" height="99" viewBox="0 0 152 99" fill="none" xmlns="http://www.w3.org/2000/svg">
<path d="M63.7739 79.3094L34.439 62.2081C35.5043 62.8304 36.9751 62.7415 38.597 61.8007C41.8188 59.9302 44.436 55.3817 44.4249 51.6592L73.7599 68.7605C73.771 72.483 71.1574 77.0352 67.932 78.902C66.31 79.8428 64.8355 79.928 63.7739 79.3094Z" fill="#6E7CF8"/>
<path d="M63.7739 79.3093L34.439 62.208C35.0988 62.5932 35.9135 62.7043 36.824 62.5117L66.1589 79.613C65.2484 79.8056 64.4337 79.6908 63.7739 79.3093V79.3093Z" fill="#6E7CF8"/>
<path d="M66.1592 79.6171L36.8242 62.5158C37.3845 62.3972 37.9817 62.1639 38.5973 61.8046C39.6257 61.2083 40.5915 60.3378 41.432 59.3081L70.7669 76.4094C69.9265 77.4391 68.9607 78.3059 67.9322 78.9022C67.313 79.2615 66.7195 79.4948 66.1592 79.6134V79.6171Z" fill="#6E7CF8"/>
<path d="M70.7666 76.4092L41.4316 59.3079C43.2231 57.1114 44.4322 54.1964 44.4249 51.6592L73.7598 68.7605C73.7672 71.2977 72.5581 74.2127 70.7666 76.4092V76.4092Z" fill="#6E7CF8"/>
<path d="M60.4932 75.2944C60.5337 75.7315 60.6185 76.1649 60.7659 76.5797C60.8286 76.7501 60.836 76.8353 60.9761 76.9168C61.282 77.0946 61.588 77.2724 61.8939 77.4539C62.3178 77.702 62.7418 77.9465 63.1657 78.1947C63.4569 78.365 63.7481 78.5725 64.0577 78.7132C64.1904 78.7762 64.2863 78.7391 64.4448 78.7132C64.8687 78.6354 65.2742 78.4947 65.6686 78.3169C64.161 77.4353 62.6533 76.5575 61.1456 75.6759C60.9281 75.55 60.7106 75.4241 60.4968 75.2981L60.4932 75.2944Z" fill="#6270E9"/>
<path d="M60.4602 73.75C61.3339 74.2611 62.2112 74.7723 63.0848 75.2834C64.2828 75.9835 65.4772 76.6798 66.6752 77.3799C66.7379 77.4169 66.9001 77.5577 66.9775 77.5577C67.0512 77.5577 67.1986 77.3984 67.2576 77.354C67.3977 77.2466 67.5378 77.1317 67.6742 77.0169C67.9691 76.7687 68.2492 76.4983 68.5183 76.2168C67.6078 75.6835 66.6973 75.1538 65.7868 74.6204C64.3418 73.7759 62.9005 72.9351 61.4555 72.0906C61.1238 71.8943 60.7883 71.7017 60.4565 71.5054C60.4565 72.2536 60.4602 72.9981 60.4639 73.7463L60.4602 73.75Z" fill="#6270E9"/>
<path d="M44.252 58.4744C44.7275 58.7522 45.203 59.03 45.6785 59.3078C46.8176 59.9745 47.9566 60.6375 49.0957 61.3043C50.4632 62.1043 51.8345 62.9044 53.2021 63.7007C54.3854 64.3934 55.5723 65.0823 56.7556 65.775C57.3196 66.1046 57.8873 66.4343 58.4513 66.7639L58.4697 66.7751C59.0042 67.0417 59.4982 67.6381 59.8004 68.1937C59.8926 68.3678 59.9737 68.5493 60.0474 68.7345C60.1248 68.9382 60.158 69.1752 60.2465 69.3715C60.2907 69.4679 60.2575 69.4234 60.3202 69.479C60.4492 69.5901 60.6372 69.6642 60.781 69.7494C61.0648 69.916 61.3486 70.0827 61.6362 70.2494C63.3503 71.2495 65.0607 72.2495 66.7748 73.2496C67.4788 73.6608 68.1866 74.0756 68.8907 74.4868C69.086 74.6016 69.2777 74.7127 69.4731 74.8275C69.4989 74.8423 69.5652 74.8979 69.5947 74.8979C69.5984 74.8979 69.6058 74.9053 69.6095 74.9053C69.6648 74.8942 69.8085 74.6238 69.838 74.5831C69.9154 74.4719 69.9892 74.3608 70.0629 74.246C70.203 74.0312 70.3357 73.8126 70.4647 73.5904C70.5015 73.5237 70.7854 73.1163 70.7559 73.057C70.7522 73.0496 70.7338 73.0496 70.7301 73.0422C70.7043 72.9978 70.579 72.9533 70.5347 72.9274C70.2398 72.7533 69.9449 72.5829 69.65 72.4088C68.5147 71.7458 67.3756 71.0828 66.2403 70.4161C64.6257 69.4716 63.0075 68.5307 61.3929 67.5862C59.5756 66.5232 57.7583 65.4638 55.941 64.4008C54.2158 63.3933 52.4907 62.3858 50.7655 61.3783C49.4274 60.5968 48.0856 59.8153 46.7475 59.0337C46.3089 58.7781 45.8665 58.5189 45.4279 58.2633C45.1993 58.1299 44.9671 57.9559 44.7275 57.8521C44.698 57.8373 44.6685 57.8151 44.639 57.8003C44.521 58.0299 44.3957 58.2522 44.2667 58.4744H44.252Z" fill="#6270E9"/>
<path d="M63.7736 79.3098L34.0922 62.8123C32.9531 62.1455 32.2454 60.7343 32.2417 58.7305L61.5767 75.8318C62.6899 79.3098 62.6383 78.6468 63.7773 79.3098H63.7736Z" fill="#6270E9"/>
<path d="M63.4237 79.9136L34.0888 62.8123C32.9497 62.1455 32.242 60.7343 32.2383 58.7305L61.5732 75.8318C61.5806 77.8393 62.2847 79.2506 63.4237 79.9136Z" fill="#6270E9"/>
<path d="M61.5738 75.8313L32.2425 58.7263L32.2314 55.252L61.5664 72.3533L61.5738 75.8313Z" fill="#6270E9"/>
<path d="M30.3916 51.1963L59.7266 68.2976C60.8582 68.9569 61.5586 70.3607 61.566 72.3498L32.231 55.2484C32.2237 53.2594 31.5233 51.8556 30.3916 51.1963V51.1963Z" fill="#6270E9"/>
<path d="M61.566 72.3535L57.8945 70.2088L32.231 55.2484C32.2237 53.2594 31.5233 51.8556 30.3916 51.1963L59.7266 68.2976C60.8582 68.9569 61.5586 70.3607 61.566 72.3498V72.3535Z" fill="#6270E9"/>
<path d="M73.7602 68.7606L44.4289 51.6593L44.3589 26.9019L73.6902 44.0032L73.7602 68.7606Z" fill="#6E7CF8"/>
<path d="M73.6895 44.0032L44.3546 26.9019C44.3288 17.7642 50.7502 6.58924 58.6645 2L87.9994 19.1013C80.0851 23.6943 73.6637 34.8655 73.6895 44.0032Z" fill="#6E7CF8"/>
<path d="M73.6895 44.0033L44.3546 26.902C44.3361 20.6793 47.3072 13.5158 51.7049 8.12646L81.0399 25.2278C76.6422 30.6171 73.6748 37.7806 73.6895 44.0033Z" fill="#6E7CF8"/>
<path d="M81.04 25.2277L51.7051 8.12639C53.7657 5.60028 56.1396 3.46678 58.6647 2L87.9996 19.1013C85.4746 20.5681 83.1006 22.7016 81.04 25.2277Z" fill="#6E7CF8"/>
<path d="M35.335 98.4294L6 81.3281L9.78944 79.1279L39.1244 96.2292L35.335 98.4294Z" fill="#6E7CF8"/>
<path d="M30.742 50.5924L60.077 67.6937C58.8421 66.9714 57.1317 67.0714 55.248 68.1641C51.5028 70.3346 48.4691 75.6165 48.4801 79.9391C48.4986 85.9173 44.3 93.2216 39.1208 96.2255L9.78955 79.1279C14.9687 76.124 19.1636 68.8197 19.1489 62.8415C19.1378 58.5189 22.1716 53.2407 25.9168 51.0665C27.8004 49.9738 29.5108 49.8738 30.7457 50.5961L30.742 50.5924Z" fill="#6E7CF8"/>
<path d="M39.1245 96.2296L9.78955 79.1283C11.441 78.169 12.9929 76.7726 14.342 75.1206L43.677 92.2219C42.3278 93.8739 40.7759 95.2703 39.1245 96.2296V96.2296Z" fill="#6E7CF8"/>
<path d="M43.6768 92.2217L14.3418 75.1204C17.217 71.5942 19.1597 66.9086 19.1486 62.8379C19.1413 59.897 20.5457 56.5078 22.6211 53.9595L51.956 71.0608C49.877 73.6091 48.4725 76.9946 48.4836 79.9392C48.4946 84.0099 46.552 88.6955 43.6768 92.2217V92.2217Z" fill="#6E7CF8"/>
<path d="M51.9565 71.0645L22.6216 53.9632C23.5947 52.7705 24.719 51.7594 25.9134 51.0667C26.6322 50.6519 27.3215 50.3778 27.974 50.2407L57.3089 67.342C56.6602 67.4791 55.9671 67.7532 55.2483 68.168C54.054 68.8607 52.9297 69.8719 51.9565 71.0645V71.0645Z" fill="#6E7CF8"/>
<path d="M57.3086 67.3419L27.9736 50.2406C29.0316 50.0184 29.9753 50.148 30.742 50.5962L60.0769 67.6975C59.3139 67.2493 58.3665 67.1197 57.3086 67.3419Z" fill="#6E7CF8"/>
<path d="M72.0899 44.6405L45.9619 29.3838L46.0061 45.248L72.1341 60.5047L72.0899 44.6405V44.6405ZM52.7114 36.5843L54.1195 37.4066L54.7609 36.3362L63.4014 41.381L64.0539 43.2071L65.462 44.0294L65.4915 54.808L52.7372 47.3592L52.7077 36.5806L52.7114 36.5843Z" fill="#6775F2"/>
<path d="M54.6733 38.4433L53.7001 37.8766C53.5195 37.7729 53.3721 37.8581 53.3721 38.0692C53.3721 38.2804 53.5232 38.5433 53.7038 38.6471L54.677 39.2138C54.8576 39.3212 55.0051 39.2323 55.0051 39.0175C55.0051 38.8026 54.8576 38.547 54.677 38.4396L54.6733 38.4433Z" fill="#6775F2"/>
<path d="M59.0927 41.8215C57.198 40.714 55.6645 41.6178 55.6719 43.8439C55.6793 46.0663 57.2201 48.7665 59.1148 49.874C61.0095 50.9815 62.543 50.074 62.5356 47.8516C62.5283 45.6292 60.9874 42.929 59.0927 41.8215Z" fill="#6775F2"/>
<path d="M65.4699 44.033L64.0617 43.2107L63.4093 41.3847L54.7688 36.3398L54.1274 37.4103L52.7192 36.588L52.7487 47.3666L65.5031 54.8153L65.4736 44.0367L65.4699 44.033ZM54.6766 39.2141L53.7035 38.6474C53.5228 38.54 53.3754 38.2807 53.3717 38.0696C53.3717 37.8585 53.5191 37.7696 53.6998 37.877L54.6729 38.4437C54.8536 38.5474 55.001 38.8067 55.001 39.0215C55.001 39.2327 54.8536 39.3216 54.6729 39.2178L54.6766 39.2141ZM59.1185 49.8705C57.2238 48.763 55.683 46.0628 55.6756 43.8404C55.6682 41.618 57.2017 40.7105 59.0964 41.818C60.9911 42.9255 62.5356 45.6257 62.5393 47.8481C62.5467 50.0705 61.0132 50.978 59.1185 49.8705Z" fill="#8591FF"/>
<path d="M74.9619 15.4307C72.787 17.2271 70.9292 19.3754 69.3404 21.7052C68.9902 22.2164 68.6548 22.7386 68.3193 23.2609C70.0777 24.2869 71.836 25.3129 73.5943 26.3426C74.4716 26.8575 75.3526 27.3686 76.23 27.8835C76.3369 27.9464 76.4438 28.0094 76.5507 28.0687C76.6318 28.1168 76.6686 28.165 76.7387 28.1205C76.794 28.0835 76.8419 27.9501 76.8751 27.8983C76.9414 27.7909 77.0115 27.6835 77.0778 27.576C77.3027 27.2242 77.5349 26.876 77.7708 26.5278C78.2906 25.7611 82.1537 21.2644 83.3481 20.3273C80.5539 18.6939 77.7561 17.0641 74.9619 15.4307V15.4307Z" fill="#6775F2"/>
<path d="M68.3894 20.5866C62.8859 17.3715 57.3787 14.1565 51.8751 10.9414C51.8493 10.9784 51.8235 11.0155 51.7977 11.0525C51.6429 11.2748 51.4918 11.497 51.3443 11.7229C51.3038 11.7822 51.2632 11.8415 51.2227 11.9044C51.2006 11.9341 51.1821 11.9674 51.16 11.997C50.972 12.286 50.7877 12.5749 50.6071 12.8712C50.5997 12.8823 50.5923 12.8934 50.585 12.9045C56.0922 16.1196 61.5957 19.3346 67.1029 22.5497C67.4752 21.9534 67.995 21.1718 68.3894 20.5866Z" fill="#7986FD"/>
<path d="M69.8304 18.6974L53.3124 9.05225C53.2313 9.15225 53.1465 9.25226 53.0654 9.35227C53.0175 9.41524 52.9659 9.4745 52.918 9.53747C58.4252 12.7525 63.9287 15.9676 69.4322 19.1826C69.5539 19.0308 69.6866 18.8678 69.8304 18.7011V18.6974Z" fill="#7986FD"/>
<path d="M69.8305 18.6979C70.1917 18.2645 70.5935 17.7978 70.9179 17.4237C65.4144 14.2086 59.9071 10.9936 54.4036 7.78223C54.3557 7.83408 54.3078 7.88964 54.2599 7.9415C54.105 8.11188 53.9539 8.28597 53.8028 8.46376C53.7217 8.56006 53.6369 8.65637 53.5558 8.75638C53.4747 8.85638 53.3936 8.95639 53.3125 9.0564L69.8305 18.7016V18.6979Z" fill="#7986FD"/>
<path d="M73.7418 14.7047C68.2383 11.4897 62.7311 8.27463 57.2276 5.05957C57.1649 5.11143 57.1022 5.16328 57.0432 5.21884C56.8663 5.367 56.693 5.51886 56.5161 5.67443C56.424 5.75962 56.3281 5.84482 56.236 5.93001C56.0701 6.08187 55.9079 6.23744 55.7457 6.39301C55.6904 6.44486 55.6388 6.49672 55.5835 6.55228C61.087 9.76734 66.5942 12.9824 72.0978 16.1938C72.5807 15.7345 73.2442 15.1455 73.7418 14.7047Z" fill="#7986FD"/>
<path d="M74.8142 31.7283C74.8437 31.6653 74.8731 31.6024 74.9026 31.5394C74.9174 31.5061 74.9321 31.4764 74.9506 31.4431C75.0501 31.232 75.1496 31.0246 75.2528 30.8171C75.2713 30.7764 75.2897 30.7393 75.3118 30.7023C75.3376 30.6542 75.3597 30.606 75.3855 30.5542C75.5145 30.2986 75.6473 30.043 75.7836 29.7911C75.791 29.7763 75.7984 29.7652 75.8058 29.7504L75.8131 29.7393C75.8131 29.7393 75.8242 29.7171 75.8316 29.7059C67.1947 24.4981 58.4142 19.5348 49.7036 14.4492C49.6963 14.4603 49.6889 14.4714 49.6852 14.4863C49.523 14.79 49.3645 15.0937 49.2097 15.4011C49.1912 15.4345 49.1765 15.4678 49.1581 15.5012C49.1249 15.5641 49.0954 15.6308 49.0622 15.6938C48.9443 15.9345 48.8263 16.179 48.712 16.4234C48.6936 16.4642 48.6752 16.5049 48.6567 16.5457C57.2936 21.7535 66.0741 26.7168 74.781 31.8024C74.792 31.7802 74.8031 31.7579 74.8142 31.732V31.7283Z" fill="#7986FD"/>
<path d="M72.0935 42.5292C72.0935 42.47 72.0972 42.407 72.1009 42.3477V42.307C72.1009 42.2588 72.1046 42.2107 72.1083 42.1625C72.1083 42.0996 72.112 42.0329 72.1157 41.9699C72.1193 41.8958 72.123 41.8255 72.1304 41.7514C72.1378 41.6366 72.1451 41.5217 72.1562 41.4032C72.1562 41.3773 72.1562 41.3551 72.1599 41.3291C72.1636 41.2773 72.1709 41.2217 72.1746 41.1699C72.1783 41.1106 72.1857 41.0513 72.1894 40.9884C63.7922 35.3657 54.7757 30.8172 46.0651 25.7354C46.0578 25.8242 46.0467 25.9094 46.0393 25.9983C46.0356 26.0465 46.0319 26.0983 46.0283 26.1465C46.0098 26.3835 45.9951 26.6206 45.984 26.854C45.984 26.9206 45.9767 26.9873 45.9767 27.054C45.9656 27.3095 45.9619 27.5688 45.9619 27.8207L72.0898 43.0774C72.0898 42.8922 72.0899 42.707 72.0972 42.5218L72.0935 42.5292Z" fill="#7986FD"/>
<path d="M72.4144 39.2991C72.4439 39.1176 72.4771 38.9398 72.5102 38.7583C72.5213 38.6916 72.536 38.6287 72.5508 38.562C72.5655 38.4805 72.5803 38.4027 72.5987 38.3212C72.5987 38.3101 72.5987 38.3027 72.6061 38.2916C72.6356 38.1583 72.665 38.0249 72.6945 37.8916C72.7056 37.8397 72.7167 37.7879 72.7277 37.736C72.7609 37.5916 72.7978 37.4471 72.8346 37.3026C72.842 37.273 72.8494 37.2434 72.8567 37.2138C63.8292 32.6801 55.4393 27.0426 46.7325 21.957C46.7141 22.0311 46.6956 22.1015 46.6772 22.1756C46.6219 22.3941 46.574 22.6126 46.5261 22.8312C46.5003 22.9534 46.4708 23.0756 46.4486 23.2016C46.4007 23.4312 46.3602 23.6572 46.3196 23.8831C46.3049 23.9646 46.2901 24.0424 46.2754 24.1239C54.9122 29.3317 63.6928 34.295 72.3996 39.3806C72.4033 39.3547 72.4107 39.325 72.4144 39.2991V39.2991Z" fill="#7986FD"/>
<path d="M73.3539 35.4843C73.3908 35.3657 73.4277 35.2509 73.4682 35.1324C73.4866 35.0768 73.5051 35.0213 73.5272 34.9657C73.5751 34.8213 73.6267 34.6768 73.6783 34.5323C73.6931 34.4916 73.7078 34.4546 73.7226 34.4138C73.7373 34.3768 73.7484 34.3397 73.7631 34.3064C73.7852 34.2434 73.8073 34.1805 73.8332 34.1138C73.9142 33.8916 73.999 33.6656 74.0875 33.4434C74.0912 33.4323 74.0949 33.4212 74.0986 33.41C65.071 28.8764 56.6812 23.2389 47.9706 18.1533C47.9411 18.2274 47.9153 18.2978 47.8858 18.3719C47.79 18.6126 47.6978 18.8571 47.6131 19.1015C47.5688 19.2201 47.5283 19.3423 47.4877 19.4608C47.4103 19.6794 47.3366 19.8979 47.2665 20.1201C47.2444 20.1868 47.2223 20.2572 47.2002 20.3239C55.837 25.5317 64.6176 30.495 73.3245 35.5806C73.3355 35.5472 73.3466 35.5176 73.3576 35.488L73.3539 35.4843Z" fill="#7986FD"/>
<path d="M43.6648 59.3936C43.6648 59.3936 43.6544 59.4075 43.6509 59.4145C43.6544 59.4075 43.6613 59.4005 43.6648 59.3936Z" fill="#D7CBD4"/>
<path d="M43.9671 58.9341L43.9492 58.9628C43.9492 58.9628 43.9599 58.9449 43.9671 58.9341Z" fill="#D7CBD4"/>
<path d="M43.7539 59.2601C43.7797 59.2194 43.8092 59.1786 43.835 59.1416C43.8092 59.1823 43.7834 59.2231 43.7539 59.2601Z" fill="#D7CBD4"/>
<path d="M43.6839 59.3638C43.6839 59.3638 43.6732 59.3817 43.666 59.3889C43.6732 59.3817 43.6767 59.3709 43.6839 59.3638Z" fill="#D7CBD4"/>
<path d="M71.4514 71.4718C71.5657 71.1681 71.6652 70.8569 71.7537 70.5458C71.8016 70.3791 71.8422 70.2124 71.8827 70.0458C71.9011 69.9643 71.9233 69.8791 71.938 69.7976C71.9491 69.742 72.0302 69.5087 72.0007 69.4642C71.9933 69.4494 71.9638 69.4494 71.9527 69.4383C71.868 69.3494 71.691 69.2865 71.5841 69.2235C71.0164 68.8938 70.4525 68.5605 69.8848 68.2308C67.8352 67.0344 65.7857 65.838 63.7362 64.6416C61.1632 63.1378 58.5902 61.6377 56.0135 60.1339C53.7539 58.8153 51.4942 57.4967 49.2346 56.1743C48.4863 55.7373 47.7343 55.3002 46.986 54.8594C46.7537 54.7224 46.5178 54.5853 46.2856 54.4483C46.1897 54.3927 46.0276 54.252 45.917 54.2335C45.9022 54.2335 45.8838 54.2149 45.869 54.2075C45.7732 54.7372 45.6368 55.2558 45.4709 55.7669C45.4341 55.8743 45.2756 56.1447 45.3382 56.2336C45.3898 56.3077 45.5815 56.3744 45.6552 56.4188C46.2008 56.7373 46.7464 57.0559 47.2919 57.3744C49.323 58.5597 51.3578 59.7487 53.3889 60.934C55.9877 62.4489 58.5828 63.9675 61.1779 65.4825C63.456 66.8122 65.7378 68.1456 68.0159 69.4754C69.1402 70.131 70.2645 70.7903 71.3888 71.4459L71.4367 71.4718H71.4514Z" fill="#7986FD"/>
<path d="M72.1306 65.5825L46.0063 50.4258V52.8371L72.138 68.0938V65.5825H72.1306Z" fill="#7986FD"/>
<path d="M72.1306 61.7192L46.0063 46.5625V48.9738L72.138 64.2305V61.7192H72.1306Z" fill="#7986FD"/>
<path d="M30.5719 51.0591C30.5314 51.0591 30.4871 51.0591 30.4466 51.0591C30.395 51.0591 30.3434 51.0591 30.2918 51.0665H30.2733C30.207 51.0702 30.1406 51.0776 30.0743 51.085C30.019 51.0924 29.96 51.0961 29.9047 51.1035C29.8347 51.1146 29.7646 51.1258 29.6946 51.1406C29.6541 51.148 29.6135 51.1554 29.573 51.1628C29.5508 51.1665 29.5287 51.1702 29.5066 51.1739H29.4919C29.455 51.185 29.4181 51.1961 29.3813 51.2035C29.3039 51.2221 29.2228 51.2443 29.1454 51.2665C29.1269 51.2702 29.1122 51.2776 29.0938 51.2813C30.5351 52.1629 31.9874 53.0333 33.4398 53.9C36.75 55.8706 40.0824 57.804 43.4184 59.7264C43.4516 59.682 43.4811 59.6412 43.5142 59.5968C43.5585 59.5338 43.6027 59.4708 43.647 59.4116C43.6506 59.4042 43.658 59.3968 43.6617 59.3893C43.6691 59.3819 43.6728 59.3708 43.6801 59.3634C43.7059 59.3301 43.7281 59.293 43.7502 59.256C43.776 59.2153 43.8055 59.1745 43.8313 59.1375C43.846 59.1115 43.8644 59.0893 43.8792 59.0634C43.9013 59.0301 43.9234 58.9967 43.9455 58.9634L43.964 58.9338C39.5 56.3076 35.0396 53.6704 30.5682 51.0591H30.5719Z" fill="#7986FD"/>
<path d="M43.9674 58.9375C43.9674 58.9375 43.9564 58.956 43.949 58.9671C43.9269 59.0005 43.9048 59.0338 43.8827 59.0671C43.8679 59.0931 43.8495 59.1153 43.8347 59.1412C43.8089 59.182 43.7831 59.2227 43.7536 59.2597C43.7278 59.2968 43.7057 59.3301 43.6836 59.3672L43.6652 59.3931C43.6652 59.3931 43.6541 59.4079 43.6504 59.4153C43.6062 59.4783 43.562 59.5412 43.5177 59.6005C43.4845 59.645 43.4551 59.6894 43.4219 59.7302C47.3588 61.997 51.2993 64.2527 55.2215 66.5418C55.2288 66.5418 55.2362 66.5418 55.2436 66.5344C55.251 66.5344 55.262 66.5307 55.2694 66.527H55.2878C55.2878 66.527 55.3247 66.5084 55.3431 66.5047C55.3579 66.501 55.3763 66.4973 55.391 66.4936C55.45 66.4788 55.5053 66.464 55.5606 66.4492C55.5827 66.4455 55.6085 66.4381 55.6306 66.4307C55.6417 66.4307 55.6564 66.4233 55.6675 66.4233H55.6859C55.6859 66.4233 55.697 66.4159 55.7044 66.4159C55.7265 66.4121 55.7486 66.4084 55.767 66.4047C55.7818 66.4047 55.7965 66.401 55.8113 66.3973C55.8666 66.3862 55.9255 66.3751 55.9771 66.3677H55.9845C56.0066 66.364 56.0288 66.3603 56.0509 66.3603C56.0914 66.3566 56.1283 66.3492 56.1688 66.3455C56.2094 66.3418 56.2536 66.3344 56.2942 66.3307C56.3052 66.3307 56.3163 66.3307 56.3237 66.3307C56.3531 66.3307 56.3826 66.3307 56.4084 66.327C56.4453 66.327 56.4822 66.3232 56.519 66.3195C56.5448 66.3195 56.5669 66.3195 56.5927 66.3195C56.6112 66.3195 56.6333 66.3195 56.6517 66.3195C56.6665 66.3195 56.6812 66.3195 56.6923 66.3195C52.4273 63.8971 48.1955 61.4266 43.9674 58.9412V58.9375Z" fill="#7986FD"/>
<path d="M44.4143 87.7951C44.6245 87.4062 44.8235 87.0136 45.0115 86.6136C45.111 86.4024 45.2106 86.1876 45.3027 85.9728C45.3285 85.9098 45.3543 85.8394 45.3543 85.8394C45.3543 85.8394 45.2769 85.795 45.1958 85.7468C45.0631 85.6691 44.9304 85.5913 44.7977 85.5135C43.8798 84.9764 42.962 84.4393 42.0441 83.9023C40.2084 82.8281 38.3689 81.7539 36.5332 80.6798C32.8433 78.5278 29.1571 76.3758 25.4672 74.2237C23.3881 73.0125 21.3128 71.8013 19.2338 70.5864C19.0531 71.0087 18.8578 71.4272 18.6513 71.8421C18.5592 72.0236 18.3896 72.2495 18.3417 72.4421C18.3122 72.5681 18.2569 72.5199 18.4044 72.6125C18.5334 72.6903 18.6624 72.7718 18.7914 72.8496C19.7056 73.4126 20.6198 73.9682 21.5376 74.5238C23.3734 75.6313 25.2202 76.7202 27.0707 77.8018C30.7458 79.9464 34.4468 82.054 38.1404 84.1727C40.2342 85.3727 42.3279 86.5802 44.4143 87.7989V87.7951Z" fill="#7986FD"/>
<path d="M39.6555 93.7772C40.1826 93.3291 40.6803 92.8512 41.1521 92.3475C37.4659 90.1881 33.7797 88.0324 30.0898 85.8803C26.3998 83.7283 22.7099 81.5763 19.02 79.4243C17.9805 78.8168 16.941 78.2131 15.9052 77.6056C15.6508 77.4575 15.4002 77.3093 15.1458 77.1612C14.9947 77.0723 14.9947 77.1241 14.8841 77.2389C14.7809 77.3464 14.6814 77.4501 14.5745 77.5538C14.239 77.8871 13.8925 78.2131 13.5312 78.5205C16.9557 80.4466 20.3581 82.4171 23.7458 84.4062C27.1371 86.3952 30.5174 88.3991 33.9013 90.3955C35.8181 91.5252 37.7313 92.6549 39.6518 93.7772H39.6555Z" fill="#7986FD"/>
<path d="M42.2607 91.0547C42.7067 90.4917 43.1307 89.9027 43.5214 89.299C39.8499 87.147 36.1748 84.9986 32.4996 82.854C28.8244 80.7094 25.1456 78.5648 21.4704 76.4202C20.4309 75.8128 19.3914 75.209 18.3556 74.6016C18.1012 74.4534 17.8505 74.3052 17.5962 74.1571C17.552 74.1312 17.4856 74.0682 17.4377 74.0645C17.3603 74.0571 17.364 74.0904 17.3087 74.1756C17.2349 74.2867 17.1612 74.3978 17.0875 74.509C16.7889 74.9497 16.4719 75.3794 16.1401 75.7979C19.5315 77.787 22.9265 79.7686 26.3215 81.754C29.7165 83.7356 33.1152 85.7172 36.5102 87.6989C38.427 88.8175 40.3476 89.9361 42.2644 91.0547H42.2607Z" fill="#7986FD"/>
<path d="M38.0663 94.9663C38.1732 94.8959 38.2765 94.8255 38.3834 94.7515C34.8446 92.6772 31.3021 90.6067 27.7634 88.5399C24.2467 86.4879 20.73 84.4396 17.2171 82.3875C16.2181 81.806 15.2191 81.2208 14.2202 80.6393C13.7262 80.3504 13.236 80.0651 12.742 79.7762C12.624 79.7059 12.5024 79.6355 12.3808 79.5651C12.237 79.4799 12.2222 79.5207 12.0895 79.6059C11.861 79.7577 11.6288 79.9059 11.3892 80.0429C12.2702 80.5578 13.1549 81.0726 14.0359 81.5875C16.1481 82.8209 18.2603 84.0543 20.3725 85.2878C22.9012 86.7657 25.43 88.2399 27.9587 89.7177C30.1336 90.9882 32.3085 92.2587 34.4797 93.5254C35.1763 93.9329 35.873 94.3403 36.5697 94.744C36.7799 94.8663 36.9863 94.9885 37.1964 95.1107C37.2775 95.1589 37.4028 95.2663 37.495 95.2848C37.6387 95.3108 37.941 95.0404 38.0663 94.9589V94.9663Z" fill="#7986FD"/>
<path d="M30.3472 54.3893C29.374 53.8077 28.4009 53.2188 27.4314 52.6299C27.3171 52.5595 27.166 52.4298 27.037 52.3891C26.9337 52.3558 27.0112 52.3298 26.8932 52.3854C26.8526 52.4039 26.8047 52.4447 26.7642 52.4743C26.5651 52.615 26.3697 52.7632 26.1781 52.9188C25.8168 53.2114 25.4703 53.5262 25.1459 53.8596C23.8152 55.2078 22.7499 56.8191 21.9721 58.5488C21.2127 60.2304 20.7593 62.0343 20.7483 63.8863C20.7409 64.7901 20.6414 65.6901 20.4718 66.5754C20.3907 67.0013 20.2949 67.431 20.1806 67.8495C20.1511 67.9607 20.1179 68.0718 20.0884 68.1866C20.0516 68.32 20.0442 68.2718 20.1327 68.3644C20.1622 68.3977 20.258 68.4385 20.2912 68.457C20.5455 68.6052 20.7962 68.7533 21.0505 68.9015C25.0058 71.2091 28.9612 73.5166 32.9165 75.8242C36.857 78.1244 40.8013 80.4246 44.7382 82.7322C45.2174 83.0137 45.6966 83.2915 46.1758 83.573C46.5629 82.2618 46.8135 80.9098 46.8688 79.543C46.8946 78.9059 46.8909 78.2763 46.9757 77.6466C47.0531 77.0836 47.1674 76.5243 47.3185 75.9761C47.9083 73.85 48.97 71.8461 50.3634 70.1386C51.1485 69.1756 52.059 68.294 53.0912 67.6014C50.2454 65.942 34.2472 56.7228 30.3546 54.393L30.3472 54.3893Z" fill="#6775F2"/>
<path d="M43.6665 66.2384C42.7265 67.4385 41.9156 68.7275 41.3147 70.1313C41.0346 70.7906 40.7876 71.4647 40.6291 72.1648C40.4374 73.0019 40.3452 73.8538 40.2715 74.7094C40.1867 75.6947 40.1241 76.6799 39.9692 77.6578C37.6838 76.3244 35.3983 74.9872 33.1129 73.6538C31.9701 72.9871 30.8274 72.3204 29.6847 71.6536C29.1133 71.3203 28.5419 70.9869 27.9706 70.6536C27.8231 70.5684 27.6794 70.4832 27.5319 70.398C27.4803 70.3684 27.425 70.335 27.3734 70.3054C27.2555 70.235 27.2333 70.2572 27.226 70.1276C27.2075 69.8239 27.3034 69.4757 27.3329 69.172C27.4435 67.9237 27.4729 66.6681 27.6978 65.4346C27.9153 64.242 28.3392 63.0789 28.8737 61.9936C29.3603 61.0047 29.9501 60.0639 30.6136 59.1823C30.6836 59.086 30.809 58.8453 30.9159 58.7934C31.0007 58.7527 30.8606 58.7527 31.008 58.786C31.067 58.8008 31.1407 58.8638 31.1923 58.8934C31.4356 59.0342 31.6789 59.1786 31.9222 59.3194C32.0291 59.3823 32.136 59.4416 32.2392 59.5046C32.383 59.5898 32.4309 59.5342 32.571 59.4601C32.7737 59.3527 32.9765 59.249 33.1829 59.149C33.4372 59.0268 33.6916 58.9119 33.9496 58.7971C33.9976 58.7749 34.0934 58.7119 34.1413 58.7119C34.215 58.7156 34.3514 58.8341 34.4215 58.8749C34.58 58.9675 36.1724 59.8972 36.8101 60.2713C37.4479 60.6417 41.1415 62.8011 41.2594 62.8678C41.5064 63.0122 41.7534 63.1567 42.004 63.3012C42.122 63.3678 42.2399 63.4382 42.3542 63.5049C42.4464 63.5567 42.686 63.6493 42.745 63.7345C42.815 63.8345 42.6344 64.2049 42.5901 64.3494C42.5348 64.5235 42.4832 64.6976 42.4353 64.8716C42.4058 64.9828 42.3726 65.0939 42.3432 65.2087C42.3358 65.2383 42.2879 65.3458 42.2989 65.3717C42.3063 65.3939 42.4206 65.4421 42.4501 65.4606C42.8703 65.705 43.2905 65.9495 43.7108 66.1977L43.6776 66.2384H43.6665Z" fill="#8591FF"/>
<path d="M30.7499 60.3011C30.7499 60.3011 30.7426 60.3233 30.7389 60.3344C30.7315 60.3641 30.7241 60.3937 30.7241 60.4233C30.7241 60.4233 30.7241 60.427 30.7241 60.4307C30.7241 60.4604 30.7241 60.4937 30.7315 60.5233C30.7315 60.5344 30.7352 60.5418 30.7389 60.553C30.7389 60.5641 30.7462 60.5752 30.7499 60.5863C30.7647 60.6233 30.7868 60.6567 30.8126 60.69C30.8236 60.7011 30.8347 60.7122 30.8458 60.7196C30.8826 60.7456 30.9932 60.8085 31.3618 61.0271C31.7415 61.2493 31.8558 61.3123 31.8963 61.3345C31.9074 61.3382 31.9258 61.3456 31.9406 61.3493C31.9848 61.3604 32.029 61.3604 32.0696 61.3567C32.0807 61.3567 32.088 61.3567 32.0991 61.353C32.1138 61.353 32.1249 61.3456 32.1396 61.3419C32.1654 61.3345 32.1912 61.3234 32.217 61.3123C32.2318 61.3049 32.2465 61.2975 32.2613 61.2901C32.276 61.2789 32.2908 61.2715 32.3055 61.2604C32.3203 61.2493 32.335 61.2382 32.3497 61.2271C32.3571 61.2197 32.3645 61.2123 32.3719 61.2049C32.394 61.1826 32.4124 61.1604 32.4272 61.1382C32.4345 61.1308 32.4382 61.1197 32.4456 61.1123C32.5119 61.0048 32.5414 60.8974 32.5304 60.8011C32.5304 60.7826 32.523 60.7641 32.5193 60.7456C32.5193 60.7382 32.5156 60.727 32.5119 60.7196C32.5009 60.69 32.4824 60.6604 32.4603 60.6344C32.4087 60.5826 32.2871 60.5085 31.8927 60.2752C31.5019 60.0492 31.3729 59.9788 31.2992 59.9566C31.2623 59.9492 31.2254 59.9455 31.1923 59.9492C31.1775 59.9492 31.1628 59.9492 31.1517 59.9529C31.1333 59.9529 31.1185 59.9603 31.1001 59.964C31.0891 59.964 31.078 59.9714 31.0669 59.9751C31.0006 60.0011 30.9379 60.0381 30.8826 60.0937L30.8716 60.1048C30.8716 60.1048 30.8421 60.1344 30.831 60.1529C30.8163 60.1714 30.8052 60.1863 30.7942 60.2048C30.7905 60.2122 30.7868 60.2159 30.7831 60.2233C30.7684 60.2492 30.7573 60.2752 30.7499 60.3011V60.3011Z" fill="#6775F2"/>
<path d="M37.7099 70.2497C38.4434 67.3977 37.9421 65.5086 36.9358 64.4641C36.9358 64.4641 36.733 64.2567 36.357 63.9863C36.029 63.7529 35.4982 63.6048 35.4134 63.5863C34.783 63.4455 34.2743 63.4122 33.6735 63.5492H33.655C33.5739 63.5714 33.4929 63.5937 33.4154 63.6196C32.3464 63.9493 31.377 64.7864 30.8719 66.1753C30.8277 66.3235 30.7908 66.4717 30.7614 66.6198C30.6397 67.3421 30.7356 68.0977 30.9715 68.8237C31.2185 69.4978 31.6276 70.3127 32.1548 71.0387C32.892 72.0054 33.773 72.7203 34.4586 72.9092C34.536 72.9314 34.6135 72.9462 34.6909 72.9574C34.9673 73.0018 35.3691 73.0129 35.8004 72.8499C36.346 72.6314 36.8068 72.1795 37.1643 71.5869C37.3671 71.2313 37.5551 70.7942 37.7099 70.2497V70.2497Z" fill="#6775F2"/>
<path opacity="0.4" d="M138 65.2079C138 65.2079 144.558 66.0864 150.253 55.461C153.561 49.2891 152.284 30.0465 134.394 29.103C108.592 27.743 122.892 -7.47015 82.1758 2.08446C70.7274 4.77084 45.8258 -9.09728 31.1669 14.4009C28.6744 18.3966 21.2232 18.2005 11.2955 25.017C-6.2167 37.0415 0.0874749 65.3351 14.843 65.464C29.5978 65.5929 138.001 65.2079 138.001 65.2079H138Z" fill="url(#paint0_linear_8479_43618)"/>
<defs>
<linearGradient id="paint0_linear_8479_43618" x1="98.5449" y1="79.3773" x2="175.501" y2="-7.47587" gradientUnits="userSpaceOnUse">
<stop stop-color="#6775F2"/>
<stop offset="1" stop-color="#B3BAFF"/>
</linearGradient>
</defs>
</svg>
