<svg width="174" height="160" viewBox="0 0 174 160" fill="none" xmlns="http://www.w3.org/2000/svg">
<path opacity="0.4" d="M160.307 158.78C160.307 158.78 166.865 159.659 172.56 149.033C175.868 142.861 174.591 123.619 156.701 122.675C130.898 121.315 145.198 86.1021 104.482 95.6567C93.034 98.3431 68.1324 84.475 53.4736 107.973C50.981 111.969 43.5298 111.773 33.6022 118.589C16.0899 130.614 22.3941 158.907 37.1496 159.036C51.9045 159.165 160.308 158.78 160.308 158.78H160.307Z" fill="url(#paint0_linear_8458_52955)"/>
<path d="M78.911 105.205L38.8438 81.9329C40.2988 82.7797 42.3077 82.6587 44.523 81.3785C48.9235 78.833 52.4982 72.6433 52.4831 67.5776L92.5504 90.8495C92.5655 95.9152 88.9958 102.11 84.5903 104.65C82.375 105.931 80.361 106.047 78.911 105.205Z" fill="#6E7CF8"/>
<path d="M78.911 105.205L38.8438 81.9331C39.745 82.4573 40.8577 82.6085 42.1013 82.3464L82.1685 105.618C80.9249 105.88 79.8122 105.724 78.911 105.205V105.205Z" fill="#6E7CF8"/>
<path d="M82.1688 105.623L42.1016 82.3514C42.8669 82.1901 43.6825 81.8725 44.5233 81.3836C45.928 80.5721 47.2472 79.3876 48.3951 77.9863L88.4624 101.258C87.3144 102.659 85.9953 103.839 84.5906 104.65C83.7447 105.139 82.9341 105.457 82.1688 105.618V105.623Z" fill="#6E7CF8"/>
<path d="M88.4618 101.258L48.3945 77.9862C50.8415 74.9972 52.4929 71.0304 52.4828 67.5776L92.5501 90.8495C92.5601 94.3022 90.9087 98.2691 88.4618 101.258V101.258Z" fill="#6E7CF8"/>
<path d="M74.4297 99.7402C74.4851 100.335 74.6009 100.925 74.8023 101.489C74.8879 101.721 74.8979 101.837 75.0893 101.948C75.5071 102.19 75.925 102.432 76.3429 102.679C76.9219 103.017 77.5009 103.349 78.0799 103.687C78.4777 103.919 78.8754 104.201 79.2984 104.393C79.4796 104.478 79.6105 104.428 79.827 104.393C80.406 104.287 80.9599 104.095 81.4986 103.853C79.4393 102.654 77.3801 101.459 75.3209 100.259C75.0238 100.088 74.7267 99.9166 74.4347 99.7453L74.4297 99.7402Z" fill="#6270E9"/>
<path d="M74.3849 97.639C75.5782 98.3346 76.7765 99.0302 77.9697 99.7258C79.606 100.678 81.2373 101.626 82.8737 102.579C82.9593 102.629 83.1808 102.821 83.2865 102.821C83.3872 102.821 83.5886 102.604 83.6692 102.543C83.8605 102.397 84.0518 102.241 84.2381 102.085C84.6409 101.747 85.0235 101.379 85.3911 100.996C84.1475 100.27 82.9039 99.5493 81.6603 98.8235C79.6866 97.6743 77.718 96.5301 75.7443 95.3809C75.2912 95.1137 74.833 94.8516 74.3799 94.5845C74.3799 95.6026 74.3849 96.6158 74.39 97.634L74.3849 97.639Z" fill="#6270E9"/>
<path d="M52.2471 76.8519C52.8966 77.23 53.5461 77.608 54.1956 77.986C55.7513 78.8933 57.3071 79.7956 58.8629 80.7029C60.7308 81.7916 62.6037 82.8804 64.4717 83.9641C66.0878 84.9066 67.7091 85.8441 69.3252 86.7867C70.0956 87.2353 70.8709 87.6839 71.6413 88.1325L71.6664 88.1476C72.3965 88.5106 73.0712 89.3221 73.484 90.0782C73.6099 90.3151 73.7207 90.562 73.8214 90.8141C73.9271 91.0913 73.9724 91.4139 74.0932 91.681C74.1537 91.8121 74.1083 91.7516 74.1939 91.8272C74.3702 91.9784 74.6269 92.0792 74.8233 92.1952C75.211 92.422 75.5987 92.6488 75.9914 92.8756C78.3326 94.2365 80.6687 95.5975 83.0099 96.9584C83.9716 97.5179 84.9383 98.0824 85.8999 98.6419C86.1668 98.7982 86.4286 98.9494 86.6954 99.1056C86.7307 99.1258 86.8213 99.2014 86.8616 99.2014C86.8666 99.2014 86.8767 99.2115 86.8817 99.2115C86.9573 99.1964 87.1536 98.8284 87.1939 98.773C87.2996 98.6218 87.4003 98.4705 87.501 98.3143C87.6923 98.0219 87.8736 97.7246 88.0498 97.4221C88.1002 97.3314 88.4878 96.7769 88.4476 96.6963C88.4425 96.6862 88.4174 96.6862 88.4123 96.6761C88.3771 96.6156 88.2059 96.5552 88.1455 96.5199C87.7427 96.283 87.3399 96.0511 86.9371 95.8142C85.3864 94.912 83.8306 94.0097 82.2799 93.1024C80.0746 91.8171 77.8643 90.5368 75.6591 89.2515C73.1769 87.8049 70.6947 86.3633 68.2125 84.9167C65.8562 83.5457 63.4999 82.1747 61.1436 80.8037C59.316 79.7401 57.4833 78.6766 55.6557 77.613C55.0565 77.2653 54.4523 76.9124 53.8532 76.5646C53.541 76.3832 53.2238 76.1463 52.8966 76.0051C52.8563 75.985 52.816 75.9547 52.7757 75.9346C52.6146 76.2471 52.4434 76.5495 52.2672 76.8519H52.2471Z" fill="#6270E9"/>
<path d="M78.9108 105.205L38.3703 82.7543C36.8145 81.847 35.8478 79.9266 35.8428 77.1997L75.91 100.472C77.4305 105.205 77.3601 104.302 78.9158 105.205H78.9108Z" fill="#6270E9"/>
<path d="M78.4326 106.026L38.3654 82.7543C36.8096 81.847 35.8429 79.9266 35.8379 77.1997L75.9051 100.472C75.9152 103.204 76.8769 105.124 78.4326 106.026Z" fill="#6270E9"/>
<path d="M75.9054 100.472L35.8432 77.1948L35.8281 72.4668L75.8954 95.7387L75.9054 100.472Z" fill="#6270E9"/>
<path d="M33.3154 66.9473L73.3827 90.2191C74.9284 91.1163 75.885 93.0267 75.8951 95.7334L35.8278 72.4615C35.8177 69.7548 34.8611 67.8445 33.3154 66.9473V66.9473Z" fill="#6270E9"/>
<path d="M75.8951 95.7385L70.8804 92.82L35.8278 72.4615C35.8177 69.7548 34.8611 67.8445 33.3154 66.9473L73.3827 90.2191C74.9284 91.1163 75.885 93.0267 75.8951 95.7334V95.7385Z" fill="#6270E9"/>
<path d="M92.5505 90.8496L52.4882 67.5778L52.3926 33.8872L92.4548 57.1591L92.5505 90.8496Z" fill="#6E7CF8"/>
<path d="M92.4541 57.159L52.3868 33.8871C52.3516 21.4523 61.1223 6.24515 71.9321 0L111.999 23.2719C101.19 29.5221 92.4188 44.7242 92.4541 57.159Z" fill="#6E7CF8"/>
<path d="M92.4541 57.159L52.3868 33.8871C52.3617 25.4191 56.4197 15.6708 62.4263 8.33691L102.494 31.6088C96.487 38.9427 92.4339 48.691 92.4541 57.159Z" fill="#6E7CF8"/>
<path d="M102.494 31.6088L62.4268 8.33695C65.2412 4.89934 68.4837 1.99603 71.9325 0L112 23.2719C108.551 25.2679 105.308 28.1712 102.494 31.6088Z" fill="#6E7CF8"/>
<path d="M40.0672 131.224L0 107.952L5.17581 104.958L45.2431 128.23L40.0672 131.224Z" fill="#6E7CF8"/>
<path d="M33.7938 66.126L73.8611 89.3979C72.1744 88.415 69.8382 88.5511 67.2654 90.038C62.15 92.9918 58.0063 100.179 58.0215 106.062C58.0466 114.197 52.3119 124.137 45.238 128.225L5.17578 104.958C12.2497 100.87 17.9794 90.9302 17.9592 82.7949C17.9441 76.9126 22.0878 69.73 27.2032 66.7712C29.776 65.2843 32.1122 65.1482 33.7988 66.1311L33.7938 66.126Z" fill="#6E7CF8"/>
<path d="M45.243 128.23L5.17578 104.958C7.43139 103.653 9.55106 101.752 11.3938 99.5044L51.4611 122.776C49.6183 125.024 47.4986 126.925 45.243 128.23V128.23Z" fill="#6E7CF8"/>
<path d="M51.4608 122.776L11.3936 99.5043C15.3207 94.7057 17.9741 88.3295 17.959 82.79C17.9489 78.7879 19.8672 74.1759 22.7018 70.708L62.7691 93.9799C59.9294 97.4477 58.0111 102.055 58.0262 106.062C58.0413 111.601 55.388 117.978 51.4608 122.776V122.776Z" fill="#6E7CF8"/>
<path d="M62.7694 93.985L22.7021 70.7131C24.0313 69.0901 25.567 67.7141 27.1983 66.7715C28.1801 66.207 29.1216 65.834 30.0127 65.6475L70.08 88.9193C69.1939 89.1058 68.2473 89.4788 67.2655 90.0434C65.6342 90.9859 64.0986 92.362 62.7694 93.985V93.985Z" fill="#6E7CF8"/>
<path d="M70.0799 88.9195L30.0127 65.6476C31.4577 65.3452 32.7466 65.5216 33.7939 66.1315L73.8611 89.4034C72.8189 88.7935 71.5249 88.6171 70.0799 88.9195Z" fill="#6E7CF8"/>
<path d="M90.269 58.0264L54.582 37.2646L54.6424 58.853L90.3294 79.6147L90.269 58.0264V58.0264ZM63.8008 47.0633L65.7241 48.1823L66.6002 46.7256L78.4019 53.5908L79.293 56.0757L81.2163 57.1947L81.2566 71.8625L63.8361 61.7261L63.7958 47.0583L63.8008 47.0633Z" fill="#6775F2"/>
<path d="M66.4804 49.5934L65.1512 48.8222C64.9045 48.6811 64.7031 48.797 64.7031 49.0843C64.7031 49.3716 64.9096 49.7295 65.1563 49.8706L66.4855 50.6418C66.7322 50.788 66.9336 50.667 66.9336 50.3747C66.9336 50.0823 66.7322 49.7346 66.4855 49.5884L66.4804 49.5934Z" fill="#6775F2"/>
<path d="M72.5171 54.1904C69.9292 52.6833 67.8347 53.9132 67.8448 56.9425C67.8548 59.9668 69.9594 63.6413 72.5473 65.1484C75.1352 66.6555 77.2297 65.4206 77.2196 62.3963C77.2096 59.372 75.105 55.6975 72.5171 54.1904Z" fill="#6775F2"/>
<path d="M81.227 57.1995L79.3037 56.0806L78.4126 53.5956L66.6109 46.7305L65.7348 48.1872L63.8115 47.0682L63.8518 61.736L81.2723 71.8724L81.2321 57.2046L81.227 57.1995ZM66.485 50.6419L65.1558 49.8707C64.9091 49.7245 64.7077 49.3717 64.7027 49.0844C64.7027 48.7971 64.9041 48.6761 65.1508 48.8223L66.48 49.5935C66.7267 49.7346 66.9281 50.0874 66.9281 50.3798C66.9281 50.6671 66.7267 50.7881 66.48 50.6469L66.485 50.6419ZM72.552 65.1433C69.9641 63.6362 67.8595 59.9617 67.8495 56.9374C67.8394 53.9131 69.9339 52.6782 72.5218 54.1853C75.1097 55.6924 77.2193 59.3669 77.2243 62.3912C77.2344 65.4155 75.1399 66.6504 72.552 65.1433Z" fill="#8591FF"/>
<path d="M94.1919 18.2769C91.2214 20.7215 88.6838 23.645 86.5138 26.8154C86.0355 27.511 85.5773 28.2217 85.1191 28.9324C87.5208 30.3286 89.9224 31.7248 92.324 33.1261C93.5223 33.8267 94.7256 34.5223 95.9239 35.2229C96.0699 35.3086 96.2159 35.3943 96.3619 35.475C96.4727 35.5405 96.5231 35.606 96.6187 35.5455C96.6942 35.4951 96.7597 35.3137 96.805 35.2431C96.8956 35.0969 96.9913 34.9508 97.0819 34.8046C97.389 34.3257 97.7062 33.8519 98.0285 33.3781C98.7384 32.3347 104.015 26.2156 105.646 24.9404C101.83 22.7175 98.0083 20.4997 94.1919 18.2769V18.2769Z" fill="#6775F2"/>
<path d="M85.2148 25.2934C77.6977 20.9182 70.1757 16.5431 62.6587 12.168C62.6234 12.2184 62.5882 12.2688 62.5529 12.3192C62.3415 12.6216 62.1351 12.924 61.9337 13.2315C61.8783 13.3122 61.8229 13.3928 61.7675 13.4785C61.7373 13.5188 61.7121 13.5642 61.6819 13.6045C61.4251 13.9977 61.1734 14.3908 60.9267 14.7941C60.9166 14.8092 60.9066 14.8243 60.8965 14.8394C68.4185 19.2146 75.9355 23.5897 83.4576 27.9648C83.9661 27.1533 84.676 26.0898 85.2148 25.2934Z" fill="#7986FD"/>
<path d="M87.1829 22.7226L64.6217 9.59717C64.511 9.73326 64.3952 9.86935 64.2844 10.0054C64.2189 10.0911 64.1485 10.1718 64.083 10.2575C71.6051 14.6326 79.1221 19.0077 86.6391 23.3829C86.8052 23.1762 86.9865 22.9544 87.1829 22.7276V22.7226Z" fill="#7986FD"/>
<path d="M87.1832 22.7224C87.6766 22.1327 88.2254 21.4976 88.6685 20.9885C81.1514 16.6134 73.6294 12.2383 66.1124 7.86816C66.0469 7.93873 65.9815 8.01434 65.916 8.08491C65.7046 8.31677 65.4981 8.55367 65.2917 8.79561C65.1809 8.92666 65.0651 9.05772 64.9544 9.19381C64.8436 9.3299 64.7328 9.46599 64.6221 9.60209L87.1832 22.7275V22.7224Z" fill="#7986FD"/>
<path d="M92.5253 17.289C85.0082 12.9138 77.4862 8.53871 69.9692 4.16357C69.8836 4.23414 69.798 4.30471 69.7174 4.38031C69.4758 4.58193 69.2391 4.78859 68.9974 5.00029C68.8716 5.11622 68.7407 5.23215 68.6148 5.34809C68.3882 5.55475 68.1667 5.76645 67.9452 5.97815C67.8696 6.04871 67.7992 6.11928 67.7236 6.19489C75.2406 10.57 82.7627 14.9452 90.2797 19.3152C90.9393 18.6902 91.8456 17.8888 92.5253 17.289Z" fill="#7986FD"/>
<path d="M93.9899 40.4547C94.0302 40.3691 94.0705 40.2834 94.1108 40.1977C94.1309 40.1523 94.151 40.112 94.1762 40.0666C94.3121 39.7793 94.4481 39.4971 94.5891 39.2148C94.6142 39.1593 94.6394 39.1089 94.6696 39.0585C94.7049 38.993 94.7351 38.9275 94.7703 38.8569C94.9465 38.5091 95.1278 38.1613 95.3141 37.8186C95.3241 37.7984 95.3342 37.7833 95.3443 37.7631L95.3544 37.748C95.3544 37.748 95.3695 37.7178 95.3795 37.7026C83.5829 30.6157 71.5899 23.8615 59.6926 16.9409C59.6825 16.956 59.6725 16.9712 59.6674 16.9913C59.4459 17.4046 59.2294 17.818 59.0179 18.2363C58.9927 18.2817 58.9726 18.327 58.9474 18.3724C58.9021 18.4581 58.8618 18.5488 58.8165 18.6345C58.6554 18.9621 58.4943 19.2948 58.3382 19.6275C58.313 19.6829 58.2879 19.7384 58.2627 19.7938C70.0593 26.8807 82.0523 33.635 93.9446 40.5555C93.9597 40.5253 93.9748 40.4951 93.9899 40.4598V40.4547Z" fill="#7986FD"/>
<path d="M90.274 55.1528C90.274 55.0722 90.279 54.9865 90.2841 54.9059V54.8504C90.2841 54.7849 90.2891 54.7194 90.2941 54.6538C90.2941 54.5681 90.2992 54.4774 90.3042 54.3917C90.3093 54.2909 90.3143 54.1951 90.3244 54.0943C90.3344 53.9381 90.3445 53.7818 90.3596 53.6205C90.3596 53.5852 90.3596 53.555 90.3646 53.5197C90.3697 53.4492 90.3797 53.3735 90.3848 53.303C90.3898 53.2223 90.3999 53.1417 90.4049 53.056C78.9355 45.4046 66.6203 39.2149 54.723 32.2993C54.7129 32.4203 54.6978 32.5362 54.6878 32.6572C54.6827 32.7227 54.6777 32.7933 54.6727 32.8588C54.6475 33.1814 54.6273 33.504 54.6122 33.8215C54.6122 33.9123 54.6022 34.003 54.6022 34.0937C54.5871 34.4415 54.582 34.7944 54.582 35.1371L90.269 55.8988C90.269 55.6468 90.269 55.3948 90.279 55.1428L90.274 55.1528Z" fill="#7986FD"/>
<path d="M90.7118 50.7577C90.7521 50.5107 90.7974 50.2688 90.8427 50.0218C90.8578 49.9311 90.878 49.8454 90.8981 49.7547C90.9182 49.6438 90.9384 49.5379 90.9636 49.427C90.9636 49.4119 90.9636 49.4018 90.9736 49.3867C91.0139 49.2052 91.0542 49.0238 91.0945 48.8423C91.1096 48.7718 91.1247 48.7012 91.1398 48.6306C91.1851 48.4341 91.2354 48.2375 91.2858 48.0409C91.2959 48.0006 91.3059 47.9602 91.316 47.9199C78.9857 41.7504 67.5264 34.0788 55.6341 27.1582C55.6089 27.259 55.5837 27.3548 55.5586 27.4556C55.483 27.753 55.4176 28.0504 55.3521 28.3478C55.3169 28.5141 55.2766 28.6804 55.2464 28.8518C55.181 29.1643 55.1256 29.4718 55.0702 29.7793C55.05 29.8901 55.0299 29.996 55.0098 30.1069C66.8064 37.1938 78.7994 43.948 90.6917 50.8686C90.6967 50.8333 90.7068 50.793 90.7118 50.7577V50.7577Z" fill="#7986FD"/>
<path d="M91.9956 45.5658C92.046 45.4045 92.0963 45.2483 92.1517 45.087C92.1769 45.0114 92.2021 44.9358 92.2323 44.8602C92.2977 44.6636 92.3682 44.467 92.4387 44.2704C92.4588 44.215 92.479 44.1646 92.4991 44.1091C92.5192 44.0587 92.5344 44.0083 92.5545 43.963C92.5847 43.8773 92.6149 43.7916 92.6502 43.7009C92.7609 43.3984 92.8767 43.091 92.9976 42.7885C93.0026 42.7734 93.0076 42.7583 93.0127 42.7432C80.6823 36.5736 69.223 28.902 57.3257 21.9814C57.2854 22.0823 57.2502 22.178 57.2099 22.2788C57.079 22.6065 56.9531 22.9391 56.8373 23.2718C56.7769 23.4331 56.7215 23.5994 56.6662 23.7607C56.5604 24.0581 56.4597 24.3555 56.3641 24.6579C56.3339 24.7487 56.3036 24.8444 56.2734 24.9352C68.0701 32.0221 80.0631 38.7763 91.9553 45.6969C91.9705 45.6515 91.9856 45.6112 92.0007 45.5709L91.9956 45.5658Z" fill="#7986FD"/>
<path d="M51.4459 78.1025C51.4459 78.1025 51.4308 78.1227 51.4258 78.1328C51.4308 78.1227 51.4409 78.1126 51.4459 78.1025Z" fill="#D7CBD4"/>
<path d="M51.8584 77.4775L51.833 77.5185C51.833 77.5185 51.8482 77.4929 51.8584 77.4775Z" fill="#D7CBD4"/>
<path d="M51.5664 77.9211C51.6017 77.8656 51.6419 77.8102 51.6772 77.7598C51.6419 77.8152 51.6067 77.8707 51.5664 77.9211Z" fill="#D7CBD4"/>
<path d="M51.4717 78.0615C51.4717 78.0615 51.4564 78.0871 51.4463 78.0973C51.4564 78.0871 51.4615 78.0718 51.4717 78.0615Z" fill="#D7CBD4"/>
<path d="M89.3975 94.5386C89.5536 94.1253 89.6896 93.7019 89.8104 93.2785C89.8759 93.0516 89.9312 92.8248 89.9866 92.598C90.0118 92.4871 90.042 92.3712 90.0621 92.2603C90.0772 92.1847 90.188 91.8671 90.1477 91.8066C90.1377 91.7865 90.0974 91.7865 90.0823 91.7714C89.9665 91.6504 89.7248 91.5647 89.5788 91.479C88.8034 91.0304 88.0331 90.5768 87.2577 90.1282C84.4584 88.5001 81.659 86.872 78.8596 85.2439C75.3453 83.1975 71.831 81.1561 68.3116 79.1097C65.2253 77.3153 62.1389 75.5209 59.0526 73.7214C58.0305 73.1266 57.0034 72.5319 55.9813 71.9321C55.6641 71.7456 55.3419 71.5591 55.0247 71.3726C54.8938 71.297 54.6723 71.1054 54.5212 71.0802C54.5011 71.0802 54.4759 71.055 54.4558 71.0449C54.3249 71.7657 54.1386 72.4714 53.912 73.167C53.8616 73.3131 53.6451 73.6811 53.7307 73.8021C53.8012 73.9029 54.063 73.9936 54.1637 74.0541C54.9089 74.4876 55.654 74.921 56.3992 75.3545C59.1734 76.9675 61.9526 78.5855 64.7268 80.1984C68.2764 82.26 71.8209 84.3266 75.3654 86.3881C78.477 88.1977 81.5935 90.0122 84.7051 91.8218C86.2407 92.7139 87.7763 93.6111 89.3119 94.5033L89.3774 94.5386H89.3975Z" fill="#7986FD"/>
<path d="M90.3245 86.5246L54.6426 65.8989V69.1803L90.3346 89.942V86.5246H90.3245Z" fill="#7986FD"/>
<path d="M90.3245 81.2672L54.6426 60.6416V63.923L90.3346 84.6847V81.2672H90.3245Z" fill="#7986FD"/>
<path d="M33.5619 66.7607C33.5066 66.7607 33.4461 66.7607 33.3908 66.7607C33.3203 66.7607 33.2498 66.7607 33.1793 66.7708H33.1541C33.0635 66.7759 32.9729 66.7859 32.8822 66.796C32.8067 66.8061 32.7262 66.8112 32.6506 66.8212C32.555 66.8364 32.4593 66.8515 32.3636 66.8716C32.3083 66.8817 32.2529 66.8918 32.1975 66.9019C32.1673 66.9069 32.1371 66.912 32.1069 66.917H32.0867C32.0364 66.9321 31.986 66.9472 31.9357 66.9573C31.83 66.9825 31.7192 67.0128 31.6135 67.043C31.5883 67.048 31.5681 67.0581 31.543 67.0632C33.5116 68.2628 35.4953 69.4473 37.479 70.6268C42.0003 73.3083 46.5518 75.9395 51.1084 78.5555C51.1537 78.495 51.1939 78.4395 51.2393 78.379C51.2997 78.2934 51.3601 78.2077 51.4205 78.127C51.4255 78.1169 51.4356 78.1069 51.4407 78.0968C51.4507 78.0867 51.4558 78.0716 51.4658 78.0615C51.5011 78.0161 51.5313 77.9657 51.5615 77.9153C51.5967 77.8599 51.637 77.8044 51.6723 77.754C51.6924 77.7187 51.7176 77.6885 51.7377 77.6532C51.7679 77.6078 51.7981 77.5625 51.8283 77.5171L51.8535 77.4768C45.7563 73.9031 39.6642 70.3143 33.5569 66.7607H33.5619Z" fill="#7986FD"/>
<path d="M51.8584 77.4819C51.8584 77.4819 51.8433 77.5071 51.8333 77.5223C51.8031 77.5676 51.7728 77.613 51.7426 77.6584C51.7225 77.6936 51.6973 77.7239 51.6772 77.7592C51.6419 77.8146 51.6067 77.87 51.5664 77.9205C51.5312 77.9709 51.501 78.0162 51.4708 78.0666L51.4456 78.1019C51.4456 78.1019 51.4305 78.1221 51.4254 78.1322C51.365 78.2178 51.3046 78.3035 51.2442 78.3842C51.1989 78.4447 51.1586 78.5051 51.1133 78.5606C56.4905 81.6454 61.8727 84.715 67.2298 87.83C67.2399 87.83 67.2499 87.83 67.26 87.8199C67.2701 87.8199 67.2852 87.8149 67.2953 87.8099H67.3204C67.3204 87.8099 67.3708 87.7847 67.396 87.7796C67.4161 87.7746 67.4413 87.7695 67.4614 87.7645C67.542 87.7443 67.6175 87.7242 67.693 87.704C67.7232 87.699 67.7585 87.6889 67.7887 87.6788C67.8038 87.6788 67.8239 87.6687 67.839 87.6687H67.8642C67.8642 87.6687 67.8793 87.6587 67.8894 87.6587C67.9196 87.6536 67.9498 87.6486 67.975 87.6435C67.9951 87.6435 68.0152 87.6385 68.0354 87.6335C68.1109 87.6183 68.1915 87.6032 68.2619 87.5931H68.272C68.3022 87.5881 68.3324 87.583 68.3626 87.583C68.418 87.578 68.4684 87.5679 68.5238 87.5629C68.5791 87.5578 68.6396 87.5478 68.6949 87.5427C68.71 87.5427 68.7252 87.5427 68.7352 87.5427C68.7755 87.5427 68.8158 87.5427 68.851 87.5377C68.9014 87.5377 68.9517 87.5326 69.0021 87.5276C69.0373 87.5276 69.0675 87.5276 69.1028 87.5276C69.1279 87.5276 69.1581 87.5276 69.1833 87.5276C69.2035 87.5276 69.2236 87.5276 69.2387 87.5276C63.4134 84.2311 57.6334 80.8691 51.8584 77.487V77.4819Z" fill="#7986FD"/>
<path d="M52.4689 116.753C52.7558 116.223 53.0277 115.689 53.2845 115.145C53.4204 114.857 53.5564 114.565 53.6823 114.273C53.7175 114.187 53.7527 114.091 53.7527 114.091C53.7527 114.091 53.647 114.031 53.5362 113.965C53.355 113.859 53.1737 113.753 52.9925 113.648C51.7388 112.917 50.4851 112.186 49.2315 111.455C46.7241 109.993 44.2117 108.532 41.7044 107.07C36.6645 104.141 31.6297 101.213 26.5898 98.2842C23.7501 96.636 20.9155 94.9877 18.0759 93.3345C17.8292 93.9091 17.5623 94.4787 17.2804 95.0432C17.1545 95.2902 16.9229 95.5976 16.8574 95.8597C16.8172 96.0311 16.7416 95.9656 16.943 96.0916C17.1193 96.1975 17.2955 96.3084 17.4717 96.4142C18.7203 97.1804 19.969 97.9364 21.2226 98.6925C23.73 100.2 26.2525 101.681 28.7799 103.153C33.7997 106.072 38.8547 108.94 43.8996 111.823C46.7594 113.456 49.6191 115.099 52.4689 116.758V116.753Z" fill="#7986FD"/>
<path d="M45.969 124.893C46.689 124.284 47.3687 123.633 48.0132 122.948C42.9783 120.009 37.9435 117.076 32.9036 114.147C27.8637 111.219 22.8239 108.29 17.784 105.362C16.3642 104.535 14.9443 103.713 13.5295 102.887C13.1821 102.685 12.8398 102.483 12.4924 102.282C12.2859 102.161 12.2859 102.231 12.1349 102.388C11.9939 102.534 11.858 102.675 11.712 102.816C11.2538 103.27 10.7805 103.713 10.2871 104.132C14.9645 106.753 19.6116 109.434 24.2386 112.141C28.8707 114.848 33.4877 117.575 38.1096 120.291C40.7278 121.829 43.3408 123.366 45.964 124.893H45.969Z" fill="#7986FD"/>
<path d="M49.5275 121.188C50.1367 120.422 50.7157 119.621 51.2494 118.799C46.2347 115.871 41.2149 112.947 36.1952 110.029C31.1755 107.11 26.1507 104.192 21.131 101.274C19.7111 100.447 18.2913 99.6253 16.8765 98.7986C16.5291 98.597 16.1868 98.3954 15.8393 98.1938C15.7789 98.1585 15.6883 98.0728 15.6228 98.0678C15.5171 98.0577 15.5222 98.1031 15.4466 98.219C15.3459 98.3702 15.2452 98.5214 15.1445 98.6726C14.7367 99.2724 14.3037 99.8571 13.8506 100.427C18.4826 103.133 23.1197 105.83 27.7568 108.532C32.3939 111.228 37.036 113.925 41.6731 116.622C44.2912 118.144 46.9144 119.666 49.5325 121.188H49.5275Z" fill="#7986FD"/>
<path d="M43.7985 126.511C43.9445 126.415 44.0854 126.32 44.2315 126.219C39.398 123.396 34.5595 120.578 29.7261 117.766C24.9228 114.973 20.1196 112.186 15.3214 109.394C13.957 108.602 12.5925 107.806 11.2281 107.015C10.5534 106.621 9.88378 106.233 9.20911 105.84C9.048 105.744 8.88185 105.649 8.7157 105.553C8.51934 105.437 8.4992 105.492 8.31795 105.608C8.00579 105.815 7.68859 106.017 7.36133 106.203C8.56465 106.904 9.77302 107.604 10.9763 108.305C13.8613 109.983 16.7463 111.662 19.6312 113.34C23.0851 115.351 26.539 117.358 29.9929 119.369C32.9635 121.098 35.934 122.827 38.8996 124.55C39.8511 125.105 40.8027 125.659 41.7543 126.209C42.0413 126.375 42.3233 126.541 42.6102 126.708C42.721 126.773 42.8922 126.919 43.0181 126.945C43.2144 126.98 43.6273 126.612 43.7985 126.501V126.511Z" fill="#7986FD"/>
<path d="M33.2544 71.2924C31.9252 70.5011 30.596 69.6996 29.2718 68.8982C29.1158 68.8024 28.9093 68.626 28.7331 68.5706C28.5921 68.5252 28.6979 68.4899 28.5368 68.5655C28.4814 68.5907 28.4159 68.6462 28.3605 68.6865C28.0887 68.878 27.8218 69.0797 27.56 69.2914C27.0666 69.6896 26.5933 70.118 26.1502 70.5716C24.3327 72.4064 22.8776 74.599 21.8152 76.9529C20.7781 79.2413 20.1588 81.696 20.1437 84.2162C20.1336 85.4461 19.9977 86.6709 19.7661 87.8756C19.6553 88.4553 19.5244 89.04 19.3683 89.6095C19.328 89.7607 19.2827 89.912 19.2424 90.0682C19.1921 90.2497 19.182 90.1841 19.3029 90.3102C19.3431 90.3555 19.474 90.411 19.5194 90.4362C19.8668 90.6378 20.2091 90.8394 20.5565 91.041C25.9589 94.1812 31.3613 97.3215 36.7637 100.462C42.1459 103.592 47.5332 106.722 52.9104 109.862C53.5649 110.245 54.2195 110.623 54.874 111.006C55.4027 109.222 55.745 107.382 55.8205 105.522C55.8558 104.655 55.8508 103.798 55.9666 102.942C56.0723 102.175 56.2284 101.414 56.4348 100.668C57.2404 97.7751 58.6904 95.0482 60.5936 92.7245C61.666 91.414 62.9096 90.2144 64.3194 89.2718C60.4325 87.0137 38.5813 74.4679 33.2645 71.2975L33.2544 71.2924Z" fill="#6775F2"/>
<path d="M51.4469 87.417C50.163 89.0502 49.0553 90.8043 48.2346 92.7146C47.852 93.6118 47.5146 94.5292 47.2981 95.4818C47.0363 96.621 46.9105 97.7803 46.8098 98.9446C46.694 100.285 46.6084 101.626 46.3969 102.957C43.2753 101.142 40.1537 99.3227 37.0321 97.5081C35.4713 96.6008 33.9105 95.6935 32.3497 94.7862C31.5693 94.3326 30.7889 93.8789 30.0085 93.4253C29.8071 93.3094 29.6108 93.1934 29.4094 93.0775C29.3389 93.0372 29.2634 92.9918 29.1929 92.9515C29.0317 92.8557 29.0015 92.886 28.9915 92.7095C28.9663 92.2962 29.0972 91.8224 29.1375 91.4091C29.2885 89.7105 29.3288 88.0017 29.6359 86.3233C29.933 84.7002 30.512 83.1175 31.242 81.6407C31.9066 80.2949 32.7122 79.0146 33.6185 77.8149C33.7141 77.6839 33.8853 77.3563 34.0313 77.2857C34.1471 77.2303 33.9558 77.2302 34.1572 77.2756C34.2378 77.2958 34.3385 77.3815 34.409 77.4218C34.7413 77.6133 35.0736 77.8099 35.4059 78.0014C35.5519 78.0871 35.6979 78.1678 35.8389 78.2535C36.0352 78.3694 36.1007 78.2938 36.292 78.193C36.5689 78.0468 36.8458 77.9057 37.1278 77.7696C37.4752 77.6032 37.8226 77.447 38.175 77.2907C38.2405 77.2605 38.3714 77.1748 38.4368 77.1748C38.5375 77.1798 38.7238 77.3411 38.8195 77.3966C39.036 77.5226 41.211 78.7878 42.0821 79.2968C42.9531 79.8009 47.998 82.7395 48.1591 82.8302C48.4964 83.0268 48.8338 83.2234 49.1761 83.42C49.3373 83.5107 49.4984 83.6065 49.6544 83.6972C49.7803 83.7677 50.1076 83.8938 50.1881 84.0097C50.2838 84.1458 50.0371 84.6498 49.9767 84.8464C49.9012 85.0833 49.8307 85.3202 49.7652 85.5571C49.7249 85.7083 49.6796 85.8595 49.6393 86.0158C49.6293 86.0561 49.5638 86.2023 49.5789 86.2376C49.589 86.2678 49.7451 86.3334 49.7854 86.3586C50.3593 86.6912 50.9333 87.0239 51.5073 87.3616L51.462 87.417H51.4469Z" fill="#8591FF"/>
<path d="M33.8048 79.3373C33.8048 79.3373 33.7947 79.3675 33.7897 79.3826C33.7796 79.423 33.7695 79.4633 33.7695 79.5036C33.7695 79.5036 33.7695 79.5086 33.7695 79.5137C33.7695 79.554 33.7695 79.5994 33.7796 79.6397C33.7796 79.6548 33.7846 79.6649 33.7897 79.68C33.7897 79.6951 33.7997 79.7103 33.8048 79.7254C33.8249 79.7758 33.8551 79.8212 33.8904 79.8665C33.9055 79.8816 33.9206 79.8968 33.9357 79.9068C33.986 79.9421 34.1371 80.0278 34.6406 80.3252C35.1591 80.6276 35.3152 80.7133 35.3706 80.7436C35.3857 80.7486 35.4109 80.7587 35.431 80.7637C35.4914 80.7788 35.5519 80.7788 35.6072 80.7738C35.6224 80.7738 35.6324 80.7738 35.6475 80.7688C35.6677 80.7688 35.6828 80.7587 35.7029 80.7536C35.7382 80.7436 35.7734 80.7284 35.8086 80.7133C35.8288 80.7032 35.8489 80.6932 35.8691 80.6831C35.8892 80.668 35.9093 80.6579 35.9295 80.6428C35.9496 80.6276 35.9698 80.6125 35.9899 80.5974C36 80.5873 36.01 80.5772 36.0201 80.5671C36.0503 80.5369 36.0755 80.5067 36.0956 80.4764C36.1057 80.4663 36.1107 80.4512 36.1208 80.4411C36.2114 80.295 36.2517 80.1488 36.2366 80.0177C36.2366 79.9925 36.2265 79.9673 36.2215 79.9421C36.2215 79.932 36.2165 79.9169 36.2114 79.9068C36.1963 79.8665 36.1711 79.8262 36.1409 79.7909C36.0705 79.7203 35.9043 79.6195 35.3656 79.302C34.8319 78.9945 34.6557 78.8987 34.555 78.8685C34.5046 78.8584 34.4543 78.8534 34.409 78.8584C34.3888 78.8584 34.3687 78.8584 34.3536 78.8635C34.3284 78.8635 34.3083 78.8735 34.2831 78.8786C34.268 78.8786 34.2529 78.8887 34.2378 78.8937C34.1471 78.929 34.0616 78.9794 33.986 79.055L33.9709 79.0701C33.9709 79.0701 33.9306 79.1104 33.9155 79.1357C33.8954 79.1609 33.8803 79.181 33.8652 79.2062C33.8602 79.2163 33.8551 79.2213 33.8501 79.2314C33.83 79.2667 33.8148 79.302 33.8048 79.3373V79.3373Z" fill="#6775F2"/>
<path d="M43.3109 92.8757C44.3129 88.9945 43.6281 86.4239 42.2536 85.0025C42.2536 85.0025 41.9767 84.7202 41.4631 84.3523C41.015 84.0347 40.29 83.8331 40.1742 83.8079C39.3133 83.6164 38.6185 83.571 37.7978 83.7575H37.7726C37.6618 83.7877 37.5511 83.818 37.4453 83.8533C35.9852 84.3019 34.6611 85.441 33.9713 87.3312C33.9109 87.5328 33.8605 87.7344 33.8203 87.936C33.6541 88.9189 33.785 89.9472 34.1072 90.9351C34.4446 91.8525 35.0034 92.9614 35.7234 93.9493C36.7304 95.2649 37.9337 96.2377 38.8702 96.4948C38.9759 96.525 39.0817 96.5452 39.1874 96.5603C39.565 96.6208 40.1138 96.6359 40.7029 96.4141C41.448 96.1167 42.0774 95.5018 42.5658 94.6953C42.8427 94.2114 43.0995 93.6167 43.3109 92.8757V92.8757Z" fill="#6775F2"/>
<defs>
<linearGradient id="paint0_linear_8458_52955" x1="98" y1="177.81" x2="225.39" y2="47.5456" gradientUnits="userSpaceOnUse">
<stop stop-color="#6775F2"/>
<stop offset="1" stop-color="#B3BAFF"/>
</linearGradient>
</defs>
</svg>
