<svg width="175" height="100" viewBox="0 0 175 100" fill="none" xmlns="http://www.w3.org/2000/svg">
<path opacity="0.4" d="M161.307 96.7802C161.307 96.7802 167.865 97.6587 173.56 87.0333C176.868 80.8613 175.591 61.6188 157.701 60.6752C131.898 59.3153 146.198 24.1021 105.482 33.6567C94.034 36.3431 69.1324 22.475 54.4736 45.9732C51.981 49.9689 44.5298 49.7728 34.6022 56.5892C17.0899 68.6137 23.3941 96.9074 38.1496 97.0363C52.9045 97.1652 161.308 96.7802 161.308 96.7802H161.307Z" fill="url(#paint0_linear_8458_52957)"/>
<path d="M59.8877 79.7007L29.4795 62.0705C30.5838 62.712 32.1084 62.6204 33.7897 61.6505C37.1293 59.7221 39.8423 55.0329 39.8308 51.1953L70.239 68.8255C70.2505 72.6632 67.5413 77.3561 64.1979 79.2807C62.5166 80.2506 60.9881 80.3384 59.8877 79.7007Z" fill="#6E7CF8"/>
<path d="M59.8877 79.7005L29.4795 62.0703C30.1635 62.4674 31.0079 62.582 31.9517 62.3834L62.3599 80.0136C61.4161 80.2122 60.5716 80.0938 59.8877 79.7005Z" fill="#6E7CF8"/>
<path d="M62.3603 80.0176L31.9521 62.3874C32.533 62.2652 33.152 62.0247 33.7901 61.6543C34.8562 61.0395 35.8573 60.1421 36.7285 59.0806L67.1367 76.7108C66.2655 77.7723 65.2644 78.6659 64.1983 79.2807C63.5563 79.6511 62.9411 79.8916 62.3603 80.0138V80.0176Z" fill="#6E7CF8"/>
<path d="M67.1367 76.7108L36.7285 59.0806C38.5856 56.8162 39.8389 53.811 39.8312 51.1953L70.2394 68.8255C70.2471 71.4412 68.9937 74.4464 67.1367 76.7108Z" fill="#6E7CF8"/>
<path d="M56.4873 75.561C56.5293 76.0116 56.6172 76.4584 56.7701 76.8861C56.835 77.0617 56.8427 77.1495 56.9879 77.2336C57.305 77.4168 57.6222 77.6001 57.9393 77.7872C58.3787 78.0431 58.8182 78.2951 59.2576 78.551C59.5595 78.7266 59.8613 78.9404 60.1823 79.0855C60.3199 79.1505 60.4192 79.1123 60.5835 79.0855C61.0229 79.0054 61.4432 78.8603 61.8521 78.677C60.2893 77.7681 58.7265 76.8632 57.1636 75.9543C56.9382 75.8245 56.7127 75.6947 56.4911 75.5649L56.4873 75.561Z" fill="#6270E9"/>
<path d="M56.453 73.9688C57.3586 74.4958 58.2681 75.0227 59.1737 75.5497C60.4155 76.2714 61.6535 76.9893 62.8954 77.711C62.9603 77.7492 63.1285 77.8943 63.2087 77.8943C63.2851 77.8943 63.438 77.7301 63.4991 77.6843C63.6443 77.5735 63.7895 77.4552 63.9309 77.3368C64.2366 77.0809 64.527 76.8022 64.8059 76.512C63.8621 75.9621 62.9183 75.4161 61.9745 74.8662C60.4766 73.9956 58.9826 73.1287 57.4847 72.2581C57.1408 72.0557 56.7931 71.8572 56.4492 71.6548C56.4492 72.4261 56.453 73.1937 56.4569 73.965L56.453 73.9688Z" fill="#6270E9"/>
<path d="M39.6514 58.2213C40.1443 58.5077 40.6372 58.7941 41.1301 59.0805C42.3108 59.7679 43.4916 60.4514 44.6723 61.1387C46.0899 61.9635 47.5113 62.7883 48.929 63.6093C50.1555 64.3234 51.3859 65.0336 52.6125 65.7477C53.1971 66.0875 53.7856 66.4274 54.3702 66.7672L54.3893 66.7787C54.9433 67.0536 55.4554 67.6684 55.7687 68.2412C55.8642 68.4207 55.9483 68.6078 56.0247 68.7987C56.105 69.0087 56.1393 69.2531 56.2311 69.4555C56.2769 69.5548 56.2425 69.509 56.3075 69.5662C56.4412 69.6808 56.6361 69.7572 56.7851 69.845C57.0793 70.0168 57.3736 70.1887 57.6716 70.3605C59.4484 71.3915 61.2214 72.4225 62.9982 73.4535C63.728 73.8774 64.4617 74.305 65.1915 74.7289C65.394 74.8473 65.5927 74.9618 65.7952 75.0802C65.822 75.0955 65.8908 75.1528 65.9213 75.1528C65.9251 75.1528 65.9328 75.1604 65.9366 75.1604C65.9939 75.1489 66.1429 74.8702 66.1735 74.8282C66.2537 74.7136 66.3302 74.5991 66.4066 74.4807C66.5518 74.2592 66.6894 74.0339 66.8231 73.8048C66.8613 73.7361 67.1555 73.316 67.125 73.2549C67.1211 73.2473 67.102 73.2473 67.0982 73.2397C67.0715 73.1939 66.9416 73.148 66.8957 73.1213C66.59 72.9418 66.2843 72.7662 65.9786 72.5867C64.8017 71.9032 63.621 71.2197 62.4441 70.5323C60.7705 69.5586 59.093 68.5887 57.4194 67.615C55.5356 66.519 53.6518 65.4269 51.768 64.331C49.9798 63.2924 48.1915 62.2537 46.4032 61.2151C45.0162 60.4094 43.6253 59.6037 42.2382 58.7979C41.7835 58.5345 41.325 58.2672 40.8703 58.0037C40.6334 57.8662 40.3927 57.6867 40.1443 57.5798C40.1137 57.5646 40.0832 57.5416 40.0526 57.5264C39.9303 57.7631 39.8004 57.9922 39.6667 58.2213H39.6514Z" fill="#6270E9"/>
<path d="M59.8877 79.7002L29.1203 62.6924C27.9396 62.0051 27.206 60.5502 27.2021 58.4844L57.6103 76.1146C58.7643 79.7002 58.7108 79.0167 59.8915 79.7002H59.8877Z" fill="#6270E9"/>
<path d="M59.5246 80.3226L29.1164 62.6924C27.9357 62.0051 27.2021 60.5502 27.1982 58.4844L57.6064 76.1146C57.6141 78.1842 58.3439 79.6391 59.5246 80.3226Z" fill="#6270E9"/>
<path d="M57.6072 76.1147L27.2029 58.4807L27.1914 54.8989L57.5996 72.5291L57.6072 76.1147Z" fill="#6270E9"/>
<path d="M25.2842 50.7178L55.6924 68.348C56.8654 69.0277 57.5914 70.4749 57.5991 72.5255L27.1909 54.8953C27.1833 52.8447 26.4573 51.3975 25.2842 50.7178Z" fill="#6270E9"/>
<path d="M57.5991 72.5293L53.7933 70.3183L27.1909 54.8953C27.1833 52.8447 26.4573 51.3975 25.2842 50.7178L55.6924 68.348C56.8654 69.0277 57.5914 70.4749 57.5991 72.5255V72.5293Z" fill="#6270E9"/>
<path d="M70.2387 68.8252L39.8343 51.195L39.7617 25.6719L70.1661 43.3021L70.2387 68.8252Z" fill="#6E7CF8"/>
<path d="M70.1661 43.3023L39.7579 25.6721C39.7311 16.2517 46.3875 4.73117 54.5913 0L84.9995 17.6302C76.7957 22.3652 70.1393 33.8819 70.1661 43.3023Z" fill="#6E7CF8"/>
<path d="M70.1661 43.3023L39.7579 25.6721C39.7388 19.257 42.8186 11.8719 47.3771 6.31592L77.7853 23.9461C73.2268 29.5021 70.1508 36.8872 70.1661 43.3023Z" fill="#6E7CF8"/>
<path d="M77.7851 23.9461L47.377 6.31587C49.5129 3.71162 51.9737 1.51214 54.5912 0L84.9993 17.6302C82.3819 19.1424 79.9211 21.3418 77.7851 23.9461Z" fill="#6E7CF8"/>
<path d="M30.4082 99.4121L0 81.7819L3.92807 79.5137L34.3363 97.1439L30.4082 99.4121Z" fill="#6E7CF8"/>
<path d="M25.6468 50.0958L56.055 67.726C54.7749 66.9814 53.0019 67.0845 51.0493 68.211C47.1671 70.4487 44.0224 75.8939 44.0338 80.3501C44.0529 86.5133 39.7007 94.0434 34.3321 97.1403L3.92773 79.5139C9.29636 76.417 13.6447 68.8869 13.6295 62.7237C13.618 58.2675 16.7628 52.8261 20.645 50.5846C22.5975 49.4581 24.3705 49.355 25.6506 50.0996L25.6468 50.0958Z" fill="#6E7CF8"/>
<path d="M34.3359 97.1442L3.92773 79.514C5.63958 78.525 7.24826 77.0854 8.64677 75.3823L39.055 93.0125C37.6564 94.7156 36.0478 96.1552 34.3359 97.1442Z" fill="#6E7CF8"/>
<path d="M39.0547 93.0124L8.64648 75.3822C11.6269 71.747 13.6406 66.9165 13.6292 62.7199C13.6215 59.688 15.0774 56.1941 17.2286 53.5669L47.6368 71.1971C45.4817 73.8243 44.0259 77.3144 44.0374 80.3502C44.0488 84.5467 42.0351 89.3772 39.0547 93.0124Z" fill="#6E7CF8"/>
<path d="M47.6367 71.2012L17.2285 53.571C18.2373 52.3415 19.4027 51.299 20.6407 50.5849C21.3859 50.1573 22.1004 49.8747 22.7767 49.7334L53.1849 67.3636C52.5124 67.5049 51.794 67.7875 51.0489 68.2151C49.8109 68.9292 48.6455 69.9717 47.6367 71.2012Z" fill="#6E7CF8"/>
<path d="M53.1855 67.3634L22.7773 49.7332C23.874 49.5041 24.8522 49.6377 25.647 50.0997L56.0552 67.73C55.2642 67.2679 54.2822 67.1343 53.1855 67.3634Z" fill="#6E7CF8"/>
<path d="M68.5086 43.959L41.4248 28.2305L41.4707 44.5853L68.5545 60.3139L68.5086 43.959ZM48.4212 35.6537L49.8809 36.5014L50.5457 35.3979L59.5023 40.5987L60.1787 42.4813L61.6383 43.329L61.6689 54.441L48.448 46.7619L48.4174 35.6499L48.4212 35.6537Z" fill="#6775F2"/>
<path d="M50.4533 37.5706L49.4446 36.9864C49.2573 36.8795 49.1045 36.9673 49.1045 37.185C49.1045 37.4026 49.2612 37.6737 49.4484 37.7806L50.4572 38.3649C50.6444 38.4756 50.7972 38.384 50.7972 38.1625C50.7972 37.941 50.6444 37.6775 50.4572 37.5668L50.4533 37.5706Z" fill="#6775F2"/>
<path d="M55.0352 41.0529C53.0712 39.9112 51.4816 40.8429 51.4893 43.1379C51.4969 45.429 53.0941 48.2127 55.0582 49.3544C57.0222 50.4962 58.6118 49.5606 58.6041 47.2695C58.5965 44.9784 56.9993 42.1947 55.0352 41.0529Z" fill="#6775F2"/>
<path d="M61.6458 43.3325L60.1862 42.4848L59.5099 40.6022L50.5532 35.4014L49.8884 36.5049L48.4287 35.6572L48.4593 46.7692L61.6802 54.4483L61.6497 43.3363L61.6458 43.3325ZM50.4577 38.3646L49.4489 37.7803C49.2617 37.6696 49.1089 37.4023 49.105 37.1846C49.105 36.967 49.2579 36.8753 49.4451 36.9861L50.4539 37.5703C50.6411 37.6772 50.794 37.9445 50.794 38.166C50.794 38.3836 50.6411 38.4753 50.4539 38.3684L50.4577 38.3646ZM55.0621 49.3505C53.0981 48.2088 51.5009 45.425 51.4932 43.1339C51.4856 40.8428 53.0751 39.9072 55.0392 41.049C57.0032 42.1907 58.6043 44.9745 58.6081 47.2656C58.6157 49.5567 57.0262 50.4923 55.0621 49.3505Z" fill="#8591FF"/>
<path d="M71.4852 13.8457C69.2308 15.6977 67.3049 17.9125 65.6581 20.3143C65.295 20.8413 64.9473 21.3797 64.5996 21.9181C66.4223 22.9758 68.2449 24.0336 70.0676 25.0951C70.977 25.6259 71.8902 26.1529 72.7997 26.6836C72.9105 26.7486 73.0213 26.8135 73.1321 26.8746C73.2162 26.9242 73.2544 26.9739 73.327 26.928C73.3843 26.8898 73.434 26.7524 73.4683 26.6989C73.5371 26.5882 73.6097 26.4774 73.6785 26.3667C73.9116 26.0039 74.1523 25.645 74.3969 25.2861C74.9356 24.4956 78.9401 19.8599 80.1782 18.8938C77.2818 17.2098 74.3816 15.5297 71.4852 13.8457Z" fill="#6775F2"/>
<path d="M64.6717 19.1617C58.9668 15.8473 53.2581 12.5328 47.5532 9.21826C47.5265 9.25645 47.4997 9.29463 47.473 9.33282C47.3125 9.56193 47.1558 9.79104 47.003 10.024C46.9609 10.0851 46.9189 10.1462 46.8769 10.2111C46.8539 10.2416 46.8348 10.276 46.8119 10.3065C46.617 10.6044 46.426 10.9022 46.2387 11.2077C46.2311 11.2192 46.2235 11.2306 46.2158 11.2421C51.9245 14.5566 57.6294 17.8711 63.3381 21.1856C63.724 20.5708 64.2628 19.7651 64.6717 19.1617Z" fill="#7986FD"/>
<path d="M66.1659 17.214L49.0436 7.27051C48.9596 7.37361 48.8717 7.47671 48.7876 7.57981C48.7379 7.64472 48.6844 7.70582 48.6348 7.77074C54.3435 11.0852 60.0483 14.3997 65.7532 17.7142C65.8793 17.5577 66.0169 17.3896 66.1659 17.2178V17.214Z" fill="#7986FD"/>
<path d="M66.1652 17.2142C66.5397 16.7674 66.9562 16.2863 67.2925 15.9006C61.5876 12.5861 55.8789 9.27161 50.174 5.96094C50.1243 6.0144 50.0747 6.07168 50.025 6.12514C49.8645 6.30079 49.7078 6.48026 49.5512 6.66355C49.4671 6.76283 49.3792 6.86211 49.2952 6.96521C49.2111 7.06831 49.127 7.17142 49.043 7.27452L66.1652 17.218V17.2142Z" fill="#7986FD"/>
<path d="M70.2201 13.0978C64.5152 9.78329 58.8065 6.46879 53.1017 3.1543C53.0367 3.20776 52.9717 3.26122 52.9106 3.31849C52.7272 3.47124 52.5476 3.6278 52.3642 3.78817C52.2687 3.876 52.1693 3.96383 52.0738 4.05165C51.9018 4.20821 51.7337 4.36859 51.5656 4.52897C51.5083 4.58243 51.4548 4.63589 51.3975 4.69317C57.1023 8.00766 62.811 11.3222 68.5159 14.6328C69.0165 14.1593 69.7043 13.5522 70.2201 13.0978Z" fill="#7986FD"/>
<path d="M71.3312 30.6475C71.3618 30.5826 71.3923 30.5177 71.4229 30.4527C71.4382 30.4184 71.4535 30.3878 71.4726 30.3535C71.5758 30.1358 71.6789 29.922 71.7859 29.7081C71.805 29.6661 71.8241 29.6279 71.847 29.5898C71.8738 29.5401 71.8967 29.4905 71.9235 29.437C72.0572 29.1735 72.1948 28.91 72.3361 28.6504C72.3438 28.6351 72.3514 28.6237 72.3591 28.6084L72.3667 28.5969C72.3667 28.5969 72.3782 28.574 72.3858 28.5626C63.433 23.1937 54.3312 18.0768 45.302 12.834C45.2943 12.8454 45.2867 12.8569 45.2829 12.8722C45.1148 13.1853 44.9504 13.4984 44.79 13.8153C44.7709 13.8497 44.7556 13.8841 44.7365 13.9185C44.7021 13.9834 44.6715 14.0521 44.6371 14.117C44.5148 14.3652 44.3926 14.6172 44.2741 14.8693C44.255 14.9113 44.2359 14.9533 44.2168 14.9953C53.1696 20.3642 62.2714 25.481 71.2968 30.7239C71.3083 30.7009 71.3197 30.678 71.3312 30.6513V30.6475Z" fill="#7986FD"/>
<path d="M68.5115 41.7825C68.5115 41.7214 68.5153 41.6565 68.5191 41.5954V41.5534C68.5191 41.5038 68.5229 41.4541 68.5268 41.4045C68.5268 41.3396 68.5306 41.2708 68.5344 41.2059C68.5382 41.1295 68.5421 41.057 68.5497 40.9806C68.5573 40.8622 68.565 40.7439 68.5764 40.6217C68.5764 40.5949 68.5764 40.572 68.5803 40.5453C68.5841 40.4918 68.5917 40.4346 68.5956 40.3811C68.5994 40.32 68.607 40.2589 68.6108 40.194C59.9064 34.3974 50.56 29.7083 41.5308 24.4692C41.5232 24.5609 41.5117 24.6487 41.5041 24.7404C41.5002 24.79 41.4964 24.8435 41.4926 24.8931C41.4735 25.1375 41.4582 25.3819 41.4468 25.6224C41.4468 25.6912 41.4391 25.7599 41.4391 25.8286C41.4276 26.0921 41.4238 26.3594 41.4238 26.6191L68.5077 42.3477C68.5077 42.1567 68.5077 41.9658 68.5153 41.7749L68.5115 41.7825Z" fill="#7986FD"/>
<path d="M68.8443 38.4526C68.8749 38.2655 68.9093 38.0822 68.9437 37.8951C68.9551 37.8264 68.9704 37.7615 68.9857 37.6927C69.001 37.6087 69.0163 37.5285 69.0354 37.4445C69.0354 37.4331 69.0354 37.4254 69.043 37.414C69.0736 37.2765 69.1042 37.1391 69.1347 37.0016C69.1462 36.9481 69.1577 36.8947 69.1691 36.8412C69.2035 36.6923 69.2417 36.5434 69.2799 36.3944C69.2876 36.3639 69.2952 36.3333 69.3029 36.3028C59.945 31.6289 51.2482 25.8171 42.2228 20.5742C42.2037 20.6506 42.1846 20.7231 42.1655 20.7995C42.1082 21.0248 42.0585 21.2501 42.0089 21.4754C41.9821 21.6014 41.9515 21.7274 41.9286 21.8572C41.8789 22.094 41.8369 22.3269 41.7949 22.5599C41.7796 22.6439 41.7643 22.7241 41.749 22.8081C50.7018 28.1769 59.8036 33.2938 68.829 38.5366C68.8329 38.5099 68.8405 38.4794 68.8443 38.4526Z" fill="#7986FD"/>
<path d="M69.8186 34.5198C69.8568 34.3976 69.895 34.2792 69.937 34.157C69.9562 34.0998 69.9753 34.0425 69.9982 33.9852C70.0479 33.8363 70.1014 33.6874 70.1549 33.5384C70.1701 33.4964 70.1854 33.4582 70.2007 33.4162C70.216 33.378 70.2275 33.3399 70.2427 33.3055C70.2657 33.2406 70.2886 33.1757 70.3153 33.1069C70.3994 32.8778 70.4873 32.6449 70.579 32.4158C70.5828 32.4043 70.5866 32.3929 70.5905 32.3814C61.2326 27.7075 52.5358 21.8957 43.5066 16.6528C43.476 16.7292 43.4493 16.8018 43.4187 16.8781C43.3194 17.1263 43.2239 17.3784 43.136 17.6304C43.0901 17.7526 43.0481 17.8786 43.0061 18.0008C42.9258 18.2261 42.8494 18.4514 42.7768 18.6805C42.7539 18.7492 42.7309 18.8218 42.708 18.8905C51.6608 24.2594 60.7626 29.3762 69.788 34.6191C69.7995 34.5847 69.811 34.5542 69.8224 34.5236L69.8186 34.5198Z" fill="#7986FD"/>
<path d="M39.0438 59.1685C39.0438 59.1685 39.0322 59.184 39.0283 59.1918C39.0322 59.184 39.0399 59.1762 39.0438 59.1685Z" fill="#D7CBD4"/>
<path d="M39.357 58.6948L39.3379 58.7254C39.3379 58.7254 39.3494 58.7063 39.357 58.6948Z" fill="#D7CBD4"/>
<path d="M39.1357 59.0309C39.1625 58.9889 39.1931 58.9469 39.2198 58.9087C39.1931 58.9507 39.1663 58.9927 39.1357 59.0309Z" fill="#D7CBD4"/>
<path d="M39.0631 59.1377C39.0631 59.1377 39.0516 59.1568 39.0439 59.1644C39.0516 59.1568 39.0554 59.1453 39.0631 59.1377Z" fill="#D7CBD4"/>
<path d="M67.8473 71.6205C67.9657 71.3074 68.0689 70.9866 68.1606 70.6659C68.2103 70.494 68.2523 70.3222 68.2943 70.1504C68.3134 70.0663 68.3364 69.9785 68.3516 69.8945C68.3631 69.8372 68.4472 69.5967 68.4166 69.5508C68.409 69.5356 68.3784 69.5356 68.3669 69.5241C68.279 69.4325 68.0956 69.3676 67.9848 69.3026C67.3964 68.9628 66.8117 68.6191 66.2233 68.2793C64.0988 67.0459 61.9743 65.8125 59.8497 64.5791C57.1826 63.0288 54.5155 61.4823 51.8446 59.9319C49.5022 58.5725 47.1599 57.2131 44.8176 55.8499C44.0419 55.3993 43.2624 54.9487 42.4867 54.4943C42.246 54.353 42.0014 54.2118 41.7607 54.0705C41.6614 54.0132 41.4932 53.8681 41.3786 53.849C41.3633 53.849 41.3442 53.8299 41.3289 53.8223C41.2296 54.3683 41.0882 54.9029 40.9163 55.4299C40.8781 55.5406 40.7137 55.8194 40.7787 55.911C40.8322 55.9874 41.0309 56.0561 41.1073 56.1019C41.6728 56.4303 42.2384 56.7587 42.8039 57.0871C44.9093 58.3091 47.0185 59.5348 49.1239 60.7567C51.8178 62.3185 54.5079 63.8841 57.1979 65.4459C59.5593 66.8168 61.9246 68.1914 64.286 69.5623C65.4514 70.2382 66.6169 70.9179 67.7823 71.5938L67.832 71.6205H67.8473Z" fill="#7986FD"/>
<path d="M68.5507 65.5493L41.4707 49.9238V52.4097L68.5584 68.1383V65.5493H68.5507Z" fill="#7986FD"/>
<path d="M68.5507 61.5664L41.4707 45.9409V48.4268L68.5584 64.1554V61.5664H68.5507Z" fill="#7986FD"/>
<path d="M25.4717 50.5767C25.4297 50.5767 25.3838 50.5767 25.3418 50.5767C25.2883 50.5767 25.2348 50.5767 25.1813 50.5843H25.1622C25.0934 50.5881 25.0246 50.5958 24.9559 50.6034C24.8985 50.611 24.8374 50.6148 24.7801 50.6225C24.7075 50.6339 24.6349 50.6454 24.5623 50.6607C24.5203 50.6683 24.4782 50.6759 24.4362 50.6836C24.4133 50.6874 24.3903 50.6912 24.3674 50.695H24.3521C24.3139 50.7065 24.2757 50.7179 24.2375 50.7256C24.1573 50.7447 24.0732 50.7676 23.9929 50.7905C23.9738 50.7943 23.9586 50.802 23.9395 50.8058C25.4335 51.7146 26.939 52.6119 28.4445 53.5055C31.8758 55.5369 35.3301 57.5302 38.7882 59.5121C38.8226 59.4662 38.8531 59.4242 38.8875 59.3784C38.9334 59.3135 38.9792 59.2486 39.0251 59.1875C39.0289 59.1798 39.0366 59.1722 39.0404 59.1646C39.048 59.1569 39.0518 59.1455 39.0595 59.1378C39.0862 59.1035 39.1092 59.0653 39.1321 59.0271C39.1588 58.9851 39.1894 58.9431 39.2161 58.9049C39.2314 58.8782 39.2505 58.8553 39.2658 58.8285C39.2887 58.7942 39.3117 58.7598 39.3346 58.7254L39.3537 58.6949C34.7264 55.9875 30.1029 53.2687 25.4679 50.5767H25.4717Z" fill="#7986FD"/>
<path d="M39.3575 58.6987C39.3575 58.6987 39.346 58.7178 39.3384 58.7293C39.3155 58.7636 39.2926 58.798 39.2696 58.8324C39.2543 58.8591 39.2352 58.882 39.22 58.9088C39.1932 58.9508 39.1665 58.9928 39.1359 59.0309C39.1091 59.0691 39.0862 59.1035 39.0633 59.1417L39.0442 59.1684C39.0442 59.1684 39.0327 59.1837 39.0289 59.1913C38.983 59.2562 38.9372 59.3212 38.8913 59.3822C38.857 59.4281 38.8264 59.4739 38.792 59.5159C42.8729 61.8528 46.9576 64.1783 51.0233 66.5382C51.0309 66.5382 51.0386 66.5382 51.0462 66.5306C51.0538 66.5306 51.0653 66.5267 51.073 66.5229H51.0921C51.0921 66.5229 51.1303 66.5038 51.1494 66.5C51.1647 66.4962 51.1838 66.4924 51.1991 66.4886C51.2602 66.4733 51.3175 66.458 51.3748 66.4427C51.3977 66.4389 51.4245 66.4313 51.4474 66.4236C51.4589 66.4236 51.4742 66.416 51.4856 66.416H51.5047C51.5047 66.416 51.5162 66.4084 51.5238 66.4084C51.5468 66.4046 51.5697 66.4007 51.5888 66.3969C51.6041 66.3969 51.6194 66.3931 51.6347 66.3893C51.692 66.3778 51.7531 66.3664 51.8066 66.3587H51.8142C51.8372 66.3549 51.8601 66.3511 51.883 66.3511C51.9251 66.3473 51.9633 66.3396 52.0053 66.3358C52.0473 66.332 52.0932 66.3244 52.1352 66.3205C52.1467 66.3205 52.1581 66.3205 52.1658 66.3205C52.1964 66.3205 52.2269 66.3205 52.2537 66.3167C52.2919 66.3167 52.3301 66.3129 52.3683 66.3091C52.3951 66.3091 52.418 66.3091 52.4447 66.3091C52.4638 66.3091 52.4868 66.3091 52.5059 66.3091C52.5211 66.3091 52.5364 66.3091 52.5479 66.3091C48.1269 63.8118 43.7403 61.2648 39.3575 58.7025V58.6987Z" fill="#7986FD"/>
<path d="M39.8197 88.449C40.0375 88.048 40.2438 87.6432 40.4387 87.2308C40.5419 87.0132 40.645 86.7917 40.7406 86.5702C40.7673 86.5053 40.7941 86.4328 40.7941 86.4328C40.7941 86.4328 40.7138 86.3869 40.6298 86.3373C40.4922 86.2571 40.3546 86.1769 40.2171 86.0967C39.2656 85.543 38.3142 84.9894 37.3627 84.4357C35.4598 83.3283 33.5531 82.2209 31.6502 81.1135C27.8253 78.895 24.0042 76.6764 20.1793 74.4578C18.0242 73.2092 15.873 71.9605 13.7179 70.708C13.5306 71.1433 13.3281 71.5748 13.1141 72.0025C13.0186 72.1896 12.8428 72.4225 12.7932 72.6211C12.7626 72.7509 12.7053 72.7013 12.8581 72.7968C12.9919 72.8769 13.1256 72.9609 13.2593 73.0411C14.207 73.6216 15.1546 74.1943 16.106 74.7671C18.0089 75.9089 19.9233 77.0315 21.8415 78.1465C25.6511 80.3575 29.4875 82.5302 33.3162 84.7144C35.4866 85.9516 37.657 87.1965 39.8197 88.4528V88.449Z" fill="#7986FD"/>
<path d="M34.8867 94.6158C35.4331 94.1537 35.9489 93.6611 36.438 93.1418C32.6169 90.9156 28.7959 88.6932 24.9709 86.4746C21.146 84.2561 17.3211 82.0375 13.4962 79.8189C12.4187 79.1927 11.3411 78.5703 10.2674 77.944C10.0038 77.7913 9.74393 77.6385 9.48027 77.4858C9.32361 77.3941 9.32361 77.4476 9.20898 77.566C9.10199 77.6767 8.99882 77.7836 8.88801 77.8906C8.54029 78.2342 8.18111 78.5703 7.80664 78.8872C11.3564 80.8728 14.8833 82.9043 18.3949 84.9549C21.9103 87.0054 25.4142 89.0712 28.9219 91.1294C30.9089 92.2941 32.8921 93.4588 34.8828 94.6158H34.8867Z" fill="#7986FD"/>
<path d="M37.5879 91.8097C38.0503 91.2292 38.4897 90.6221 38.8947 89.9997C35.0889 87.7811 31.2793 85.5663 27.4697 83.3554C23.6601 81.1445 19.8466 78.9335 16.037 76.7226C14.9595 76.0964 13.8819 75.4739 12.8082 74.8477C12.5445 74.6949 12.2847 74.5422 12.021 74.3895C11.9752 74.3627 11.9064 74.2978 11.8567 74.294C11.7765 74.2864 11.7803 74.3207 11.723 74.4086C11.6466 74.5231 11.5702 74.6377 11.4937 74.7522C11.1842 75.2066 10.8556 75.6496 10.5117 76.0811C14.0271 78.1316 17.5463 80.1746 21.0656 82.2213C24.5848 84.2642 28.1078 86.3071 31.627 88.3501C33.614 89.5033 35.6048 90.6565 37.5917 91.8097H37.5879Z" fill="#7986FD"/>
<path d="M33.2401 95.8415C33.3509 95.769 33.4579 95.6964 33.5687 95.6201C29.9005 93.4817 26.2284 91.3471 22.5602 89.2164C18.9149 87.1009 15.2695 84.9892 11.628 82.8738C10.5925 82.2742 9.55702 81.6709 8.52151 81.0714C8.00948 80.7736 7.50128 80.4795 6.98925 80.1817C6.86698 80.1091 6.74088 80.0366 6.61479 79.964C6.46576 79.8762 6.45048 79.9182 6.31292 80.006C6.07601 80.1626 5.83528 80.3153 5.58691 80.4566C6.50015 80.9874 7.41721 81.5182 8.33045 82.049C10.5199 83.3205 12.7094 84.5921 14.8989 85.8637C17.5202 87.3873 20.1414 88.9071 22.7627 90.4307C25.0171 91.7404 27.2716 93.0502 29.5222 94.3561C30.2444 94.7762 30.9665 95.1962 31.6887 95.6124C31.9065 95.7384 32.1205 95.8644 32.3383 95.9905C32.4224 96.0401 32.5523 96.1508 32.6478 96.1699C32.7968 96.1967 33.1102 95.9179 33.2401 95.8339V95.8415Z" fill="#7986FD"/>
<path d="M25.2381 54.0094C24.2293 53.4099 23.2206 52.8027 22.2156 52.1956C22.0972 52.123 21.9405 51.9893 21.8068 51.9473C21.6998 51.913 21.78 51.8863 21.6577 51.9435C21.6157 51.9626 21.566 52.0046 21.524 52.0352C21.3177 52.1803 21.1151 52.333 20.9165 52.4934C20.542 52.7951 20.1828 53.1196 19.8465 53.4633C18.4671 54.8533 17.3628 56.5143 16.5566 58.2976C15.7695 60.0312 15.2995 61.8908 15.288 63.8001C15.2804 64.7318 15.1772 65.6597 15.0014 66.5724C14.9174 67.0115 14.818 67.4544 14.6996 67.8859C14.669 68.0005 14.6346 68.1151 14.604 68.2334C14.5658 68.3709 14.5582 68.3213 14.6499 68.4167C14.6804 68.4511 14.7798 68.4931 14.8142 68.5122C15.0778 68.6649 15.3377 68.8177 15.6013 68.9704C19.7013 71.3494 23.8014 73.7283 27.9014 76.1073C31.9861 78.4786 36.0747 80.8499 40.1556 83.2289C40.6523 83.5191 41.1491 83.8054 41.6458 84.0957C42.047 82.7439 42.3069 81.3501 42.3642 79.9411C42.3909 79.2843 42.3871 78.6351 42.475 77.986C42.5553 77.4056 42.6737 76.829 42.8304 76.2638C43.4417 74.072 44.5422 72.0062 45.9866 70.2458C46.8005 69.253 47.7443 68.3442 48.8142 67.6301C45.8643 65.9194 29.2808 56.415 25.2457 54.0132L25.2381 54.0094Z" fill="#6775F2"/>
<path d="M39.0435 66.2251C38.0691 67.4623 37.2285 68.7912 36.6056 70.2384C36.3152 70.9181 36.0592 71.6131 35.8949 72.3348C35.6962 73.1978 35.6007 74.076 35.5243 74.9581C35.4364 75.9738 35.3714 76.9896 35.2109 77.9977C32.8419 76.623 30.4728 75.2445 28.1037 73.8698C26.9192 73.1825 25.7346 72.4951 24.5501 71.8078C23.9578 71.4641 23.3656 71.1205 22.7733 70.7768C22.6205 70.689 22.4714 70.6012 22.3186 70.5133C22.2651 70.4828 22.2078 70.4484 22.1543 70.4179C22.032 70.3453 22.0091 70.3682 22.0014 70.2346C21.9823 69.9214 22.0817 69.5625 22.1123 69.2494C22.2269 67.9625 22.2575 66.668 22.4905 65.3965C22.716 64.1669 23.1554 62.9679 23.7095 61.849C24.2139 60.8295 24.8252 59.8596 25.513 58.9508C25.5856 58.8515 25.7155 58.6033 25.8263 58.5498C25.9142 58.5078 25.769 58.5078 25.9219 58.5422C25.983 58.5575 26.0594 58.6224 26.1129 58.6529C26.3651 58.798 26.6173 58.947 26.8695 59.0921C26.9803 59.157 27.0911 59.2181 27.1981 59.283C27.3471 59.3708 27.3968 59.3135 27.542 59.2372C27.7522 59.1264 27.9623 59.0195 28.1763 58.9164C28.44 58.7904 28.7036 58.672 28.9711 58.5536C29.0208 58.5307 29.1201 58.4658 29.1698 58.4658C29.2462 58.4696 29.3876 58.5918 29.4602 58.6338C29.6245 58.7293 31.2752 59.6878 31.9363 60.0734C32.5973 60.4553 36.426 62.6815 36.5483 62.7502C36.8043 62.8991 37.0603 63.0481 37.3202 63.197C37.4424 63.2657 37.5647 63.3383 37.6832 63.407C37.7787 63.4605 38.0271 63.5559 38.0882 63.6438C38.1608 63.7469 37.9736 64.1287 37.9277 64.2776C37.8704 64.4571 37.8169 64.6366 37.7672 64.8161C37.7367 64.9306 37.7023 65.0452 37.6717 65.1635C37.6641 65.1941 37.6144 65.3048 37.6259 65.3316C37.6335 65.3545 37.7519 65.4041 37.7825 65.4232C38.2181 65.6752 38.6537 65.9273 39.0893 66.1831L39.0549 66.2251H39.0435Z" fill="#8591FF"/>
<path d="M25.6547 60.104C25.6547 60.104 25.647 60.1269 25.6432 60.1384C25.6356 60.1689 25.6279 60.1995 25.6279 60.23C25.6279 60.23 25.6279 60.2338 25.6279 60.2377C25.6279 60.2682 25.6279 60.3026 25.6356 60.3331C25.6356 60.3446 25.6394 60.3522 25.6432 60.3637C25.6432 60.3751 25.6509 60.3866 25.6547 60.398C25.67 60.4362 25.6929 60.4706 25.7196 60.505C25.7311 60.5164 25.7426 60.5279 25.754 60.5355C25.7922 60.5622 25.9069 60.6271 26.289 60.8524C26.6825 61.0816 26.801 61.1465 26.843 61.1694C26.8545 61.1732 26.8736 61.1808 26.8889 61.1847C26.9347 61.1961 26.9806 61.1961 27.0226 61.1923C27.0341 61.1923 27.0417 61.1923 27.0532 61.1885C27.0685 61.1885 27.0799 61.1808 27.0952 61.177C27.122 61.1694 27.1487 61.1579 27.1755 61.1465C27.1908 61.1388 27.206 61.1312 27.2213 61.1236C27.2366 61.1121 27.2519 61.1045 27.2672 61.093C27.2825 61.0816 27.2977 61.0701 27.313 61.0586C27.3207 61.051 27.3283 61.0434 27.336 61.0357C27.3589 61.0128 27.378 60.9899 27.3933 60.967C27.4009 60.9594 27.4047 60.9479 27.4124 60.9403C27.4812 60.8295 27.5117 60.7188 27.5003 60.6195C27.5003 60.6004 27.4926 60.5813 27.4888 60.5622C27.4888 60.5546 27.485 60.5431 27.4812 60.5355C27.4697 60.505 27.4506 60.4744 27.4277 60.4477C27.3742 60.3942 27.2481 60.3178 26.8392 60.0773C26.4342 59.8443 26.3004 59.7718 26.224 59.7489C26.1858 59.7412 26.1476 59.7374 26.1132 59.7412C26.0979 59.7412 26.0826 59.7412 26.0712 59.7451C26.0521 59.7451 26.0368 59.7527 26.0177 59.7565C26.0062 59.7565 25.9948 59.7642 25.9833 59.768C25.9145 59.7947 25.8496 59.8329 25.7922 59.8902L25.7808 59.9016C25.7808 59.9016 25.7502 59.9322 25.7387 59.9513C25.7235 59.9704 25.712 59.9856 25.7005 60.0047C25.6967 60.0124 25.6929 60.0162 25.6891 60.0238C25.6738 60.0505 25.6623 60.0773 25.6547 60.104Z" fill="#6775F2"/>
<path d="M32.8689 70.3605C33.6293 67.4203 33.1096 65.4728 32.0664 64.396C32.0664 64.396 31.8563 64.1821 31.4665 63.9034C31.1265 63.6628 30.5762 63.5101 30.4883 63.491C29.8349 63.3459 29.3076 63.3115 28.6848 63.4528H28.6657C28.5816 63.4757 28.4975 63.4986 28.4173 63.5254C27.3092 63.8652 26.3042 64.7282 25.7808 66.1601C25.7349 66.3129 25.6967 66.4656 25.6661 66.6184C25.54 67.363 25.6394 68.142 25.8839 68.8904C26.1399 69.5854 26.5641 70.4255 27.1105 71.1739C27.8747 72.1705 28.7879 72.9075 29.4987 73.1023C29.5789 73.1252 29.6592 73.1404 29.7394 73.1519C30.026 73.1977 30.4425 73.2092 30.8895 73.0412C31.4551 72.8159 31.9327 72.35 32.3033 71.739C32.5135 71.3725 32.7084 70.9219 32.8689 70.3605Z" fill="#6775F2"/>
<defs>
<linearGradient id="paint0_linear_8458_52957" x1="121.852" y1="110.95" x2="198.807" y2="24.0964" gradientUnits="userSpaceOnUse">
<stop stop-color="#6775F2"/>
<stop offset="1" stop-color="#B3BAFF"/>
</linearGradient>
</defs>
</svg>
