<svg width="24" height="24" viewBox="0 0 24 24" fill="none" xmlns="http://www.w3.org/2000/svg">
<g clip-path="url(#clip0_3422_20606)">
<path d="M17.8852 14.2462H17.8819L21.0934 10.9517C21.5952 10.3605 22.4784 10.2878 23.0702 10.7857C23.6621 11.285 23.7364 12.1683 23.2366 12.7584L19.0274 17.7808C18.329 18.4592 17.3929 18.8386 16.4185 18.8386H10.1608C9.67442 18.8386 9.20677 19.0271 8.8569 19.3643L8.1258 20.0682L8.11791 20.0744C8.09058 20.0378 8.06049 20.0032 8.02728 19.9699L4.04318 15.9935C3.99053 15.9412 3.93329 15.8956 3.87219 15.8586C4.78969 13.8216 6.71111 12.7465 8.93304 12.7465C9.73496 12.7465 10.498 12.9139 11.1882 13.2151H16.5072C17.1601 13.2151 17.7114 13.6503 17.8852 14.2462Z" fill="#FED2A4"/>
<path d="M19.5446 4.21765V8.52887C19.5446 9.04669 19.1243 9.46619 18.6054 9.46619H7.33652C6.81768 9.46619 6.39737 9.04669 6.39737 8.52887V4.21765H19.5446Z" fill="#E87288"/>
<path d="M6.39737 2.3432H19.5446V4.21765H6.39737V2.3432Z" fill="#424D63"/>
<path d="M19.5446 1.40588V2.3432H6.39737V1.40588C6.39737 0.888062 6.81768 0.468567 7.33652 0.468567H18.6054C19.1243 0.468567 19.5446 0.888062 19.5446 1.40588Z" fill="#E87288"/>
<path d="M8.02728 21.2956L5.75325 23.5315L0.481232 18.2295L2.7149 15.9936C3.08146 15.6277 3.67644 15.6275 4.04318 15.9936L8.02728 19.9699C8.39623 20.3381 8.39183 20.9317 8.02728 21.2956Z" fill="#E87288"/>
<path d="M13.9218 7.12299C13.6626 7.12299 13.4523 7.33301 13.4523 7.59174C13.4523 7.85028 13.6626 8.0603 13.9218 8.0603C14.181 8.0603 14.3913 7.85028 14.3913 7.59174C14.3913 7.33301 14.181 7.12299 13.9218 7.12299Z" fill="black"/>
<path d="M11.0744 16.2781C11.2577 16.0948 11.2577 15.7982 11.0744 15.6149C10.8909 15.4322 10.5937 15.4322 10.4101 15.6149C10.227 15.7982 10.227 16.0948 10.4101 16.2781C10.5937 16.4608 10.8909 16.4608 11.0744 16.2781Z" fill="black"/>
<path d="M5.43181 23.8614C5.61381 24.0445 5.9101 24.0465 6.09448 23.8652L8.3709 21.6269C8.75765 21.241 8.87525 20.6695 8.70517 20.1727L9.19484 19.7014C9.45848 19.4473 9.80559 19.3072 10.1725 19.3072H16.4145C17.5219 19.3072 18.5686 18.8827 19.362 18.1121C19.3947 18.0804 19.1142 18.4101 23.6204 13.0349C24.2888 12.2457 24.1888 11.0607 23.3973 10.3929C22.6108 9.73131 21.4326 9.82634 20.7624 10.602L17.9917 13.4441C17.6419 13.0144 17.1084 12.7465 16.5319 12.7465H11.2961C10.551 12.4354 9.76046 12.2779 8.94478 12.2779C6.6845 12.2779 4.70988 13.3194 3.65001 15.2743C3.20365 15.1899 2.73288 15.3246 2.3942 15.6626L0.160531 17.8985C-0.0218321 18.0811 -0.022199 18.3765 0.159797 18.5594L5.43181 23.8614ZM8.9446 13.2151C9.66377 13.2151 10.3591 13.3595 11.0117 13.6445C11.0711 13.6705 11.1352 13.6838 11.1999 13.6838H16.5319C17.041 13.6838 17.4711 14.0982 17.4711 14.621C17.4711 15.1379 17.0498 15.5583 16.5319 15.5583H12.701C12.4418 15.5583 12.2315 15.7681 12.2315 16.0268C12.2315 16.2858 12.4418 16.4954 12.701 16.4954H16.5319C17.5676 16.4954 18.41 15.6546 18.41 14.621C18.41 14.5386 18.4042 14.4569 18.3935 14.376C21.0738 11.6263 21.4517 11.2399 21.4678 11.2207C21.8025 10.8265 22.3965 10.7765 22.7917 11.109C23.1873 11.4428 23.2373 12.0353 22.9018 12.4318L18.6904 17.4565C18.0754 18.0458 17.268 18.37 16.4145 18.37H10.1725C9.56085 18.37 8.98184 18.6035 8.54263 19.027L8.14359 19.4114L4.46514 15.7403C5.32485 14.1306 6.93805 13.2151 8.9446 13.2151ZM3.05871 16.3249C3.21355 16.1704 3.45132 16.1426 3.64011 16.259C3.71184 16.3026 7.72786 20.3207 7.75263 20.3538C7.89005 20.5386 7.87041 20.801 7.70952 20.9617L5.76884 22.8699L1.15527 18.2302L3.05871 16.3249Z" fill="black"/>
<path d="M7.33652 9.93476H18.6054C19.3835 9.93476 20.0141 9.30542 20.0141 8.52887V1.40588C20.0141 0.629334 19.3835 0 18.6054 0H7.33652C6.55845 0 5.92789 0.629334 5.92789 1.40588V8.52887C5.92789 9.30542 6.55864 9.93476 7.33652 9.93476ZM19.0749 3.7489H6.86704V2.81177H19.0749V3.7489ZM18.6054 8.99762H7.33652C7.0771 8.99762 6.86704 8.78778 6.86704 8.52887V4.68622H19.0749V8.52887C19.0749 8.78778 18.8648 8.99762 18.6054 8.99762ZM7.33652 0.937317H18.6054C18.8648 0.937317 19.0749 1.14697 19.0749 1.40588V1.87445H6.86704V1.40588C6.86704 1.14697 7.07729 0.937317 7.33652 0.937317Z" fill="black"/>
<path d="M17.678 7.12299H15.7999C15.5407 7.12299 15.3304 7.33282 15.3304 7.59174C15.3304 7.85046 15.5407 8.0603 15.7999 8.0603H17.678C17.9374 8.0603 18.1477 7.85046 18.1477 7.59174C18.1477 7.33282 17.9374 7.12299 17.678 7.12299Z" fill="black"/>
</g>
<defs>
<clipPath id="clip0_3422_20606">
<rect width="24" height="24" fill="white"/>
</clipPath>
</defs>
</svg>
