<?xml version="1.0" encoding="utf-8"?>
<!-- Generator: Adobe Illustrator 17.1.0, SVG Export Plug-In . SVG Version: 6.00 Build 0)  -->
<!DOCTYPE svg PUBLIC "-//W3C//DTD SVG 1.1//EN" "http://www.w3.org/Graphics/SVG/1.1/DTD/svg11.dtd">
<svg version="1.1" id="Layer_1" xmlns="http://www.w3.org/2000/svg" xmlns:xlink="http://www.w3.org/1999/xlink" x="0px" y="0px"
	 viewBox="0 0 48 48" enable-background="new 0 0 48 48" xml:space="preserve">
	   <defs>
          <style><![CDATA[
            .icon-intro { display: none; }
            .icon-intro:target {  display: inline;   }
          ]]></style>
        </defs>
<g id="icon-1" class="icon-intro">
	<path fill="#7AB142" d="M23,6.5H5v-2h18V6.5z"/>
	<path fill="#7AB142" d="M36,18.4l0-2l8.5,0c0.6-0.7,1.5-2.1,1.5-5c0-2.5-0.6-5-2-5H29v-2h15c2.5,0,4,2.6,4,6.9
		c0,3.6-1.2,5.4-2.3,6.6c-0.2,0.2-0.5,0.3-0.7,0.3L36,18.4z"/>
	<path fill="#7AB142" d="M7.5,18.3H6v-2l10,0l0,2L7.5,18.3z"/>
	<path fill="#7AB142" d="M42,22.3h-6v-2h6c1.1,0,1.9-1.8,1.9-3h2C45.9,19.4,44.4,22.3,42,22.3z"/>
	<path fill="#7AB142" d="M16,22.3H4c-0.3,0-0.6-0.1-0.8-0.3C2,20.5,0,18.3,0,13.4c0-5.9,2.7-8.9,5.4-8.9c2.3,0,4.6,2.7,4.6,7.9
		c0,3.5-1.7,6-3.9,6c-1.3,0-2.7-2-2.7-4.7c0-1.4,0.3-2.6,0.6-3.5c0.1-0.4,0.5-0.7,1-0.7h2v2H5.8c-0.2,0.7-0.3,1.4-0.3,2.2
		c0,1.5,0.6,2.4,0.8,2.7c0.9-0.2,1.7-1.7,1.7-4c0-4.1-1.6-5.9-2.6-5.9C4,6.5,2,8.7,2,13.4c0,3.8,1.3,5.6,2.5,6.9H16V22.3z"/>
	<path fill="#7AB142" d="M30,44.5l-4-4l-4,4V28.3h2v11.5l2-2l2,2V28.3h2V44.5z"/>
	<path fill="#7AB142" d="M30,10.4h-2v-5h-4v5h-2V3.5h8V10.4z"/>
	<path fill="#7AB142" d="M26,25.3c-3.3,0-6-2.7-6-5.9c0-3.3,2.7-5.9,6-5.9s6,2.7,6,5.9C32,22.6,29.3,25.3,26,25.3z M26,15.4
		c-2.2,0-4,1.8-4,4c0,2.2,1.8,4,4,4c2.2,0,4-1.8,4-4C30,17.2,28.2,15.4,26,15.4z"/>
	<path fill="#7AB142" d="M23.4,30.1c-0.4,0-0.9-0.1-1.3-0.2c-1-0.4-1.8-1.1-2.2-2.1c-0.2-0.5-0.7-0.9-1.3-1c-1-0.2-1.9-0.9-2.5-1.8
		c-0.5-0.9-0.6-2-0.3-3c0.2-0.5,0.1-1.1-0.3-1.6c-0.6-0.8-0.9-1.9-0.7-2.9c0.2-1,0.8-1.9,1.7-2.5c0.5-0.3,0.8-0.8,0.8-1.4
		c0-1,0.5-2,1.3-2.7c0.8-0.7,1.9-1,2.9-0.8c0.6,0.1,1.1-0.1,1.5-0.6c0.7-0.8,1.7-1.2,2.8-1.2c1.1,0,2.1,0.4,2.8,1.2l0,0
		c0.4,0.4,1,0.6,1.5,0.6c1.1-0.1,2.1,0.2,2.9,0.8c0.8,0.7,1.3,1.7,1.3,2.7c0,0.6,0.3,1.1,0.8,1.4c0.9,0.6,1.5,1.5,1.7,2.5
		c0.2,1-0.1,2.1-0.7,2.9c-0.4,0.5-0.5,1.1-0.3,1.6c0.3,1,0.2,2.1-0.3,3c-0.5,0.9-1.4,1.6-2.5,1.8c-0.6,0.1-1,0.5-1.3,1
		c-0.4,1-1.2,1.7-2.2,2.1c-1,0.4-2.1,0.3-3-0.2c-0.5-0.3-1.1-0.3-1.6,0C24.6,29.9,24,30.1,23.4,30.1z M21.2,11.9
		c-0.4,0-0.8,0.1-1.1,0.4c-0.4,0.3-0.6,0.8-0.6,1.3c-0.1,1.2-0.7,2.3-1.7,3c-0.4,0.3-0.7,0.7-0.8,1.2c-0.1,0.5,0,1,0.3,1.4
		c0.7,1,1,2.2,0.6,3.4c-0.2,0.5-0.1,1,0.2,1.4c0.3,0.4,0.7,0.7,1.2,0.8c1.2,0.3,2.2,1.1,2.7,2.2c0.2,0.5,0.6,0.8,1,1
		c0.5,0.2,1,0.1,1.4-0.1c1.1-0.6,2.4-0.6,3.5,0c0.4,0.2,1,0.3,1.4,0.1c0.5-0.2,0.8-0.5,1-1c0.5-1.1,1.5-2,2.7-2.2
		c0.5-0.1,0.9-0.4,1.2-0.8c0.3-0.4,0.3-0.9,0.2-1.4c-0.4-1.2-0.1-2.4,0.6-3.4c0.3-0.4,0.4-0.9,0.3-1.4c-0.1-0.5-0.4-0.9-0.8-1.2
		c-1-0.7-1.7-1.8-1.7-3c0-0.5-0.2-0.9-0.6-1.3c-0.4-0.3-0.9-0.5-1.4-0.4c-1.2,0.2-2.4-0.3-3.3-1.2v0c-0.7-0.7-1.9-0.7-2.6,0
		c-0.8,0.9-2.1,1.3-3.3,1.2C21.3,11.9,21.3,11.9,21.2,11.9z"/>
</g>
<g id="icon-4"  class="icon-intro">
	<path fill="#7AB142" d="M19,48h-2v-2.5l0.4-0.3c0,0,2.6-2,2.6-4.2v-1h2v1c0,2.6-2.1,4.7-3,5.5V48z"/>
	<path fill="#7AB142" d="M3,48l0-13.8c0-2.4,0.9-3.4,2.3-4.7l4.1-3.2l1.2,1.6l-4,3.2C5.3,32.2,5,32.6,5,34.2L5,48H3z"/>
	<path fill="#7AB142" d="M11.9,45v-2c0,0,3.2-0.6,3.2-4v-2.5l0.3-0.3c0,0,1-0.9,2.1-1.9c1.1-1.4,0.5-3.1-0.1-3.6
		c-0.3-0.3-0.4-0.2-0.6,0c-1.8,1.8-8.1,7.8-8.3,8L7,37.3c0.1-0.1,6.5-6.2,8.3-8c1-1,2.3-1,3.4-0.1c1.5,1.3,2,4.3,0.3,6.4l-0.1,0.1
		c-0.7,0.7-1.4,1.4-1.9,1.7V39C17,43.5,12.9,45,11.9,45z"/>
	<path fill="#7AB142" d="M28,8h-2V7c0-2.6,2.1-4.7,3-5.5V0h2v2.5l-0.4,0.3c0,0-2.6,2-2.6,4.2V8z"/>
	<path fill="#7AB142" d="M38.6,21.8l-1.2-1.6l4-3.2c1.3-1.2,1.6-1.7,1.6-3.2V0h2v13.8c0,2.4-0.9,3.4-2.3,4.7L38.6,21.8z"/>
	<path fill="#7AB142" d="M31,19.5c-0.6,0-1.1-0.2-1.6-0.7c-1.5-1.3-2-4.3-0.3-6.4l0.1-0.1c0.7-0.7,1.4-1.4,1.9-1.7V9
		c0-4.5,4.1-6,5.2-6v2c0,0-3.2,0.6-3.2,4v2.5l-0.3,0.3c0,0-1,0.9-2.1,1.9c-1.1,1.4-0.5,3.1,0.1,3.6c0.3,0.3,0.4,0.2,0.6,0
		c1.8-1.8,8.1-7.8,8.3-8l1.4,1.4c-0.1,0.1-6.5,6.2-8.3,8C32.2,19.2,31.6,19.5,31,19.5z"/>
	<path fill="#7AB142" d="M11,36H9V11.6L13.6,7H32v2H14.4L11,12.4V36z"/>
	<path fill="#7AB142" d="M39,41H16v-2h21V12h2V41z"/>
	<path fill="#7AB142" d="M26,20H16v-2h10V20z"/>
	<path fill="#7AB142" d="M32,24H16v-2h16V24z"/>
	<path fill="#7AB142" d="M32,28H22v-2h10V28z"/>
	<path fill="#7AB142" d="M32,32H22v-2h10V32z"/>
	<path fill="#7AB142" d="M17,15h-5v-2h3v-3h2V15z"/>
</g>
<g id="icon-2" class="icon-intro">
	<path fill="#7AB142" d="M44.2,36.8L43.4,35c0.6-0.3,1.1-0.9,1.8-2c-0.6-0.2-1.2-0.3-1.8-0.1c-1.2,0.3-2.2,1.3-3.1,2.9l-1.8-0.9
		c1.1-2.1,2.6-3.5,4.3-3.9c1.4-0.4,2.9-0.1,4.2,0.7l0.8,0.5L47.5,33C46.6,34.8,45.6,36.2,44.2,36.8z"/>
	<path fill="#7AB142" d="M39.4,43.2c-1.5,0-2.9-0.7-4.2-2.1l-0.6-0.7l0.6-0.7c1.5-1.7,3.2-2.6,5-2.6c1.6,0,3.1,0.6,4.3,1.9l0.6,0.7
		l-0.6,0.7c-1.6,1.8-3.3,2.8-4.9,2.8C39.4,43.2,39.4,43.2,39.4,43.2z M37.3,40.3c0.7,0.6,1.4,0.8,2.1,0.8c0.9,0,1.8-0.5,2.8-1.4
		c-0.7-0.5-1.4-0.7-2.1-0.7C39.2,39.1,38.2,39.5,37.3,40.3z"/>
	<path fill="#7AB142" d="M42.4,29.3l-2-0.1c0.1-2.4,1-4.3,2.4-5.5c1.2-1,2.7-1.5,4.3-1.4l1,0.1l-0.1,1c-0.2,2.8-1,4.7-2.5,5.8
		l-1.2-1.6c0.8-0.6,1.4-1.7,1.6-3.3c-0.7,0.1-1.3,0.4-1.8,0.8C43.1,26,42.5,27.5,42.4,29.3z"/>
	<path fill="#7AB142" d="M40.2,23.1c-1.2-4.2,0.3-7.8,3.8-9l1-0.3l0.3,1c0.8,2.6,0.7,4.8-0.3,6.4l-1.7-1.1c0.6-0.9,0.7-2.1,0.4-3.6
		c-1.7,1.1-2.3,3.3-1.5,6L40.2,23.1z"/>
	<path fill="#7AB142" d="M3.8,36.8c-1.4-0.6-2.3-2-3.3-3.9l-0.4-0.8l0.8-0.5c1.4-0.9,2.8-1.1,4.2-0.7c1.7,0.5,3.2,1.8,4.3,3.9
		l-1.8,0.9c-0.8-1.6-1.9-2.6-3.1-2.9c-0.6-0.2-1.2-0.1-1.8,0.1c0.7,1.2,1.2,1.8,1.8,2L3.8,36.8z"/>
	<path fill="#7AB142" d="M8.6,43.1c0,0-0.1,0-0.1,0c-1.7,0-3.3-1-4.9-2.8L3,39.6l0.6-0.7C4.9,37.7,6.3,37,7.9,37
		c1.8,0,3.5,0.9,5,2.6l0.6,0.7L12.9,41C11.5,42.4,10.1,43.1,8.6,43.1z M5.8,39.7c1,0.9,1.9,1.4,2.8,1.4c0.7,0,1.4-0.3,2.1-0.8
		c-0.9-0.8-1.9-1.2-2.8-1.2C7.2,39,6.5,39.2,5.8,39.7z"/>
	<path fill="#7AB142" d="M5.6,29.2C5.5,27.4,5,26,4,25.1c-0.5-0.4-1.1-0.7-1.8-0.8c0.2,1.5,0.8,2.6,1.6,3.3l-1.2,1.6
		C1.1,28,0.2,26,0.1,23.3l-0.1-1l1-0.1c1.6-0.1,3.1,0.4,4.3,1.4c1.4,1.2,2.2,3.1,2.4,5.5L5.6,29.2z"/>
	<path fill="#7AB142" d="M7.8,23l-1.9-0.6c0.8-2.7,0.2-4.9-1.5-6C4,17.9,4.2,19.1,4.7,20L3,21.1c-1-1.6-1.1-3.8-0.3-6.4l0.3-1L4,14
		C7.5,15.2,9,18.9,7.8,23z"/>
	<path fill="#7AB142" d="M36.9,35.1h-6v-2h4V6H13v27.1h4v2h-6V4h25.9V35.1z"/>
	<path fill="#7AB142" d="M24,37.1c-3.3,0-6-2.7-6-6c0-3.3,2.7-6,6-6c3.3,0,6,2.7,6,6C30,34.4,27.3,37.1,24,37.1z M24,27.1
		c-2.2,0-4,1.8-4,4s1.8,4,4,4c2.2,0,4-1.8,4-4C28,28.9,26.2,27.1,24,27.1z"/>
	<path fill="#7AB142" d="M29.5,44L24,41.2L18.4,44l2.6-9.2l1.9,0.6l-1.4,4.8L24,39l2.4,1.2L25,35.4l1.9-0.6L29.5,44z"/>
	<path fill="#7AB142" d="M31,19H17v-2h14V19z"/>
	<path fill="#7AB142" d="M28,15h-8v-2h8V15z"/>
</g>
<g id="icon-3" class="icon-intro">
	<path fill="#7AB142" d="M44.9,32.5l-3.7-3.7l1.4-1.4l2.3,2.3l0.3-0.3c0.4-0.4,0.7-1.1,0.7-1.8c0-0.7-0.3-1.4-0.7-1.8l-2.3-2.3
		l1.4-1.4l2.3,2.3c0.8,0.8,1.3,1.9,1.3,3.2c0,1.2-0.4,2.4-1.2,3.2L44.9,32.5z"/>
	<path fill="#7AB142" d="M18.6,47c-1.4,0-2.6-0.5-3.6-1.5l1.4-1.4c1.2,1.2,3.2,1.2,4.4,0L39.9,25c0.8-0.8,1.9-1.3,2.9-1.4L30.1,10.8
		c-1.2-1.2-3.2-1.2-4.4,0l-2.9,2.9l-1.4-1.4l2.9-2.9c2-2,5.2-2,7.2,0L47.2,25l0,0l-1.4,1.4c-1.2-1.2-3.2-1.2-4.4,0L22.2,45.5
		C21.2,46.5,20,47,18.6,47z"/>
	<path fill="#7AB142" d="M6.5,29.9l-1.4-1.4L8.6,25l1.4,1.4L6.5,29.9z"/>
	<path fill="#7AB142" d="M15,45.5L15,45.5L1.6,32.2c-1-1-1.5-2.2-1.5-3.6c0-1.4,0.5-2.6,1.5-3.6l0.7-0.7L17.1,39l-0.7,0.7
		c-0.6,0.6-0.9,1.4-0.9,2.2c0,0.8,0.3,1.6,0.9,2.2L15,45.5z M2.5,27.2c-0.2,0.4-0.3,0.9-0.3,1.4c0,0.8,0.3,1.6,0.9,2.2l10.5,10.5
		c0.1-0.8,0.4-1.5,0.8-2.2L2.5,27.2z"/>
	<path fill="#7AB142" d="M22.7,28.6l-0.3-0.5c-1.8-0.4-9.1-1.8-11.8-3.4l-1.8-1.1l1-0.4c-1.6-0.4-3.2-1-4.9-3.3
		c-0.5-0.7-1-1.6-1.5-2.4c-0.4-0.7-0.8-1.4-1.1-1.8L1,14.3h1.2c-0.5-0.7-1-1.7-1.5-3.1C-0.1,7.8,0,4.7,0.8,2.5L1.5,1l1.1,1.2
		c1.1,1.3,2.9,2.1,5.1,3.1c2.5,1.1,5.7,2.5,9.1,5.3c6.5,5.1,8.1,12.7,7.2,16.5l0.3,0.5L22.7,28.6z M13.5,23.8
		c2.4,0.9,6.1,1.7,8.7,2.2c0.4-3.2-1-9.5-6.6-14c-3.3-2.6-6.1-3.9-8.7-5C5.1,6.4,3.6,5.7,2.3,4.7C2,6.4,2.1,8.5,2.6,10.6
		c0.8,2.3,1.5,2.9,2.7,3.8l2.4,1.8h-3c0.1,0.1,0.2,0.3,0.2,0.4c0.5,0.8,1,1.6,1.4,2.2c1.7,2.1,3,2.4,4.8,2.8
		c0.6,0.1,1.3,0.3,2.1,0.5l1.6,0.5l-1.2,1.2C13.6,23.8,13.5,23.8,13.5,23.8z"/>
	<path fill="#7AB142" d="M25.4,30.8L6.9,12.4L8.3,11l18.5,18.4L25.4,30.8z"/>
	<path fill="#7AB142" d="M21,39.5l-1.4-1.4H18v-1.6l-1.4-1.4l1.4-1.4v-1.6h1.6l1.4-1.4l1.4,1.4H24v1.6l1.4,1.4L24,36.5v1.6h-1.6
		L21,39.5z M20,36.1h0.4l0.6,0.6l0.6-0.6H22v-0.4l0.6-0.6L22,34.5v-0.4h-0.4L21,33.5l-0.6,0.6H20v0.4l-0.6,0.6l0.6,0.6V36.1z"/>
</g>
</svg>
