<svg fill="none" xmlns="http://www.w3.org/2000/svg"  width="54" height="32" viewBox="0 0 54 32">
  <defs>
          <style><![CDATA[
            .all-icon { display: none; }
            .all-icon:target {  display: inline;   }
          ]]></style>
        </defs>
		<g class="all-icon" fill="none" id="icon-jcb-payment">
<path d="M30.4029 6.0127H30.374H30.3437H30.3149H30.286H30.2571H30.2282H30.1993H30.1704H30.1416H30.1141H30.0852H30.0549H30.026H29.9972H29.969H29.9401H29.9112H29.8823H29.8535H29.8246H29.7971H29.7682H29.7393H29.7105H29.6816H29.6527H29.6238H29.5949H29.566H29.5365H29.5076H29.4787H29.4498H29.4209H29.392H29.3632H29.3329H29.304H29.2751H29.2462H29.2188H29.1899H29.161H29.1335H29.1032H29.0743H29.0455H29.0166H28.9877H28.9588H28.9314H28.9025H28.8736H28.8447H28.8158H28.7869H28.7567H28.7278H28.6989H28.67H28.6411H28.6122H28.5834H28.5545H28.5249H28.496H28.4657H28.4368H28.408H28.3791H28.3502H28.3213H28.2924H28.2635H28.2347H28.2058H28.1755H28.1466H28.1177H28.0888H28.06H28.0353H28.0064H27.9775H27.9487H27.9198H27.8909H27.8627H27.8338H27.805H27.7754H27.7465H27.7176H27.6887H27.6598H27.631H27.6021H27.5732H27.5443H27.5154H27.4866H27.4577H27.4288H27.3999H27.3717H27.3429H27.3133H27.2844H27.2548H27.2259H27.197H27.1682H27.1414H27.1125H27.0836H27.0547H27.0252H26.9963H26.9674H26.9378H26.9089H26.8807H26.8526H26.8237H26.7948H26.7659H26.737H26.7082H26.6793H26.6504H26.6215H26.5926H26.5638H26.5349H26.506H26.4771H26.4475H26.4186H26.3898H26.3609H26.3313H26.3024H26.2749H26.2468H26.2179H26.189H26.1594H26.1305H26.1016H26.0728H26.0439H26.0284H26.0157C26.0058 6.0127 25.9967 6.0127 25.9868 6.0127C25.977 6.0127 25.9678 6.0127 25.9579 6.0127C25.9481 6.01481 25.9389 6.01481 25.9291 6.01551L25.8995 6.01622C25.8903 6.01622 25.8805 6.01692 25.8706 6.01763C25.8607 6.01763 25.8516 6.01904 25.8417 6.01904C25.8326 6.01974 25.8227 6.02044 25.8128 6.02115C25.803 6.02185 25.7938 6.02185 25.7839 6.02185L25.7544 6.02467C25.7452 6.02538 25.7353 6.02608 25.7255 6.02678C25.7156 6.02749 25.7058 6.0289 25.6966 6.03031L25.6677 6.03312L25.6388 6.03665C25.629 6.03805 25.6198 6.03946 25.61 6.04087C25.6001 6.04228 25.5909 6.04369 25.5811 6.04439C25.5712 6.0458 25.5621 6.04721 25.5522 6.04933L25.5233 6.05496L25.4944 6.05989C25.4846 6.06201 25.4754 6.06341 25.4648 6.06553C25.4557 6.06764 25.4458 6.06905 25.436 6.07116C25.4261 6.07257 25.4169 6.07469 25.4071 6.0768L25.3782 6.08314C25.3683 6.08525 25.3592 6.08737 25.3493 6.08948C25.3395 6.09159 25.3303 6.09441 25.3204 6.09652C25.3106 6.09864 25.3014 6.10075 25.2915 6.10357C25.2817 6.10568 25.2725 6.1085 25.2627 6.11061L25.2338 6.11906C25.2239 6.12188 25.2148 6.124 25.2049 6.12681C25.195 6.12963 25.1859 6.13245 25.176 6.13527C25.1662 6.13808 25.157 6.1409 25.1471 6.14442C25.138 6.14654 25.1281 6.15006 25.1183 6.15288L25.0887 6.16274C25.0788 6.16556 25.0697 6.16908 25.0598 6.1726C25.0499 6.17612 25.0408 6.17894 25.0302 6.18317C25.021 6.18669 25.0112 6.18951 25.0013 6.19373C24.9915 6.19655 24.9823 6.20078 24.9724 6.2043C24.9633 6.20712 24.9527 6.21205 24.9436 6.21557C24.933 6.21909 24.9238 6.22332 24.914 6.22684L24.8851 6.23882C24.8752 6.24304 24.8661 6.24657 24.8562 6.25079C24.8471 6.25502 24.8372 6.25925 24.8273 6.26347C24.8182 6.2677 24.8083 6.27193 24.7984 6.27615C24.7886 6.28038 24.7794 6.28531 24.7696 6.28954C24.7597 6.29376 24.7498 6.29799 24.74 6.30363C24.7301 6.30785 24.721 6.31278 24.7111 6.31771L24.6822 6.3318L24.6533 6.34589C24.6435 6.35082 24.6336 6.35575 24.6245 6.36068C24.6146 6.36562 24.6054 6.37055 24.5949 6.37548C24.5857 6.38111 24.5758 6.38675 24.566 6.39168C24.5561 6.39661 24.547 6.40225 24.5371 6.40647C24.5279 6.41211 24.5181 6.41774 24.5082 6.42338C24.4984 6.42901 24.4885 6.43465 24.4786 6.44029C24.4688 6.44733 24.4596 6.45297 24.4498 6.4586C24.4399 6.46424 24.4307 6.47058 24.4209 6.47692C24.4117 6.48255 24.4019 6.4896 24.392 6.49523C24.3821 6.50087 24.3723 6.50791 24.3631 6.51355C24.3532 6.51989 24.3441 6.52693 24.3342 6.53327C24.3244 6.53961 24.3152 6.54666 24.3046 6.55299C24.2955 6.55933 24.2856 6.56779 24.2758 6.57342C24.2666 6.58047 24.2567 6.58822 24.2469 6.59456C24.237 6.6016 24.2279 6.60935 24.218 6.61639C24.2081 6.62344 24.199 6.63119 24.1891 6.63823C24.1785 6.64739 24.1694 6.65443 24.1595 6.66289C24.1497 6.66993 24.1405 6.67768 24.1306 6.68613C24.1208 6.69459 24.1116 6.70093 24.1018 6.71008C24.0926 6.71783 24.0827 6.72629 24.0729 6.73474C24.063 6.74319 24.0539 6.75094 24.044 6.7601C24.0341 6.76926 24.0243 6.777 24.0151 6.78616C24.0053 6.79462 23.9961 6.80377 23.9855 6.81293C23.9764 6.82209 23.9665 6.83054 23.9567 6.8397C23.9468 6.84956 23.9376 6.85872 23.9278 6.86858C23.9179 6.87774 23.9087 6.8869 23.8989 6.89746C23.889 6.90662 23.8799 6.91719 23.87 6.92705C23.8601 6.93691 23.851 6.94748 23.8411 6.95734C23.8313 6.96791 23.8214 6.97777 23.8122 6.98833C23.8024 6.9989 23.7932 7.00947 23.7834 7.02003C23.7735 7.0313 23.7643 7.04187 23.7545 7.05314C23.7446 7.06441 23.7355 7.07568 23.7249 7.08695C23.715 7.09823 23.7059 7.1102 23.696 7.12218C23.6861 7.13415 23.6763 7.14613 23.6664 7.1581C23.6573 7.17078 23.6474 7.18276 23.6375 7.19614C23.6277 7.20882 23.6185 7.22221 23.6087 7.23489C23.5988 7.24827 23.5889 7.26095 23.5798 7.27433C23.5699 7.28842 23.5608 7.30251 23.5509 7.31589C23.541 7.33069 23.5312 7.34478 23.522 7.35957C23.5122 7.37436 23.503 7.38916 23.4931 7.40395C23.4833 7.41945 23.4734 7.43494 23.4643 7.45044C23.4544 7.46594 23.4452 7.48285 23.4354 7.49905C23.4255 7.51595 23.4164 7.53286 23.4065 7.54977C23.3966 7.56738 23.3875 7.58499 23.3776 7.6026C23.3677 7.62091 23.3579 7.63923 23.348 7.65825C23.3382 7.67727 23.329 7.69699 23.3191 7.71672C23.3093 7.73715 23.2994 7.75757 23.2896 7.77871C23.2797 7.80054 23.2705 7.82238 23.2607 7.84492C23.2508 7.86817 23.2409 7.89142 23.2318 7.91607C23.2219 7.94143 23.2121 7.96679 23.2029 7.99285C23.1923 8.02103 23.1832 8.04921 23.174 8.07668C23.1635 8.10768 23.1543 8.13867 23.1451 8.16967C23.1353 8.20489 23.1254 8.24011 23.1163 8.27604C23.1057 8.3176 23.0958 8.35916 23.0874 8.40142C23.0465 8.59796 23.0254 8.80154 23.0254 9.01005V12.9323C23.0458 12.9154 23.0662 12.8978 23.0874 12.8809C23.0965 12.8732 23.1064 12.8654 23.1163 12.8577C23.1261 12.8506 23.1353 12.8429 23.1451 12.8351C23.155 12.8274 23.1642 12.8203 23.174 12.8133C23.1839 12.8055 23.193 12.7985 23.2029 12.7914C23.2121 12.7844 23.2219 12.7774 23.2318 12.771C23.2409 12.7647 23.2508 12.7576 23.2607 12.7506L23.2896 12.7309C23.2994 12.7245 23.3086 12.7175 23.3191 12.7118L23.348 12.6928C23.3579 12.6865 23.367 12.6801 23.3776 12.6745C23.3868 12.6682 23.3966 12.6625 23.4065 12.6569C23.4164 12.6506 23.4255 12.6449 23.4354 12.6393C23.4452 12.6337 23.4544 12.628 23.4643 12.6224C23.4741 12.6167 23.4833 12.6104 23.4931 12.6055C23.503 12.5998 23.5122 12.5942 23.522 12.5893L23.5509 12.5738L23.5798 12.5583C23.5896 12.5533 23.5988 12.5477 23.6087 12.5428C23.6185 12.5379 23.6277 12.5329 23.6375 12.528L23.6664 12.5132L23.696 12.4984L23.7249 12.4836C23.7348 12.4794 23.7439 12.4745 23.7545 12.4702L23.7834 12.4568L23.8122 12.4435L23.8411 12.4308L23.87 12.4181L23.8989 12.4061L23.9278 12.3941L23.9567 12.3822L23.9855 12.3709L24.0151 12.3596C24.0243 12.3561 24.0341 12.3519 24.044 12.3484L24.0729 12.3371C24.082 12.3336 24.0919 12.33 24.1018 12.3265C24.1116 12.323 24.1208 12.3195 24.1306 12.316L24.1595 12.3061L24.1891 12.2955C24.1983 12.2927 24.2081 12.2892 24.218 12.2857L24.2469 12.2758C24.256 12.273 24.2659 12.2695 24.2758 12.2666L24.3046 12.2575L24.3342 12.2483L24.3631 12.2399L24.392 12.2314L24.4209 12.223L24.4498 12.2145L24.4786 12.2061L24.5082 12.1983L24.5371 12.1906L24.5723 12.1821L24.6012 12.1758L24.6308 12.1687L24.6597 12.1617L24.6886 12.1546L24.7174 12.1476L24.7463 12.1413L24.7759 12.1349L24.8048 12.1286L24.8337 12.1222L24.8625 12.1159L24.8914 12.1103L24.9203 12.1046L24.9499 12.099L24.9788 12.0934L25.0077 12.0877L25.0365 12.0828L25.0661 12.0779L25.095 12.0729L25.1246 12.068L25.1535 12.0631L25.1824 12.0581L25.2112 12.0546L25.2401 12.0497L25.269 12.0455L25.2979 12.0419L25.3268 12.0377L25.3557 12.0342L25.3845 12.0307L25.4134 12.0264L25.4423 12.0229L25.4712 12.0194L25.5008 12.0159L25.5296 12.013L25.5585 12.0095L25.5874 12.0067L25.6163 12.0032L25.6452 12.0011L25.6741 11.9983L25.7029 11.9954L25.7318 11.9926L25.7607 11.9905L25.7903 11.9884L25.8192 11.9863L25.8481 11.9849L25.8769 11.9828L25.9058 11.9806L25.9354 11.9792L25.9643 11.9771L25.9932 11.9757L26.022 11.9743L26.0509 11.9729L26.0798 11.9715L26.1087 11.9701L26.1376 11.9687L26.1665 11.968L26.196 11.9666L26.2249 11.9659L26.2538 11.9651L26.2827 11.9644L26.3116 11.9637H26.3404L26.37 11.963L26.3989 11.9623L26.4278 11.9616H26.4567L26.4863 11.9609H26.5151H26.544H26.5729H26.6018H26.6307H26.6596H26.6884H26.7173H26.7462H26.7751H26.804L26.8328 11.9616H26.8617L26.8906 11.9623L26.9202 11.963H26.9491L26.9787 11.9637H27.0075L27.0364 11.9644L27.066 11.9651L27.0949 11.9659L27.1238 11.9666L27.1527 11.9673L27.1815 11.968L27.2104 11.9694L27.2393 11.9708H27.2541L27.2682 11.9715L27.2985 11.9729L27.3274 11.9736L27.3562 11.975L27.3851 11.9771L27.414 11.9785L27.4429 11.9799L27.4718 11.9821L27.5006 11.9842L27.5295 11.9863L27.5584 11.9884L27.5873 11.9905L27.6162 11.9933L27.6451 11.9961L27.6739 11.9983L27.7028 12.0011L27.7324 12.0032L27.7613 12.006L27.7909 12.0088L27.8198 12.0116L27.8486 12.0145L27.8775 12.018L27.9071 12.0208L27.936 12.0243L27.9649 12.0271L27.9938 12.0307L28.0226 12.0342L28.0515 12.0377L28.0811 12.0412L28.11 12.0447L28.1389 12.0483L28.1677 12.0518L28.1966 12.056L28.2269 12.0595L28.2558 12.0638L28.2847 12.068L28.3136 12.0722L28.3424 12.0772L28.3713 12.0807L28.4002 12.0849L28.4291 12.0891L28.458 12.0941L28.4869 12.0983L28.5171 12.1025L28.546 12.1067L28.5742 12.1117L28.6031 12.1166L28.6313 12.1215L28.6616 12.1265L28.6904 12.1314L28.7193 12.137L28.7482 12.142L28.7771 12.1469L28.806 12.1525L28.8348 12.1575L28.8637 12.1624L28.8926 12.168L28.9215 12.173L28.9504 12.1786L28.9793 12.1849L29.0081 12.1906L29.037 12.1962L29.0659 12.2018L29.0962 12.2075L29.1251 12.2131L29.154 12.2194L29.1828 12.2251L29.2117 12.2307L29.2406 12.2371L29.2709 12.2427L29.2998 12.249L29.3286 12.2554L29.3575 12.2617L29.3864 12.2681L29.4153 12.2744L29.4442 12.2807L29.4731 12.2871L29.5019 12.2941L29.5322 12.3012L29.5611 12.3075L29.59 12.3145L29.6189 12.3216V13.5896L29.59 13.5748L29.5611 13.5607L29.5322 13.5459L29.5019 13.5318L29.4731 13.5177L29.4442 13.5029L29.4153 13.4895L29.3864 13.4754L29.3575 13.4621L29.3286 13.4487L29.2998 13.4353L29.2709 13.4219L29.2406 13.4092L29.2117 13.3966L29.1828 13.3839L29.154 13.3712L29.1251 13.3585L29.0962 13.3465L29.0659 13.3346L29.037 13.3226L29.0081 13.3106L28.9793 13.2986L28.9504 13.2874L28.9215 13.2761L28.8926 13.2648L28.8637 13.2543L28.8348 13.2437L28.806 13.2331L28.7771 13.2233L28.7482 13.2127L28.7193 13.2028L28.6904 13.1937L28.6616 13.1838L28.6313 13.1747L28.6031 13.1655L28.5742 13.1563L28.546 13.1472L28.5171 13.138L28.4869 13.1296L28.458 13.1211L28.4291 13.1127L28.4002 13.1042L28.3713 13.0965L28.3424 13.0887L28.3136 13.081L28.2847 13.0739L28.2558 13.0669L28.2269 13.0598L28.1966 13.0528L28.1677 13.0457L28.1389 13.0394L28.11 13.0331L28.0811 13.0267L28.0515 13.0211L28.0226 13.0155L27.9938 13.0098L27.9649 13.0042L27.936 12.9993L27.9071 12.9936L27.8775 12.9887L27.8486 12.9838L27.8198 12.9781L27.7909 12.9739L27.7613 12.9697L27.7324 12.9654L27.7028 12.9612L27.6739 12.957L27.6451 12.9535L27.6162 12.9492L27.5873 12.9464L27.5584 12.9429L27.5295 12.9401L27.5006 12.9366L27.4577 12.9436L27.4288 12.9408L27.3999 12.9387L27.3717 12.9359L27.3429 12.9337L27.3252 12.9323H27.314L27.2851 12.9302L27.2555 12.9288L27.2266 12.9274L27.1977 12.926L27.1689 12.9246L27.14 12.9239L27.1111 12.9232L27.0822 12.9225H27.0533L27.0237 12.9218C27.0139 12.9218 27.0047 12.9218 26.9949 12.9218H26.966L26.9364 12.9225H26.9075L26.8779 12.9232C26.8688 12.9232 26.8589 12.9232 26.849 12.9239C26.8392 12.9246 26.83 12.9246 26.8202 12.9253L26.7913 12.9267L26.7624 12.9281L26.7335 12.9302L26.7046 12.9323C26.6955 12.933 26.6856 12.9337 26.6758 12.9344C26.6659 12.9352 26.6567 12.9359 26.6469 12.9373L26.618 12.9401L26.5891 12.9436L26.5602 12.9464L26.5313 12.9506L26.5025 12.9556L26.4736 12.9598C26.4637 12.9612 26.4546 12.9626 26.444 12.9647C26.4348 12.9661 26.425 12.9676 26.4151 12.969C26.4053 12.9711 26.3961 12.9725 26.3862 12.9746C26.3764 12.9767 26.3665 12.9774 26.3574 12.9802C26.3468 12.9816 26.3383 12.9838 26.3278 12.9859C26.3179 12.988 26.3087 12.9894 26.2989 12.9915C26.289 12.9943 26.2799 12.9964 26.27 12.9985L26.2411 13.0056C26.2313 13.0077 26.2221 13.0105 26.2122 13.0126C26.2024 13.0148 26.1925 13.0176 26.1834 13.0197C26.1735 13.0225 26.1643 13.0253 26.1538 13.0281L26.1249 13.0366C26.1157 13.0387 26.1059 13.0422 26.096 13.045C26.0861 13.0486 26.077 13.0507 26.0671 13.0542C26.0573 13.057 26.0481 13.0605 26.0382 13.0634C26.0284 13.0662 26.0192 13.0697 26.0094 13.0732C25.9995 13.0767 25.9903 13.0803 25.9805 13.0845C25.9706 13.0873 25.9615 13.0908 25.9516 13.0951C25.9417 13.0993 25.9326 13.1028 25.9227 13.1063C25.9129 13.1098 25.9037 13.1141 25.8931 13.1176C25.8833 13.1218 25.8741 13.1261 25.8643 13.1303C25.8544 13.1345 25.8452 13.1387 25.8354 13.143C25.8262 13.1472 25.8164 13.1521 25.8065 13.1563C25.7966 13.1606 25.7875 13.1655 25.7776 13.1704C25.7677 13.1754 25.7586 13.1796 25.748 13.1845C25.7382 13.1894 25.729 13.1944 25.7191 13.1993C25.7093 13.2042 25.6994 13.2092 25.6903 13.2141C25.6804 13.219 25.6705 13.2247 25.6614 13.2303C25.6515 13.2359 25.6424 13.2416 25.6325 13.2465C25.6226 13.2521 25.6135 13.2585 25.6036 13.2641C25.5938 13.2698 25.5846 13.2761 25.5747 13.2824C25.5649 13.2888 25.555 13.2951 25.5458 13.3008C25.536 13.3071 25.5268 13.3141 25.517 13.3205C25.5071 13.3275 25.4979 13.3339 25.4881 13.3409C25.4782 13.3479 25.4684 13.355 25.4585 13.362C25.4486 13.3691 25.4395 13.3768 25.4296 13.3846C25.4198 13.3923 25.4099 13.3994 25.4007 13.4078C25.3909 13.4163 25.381 13.4233 25.3719 13.4318C25.362 13.4402 25.3528 13.448 25.343 13.4571C25.3331 13.4656 25.324 13.4747 25.3141 13.4832C25.3042 13.4924 25.2951 13.5015 25.2852 13.5114C25.2753 13.5205 25.2655 13.5304 25.2563 13.5396C25.2465 13.5501 25.2373 13.56 25.2274 13.5705C25.2176 13.5811 25.2084 13.5917 25.1986 13.6022C25.1887 13.6128 25.1795 13.6241 25.1697 13.6361C25.1598 13.6473 25.1507 13.6593 25.1408 13.6713C25.1309 13.684 25.1218 13.6959 25.1119 13.7086C25.1021 13.722 25.0922 13.7354 25.0823 13.7481C25.0725 13.7629 25.0633 13.7762 25.0535 13.791C25.0436 13.8058 25.0337 13.8206 25.0239 13.8354C25.014 13.8502 25.0048 13.8671 24.995 13.884C24.9851 13.9009 24.9753 13.9185 24.9661 13.9361C24.9562 13.9552 24.9464 13.9735 24.9372 13.9932C24.9267 14.0129 24.9175 14.0341 24.9076 14.0552C24.8978 14.0777 24.8879 14.0996 24.8788 14.1228C24.8682 14.1482 24.859 14.1742 24.8499 14.2003C24.84 14.2292 24.8301 14.2588 24.821 14.2884C24.8111 14.3229 24.8006 14.3581 24.7921 14.394C24.7808 14.4391 24.7717 14.4842 24.7632 14.5307C24.7505 14.5997 24.7407 14.6695 24.7336 14.7427C24.7259 14.8265 24.7217 14.9132 24.7217 15.0027C24.7217 15.0907 24.7259 15.1788 24.7336 15.2612C24.7407 15.3344 24.7498 15.4042 24.7632 15.4732C24.7717 15.5183 24.7808 15.5655 24.7921 15.6092C24.8006 15.6465 24.8104 15.681 24.821 15.7148C24.8301 15.7451 24.84 15.774 24.8499 15.8029C24.859 15.829 24.8682 15.855 24.8788 15.8797C24.8879 15.9029 24.8978 15.9241 24.9076 15.9487C24.9168 15.9677 24.9267 15.9903 24.9372 16.0107C24.9457 16.0283 24.9555 16.048 24.9661 16.0671C24.9753 16.0833 24.9851 16.1016 24.995 16.1178C25.0041 16.1333 25.014 16.1509 25.0239 16.1671C25.0337 16.1812 25.0429 16.1974 25.0535 16.2108C25.0626 16.2256 25.0725 16.2382 25.0823 16.253C25.0922 16.2664 25.1014 16.2791 25.1119 16.2939C25.1211 16.3066 25.1309 16.3185 25.1408 16.3312C25.1507 16.3439 25.1598 16.3545 25.1697 16.3671C25.1795 16.3784 25.1887 16.389 25.1986 16.4003C25.2084 16.4129 25.2176 16.4221 25.2274 16.432C25.2373 16.4432 25.2465 16.4524 25.2563 16.4637C25.2655 16.4735 25.2753 16.4813 25.2852 16.4925C25.2951 16.5024 25.3042 16.5101 25.3141 16.52C25.324 16.5285 25.3331 16.5376 25.343 16.5461C25.3528 16.5545 25.362 16.5623 25.3719 16.5707C25.381 16.5806 25.3909 16.5855 25.4007 16.5954C25.4099 16.6024 25.4198 16.6102 25.4296 16.6172C25.4388 16.6257 25.4486 16.632 25.4585 16.6391C25.4684 16.6461 25.4775 16.6538 25.4881 16.6602C25.4972 16.6679 25.5071 16.675 25.517 16.6799C25.5268 16.6863 25.536 16.6933 25.5458 16.6989C25.555 16.706 25.5649 16.7123 25.5747 16.7165C25.5846 16.7208 25.5938 16.7292 25.6036 16.7342C25.6135 16.7384 25.6226 16.7468 25.6325 16.7511C25.6424 16.7553 25.6515 16.763 25.6614 16.7666C25.6705 16.7729 25.6804 16.7785 25.6903 16.7828C25.6994 16.787 25.7093 16.7926 25.7191 16.7968C25.729 16.8032 25.7382 16.8088 25.748 16.8116C25.7579 16.8173 25.7677 16.8215 25.7776 16.8257C25.7875 16.8321 25.7966 16.8363 25.8065 16.8405C25.8156 16.8447 25.8255 16.8504 25.8354 16.8546C25.8452 16.8588 25.8544 16.8631 25.8643 16.8673C25.8741 16.8729 25.8833 16.8772 25.8931 16.8814C25.903 16.8842 25.9122 16.8891 25.9227 16.8934C25.9319 16.8962 25.9417 16.9011 25.9516 16.9053C25.9615 16.9081 25.9706 16.9124 25.9805 16.9166C25.9903 16.9194 25.9995 16.9236 26.0094 16.9265C26.0192 16.9293 26.0284 16.9335 26.0382 16.9377C26.0481 16.9406 26.0573 16.9434 26.0671 16.9469C26.077 16.9511 26.0861 16.9539 26.096 16.9568C26.1052 16.9603 26.115 16.9631 26.1249 16.9659C26.1348 16.9687 26.1446 16.9715 26.1538 16.9744C26.1636 16.9772 26.1728 16.98 26.1834 16.9828C26.1925 16.9842 26.2024 16.987 26.2122 16.9899C26.2221 16.9913 26.2313 16.9955 26.2411 16.9969L26.27 17.0039C26.2799 17.0075 26.289 17.0089 26.2989 17.0117C26.3087 17.0145 26.3179 17.0159 26.3278 17.0173C26.3376 17.0209 26.3468 17.0223 26.3574 17.0237C26.3665 17.0265 26.3764 17.0279 26.3862 17.0293C26.3961 17.0321 26.4053 17.0335 26.4151 17.0349C26.425 17.0364 26.4341 17.0392 26.444 17.0406C26.4539 17.042 26.463 17.0434 26.4736 17.0448C26.4827 17.0462 26.4926 17.0476 26.5025 17.049L26.5313 17.0533L26.5602 17.0589L26.5891 17.0617L26.618 17.0645L26.6469 17.0681C26.6567 17.0695 26.6659 17.0709 26.6758 17.0709C26.6856 17.0723 26.6955 17.0723 26.7046 17.0737L26.7335 17.0751L26.7624 17.0779L26.7913 17.0793L26.8202 17.0814C26.83 17.0814 26.8392 17.0814 26.849 17.0828C26.8589 17.0828 26.8681 17.0828 26.8779 17.0828L26.9075 17.0843H26.9364H26.966H26.9949C27.0047 17.0843 27.0139 17.0843 27.0237 17.0843H27.0533H27.0822L27.1111 17.0828H27.14L27.1689 17.0814L27.1977 17.0793L27.2266 17.0779L27.2555 17.0765L27.2851 17.0751L27.314 17.0737L27.3252 17.0723L27.3429 17.0709L27.3717 17.0695L27.3999 17.0659L27.4288 17.0631L27.4577 17.0603L27.4866 17.0575L27.5154 17.0533L27.5443 17.0504L27.5732 17.0476L27.6021 17.0434L27.631 17.0392L27.6598 17.0349L27.6887 17.0307L27.719 17.0251L27.7479 17.0194L27.7768 17.0152L27.8057 17.011L27.8345 17.0068L27.8634 17.0011L27.8937 16.9955L27.9226 16.9913L27.9515 16.9849L27.9804 16.9793L28.0092 16.9715L28.0381 16.9659L28.067 16.9589L28.0959 16.9532L28.1248 16.9462L28.1537 16.9391L28.1825 16.9335L28.2128 16.9258L28.2417 16.9187L28.2706 16.911L28.2995 16.9025L28.3284 16.8941L28.3572 16.887L28.3861 16.8786L28.415 16.8701L28.4439 16.8609L28.4728 16.8518L28.5031 16.8433L28.5319 16.8349L28.5608 16.825L28.5897 16.8152L28.6186 16.806L28.6475 16.7954L28.6763 16.7856L28.7052 16.7757L28.7341 16.7659L28.763 16.7546L28.7919 16.744L28.8208 16.7334L28.8496 16.7222L28.8785 16.7109L28.9074 16.6996L28.9363 16.6877L28.9652 16.6764L28.994 16.6644L29.0229 16.6517L29.0518 16.6405L29.0821 16.6271L29.111 16.6137L29.1399 16.6024L29.1687 16.5883L29.1976 16.5757L29.2265 16.5623L29.2568 16.5489L29.2857 16.5348L29.3146 16.5207L29.3434 16.5066L29.3723 16.4925L29.4012 16.4784L29.4301 16.4644L29.459 16.4496L29.4879 16.4355L29.5181 16.4214L29.547 16.4066L29.5759 16.3918L29.6048 16.377V17.6443L29.5759 17.652L29.547 17.6591L29.5181 17.6661L29.4879 17.6732L29.459 17.6802L29.4301 17.6872L29.4012 17.6943L29.3723 17.7006L29.3434 17.7077L29.3146 17.714L29.2758 17.7373L29.2469 17.7443L29.2181 17.7499L29.1892 17.7556L29.1603 17.7633L29.1314 17.769L29.1011 17.7753L29.0722 17.7809L29.0434 17.788L29.0145 17.7936L28.9856 17.7993L28.9567 17.8035L28.9278 17.8091L28.8989 17.8148L28.8701 17.8211L28.8412 17.8267L28.8123 17.8331L28.7834 17.8373L28.7545 17.8429L28.7257 17.8486L28.6968 17.8528L28.6679 17.8584L28.639 17.8634L28.6087 17.869L28.5798 17.8732L28.551 17.8796L28.5221 17.8838L28.4932 17.8859L28.4643 17.8915L28.4354 17.8958L28.4065 17.9L28.3777 17.9056L28.3488 17.9106L28.3185 17.9148L28.2896 17.919L28.2607 17.9239L28.2318 17.9352L28.203 17.9394L28.1741 17.9437L28.1452 17.9479L28.1156 17.9521L28.0867 17.9549L28.0579 17.9592L28.0283 17.9634L27.9994 17.9662L27.9705 17.9704L27.9416 17.9732L27.9127 17.9768L27.8839 17.981L27.8543 17.9838L27.8254 17.9866L27.7972 17.9902L27.7683 17.993L27.738 17.9958L27.7092 17.9986L27.6803 18.0014L27.6514 18.0042L27.6232 18.0057L27.5943 18.0071L27.5655 18.0099L27.5366 18.0127L27.5077 18.0113L27.4788 18.0141L27.4499 18.0155L27.421 18.0183L27.3922 18.0197L27.3633 18.0226L27.3344 18.024L27.3041 18.0254L27.2752 18.0268L27.2463 18.0282H27.2316H27.2175L27.1886 18.0296H27.1597L27.1308 18.031L27.1019 18.0324L27.0724 18.0345H27.0435L27.0139 18.0359H26.985L26.9561 18.0374H26.9265L26.8977 18.0388H26.8681H26.8392H26.8103H26.7814L26.7525 18.0402H26.7237H26.6948H26.6659H26.637H26.6081H26.5793H26.5638H26.5349H26.506H26.4771H26.4475L26.4186 18.0388H26.3898H26.3609L26.3313 18.0374H26.3024L26.2735 18.0359H26.2446L26.2158 18.0345L26.1869 18.0324L26.1573 18.031H26.1284L26.0995 18.0296L26.0707 18.0282L26.0418 18.0268L26.015 18.031L25.9861 18.0296L25.9572 18.0282L25.9284 18.0268L25.8988 18.024L25.8699 18.0226L25.841 18.0197L25.8121 18.0183L25.7832 18.0155L25.7537 18.0141L25.7248 18.0113L25.6959 18.0085L25.667 18.0071L25.6381 18.0042L25.6092 18.0014L25.5804 17.9972L25.5515 17.9944L25.5226 17.9916L25.4937 17.9887L25.4641 17.9838L25.4353 17.981L25.4064 17.9768L25.3775 17.974L25.3486 17.969L25.3197 17.9648L25.2908 17.9606L25.262 17.9592L25.2331 17.9535L25.2042 17.9493L25.1753 17.9451L25.1464 17.9394L25.1176 17.9352L25.088 17.9296L25.0591 17.9246L25.0295 17.919L25.0006 17.9148L24.9717 17.9098L24.9429 17.9042L24.9133 17.8986L24.8844 17.8929L24.8555 17.8873L24.8266 17.8817L24.7977 17.8746L24.7689 17.8676L24.7393 17.8648L24.7104 17.8577L24.6815 17.8514L24.6526 17.8443L24.6237 17.8359L24.5942 17.8288L24.5653 17.8211L24.5364 17.814L24.5075 17.8049L24.4779 17.7978L24.449 17.7887L24.4202 17.7802L24.3913 17.7718L24.3624 17.7633L24.3335 17.7535L24.3039 17.7464L24.2751 17.738C24.2659 17.7337 24.256 17.7309 24.2462 17.7281C24.2363 17.7239 24.2272 17.7211 24.2173 17.7175L24.1969 17.7027L24.1673 17.6929C24.1574 17.6887 24.1483 17.6858 24.1384 17.6816C24.1285 17.6788 24.1194 17.6746 24.1095 17.6703L24.0806 17.6605C24.0708 17.6555 24.0616 17.6513 24.0517 17.6485L24.0229 17.6365L23.9933 17.6238L23.9644 17.6126L23.9355 17.5992L23.9066 17.5858L23.8778 17.5731L23.8489 17.5605L23.82 17.5464L23.7911 17.533L23.7622 17.5182C23.7524 17.514 23.7432 17.509 23.7326 17.5041L23.7038 17.49L23.6742 17.4752L23.6453 17.4611C23.6354 17.4555 23.6263 17.4499 23.6164 17.4463C23.6065 17.4407 23.5974 17.4351 23.5875 17.4315L23.5586 17.416L23.5298 17.4012L23.5009 17.3886C23.491 17.3829 23.4819 17.3773 23.472 17.3724C23.4621 17.3667 23.453 17.3597 23.4431 17.3569L23.4142 17.34C23.4044 17.3336 23.3952 17.3266 23.3854 17.3224C23.3755 17.3153 23.3656 17.3097 23.3558 17.3047L23.3269 17.2857C23.317 17.2801 23.3079 17.2716 23.2973 17.2674L23.2684 17.2491C23.2586 17.2413 23.2487 17.2343 23.2395 17.2287C23.2297 17.2216 23.2198 17.2139 23.2107 17.2082C23.2008 17.2012 23.1916 17.1941 23.1818 17.1878C23.1719 17.1815 23.1628 17.173 23.1529 17.166C23.143 17.1589 23.1339 17.1512 23.124 17.1441C23.1141 17.1357 23.1043 17.1293 23.0951 17.1216C23.074 17.1047 23.0529 17.0864 23.0331 17.0695V23.987H23.0951H23.124H23.1529H23.1818H23.2107H23.2395H23.2684H23.2973H23.3269H23.3558H23.3854H23.4142H23.4431H23.472H23.5009H23.5298H23.5586H23.5875H23.6164H23.6453H23.6742H23.7038H23.7326H23.7622H23.7911H23.82H23.8489H23.8778H23.9066H23.9355H23.9644H23.9933H24.0229H24.0517H24.0806H24.1095H24.1384H24.1673H24.1969H24.2257H24.2546H24.2835H24.3124H24.342H24.3709H24.3997H24.4286H24.4575H24.4864H24.516H24.5449H24.5737H24.6026H24.6322H24.6611H24.69H24.7188H24.7477H24.7773H24.8062H24.8351H24.864H24.8928H24.9217H24.9513H24.9802H25.0091H25.038H25.0675H25.0964H25.126H25.1549H25.1838H25.2127H25.2415H25.2704H25.2993H25.3282H25.3571H25.3859H25.4148H25.4437H25.4726H25.5022H25.5311H25.5599H25.5888H25.6177H25.6466H25.6755H25.7043H25.7332H25.7621H25.7917H25.8206H25.8495H25.8783H25.9072H25.9368H25.9657H25.9946H26.0235H26.0523H26.0812H26.1101H26.139H26.1679H26.1974H26.2263H26.2552H26.2841H26.313H26.3419H26.3714H26.4003H26.4292H26.4581H26.4877H26.5166H26.5454H26.5743H26.6032H26.6321H26.661H26.6898H26.7187H26.7476H26.7765H26.8054H26.8343H26.8631H26.892H26.9216H26.9505H26.9801H27.009H27.0378H27.0674H27.0963H27.1252H27.1541H27.1829H27.2118H27.2407H27.2696H27.2999H27.3288H27.3576H27.3865H27.4154H27.4443H27.4471C27.4556 23.987 27.464 23.987 27.4732 23.987H27.5021C27.5119 23.987 27.5211 23.987 27.5309 23.9856C27.5408 23.9856 27.55 23.9856 27.5598 23.9856C27.5697 23.9856 27.5788 23.9842 27.5887 23.9842L27.6176 23.9828L27.6465 23.9813C27.6563 23.9799 27.6655 23.9799 27.6753 23.9799C27.6852 23.9785 27.6944 23.9785 27.7042 23.9771L27.7338 23.9743C27.743 23.9729 27.7528 23.9729 27.7627 23.9715C27.7733 23.9701 27.7817 23.9687 27.7923 23.9673C27.8021 23.9659 27.8113 23.9659 27.8212 23.9644C27.831 23.963 27.8402 23.9616 27.85 23.9602L27.8789 23.956C27.8888 23.9546 27.8979 23.9532 27.9085 23.9518C27.9191 23.9504 27.9268 23.9489 27.9374 23.9475C27.948 23.9461 27.9557 23.9447 27.9663 23.9419L27.9952 23.937L28.024 23.9313C28.0346 23.9285 28.0438 23.9264 28.0529 23.925C28.0635 23.9236 28.0712 23.9208 28.0825 23.918L28.1114 23.9109L28.1403 23.9039C28.1508 23.9025 28.1593 23.8996 28.1692 23.8968C28.1797 23.894 28.1882 23.8926 28.198 23.8898C28.2086 23.887 28.2171 23.8841 28.2283 23.8813C28.2375 23.8778 28.2459 23.8764 28.2572 23.8736L28.2861 23.8644L28.315 23.856C28.3255 23.8531 28.334 23.8503 28.3439 23.8461C28.3537 23.8433 28.3615 23.8405 28.3727 23.8376C28.3826 23.8334 28.3918 23.8306 28.4016 23.8278L28.4305 23.8158L28.4594 23.8052C28.4692 23.8024 28.4784 23.7982 28.4883 23.7954C28.4981 23.7912 28.5073 23.7869 28.5186 23.7827C28.5284 23.7799 28.5362 23.7757 28.5474 23.7714C28.5559 23.7686 28.565 23.7644 28.5763 23.7595L28.6052 23.7461L28.6341 23.7348L28.663 23.7207C28.6728 23.7165 28.682 23.7123 28.6918 23.7066C28.7017 23.7024 28.7109 23.6982 28.7207 23.6932C28.7306 23.6876 28.7397 23.6827 28.7496 23.6784C28.7595 23.6742 28.7686 23.6686 28.7785 23.6637C28.7883 23.6594 28.7975 23.6538 28.8074 23.6489C28.8172 23.6446 28.8264 23.6383 28.8363 23.6341L28.8651 23.6193L28.894 23.6045L28.9229 23.5897C28.9342 23.5833 28.9419 23.577 28.9518 23.5742C28.963 23.5678 28.9708 23.5608 28.9807 23.5573C28.9919 23.5509 29.0011 23.5453 29.0095 23.5411C29.0208 23.534 29.0286 23.5284 29.0384 23.5235C29.0497 23.5178 29.0574 23.5108 29.0673 23.5059C29.0786 23.4988 29.0863 23.4918 29.0976 23.4875C29.1075 23.4812 29.1166 23.4742 29.1265 23.4692C29.1363 23.4643 29.1441 23.4558 29.1554 23.4488C29.1652 23.4432 29.1744 23.4354 29.1842 23.4298C29.1955 23.4227 29.2033 23.4157 29.2131 23.4094C29.2244 23.4023 29.2321 23.3953 29.242 23.3889C29.2533 23.3819 29.261 23.3741 29.2723 23.3671C29.2822 23.36 29.2899 23.353 29.3012 23.346C29.311 23.3382 29.3188 23.3312 29.3301 23.3234C29.3399 23.3157 29.3477 23.3086 29.3589 23.3002C29.3688 23.291 29.378 23.2854 29.3878 23.2755C29.3991 23.2671 29.4068 23.2607 29.4167 23.2523C29.428 23.2424 29.4357 23.2347 29.4456 23.2262C29.4569 23.2163 29.4646 23.21 29.4745 23.2001C29.4857 23.1917 29.4935 23.1839 29.5033 23.1741C29.5146 23.1642 29.5224 23.1565 29.5336 23.1466C29.5435 23.1367 29.5513 23.129 29.5625 23.1177C29.5724 23.1079 29.5815 23.1001 29.5914 23.0888C29.6013 23.079 29.6104 23.0698 29.6203 23.06C29.6316 23.0487 29.6393 23.0395 29.6492 23.0297C29.6604 23.0184 29.6682 23.0092 29.678 22.998C29.6879 22.9881 29.6971 22.9775 29.7069 22.9663C29.7168 22.955 29.7259 22.9444 29.7358 22.9332C29.7457 22.9205 29.7548 22.9099 29.7647 22.8986C29.7746 22.886 29.7837 22.874 29.7936 22.8613C29.8034 22.8493 29.8126 22.8381 29.8225 22.8254C29.8323 22.812 29.8415 22.8007 29.8513 22.7873C29.8612 22.774 29.8704 22.7613 29.8802 22.7479C29.8901 22.7338 29.8992 22.7204 29.9091 22.7077C29.919 22.6929 29.9281 22.6789 29.9394 22.6648C29.9493 22.65 29.957 22.6359 29.9683 22.6211C29.9767 22.6063 29.9859 22.5922 29.9972 22.5774C30.007 22.5626 30.0162 22.5471 30.026 22.5309C30.0359 22.5147 30.0451 22.4992 30.0535 22.483C30.0648 22.4661 30.0739 22.4485 30.0824 22.4316C30.0937 22.4147 30.1028 22.3964 30.1127 22.3781C30.1225 22.3612 30.1317 22.34 30.1416 22.3217C30.1514 22.3034 30.1606 22.2823 30.1704 22.2625C30.1803 22.2428 30.1895 22.2203 30.1993 22.2005C30.2092 22.1773 30.2183 22.1562 30.2282 22.1322C30.2395 22.1083 30.2472 22.085 30.2571 22.059C30.2684 22.0329 30.2761 22.0068 30.286 21.9808C30.2972 21.9519 30.3064 21.923 30.3149 21.8941C30.3261 21.8624 30.3353 21.8307 30.3437 21.7976C30.355 21.7603 30.3642 21.7236 30.3726 21.6863C30.3853 21.6426 30.393 21.5968 30.4029 21.5525C30.4142 21.4933 30.4233 21.4341 30.4318 21.3728C30.4473 21.246 30.4564 21.1192 30.4564 20.9889V6.0127H30.4029Z" fill="#DEDFE2"/>
<path d="M22.1285 6.0127H22.0855H22.0566H22.0277H21.9989H21.97H21.9411H21.9115H21.8826H21.8537H21.8249H21.796H21.7671H21.7382H21.71H21.6819H21.6523H21.6234H21.5945H21.5656H21.5368H21.5079H21.479H21.4501H21.4212H21.3923H21.3635H21.3339H21.305H21.2754H21.2465H21.2176H21.1888H21.1599H21.131H21.1042H21.0754H21.0465H21.0176H20.988H20.9591H20.9295H20.9014H20.8725H20.8436H20.814H20.7844H20.7555H20.7274H20.6985H20.6689H20.64H20.6104H20.5815H20.5527H20.5259H20.497H20.4674H20.4385H20.4097H20.3808H20.3512H20.3223H20.2934H20.2646H20.2357H20.2061H20.1772H20.1476H20.1187H20.0899H20.061H20.0321H20.0032H19.9736H19.9447H19.9201H19.8912H19.8623H19.8334H19.8046H19.775H19.7461H19.7172H19.6883H19.6587H19.6313H19.6024H19.5735H19.5446H19.5157H19.4862H19.4573H19.4284H19.3995H19.3706H19.3424H19.3136H19.2847H19.2558H19.2269H19.1973H19.1685H19.1396H19.1107H19.0818H19.0536H19.0255H18.9966H18.9677H18.9388H18.9092H18.8803H18.8515H18.8226H18.7937H18.7648H18.7366H18.7078H18.6789H18.65H18.6204H18.5915H18.5619H18.5331H18.5042H18.4746H18.4478H18.4189H18.3901H18.3612H18.3323H18.3034H18.2745H18.2449H18.2161H18.1872H18.1583H18.1308H18.1019H18.0724H18.0435H18.0146H17.9857H17.9568H17.9272H17.8984H17.8702H17.842H17.8131H17.7842H17.7547H17.7392H17.7258C17.7159 6.0127 17.7068 6.0127 17.6969 6.0127C17.687 6.0127 17.6779 6.0127 17.668 6.0127C17.6582 6.0127 17.649 6.01481 17.6391 6.01551L17.6103 6.01622C17.6004 6.01622 17.5912 6.01692 17.5814 6.01763C17.5715 6.01763 17.5623 6.01904 17.5525 6.01904C17.5426 6.01904 17.5335 6.01904 17.5236 6.02115C17.5137 6.02185 17.5046 6.02185 17.494 6.02185L17.4651 6.02538C17.4553 6.02608 17.4454 6.02678 17.4356 6.02749C17.4264 6.02749 17.4165 6.0296 17.4067 6.03031L17.3778 6.03453L17.3489 6.03665C17.339 6.03876 17.3299 6.03946 17.32 6.04228C17.3109 6.04228 17.3003 6.0451 17.2911 6.0458C17.2813 6.0458 17.2721 6.04862 17.2623 6.04933L17.2334 6.05496C17.2235 6.05496 17.2137 6.05848 17.2038 6.0606C17.1939 6.06271 17.1848 6.06412 17.1749 6.06623C17.1658 6.06764 17.1559 6.06764 17.146 6.07187C17.1362 6.07328 17.1263 6.07609 17.1164 6.0768L17.0876 6.08243C17.0777 6.08596 17.0685 6.08807 17.058 6.09089C17.0488 6.09159 17.039 6.09582 17.0291 6.09723C17.0192 6.09934 17.0101 6.10075 17.0002 6.10427C16.9904 6.10638 16.9805 6.10991 16.9713 6.11202L16.9417 6.11906C16.9319 6.12259 16.9227 6.1247 16.9129 6.12752C16.903 6.13034 16.8938 6.13386 16.884 6.13668C16.8748 6.13949 16.865 6.14161 16.8551 6.14583C16.8452 6.14865 16.8361 6.15217 16.8262 6.15499L16.7973 6.16485L16.7677 6.17401C16.7579 6.17824 16.7487 6.17965 16.7389 6.18528C16.7297 6.1881 16.7198 6.19162 16.71 6.19444C16.7001 6.19796 16.691 6.20219 16.6811 6.20571L16.6586 6.21628L16.629 6.22755L16.6001 6.24023C16.5902 6.24375 16.5811 6.24798 16.5712 6.2522C16.5621 6.25502 16.5522 6.26066 16.5423 6.26418C16.5325 6.26981 16.5226 6.27334 16.5127 6.27686C16.5029 6.28249 16.4937 6.28601 16.4839 6.29095C16.474 6.29588 16.4648 6.30081 16.455 6.30503C16.4458 6.30997 16.436 6.31349 16.4261 6.31912L16.3972 6.33392C16.3874 6.33955 16.3775 6.34307 16.3683 6.34941C16.3585 6.35505 16.3493 6.35998 16.3388 6.36491C16.3296 6.36984 16.3197 6.37407 16.3099 6.3797C16.3 6.38534 16.2901 6.39098 16.281 6.39661C16.2711 6.40154 16.262 6.40647 16.2521 6.4107C16.2422 6.41633 16.2331 6.42408 16.2232 6.42901C16.2134 6.43465 16.2035 6.44029 16.1936 6.44592C16.1838 6.45156 16.1746 6.4579 16.1648 6.46212C16.1549 6.46776 16.1457 6.47551 16.1359 6.48044C16.1267 6.48607 16.1169 6.49382 16.107 6.49875C16.0971 6.50368 16.088 6.51214 16.0781 6.51707C16.0682 6.52411 16.0584 6.53116 16.0492 6.5375C16.0394 6.54454 16.0302 6.55018 16.0196 6.55863C16.0105 6.56497 16.0006 6.57061 15.9908 6.57765L15.9619 6.60019C15.952 6.60724 15.9429 6.61428 15.933 6.62203C15.9231 6.62978 15.9133 6.63682 15.9034 6.64316C15.8935 6.65162 15.8844 6.65866 15.8745 6.6657C15.8647 6.67486 15.8555 6.6805 15.8456 6.68965C15.8365 6.69811 15.8266 6.70656 15.8168 6.71361C15.8069 6.72276 15.7977 6.72981 15.7879 6.73967C15.778 6.74671 15.7689 6.75587 15.7583 6.76292C15.7491 6.77207 15.7393 6.78123 15.7294 6.78898C15.7196 6.79884 15.7104 6.80729 15.6998 6.81645C15.6907 6.82561 15.6808 6.83265 15.6709 6.84181C15.6611 6.85308 15.6519 6.86013 15.6421 6.8714C15.6322 6.88056 15.623 6.88971 15.6132 6.90098C15.6033 6.91085 15.5942 6.92 15.5843 6.92987C15.5744 6.93902 15.5646 6.95029 15.5554 6.95945C15.5456 6.97072 15.5357 6.98059 15.5258 6.99045C15.516 7.00242 15.5068 7.01299 15.497 7.02285C15.4871 7.03483 15.4779 7.04539 15.4674 7.05666C15.4575 7.06582 15.4483 7.0785 15.4385 7.09048C15.4286 7.10175 15.4195 7.11161 15.4096 7.12429C15.3997 7.13697 15.3899 7.14824 15.3807 7.16162C15.3709 7.17219 15.361 7.18487 15.3518 7.19825C15.342 7.21164 15.3328 7.22361 15.3223 7.23629C15.3131 7.25038 15.3032 7.26306 15.2934 7.27645C15.2835 7.29054 15.2744 7.30462 15.2645 7.3173C15.2546 7.3328 15.2448 7.34689 15.2356 7.36098C15.225 7.37507 15.2159 7.39056 15.206 7.40465C15.1962 7.42086 15.187 7.43635 15.1771 7.45115C15.1673 7.46735 15.1581 7.48425 15.1483 7.50046C15.1384 7.51736 15.1285 7.53356 15.1194 7.55047C15.1095 7.56879 15.0997 7.58499 15.0905 7.6033C15.0806 7.62162 15.0708 7.63993 15.0616 7.65825C15.0518 7.67868 15.0419 7.6977 15.032 7.71813C15.0222 7.73715 15.013 7.75828 15.0031 7.77941C14.9933 7.80125 14.9841 7.82379 14.9743 7.84351C14.9644 7.86958 14.9545 7.89142 14.9454 7.91678C14.9348 7.94073 14.9264 7.96749 14.9165 7.99215C14.9066 8.02033 14.8968 8.0485 14.8869 8.07668C14.8771 8.10768 14.8679 8.13938 14.858 8.17108C14.8482 8.2063 14.8376 8.24152 14.8292 8.27744C14.8186 8.31901 14.8087 8.35916 14.8003 8.40213C14.7594 8.59937 14.7383 8.80295 14.7383 9.01217V16.4101C14.7594 16.4214 14.7798 16.4298 14.8003 16.4404L14.8292 16.4545L14.858 16.4686L14.8869 16.4834L14.9165 16.4968L14.9454 16.5108L14.9743 16.5249L15.0031 16.5376L15.032 16.5524L15.0616 16.5637L15.0905 16.5778L15.1194 16.5904L15.1483 16.6038L15.1771 16.6172L15.206 16.6292L15.2356 16.6412L15.2645 16.6538L15.2934 16.6665L15.3223 16.6785L15.3518 16.6905L15.3807 16.7025L15.4096 16.7137L15.4385 16.7257L15.4674 16.7363L15.497 16.7482L15.5258 16.7588L15.5554 16.7687L15.5843 16.7806L15.6132 16.7912L15.6421 16.8011L15.6709 16.8123L15.6998 16.8222L15.7294 16.8307L15.7583 16.8419L15.7879 16.8518L15.8168 16.8617L15.8456 16.8701L15.8745 16.8786L15.9034 16.887L15.933 16.8969L15.9619 16.9046L15.9908 16.9138L16.0196 16.9222L16.0492 16.93L16.0781 16.937L16.107 16.9448L16.1359 16.9518L16.1648 16.961L16.1936 16.968L16.2232 16.9758L16.2521 16.9828L16.281 16.9899L16.3099 16.9962L16.3388 17.0025L16.3683 17.0082L16.3972 17.0138L16.4261 17.0209L16.455 17.0265L16.4839 17.0335L16.5127 17.0378L16.5423 17.0434L16.5712 17.0476L16.6001 17.0533L16.629 17.0582L16.6586 17.0631L16.6874 17.0673L16.7163 17.0702L16.7452 17.0744L16.7741 17.0793L16.8037 17.0828L16.8326 17.0857L16.8614 17.0892L16.8903 17.0927L16.9192 17.0955L16.9481 17.0983L16.9777 17.0998L17.0066 17.1026L17.0354 17.104L17.0643 17.1068H17.0939L17.1228 17.1082L17.1524 17.1103L17.1813 17.1117L17.2101 17.1124L17.2397 17.1131H17.2686L17.2975 17.1138H17.3264H17.344H17.3552C17.3651 17.1138 17.3743 17.1138 17.3841 17.1138L17.413 17.1131C17.4222 17.1131 17.4327 17.1131 17.4419 17.1124C17.4518 17.1124 17.4616 17.1117 17.4715 17.111C17.4813 17.1103 17.4905 17.1103 17.5004 17.1096C17.5102 17.1082 17.5194 17.1082 17.5299 17.1068C17.5391 17.1068 17.549 17.1068 17.5588 17.1054C17.5687 17.104 17.5778 17.104 17.5877 17.1026L17.6166 17.0998C17.6265 17.0983 17.6356 17.0969 17.6455 17.0955C17.6553 17.0955 17.6645 17.0941 17.6744 17.0913L17.7032 17.0871C17.7131 17.0857 17.7223 17.0835 17.7321 17.0821C17.742 17.08 17.7511 17.0772 17.761 17.0758C17.7709 17.0744 17.7807 17.0716 17.7906 17.0702C17.8004 17.0688 17.8096 17.0659 17.8195 17.0645C17.8293 17.0617 17.8385 17.0596 17.8483 17.0575C17.8575 17.0547 17.8674 17.0526 17.8772 17.0497C17.8871 17.0462 17.8963 17.0448 17.9061 17.042C17.916 17.0392 17.9258 17.0364 17.935 17.0335C17.9449 17.03 17.954 17.0272 17.9646 17.0237C17.9737 17.0209 17.9836 17.0166 17.9935 17.0138C18.0033 17.0096 18.0125 17.0068 18.0223 17.0039C18.0322 16.9997 18.0414 16.9962 18.0512 16.9927C18.0611 16.9892 18.0702 16.9856 18.0801 16.9814C18.09 16.9772 18.0998 16.973 18.1097 16.968C18.1196 16.9638 18.1287 16.9596 18.1386 16.9546C18.1484 16.9504 18.1576 16.9448 18.1675 16.9406C18.1766 16.9363 18.1865 16.9314 18.1963 16.9265C18.2062 16.9208 18.2161 16.9166 18.2252 16.9117C18.2351 16.906 18.2449 16.9011 18.2541 16.8955C18.264 16.8912 18.2731 16.8856 18.2837 16.8807C18.2928 16.875 18.3027 16.8694 18.3126 16.8645C18.3224 16.8588 18.3316 16.8511 18.3415 16.8469C18.3513 16.8398 18.3605 16.8328 18.3703 16.8278C18.3802 16.8208 18.3894 16.8138 18.3992 16.8074C18.4091 16.8004 18.4182 16.7926 18.4281 16.7863C18.438 16.7785 18.4471 16.7715 18.457 16.7637C18.4668 16.756 18.476 16.7489 18.4859 16.7405C18.4964 16.7306 18.5056 16.7229 18.5154 16.7144C18.5253 16.7046 18.5345 16.6968 18.5443 16.687C18.5542 16.6764 18.5633 16.6679 18.5732 16.6567C18.5831 16.6461 18.5929 16.6362 18.6028 16.6264C18.6127 16.6144 18.6218 16.6045 18.6317 16.5933C18.6415 16.5799 18.6514 16.57 18.6613 16.5559C18.6711 16.5418 18.6803 16.5306 18.6901 16.5158C18.7 16.5031 18.7099 16.4897 18.719 16.4742C18.7289 16.4594 18.7388 16.4439 18.7479 16.4291C18.7578 16.4136 18.7676 16.396 18.7768 16.3798C18.7867 16.3622 18.7965 16.3411 18.8057 16.3235C18.8155 16.3044 18.8254 16.2805 18.8346 16.2601C18.8451 16.2234 18.8543 16.2002 18.8634 16.1741C18.874 16.1452 18.8839 16.1164 18.8923 16.0861C18.9036 16.0473 18.9134 16.0107 18.9212 15.9705C18.9346 15.9071 18.9444 15.8409 18.9508 15.7754C18.955 15.7233 18.9571 15.6698 18.9571 15.6141V12.1377H18.979H19.0078H19.0367H19.0536H19.0832H19.1121H19.141H19.1699H19.1987H19.2283H19.2572H19.2861H19.315H19.3439H19.3727H19.4016H19.4305H19.4594H19.4883H19.5179H19.5467H19.5756H19.6045H19.6334H19.6623H19.6918H19.7207H19.7496H19.7785H19.8081H19.837H19.8658H19.8947H19.9236H19.9532H19.9821H20.0117H20.0405H20.0694H20.0983H20.1272H20.1561H20.1857H20.2145H20.2441H20.273H20.3019H20.3308H20.3596H20.3892H20.4181H20.447H20.4759H20.5055H20.5343H20.5632H20.5921H20.621H20.6499H20.6795H20.7083H20.7372H20.7661H20.795H20.8246H20.8535H20.8823H20.9112H20.9401H20.969H20.9986H21.0275H21.057H21.0859H21.1148H21.1437H21.1726H21.2014H21.2303H21.2592H21.2881H21.3177H21.3466H21.3761H21.405H21.4339H21.4628H21.4917H21.5206H21.5346V15.6148C21.5346 15.7162 21.5304 15.8156 21.5206 15.9135C21.5135 15.9832 21.5036 16.0523 21.4917 16.1199C21.4832 16.1643 21.4741 16.2108 21.4628 16.2544C21.4543 16.2918 21.4445 16.3277 21.4339 16.3615C21.4247 16.3918 21.4156 16.4214 21.405 16.451C21.3959 16.477 21.3867 16.5017 21.3761 16.5278C21.367 16.551 21.3571 16.5735 21.3466 16.5975C21.3374 16.6186 21.3275 16.6412 21.3177 16.6609C21.3085 16.6792 21.2987 16.7003 21.2881 16.7187C21.2789 16.7356 21.2691 16.7553 21.2592 16.7715C21.2493 16.7877 21.2402 16.8046 21.2303 16.8194C21.2205 16.8349 21.2113 16.8511 21.2014 16.8659C21.1923 16.88 21.1824 16.8948 21.1726 16.9089C21.1627 16.9236 21.1535 16.9377 21.1437 16.9518C21.1338 16.9659 21.1247 16.9779 21.1148 16.992C21.1049 17.0047 21.0958 17.0152 21.0859 17.0279C21.0768 17.0399 21.0669 17.0511 21.057 17.0624C21.0479 17.0744 21.038 17.0857 21.0282 17.0969C21.019 17.1082 21.0091 17.1188 20.9993 17.1286C20.9894 17.1399 20.9803 17.1491 20.9697 17.1589C20.9605 17.1688 20.9507 17.1779 20.9408 17.1878C20.9316 17.1977 20.9225 17.2068 20.9119 17.2167C20.9028 17.2265 20.8929 17.2343 20.883 17.2435C20.8732 17.2526 20.864 17.2604 20.8542 17.2702C20.8443 17.2787 20.8351 17.2864 20.8253 17.2949C20.8154 17.3026 20.8063 17.3097 20.7957 17.3181C20.7865 17.3266 20.7774 17.3329 20.7668 17.3407C20.7577 17.3498 20.7478 17.3555 20.7379 17.3625C20.7288 17.3717 20.7189 17.3773 20.709 17.3836C20.6992 17.3914 20.69 17.3984 20.6802 17.4041C20.6703 17.4111 20.6611 17.4189 20.6506 17.4238C20.6414 17.4315 20.6316 17.4372 20.6217 17.4421C20.6118 17.4492 20.6027 17.4562 20.5928 17.4611C20.5837 17.4682 20.5738 17.4745 20.5639 17.4787C20.5541 17.4844 20.5449 17.4914 20.5351 17.4949C20.5252 17.502 20.516 17.5083 20.5062 17.5118C20.4963 17.5182 20.4872 17.5238 20.4766 17.5288C20.4674 17.5344 20.4576 17.54 20.4477 17.545C20.4385 17.5492 20.4287 17.5548 20.4188 17.559C20.409 17.5647 20.3998 17.5703 20.3899 17.5738C20.3801 17.5795 20.3709 17.5837 20.3604 17.5886C20.3512 17.5936 20.3413 17.5985 20.3315 17.6034C20.3223 17.6076 20.3125 17.6119 20.3026 17.6161C20.2934 17.6217 20.2836 17.6267 20.2737 17.6309L20.2448 17.645L20.2152 17.6591C20.2061 17.664 20.1962 17.6682 20.1864 17.6739C20.1765 17.6767 20.1666 17.6816 20.1568 17.6858L20.1272 17.6992L20.0983 17.7126C20.0884 17.7161 20.0793 17.7197 20.0694 17.7246C20.0596 17.7288 20.0504 17.733 20.0405 17.7359C20.0314 17.7401 20.0208 17.7436 20.0117 17.7471L19.9821 17.7584C19.9722 17.7612 19.9631 17.7654 19.9532 17.7683C19.9433 17.7732 19.9342 17.776 19.9236 17.7795L19.8947 17.788L19.8658 17.7978C19.856 17.8007 19.8461 17.8042 19.837 17.807L19.8081 17.8155L19.7785 17.8239C19.7693 17.8267 19.7595 17.831 19.7496 17.8338L19.7207 17.8436C19.7116 17.8465 19.7017 17.8479 19.6918 17.8507C19.682 17.8535 19.6721 17.8563 19.6623 17.8591L19.6334 17.8669C19.6235 17.8697 19.6144 17.8732 19.6045 17.8746C19.5953 17.8774 19.5855 17.8803 19.5756 17.8831L19.5467 17.8908C19.5369 17.8929 19.5277 17.8958 19.5179 17.8979C19.508 17.9 19.4988 17.9028 19.4883 17.9056L19.4594 17.9113C19.4495 17.9141 19.4404 17.9155 19.4305 17.9183L19.4016 17.9225L19.3727 17.9282C19.3629 17.931 19.3537 17.9324 19.3439 17.9352L19.315 17.9408L19.2861 17.9472L19.2572 17.9528C19.2466 17.9542 19.2382 17.9549 19.2283 17.957C19.2185 17.9585 19.2086 17.9599 19.1987 17.9627L19.1699 17.9669C19.1607 17.9697 19.1508 17.9711 19.141 17.9725L19.1121 17.9768L19.0832 17.9817L19.0536 17.9669C19.0445 17.969 19.0353 17.9697 19.0248 17.9718L18.9959 17.9768L18.967 17.9782L18.9381 17.9824L18.9085 17.9845L18.8796 17.988L18.8508 17.9923L18.8219 17.9951L18.793 17.9979L18.7641 18.0021L18.7352 18.0049L18.7063 18.0078L18.6775 18.0113L18.6486 18.0127L18.619 18.0155L18.5901 18.0183L18.5605 18.0197L18.5316 18.0211L18.5028 18.0226L18.4732 18.0254L18.4443 18.0268L18.4189 18.031L18.3901 18.0324L18.3612 18.0338L18.3323 18.0352H18.3034L18.2745 18.0359L18.2449 18.0374L18.2161 18.0395L18.1872 18.0409H18.1583L18.1294 18.0423H18.1005L18.0709 18.0437H18.0421L18.0132 18.0451H17.9843H17.9554H17.9258H17.897H17.8702H17.8413H17.8237H17.8124H17.7835H17.754H17.7251H17.6962H17.6673H17.6384H17.6095L17.5807 18.0437H17.5518H17.5229H17.4933L17.4644 18.043H17.4348L17.406 18.0416H17.3771L17.3482 18.0395H17.3193L17.2904 18.0381L17.2616 18.0366L17.2327 18.0352L17.2031 18.0338L17.1777 18.0303L17.1488 18.0289L17.1193 18.0268L17.0904 18.0254L17.0608 18.024L17.0319 18.0211L17.003 18.0197L16.9741 18.0183L16.9446 18.0155L16.9157 18.0141L16.8868 18.012L16.8579 18.0113L16.829 18.0085L16.8002 18.0071L16.7706 18.0042L16.7417 18.0028L16.7128 18L16.6839 17.9972L16.6586 17.993L16.629 17.9902L16.6001 17.9873L16.5712 17.9845L16.5423 17.9817L16.5127 17.9789L16.4839 17.9747L16.455 17.9718L16.4261 17.969L16.3972 17.9662L16.3683 17.9634L16.3388 17.9592L16.3099 17.9563L16.281 17.9535L16.2521 17.9507L16.2232 17.9465L16.1936 17.943L16.1648 17.9387L16.1359 17.9359L16.107 17.9317L16.0781 17.9275L16.0492 17.9232L16.0196 17.9204L15.9908 17.9162L15.9619 17.9106L15.933 17.9077L15.9034 17.9035L15.8745 17.8986L15.8456 17.8944L15.8168 17.8901L15.7879 17.8852L15.7583 17.881L15.7294 17.8767L15.6998 17.8725L15.6709 17.8669L15.6421 17.8627L15.6132 17.857L15.5843 17.8528L15.5554 17.8479L15.5258 17.8422L15.497 17.8373L15.4674 17.8317L15.4385 17.8253L15.4096 17.8211L15.3807 17.8162L15.3518 17.8105L15.3223 17.8049L15.2934 17.7993L15.2645 17.7936L15.2356 17.7866L15.206 17.7809L15.1771 17.7739L15.1483 17.7676L15.1194 17.7619L15.0905 17.757L15.0616 17.7499L15.032 17.7429L15.0031 17.7373L14.9743 17.7302L14.9454 17.7232L14.9165 17.7154L14.8869 17.7077L14.858 17.7006L14.8292 17.6936L14.8003 17.6865C14.7594 17.6774 14.7383 17.6718 14.7383 17.6718V23.9863H14.8003H14.8292H14.858H14.8975H14.9271H14.956H14.9848H15.0137H15.0426H15.0722H15.1011H15.1299H15.1588H15.1877H15.2166H15.2462H15.2751H15.3039H15.3328H15.3624H15.3913H15.4202H15.4491H15.4779H15.5075H15.5364H15.566H15.5949H15.6238H15.6526H15.6815H15.7104H15.74H15.7689H15.7985H15.8273H15.8562H15.8851H15.914H15.9436H15.9724H16.0013H16.0302H16.0598H16.0887H16.1176H16.1464H16.1753H16.2042H16.2338H16.2627H16.2916H16.3204H16.3493H16.3789H16.4078H16.4367H16.4655H16.4944H16.5233H16.5529H16.5818H16.6107H16.6395H16.6586H16.6874H16.7163H16.7452H16.7741H16.8037H16.8326H16.8614H16.8903H16.9192H16.9481H16.9777H17.0066H17.0354H17.0643H17.0939H17.1228H17.1524H17.1813H17.2101H17.2397H17.2686H17.2975H17.3264H17.3552H17.3841H17.413H17.4419H17.4715H17.5004H17.5299H17.5588H17.5877H17.6166H17.6455H17.6744H17.7032H17.7321H17.761H17.7906H17.8195H17.8483H17.8772H17.9061H17.935H17.9646H17.9935H18.0223H18.0512H18.0801H18.1097H18.1386H18.1675H18.1963H18.2252H18.2541H18.2837H18.3126H18.3415H18.3703H18.3992H18.4281H18.457H18.4859H18.5154H18.5443H18.5732H18.6028H18.6317H18.6613H18.6901H18.719H18.7479H18.7768H18.8057H18.8346H18.8634H18.8923H18.9212H18.9508H18.9797H19.0085H19.0374H19.0536H19.0832H19.1121H19.141H19.1431C19.1523 23.9863 19.1607 23.9863 19.1699 23.9863H19.1987C19.2086 23.9863 19.2185 23.9863 19.2283 23.9849C19.2382 23.9849 19.2474 23.9849 19.2572 23.9849C19.2664 23.9849 19.2762 23.9835 19.2861 23.9835L19.315 23.9821L19.3439 23.9806C19.3537 23.9792 19.3629 23.9792 19.3727 23.9792C19.3826 23.9778 19.3918 23.9778 19.4016 23.9764L19.4305 23.9736C19.4404 23.9729 19.4495 23.9722 19.4594 23.9708C19.4692 23.9694 19.4784 23.968 19.4883 23.9666C19.4981 23.9651 19.5073 23.9651 19.5179 23.9637C19.5277 23.9623 19.5369 23.9609 19.5467 23.9595L19.5756 23.9567C19.5848 23.9553 19.5946 23.9539 19.6045 23.9511C19.6144 23.9497 19.6235 23.9482 19.6334 23.9468C19.6432 23.9447 19.6524 23.9433 19.6623 23.9412L19.6918 23.9363C19.701 23.9349 19.7109 23.9313 19.7207 23.9299C19.7306 23.9271 19.7397 23.9257 19.7496 23.9243C19.7595 23.9229 19.7686 23.9201 19.7785 23.9172L19.8081 23.9109L19.837 23.9032C19.8468 23.9017 19.856 23.8989 19.8658 23.8961C19.875 23.8947 19.8849 23.8919 19.8947 23.8891C19.9046 23.8863 19.9137 23.8834 19.9236 23.8806C19.9335 23.8771 19.9426 23.8757 19.9532 23.8729L19.9821 23.8637L20.0117 23.8553C20.0208 23.8524 20.0307 23.8496 20.0405 23.8454C20.0504 23.8426 20.0596 23.8398 20.0694 23.8369C20.0793 23.8327 20.0884 23.8299 20.0983 23.8271L20.1272 23.8151L20.1561 23.8045C20.1659 23.8017 20.1758 23.7975 20.1857 23.794C20.1955 23.7904 20.2047 23.7862 20.2145 23.782C20.2244 23.7792 20.2336 23.7764 20.2441 23.7721C20.254 23.7679 20.2631 23.763 20.273 23.7587C20.2822 23.7552 20.292 23.7496 20.3019 23.7454L20.3308 23.7327L20.3596 23.72C20.3695 23.7158 20.3787 23.7116 20.3892 23.7059C20.3984 23.7017 20.4083 23.6968 20.4181 23.6925C20.428 23.6862 20.4371 23.682 20.447 23.6777C20.4569 23.6728 20.466 23.6679 20.4759 23.6629C20.4864 23.658 20.4956 23.6538 20.5055 23.6482C20.5153 23.6425 20.5245 23.6369 20.5343 23.6334L20.5632 23.6186C20.5724 23.6129 20.5822 23.6073 20.5921 23.6024C20.602 23.5967 20.6111 23.5911 20.621 23.5883C20.6309 23.5812 20.6407 23.5756 20.6499 23.5721C20.6597 23.5664 20.6689 23.5608 20.6795 23.5552C20.6886 23.5495 20.6985 23.5432 20.7083 23.5383C20.7182 23.5326 20.7281 23.5256 20.7372 23.5207C20.7471 23.5136 20.7562 23.508 20.7661 23.5044C20.776 23.4967 20.7851 23.4904 20.795 23.4854C20.8048 23.4798 20.8147 23.4727 20.8246 23.4671C20.8337 23.4608 20.8436 23.4537 20.8535 23.4474C20.8633 23.4403 20.8725 23.434 20.8823 23.4284C20.8915 23.4213 20.9014 23.4143 20.9112 23.4079C20.9211 23.3995 20.9309 23.3931 20.9401 23.3875C20.95 23.3798 20.9591 23.3727 20.969 23.3657C20.9788 23.3572 20.988 23.3509 20.9986 23.3438C21.0077 23.3368 21.0176 23.329 21.0275 23.3213C21.0373 23.3135 21.0465 23.3058 21.0563 23.2973C21.0662 23.2896 21.0754 23.2826 21.0852 23.2741C21.0951 23.2649 21.1042 23.2586 21.1141 23.2494C21.124 23.241 21.1331 23.2332 21.143 23.2234C21.1528 23.2149 21.162 23.2079 21.1719 23.198C21.1817 23.1889 21.1909 23.1811 21.2007 23.1705C21.2106 23.1614 21.2198 23.1536 21.2296 23.1438C21.2395 23.1325 21.2486 23.1262 21.2585 23.1156C21.2684 23.105 21.2775 23.0959 21.2874 23.0867C21.2972 23.0747 21.3071 23.0684 21.317 23.0571C21.3268 23.0459 21.336 23.0367 21.3459 23.0268C21.3557 23.0156 21.3649 23.0064 21.3754 22.9958C21.3853 22.9839 21.3945 22.974 21.4043 22.9627C21.4142 22.9508 21.4233 22.9409 21.4332 22.9289C21.4431 22.9177 21.4529 22.9064 21.4621 22.8944C21.4719 22.8817 21.4811 22.8712 21.491 22.8585C21.5008 22.8458 21.51 22.8352 21.5198 22.8219C21.5297 22.8085 21.5389 22.7965 21.5487 22.7838C21.5586 22.7711 21.5677 22.7578 21.5776 22.7451C21.5875 22.7303 21.5966 22.7176 21.6065 22.7035C21.6164 22.6887 21.6262 22.6753 21.6354 22.6605C21.6452 22.6457 21.6551 22.6317 21.6643 22.6169C21.6741 22.6021 21.684 22.5866 21.6938 22.5725C21.7037 22.5577 21.7129 22.5408 21.7227 22.5267C21.7326 22.5119 21.7424 22.495 21.7516 22.4795C21.7615 22.4619 21.7713 22.4443 21.7805 22.4274C21.7903 22.4105 21.7995 22.3929 21.8094 22.3738C21.8192 22.3562 21.8291 22.3365 21.8383 22.3175C21.8481 22.2985 21.8573 22.2787 21.8671 22.2583C21.877 22.2386 21.8869 22.2167 21.896 22.1963C21.9059 22.1738 21.9157 22.1512 21.9249 22.1287C21.9355 22.104 21.9446 22.0808 21.9545 22.0554C21.9643 22.0294 21.9735 22.0033 21.9834 21.9779C21.9932 21.9491 22.0031 21.9202 22.0122 21.8913C22.0221 21.8596 22.032 21.8265 22.0411 21.7941C22.0517 21.756 22.0616 21.7208 22.07 21.6835C22.0806 21.6398 22.0904 21.5933 22.0989 21.5489C22.1102 21.4898 22.12 21.4292 22.1285 21.3686C22.144 21.2418 22.1531 21.1143 22.1531 20.9847V6.0127H22.1285Z" fill="#DEDFE2"/>
<path d="M38.7254 6.00928H38.6747V6.0128H38.6465H38.6176H38.5887H38.5599H38.531H38.5021H38.4732H38.4436H38.4147H38.3859H38.3556H38.3281H38.2992H38.2703H38.2415H38.2126H38.1837H38.1548H38.1245H38.0956H38.0668H38.0393H38.009H37.9801H37.9512H37.9223H37.8935H37.8653H37.8364H37.8075H37.7786H37.7498H37.7209H37.692H37.6631H37.6342H37.6054H37.5751H37.5462H37.5173H37.4898H37.4609H37.4321H37.4032H37.3743H37.3454H37.3165H37.2877H37.2574H37.2292H37.1989H37.17H37.1411H37.1122H37.0834H37.0545H37.0256H36.9967H36.9664H36.9404H36.9115H36.8826H36.8537H36.8248H36.796H36.7671H36.7382H36.7093H36.6804H36.6516H36.6227H36.5924H36.5628H36.5339H36.505H36.4761H36.4473H36.4184H36.3909H36.3606H36.3317H36.3029H36.274H36.2451H36.2148H36.1859H36.157H36.1282H36.1021H36.0718H36.0429H36.014H35.9852H35.957H35.9281H35.8992H35.8703H35.8415H35.8126H35.7837H35.7548H35.7259H35.697H35.6668H35.6379H35.609H35.5801H35.5526H35.5238H35.4949H35.466H35.4371H35.4082H35.3793H35.3505H35.3202H35.292H35.2631H35.2342H35.2054H35.1765H35.1462H35.1173H35.0884H35.0595H35.0307H35.0032H34.9729H34.9454H34.9165H34.8862H34.8574H34.8285H34.7996H34.7707H34.7432H34.7144H34.6855H34.6566H34.6277H34.5988H34.5693H34.5404H34.5115H34.4826H34.4537H34.4234H34.3946H34.3657H34.3368H34.3157H34.3079C34.298 6.0128 34.2896 6.0128 34.279 6.0128C34.2678 6.0128 34.2607 6.0128 34.2501 6.0128C34.2403 6.0128 34.2318 6.0135 34.2213 6.01421L34.1924 6.01491C34.1825 6.01491 34.1741 6.01491 34.1635 6.01562C34.1522 6.01562 34.1438 6.01703 34.1332 6.01703C34.1248 6.01773 34.1149 6.01843 34.1043 6.01914L34.0754 6.02055L34.0466 6.02478C34.0367 6.02548 34.0282 6.02618 34.0177 6.02759C34.0078 6.0283 33.998 6.02971 33.9874 6.03041L33.9585 6.03323C33.9501 6.03393 33.9402 6.03534 33.9296 6.03675C33.9198 6.03816 33.9113 6.03886 33.9007 6.04027C33.8909 6.04168 33.8824 6.04309 33.8719 6.0445C33.862 6.0452 33.8535 6.04732 33.8416 6.04873L33.8127 6.05366C33.8028 6.05507 33.7944 6.05647 33.7838 6.05788C33.7739 6.06 33.7655 6.06211 33.7556 6.06352C33.7451 6.06493 33.7366 6.06704 33.7267 6.06915L33.6979 6.07479L33.669 6.08113C33.6584 6.08324 33.65 6.08606 33.6401 6.08747C33.6295 6.08958 33.6211 6.0917 33.6112 6.09451C33.6007 6.09733 33.5908 6.09944 33.5823 6.10156L33.5535 6.10931C33.5429 6.11142 33.533 6.11424 33.5232 6.11706C33.5126 6.11987 33.5041 6.12199 33.4943 6.12551C33.4851 6.12833 33.4753 6.13114 33.4654 6.13396C33.4548 6.13678 33.4464 6.1396 33.4365 6.14242C33.426 6.14523 33.4175 6.14805 33.4076 6.15157L33.3774 6.16073C33.3682 6.16425 33.3583 6.16707 33.3485 6.17059C33.3379 6.17411 33.3295 6.17693 33.3196 6.18116C33.309 6.18398 33.3006 6.1882 33.2907 6.19102C33.2801 6.19454 33.2724 6.19807 33.2618 6.20159L33.2329 6.21286L33.2027 6.22413C33.1935 6.22765 33.1843 6.23188 33.1738 6.2361C33.1632 6.23963 33.1555 6.24385 33.1449 6.24808C33.1343 6.25231 33.1266 6.25653 33.116 6.26076C33.1054 6.26499 33.0977 6.26921 33.0871 6.27344C33.0766 6.27767 33.0688 6.2826 33.0582 6.28682C33.0477 6.29105 33.0399 6.29598 33.0294 6.30091L33.0005 6.315C32.9899 6.31993 32.9822 6.32486 32.9716 6.32979C32.961 6.33473 32.9533 6.33966 32.9427 6.34459C32.9322 6.34952 32.9244 6.35445 32.9124 6.35938C32.9033 6.36431 32.8941 6.36995 32.8835 6.37488C32.873 6.37981 32.8652 6.38544 32.8547 6.39038C32.8441 6.39531 32.8363 6.40165 32.8258 6.40658C32.8152 6.41221 32.8075 6.41785 32.7969 6.42348C32.7863 6.42912 32.7786 6.43475 32.768 6.44039C32.7575 6.44603 32.7497 6.45237 32.7391 6.458L32.7103 6.47632C32.7004 6.48266 32.6905 6.489 32.68 6.49534L32.6504 6.51365L32.6215 6.53337C32.6116 6.53971 32.6025 6.54676 32.5926 6.5538L32.5637 6.57423C32.5539 6.58128 32.5447 6.58832 32.5349 6.59537C32.525 6.60241 32.5158 6.60945 32.506 6.6165L32.4771 6.63904L32.4482 6.66158C32.4383 6.66792 32.4292 6.67708 32.4193 6.68412C32.4095 6.69187 32.3996 6.69892 32.3904 6.70807C32.3813 6.71723 32.3714 6.72498 32.3616 6.73343C32.3517 6.74189 32.3425 6.75034 32.3313 6.75879C32.3214 6.76725 32.3137 6.7757 32.3024 6.78415C32.2925 6.79331 32.2834 6.80176 32.2749 6.81092C32.2636 6.82008 32.2545 6.82853 32.2446 6.83769C32.2348 6.84685 32.2256 6.856 32.2157 6.86587C32.2059 6.87502 32.1967 6.88489 32.1869 6.89404C32.1756 6.90391 32.1678 6.91377 32.158 6.92363C32.1467 6.9342 32.139 6.94406 32.1291 6.95392C32.1192 6.96449 32.1101 6.97435 32.1002 6.98492C32.0889 6.99548 32.0798 7.00675 32.0713 7.01732C32.0601 7.02789 32.0509 7.03845 32.041 7.04972C32.0312 7.06099 32.022 7.07227 32.0122 7.08424C32.0023 7.09622 31.9931 7.10749 31.9833 7.11876C31.9734 7.13073 31.9643 7.14271 31.9544 7.15468C31.9445 7.16736 31.9354 7.18004 31.9255 7.19272C31.9157 7.2054 31.9065 7.21808 31.8966 7.23076C31.8868 7.24485 31.8776 7.25753 31.8678 7.27092C31.8579 7.2843 31.8494 7.29839 31.8389 7.31248C31.829 7.32657 31.8206 7.34136 31.81 7.35545C31.7987 7.37024 31.7903 7.38503 31.7811 7.39983C31.7698 7.41532 31.7614 7.43082 31.7522 7.44632C31.741 7.46252 31.7325 7.47872 31.7219 7.49422C31.7121 7.51113 31.7036 7.52803 31.6931 7.54494C31.6832 7.56185 31.674 7.57946 31.6635 7.59777C31.6529 7.61609 31.6444 7.6344 31.6339 7.65272C31.6226 7.67244 31.6156 7.69146 31.605 7.71119C31.5937 7.73161 31.5853 7.75204 31.5761 7.77318C31.5648 7.79501 31.5578 7.81755 31.5472 7.83939C31.536 7.86264 31.5275 7.88659 31.5184 7.91054C31.5071 7.9359 31.4986 7.96196 31.4895 7.98732C31.4782 8.0155 31.4697 8.04368 31.4606 8.07185C31.4493 8.10215 31.4409 8.13384 31.4303 8.16484C31.4204 8.19936 31.412 8.23528 31.4014 8.2705C31.3901 8.31207 31.3817 8.35433 31.3725 8.3966C31.331 8.59384 31.3105 8.79812 31.3105 9.00734V12.1181H31.3725H31.4014H31.4303H31.4606H31.4895H31.5184H31.5472H31.5761H31.605H31.6339H31.6628H31.6916H31.7205H31.7508H31.7797H31.8086H31.8375H31.8663H31.8952H31.9241H31.953H31.9819H32.0108H32.0396H32.0699H32.0988H32.1277H32.1566H32.1855H32.2143H32.2432H32.2735H32.301H32.3299H32.3602H32.389H32.4179H32.4468H32.4757H32.5046H32.5334H32.5623H32.5912H32.6201H32.649H32.6778H32.7081H32.737H32.7659H32.7948H32.8237H32.8525H32.8814H32.9103H32.9406H32.9695H32.9984H33.0272H33.0561H33.085H33.1139H33.1428H33.1717H33.2005H33.2308H33.2597H33.2886H33.3175H33.3534H33.3823H33.4112H33.44H33.4703H33.4992H33.5281H33.557H33.5859H33.6147H33.6436H33.6725H33.7028H33.7317H33.7606H33.7894H33.8183H33.8472H33.8761H33.905H33.9353H33.9641H33.993H34.0219H34.0508H34.0797H34.1107H34.1395H34.1684H34.1973H34.2262H34.2551H34.284H34.3142H34.3431H34.372H34.4009H34.4298H34.4587H34.4875H34.5164H34.5453H34.5742H34.6031H34.6319H34.6608H34.6897H34.7186H34.7475H34.7764H34.8052H34.8341H34.863H34.8919H34.9208H34.9496H34.9785H35.0088H35.0377H35.0666H35.0962H35.125H35.1539H35.1842H35.2131H35.242H35.2709H35.2997H35.3286H35.3575H35.3864H35.4153H35.4442H35.473H35.5033H35.5322H35.5611H35.5752H35.5907H35.6196L35.6477 12.1188L35.6766 12.1195L35.7062 12.1202L35.7344 12.1216L35.7633 12.123L35.7921 12.1245L35.8224 12.1259L35.8513 12.1273L35.8689 12.1287L35.8802 12.1294L35.9091 12.1308L35.938 12.1329L35.9668 12.135L35.9957 12.1371L36.0246 12.1407L36.0535 12.1435L36.0824 12.147L36.1127 12.1505L36.1415 12.154L36.1704 12.1576C36.1796 12.159 36.1887 12.1604 36.1993 12.1625L36.2282 12.1674C36.2388 12.1688 36.2465 12.1709 36.2571 12.1731C36.2676 12.1745 36.2754 12.1773 36.286 12.1787L36.3148 12.1843C36.3254 12.1864 36.3346 12.1893 36.3451 12.1907C36.3557 12.1928 36.3634 12.1956 36.374 12.1977L36.4029 12.2055C36.4135 12.2076 36.4212 12.2104 36.4318 12.2125C36.4423 12.2153 36.4501 12.2181 36.4607 12.221C36.4712 12.2238 36.4804 12.2266 36.4895 12.2301C36.5001 12.2329 36.5078 12.2358 36.5184 12.2386C36.529 12.2421 36.5367 12.2449 36.5473 12.2484C36.5579 12.2513 36.5656 12.2548 36.5776 12.2583C36.5867 12.2611 36.5959 12.2653 36.6065 12.2689C36.617 12.2724 36.6248 12.2759 36.6353 12.2794C36.6452 12.2837 36.6537 12.2872 36.6642 12.2914C36.6748 12.2956 36.684 12.2992 36.6931 12.3041C36.703 12.3083 36.7114 12.3118 36.7234 12.3161C36.7333 12.321 36.7417 12.3252 36.7523 12.3294C36.7621 12.3337 36.7706 12.3393 36.7812 12.3435C36.7896 12.3478 36.7995 12.3527 36.81 12.3583C36.8199 12.3633 36.8284 12.3682 36.8389 12.3731C36.8488 12.378 36.8572 12.3837 36.8678 12.3886C36.8777 12.3942 36.8861 12.3999 36.8967 12.4055C36.9066 12.4112 36.9164 12.4175 36.9256 12.4231C36.9354 12.4295 36.9439 12.4351 36.9545 12.4414C36.9643 12.4478 36.9742 12.4541 36.9833 12.4605C36.9932 12.4668 37.0017 12.4739 37.0136 12.4809C37.0221 12.4879 37.0319 12.495 37.0425 12.502C37.0524 12.5098 37.0608 12.5168 37.0714 12.5253C37.0813 12.5323 37.0897 12.5408 37.0996 12.5492C37.1101 12.557 37.1186 12.5654 37.1285 12.5746C37.139 12.583 37.1475 12.5922 37.1573 12.6014C37.1679 12.6105 37.1764 12.6197 37.1862 12.6295C37.1968 12.6401 37.2052 12.65 37.2151 12.6598C37.2257 12.6711 37.2355 12.681 37.2454 12.6922C37.256 12.7035 37.2644 12.7155 37.2743 12.7267C37.2848 12.7394 37.2933 12.7514 37.3032 12.7641C37.3137 12.7782 37.3236 12.7908 37.332 12.8049C37.3426 12.8197 37.3511 12.8345 37.3609 12.8493C37.3715 12.8655 37.3813 12.8817 37.3898 12.8986C37.4004 12.9169 37.4102 12.936 37.4187 12.955C37.4307 12.9761 37.4391 12.9979 37.4476 13.0205C37.4595 13.0466 37.468 13.0726 37.4778 13.0994C37.4884 13.1325 37.4983 13.167 37.5067 13.2022C37.5201 13.2586 37.53 13.3171 37.5356 13.3769C37.5398 13.4234 37.5434 13.472 37.5434 13.522C37.5434 13.5685 37.5398 13.615 37.5356 13.6615C37.53 13.72 37.5208 13.7771 37.5067 13.8327C37.4983 13.8672 37.4898 13.9017 37.4778 13.9355C37.468 13.9623 37.4595 13.9884 37.4476 14.0144C37.4391 14.0363 37.4307 14.0588 37.4187 14.0807C37.4102 14.1004 37.4004 14.1194 37.3898 14.1384C37.3813 14.1553 37.3715 14.1722 37.3609 14.1891C37.3511 14.2046 37.3426 14.2194 37.332 14.2349C37.3236 14.2497 37.3137 14.2638 37.3032 14.2772C37.2933 14.2906 37.2848 14.3033 37.2743 14.3159C37.2644 14.3279 37.256 14.3399 37.2454 14.3519C37.2355 14.3631 37.2271 14.3744 37.2151 14.385C37.2066 14.3955 37.1968 14.4061 37.1862 14.4167C37.1764 14.4265 37.1679 14.4364 37.1573 14.4463C37.1475 14.4554 37.139 14.4646 37.1285 14.4744C37.1186 14.4836 37.1101 14.492 37.0996 14.5005C37.0897 14.509 37.0813 14.5174 37.0714 14.5266C37.0608 14.5336 37.0524 14.5414 37.0425 14.5491C37.0319 14.5569 37.0235 14.5639 37.0136 14.5716C37.0031 14.5787 36.9946 14.5857 36.9833 14.5921C36.9742 14.5998 36.9643 14.6062 36.9545 14.6125C36.9439 14.6181 36.9354 14.6252 36.9256 14.6308C36.9164 14.6372 36.9066 14.6428 36.8967 14.6491C36.8861 14.6548 36.8777 14.6604 36.8678 14.6653C36.8572 14.671 36.8488 14.6766 36.8389 14.6815C36.8284 14.6872 36.8199 14.6921 36.81 14.6963C36.7995 14.7013 36.791 14.7069 36.7812 14.7111C36.7706 14.7168 36.7621 14.7217 36.7523 14.7259C36.7417 14.7316 36.7333 14.7358 36.7234 14.7407C36.7128 14.7449 36.7051 14.7492 36.6931 14.7534C36.684 14.7576 36.6748 14.7618 36.6642 14.7661C36.6537 14.7703 36.6459 14.7745 36.6353 14.7788C36.6248 14.7823 36.617 14.7872 36.6065 14.79C36.5959 14.7942 36.5882 14.7971 36.5776 14.8013C36.567 14.8048 36.5579 14.8076 36.5473 14.8112C36.5367 14.814 36.529 14.8182 36.5184 14.821C36.5078 14.8238 36.5001 14.8267 36.4895 14.8309C36.4804 14.8337 36.4712 14.8365 36.4607 14.8393C36.4501 14.8422 36.4423 14.845 36.4318 14.8478C36.4212 14.8506 36.4135 14.8534 36.4029 14.8562C36.3923 14.8576 36.3846 14.8605 36.374 14.8633C36.3634 14.8654 36.3557 14.8675 36.3451 14.8696L36.3148 14.8767C36.3057 14.8795 36.2965 14.8809 36.286 14.8837L36.2571 14.8893C36.2465 14.8908 36.2388 14.8922 36.2282 14.8943L36.1993 14.8992L36.1725 14.9034V14.938L36.2 14.9408L36.2289 14.9422L36.2578 14.945L36.2867 14.9478L36.3155 14.9506L36.3458 14.9549L36.3747 14.9584C36.386 14.9598 36.3937 14.9612 36.4036 14.9626L36.4325 14.9675C36.4437 14.9689 36.4515 14.9704 36.4614 14.9732L36.4902 14.9774L36.5191 14.9837C36.5304 14.9859 36.5381 14.9873 36.548 14.9894C36.5593 14.9915 36.567 14.9929 36.5783 14.9957C36.5874 14.9985 36.5959 14.9999 36.6072 15.0028C36.617 15.0042 36.6262 15.007 36.6361 15.0098C36.6459 15.0112 36.6551 15.014 36.6649 15.0169C36.6755 15.0197 36.684 15.0225 36.6938 15.0246C36.7037 15.0281 36.7128 15.0295 36.7241 15.0338L36.753 15.0422C36.7614 15.045 36.7706 15.0478 36.7819 15.0514C36.7903 15.0542 36.7995 15.0577 36.8108 15.0605C36.8206 15.0648 36.8298 15.0676 36.8396 15.0704C36.8495 15.0739 36.8587 15.0781 36.8685 15.081C36.8784 15.0845 36.8875 15.0887 36.8974 15.0915C36.9073 15.0957 36.9164 15.0986 36.9263 15.1035C36.9361 15.1077 36.9453 15.1112 36.9552 15.1155C36.965 15.1197 36.9742 15.1239 36.984 15.1282C36.9939 15.1324 37.0031 15.1366 37.0143 15.1408C37.0228 15.1451 37.0319 15.1493 37.0432 15.1549C37.0531 15.1591 37.0608 15.1641 37.0721 15.169C37.082 15.1739 37.0911 15.1789 37.101 15.1838C37.1108 15.188 37.1186 15.1937 37.1299 15.1986C37.1397 15.2035 37.1489 15.2092 37.1573 15.2141C37.1686 15.2197 37.1764 15.2247 37.1876 15.2296C37.1975 15.2359 37.2066 15.2416 37.2165 15.2465C37.2264 15.2514 37.2355 15.2585 37.2454 15.2641C37.2567 15.2697 37.2644 15.2768 37.2743 15.2817C37.2855 15.2881 37.2947 15.2958 37.3046 15.3007C37.3144 15.3078 37.3236 15.3148 37.3334 15.3212C37.3433 15.3275 37.3525 15.3353 37.3623 15.3423C37.3722 15.3493 37.3813 15.3571 37.3912 15.3634C37.4011 15.3726 37.4102 15.3782 37.4201 15.3881C37.4299 15.3951 37.4391 15.4029 37.449 15.4127C37.4588 15.4212 37.468 15.4289 37.4778 15.4374C37.4877 15.4473 37.4969 15.4564 37.5067 15.4649C37.518 15.4761 37.5272 15.4839 37.537 15.4938C37.5469 15.505 37.556 15.5142 37.5659 15.5255C37.5772 15.5367 37.5849 15.5473 37.5948 15.5586C37.6046 15.5698 37.6138 15.5818 37.6237 15.5931C37.6349 15.6065 37.6427 15.6191 37.6525 15.6325C37.6638 15.6459 37.6723 15.6579 37.6814 15.6727C37.6927 15.6875 37.7012 15.7037 37.7103 15.7171C37.7216 15.7318 37.73 15.7495 37.7392 15.765C37.7505 15.7826 37.7589 15.8023 37.7695 15.8199C37.7793 15.8417 37.7878 15.8629 37.7984 15.8847C37.8096 15.908 37.8181 15.9326 37.8272 15.9587C37.8385 15.989 37.847 16.0207 37.8561 16.0538C37.8688 16.1003 37.8773 16.1503 37.885 16.1996C37.8935 16.2602 37.8977 16.3236 37.8977 16.387C37.8977 16.4539 37.8935 16.5187 37.885 16.5793C37.8773 16.6314 37.8688 16.6821 37.8561 16.7307C37.847 16.7638 37.8385 16.797 37.8272 16.8301C37.8181 16.8561 37.8096 16.8822 37.7984 16.9068C37.7878 16.9287 37.7808 16.9505 37.7695 16.9731C37.7596 16.9921 37.7505 17.0111 37.7392 17.0294C37.73 17.047 37.7216 17.0639 37.7103 17.0801C37.7012 17.0949 37.6927 17.1118 37.6814 17.1266C37.6723 17.1407 37.6638 17.1541 37.6525 17.1682C37.6427 17.1823 37.6349 17.1943 37.6237 17.2083C37.6138 17.2217 37.6061 17.233 37.5948 17.2464C37.5849 17.2576 37.5758 17.2675 37.5659 17.2795C37.556 17.2915 37.5469 17.3006 37.537 17.3112C37.5272 17.3232 37.518 17.3309 37.5067 17.3415C37.4969 17.352 37.4891 17.3598 37.4778 17.3704C37.468 17.3795 37.4602 17.3873 37.449 17.3964C37.4391 17.4049 37.4299 17.4133 37.4201 17.4225C37.4102 17.4309 37.4011 17.438 37.3912 17.445C37.3813 17.4542 37.3722 17.4598 37.3623 17.4683C37.3525 17.4767 37.3433 17.4831 37.3334 17.4901C37.3236 17.4986 37.3144 17.5049 37.3046 17.5119C37.2947 17.519 37.2855 17.526 37.2743 17.531C37.2658 17.538 37.2567 17.5451 37.2454 17.5493C37.2355 17.5556 37.2278 17.5627 37.2165 17.5662C37.2066 17.5725 37.1975 17.5796 37.1876 17.5838C37.1778 17.5894 37.1686 17.5951 37.1573 17.6C37.1489 17.6056 37.1397 17.6113 37.1299 17.6148C37.1186 17.6204 37.1108 17.6261 37.101 17.6303C37.0911 17.6345 37.082 17.6409 37.0721 17.6451C37.0608 17.6507 37.0531 17.6564 37.0432 17.6599C37.0319 17.6641 37.0242 17.6697 37.0143 17.674C37.0031 17.6782 36.9953 17.6824 36.984 17.6874C36.9742 17.6916 36.965 17.6958 36.9552 17.7007C36.9453 17.705 36.9361 17.7092 36.9263 17.7134C36.9164 17.7176 36.9073 17.7219 36.8974 17.7261C36.8875 17.7303 36.8784 17.7331 36.8685 17.7374C36.8587 17.7402 36.8495 17.7451 36.8396 17.7479C36.8298 17.7522 36.8206 17.755 36.8108 17.7585C36.8009 17.7613 36.7917 17.7655 36.7819 17.7684L36.753 17.7726C36.7417 17.7754 36.734 17.7782 36.7241 17.781C36.7128 17.7839 36.7051 17.7881 36.6938 17.7895C36.684 17.7923 36.6755 17.7951 36.6649 17.7987C36.6551 17.8015 36.6473 17.8029 36.6361 17.8057C36.6262 17.8085 36.617 17.8099 36.6072 17.8134C36.5959 17.8163 36.5882 17.8177 36.5783 17.8205L36.548 17.8261C36.5381 17.8275 36.5304 17.8318 36.5191 17.8332C36.5093 17.8346 36.5015 17.836 36.4902 17.8388L36.4614 17.843L36.4325 17.8487C36.4226 17.8501 36.4149 17.8515 36.4036 17.8529C36.3937 17.8543 36.386 17.8557 36.3747 17.8571C36.3648 17.8585 36.3557 17.8606 36.3458 17.8621L36.3155 17.8649C36.3057 17.8663 36.2979 17.8677 36.2867 17.8677C36.2768 17.8691 36.269 17.8705 36.2578 17.8705L36.2289 17.8698L36.2 17.8726L36.1711 17.874L36.1422 17.8754L36.1021 17.8797C36.0922 17.8811 36.0838 17.8811 36.0718 17.8811C36.0619 17.8811 36.0535 17.8811 36.0429 17.8825H36.014H35.9852H35.9711H35.957H35.9281H35.8992H35.8703H35.8415H35.8126H35.7837H35.7548H35.7259H35.697H35.6668H35.6379H35.609H35.5801H35.5526H35.5238H35.4949H35.466H35.4371H35.4082H35.3793H35.3505H35.3202H35.292H35.2631H35.2342H35.2054H35.1765H35.1462H35.1173H35.0884H35.0595H35.0307H35.0032H34.9729H34.9454H34.9165H34.8862H34.8574H34.8285H34.7996H34.7707H34.7432H34.7144H34.6855H34.6566H34.6277H34.5988H34.5693H34.5404H34.5115H34.4826H34.4537H34.4234H34.3946H34.3657H34.3368H34.3079H34.279H34.2501H34.2213H34.1924H34.1635H34.1346H34.1057H34.0754H34.0466H34.0177H33.9888H33.9599H33.931H33.9043H33.8754H33.8465H33.8176H33.7887H33.7599H33.731H33.7021H33.6718H33.6429H33.6154H33.5866H33.5577H33.5288H33.4999H33.471H33.4407H33.4112H33.3823H33.3548H33.3245H33.2956H33.2668H33.2379H33.209H33.1801H33.1512H33.1223H33.0935H33.0646H33.0357H33.0082H32.9793H32.9505H32.9195H32.8913H32.8624H32.8335H32.8061H32.7758H32.7469H32.718H32.6884H32.6588H32.6285H32.5997H32.5708H32.5433H32.5144H32.4855H32.4567H32.4278H32.3989H32.37H32.3411H32.3122H32.2834H32.2545H32.2256H32.1967H32.1678H32.139H32.1101H32.0812H32.0509H32.022H31.9938H31.9664H31.9375H31.9086H31.8797H31.8508H31.822H31.7931H31.7642H31.7339H31.7064H31.6776H31.6487H31.6184H31.5895H31.5606H31.5317H31.5029H31.4733H31.4444H31.4169H31.3866H31.3253V23.9899H31.3873H31.4176H31.4465H31.4754H31.5043H31.5331H31.562H31.5909H31.6198H31.6501H31.679H31.7078H31.7367H31.7656H31.7945H31.8234H31.8523H31.8825H31.9114H31.9403H31.9692H31.9981H32.027H32.0558H32.0847H32.1136H32.1425H32.1714H32.2002H32.2305H32.2594H32.2883H32.3172H32.3461H32.3764H32.4052H32.4334H32.4623H32.4912H32.5201H32.5489H32.5778H32.6067H32.6356H32.6645H32.6933H32.7236H32.7525H32.7814H32.8103H32.8392H32.868H32.8969H32.9258H32.9561H32.985H33.0139H33.0427H33.0716H33.1005H33.1294H33.1583H33.1872H33.216H33.2463H33.2752H33.3041H33.333H33.3534H33.3823H33.4112H33.44H33.4703H33.4992H33.5281H33.557H33.5859H33.6147H33.6436H33.6725H33.7028H33.7317H33.7606H33.7894H33.8183H33.8472H33.8761H33.905H33.9353H33.9641H33.993H34.0219H34.0508H34.0797H34.1107H34.1395H34.1684H34.1973H34.2262H34.2551H34.284H34.3142H34.3431H34.372H34.4009H34.4298H34.4587H34.4875H34.5164H34.5453H34.5742H34.6031H34.6319H34.6608H34.6897H34.7186H34.7475H34.7764H34.8052H34.8341H34.863H34.8919H34.9208H34.9496H34.9785H35.0088H35.0377H35.0666H35.0962H35.125H35.1539H35.1842H35.2131H35.242H35.2709H35.2997H35.3286H35.3575H35.3864H35.4153H35.4442H35.473H35.5033H35.5322H35.5611H35.5907H35.6196H35.6484H35.6766H35.7062H35.7287H35.7344H35.7633C35.7738 23.9899 35.7823 23.9899 35.7921 23.9899L35.821 23.9885H35.8499C35.8605 23.9885 35.8703 23.9885 35.8802 23.9871C35.8894 23.9871 35.8992 23.9871 35.9091 23.9857L35.938 23.9843C35.9485 23.9843 35.957 23.9829 35.9668 23.9829C35.9774 23.9815 35.9859 23.9815 35.9957 23.98C36.0063 23.9786 36.0162 23.9786 36.0246 23.9758C36.0352 23.9758 36.0429 23.9744 36.0535 23.9744C36.0641 23.973 36.0718 23.9716 36.0824 23.9702C36.0929 23.9702 36.1007 23.9688 36.1127 23.9674C36.1218 23.966 36.131 23.9645 36.1415 23.9645L36.1704 23.9589L36.1993 23.9547L36.2282 23.9505C36.2388 23.949 36.2465 23.9476 36.2571 23.9455C36.2676 23.9441 36.2754 23.9427 36.286 23.9399L36.3148 23.9343L36.3451 23.9279C36.3557 23.9251 36.3634 23.9237 36.374 23.9209C36.3846 23.9195 36.3923 23.9166 36.4029 23.9138L36.4318 23.9068L36.4607 23.8997L36.4895 23.8913C36.5001 23.8899 36.5078 23.8871 36.5184 23.8835C36.529 23.8807 36.5367 23.8779 36.5473 23.8751C36.5579 23.8716 36.5656 23.8702 36.5776 23.8659L36.6065 23.8575C36.617 23.8547 36.6248 23.8518 36.6353 23.849L36.6642 23.8392C36.6748 23.8349 36.6825 23.8321 36.6931 23.8293C36.703 23.8258 36.7114 23.8215 36.7234 23.8187C36.734 23.8145 36.7417 23.811 36.7523 23.8068L36.7812 23.7969C36.7896 23.7927 36.7995 23.7884 36.81 23.7842C36.8199 23.7814 36.8284 23.7772 36.8389 23.7729C36.8488 23.7687 36.8572 23.7645 36.8678 23.7596C36.8777 23.7567 36.8861 23.7518 36.8967 23.7476C36.9066 23.7434 36.915 23.7391 36.9256 23.7342C36.9354 23.7293 36.9439 23.725 36.9545 23.7208L36.9833 23.7067L37.0136 23.6919C37.0221 23.6877 37.0319 23.6835 37.0425 23.6793C37.0524 23.6736 37.0608 23.668 37.0714 23.6645C37.0813 23.6588 37.0897 23.6546 37.1003 23.6497C37.1101 23.6447 37.1186 23.6384 37.1285 23.6349C37.139 23.6285 37.1475 23.6243 37.1573 23.6201C37.1679 23.6137 37.1764 23.6081 37.1862 23.6053C37.1968 23.5997 37.2052 23.594 37.2151 23.5891C37.2257 23.5842 37.2355 23.5778 37.2454 23.5729L37.2743 23.5574C37.2848 23.5518 37.2933 23.544 37.3032 23.5405C37.3137 23.5348 37.3222 23.5278 37.332 23.5229C37.3426 23.5172 37.3511 23.5102 37.3609 23.5053C37.3715 23.4982 37.3799 23.4926 37.3898 23.4862C37.4004 23.4806 37.4088 23.4736 37.4187 23.4679C37.4292 23.4623 37.4377 23.4545 37.4476 23.4482C37.4581 23.4419 37.4666 23.4348 37.4778 23.4292C37.487 23.4221 37.4969 23.4144 37.5067 23.4088C37.5173 23.4017 37.5258 23.394 37.5356 23.3883C37.5462 23.3799 37.5546 23.3735 37.5645 23.3651C37.5751 23.358 37.5835 23.3503 37.5934 23.3432C37.6039 23.3348 37.6138 23.3284 37.6237 23.3207C37.6342 23.3115 37.642 23.3052 37.6525 23.2974C37.6617 23.289 37.6709 23.282 37.6814 23.2735C37.692 23.2643 37.7005 23.2573 37.7103 23.2488C37.7209 23.2397 37.7293 23.2326 37.7392 23.2228C37.7498 23.2143 37.7568 23.2066 37.7681 23.1967C37.7786 23.1869 37.7871 23.1791 37.797 23.1692C37.8075 23.1594 37.816 23.1516 37.8258 23.1418C37.8364 23.1319 37.8449 23.1228 37.8547 23.1143C37.8653 23.103 37.8737 23.0939 37.8836 23.084C37.8942 23.0741 37.9026 23.065 37.9125 23.0551C37.9231 23.0439 37.9315 23.0347 37.9428 23.0248C37.9519 23.0122 37.9604 23.003 37.9717 22.9931C37.9822 22.9805 37.9907 22.9713 38.0005 22.9586C38.0111 22.9473 38.0196 22.9368 38.0294 22.9255C38.04 22.9135 38.0484 22.9023 38.0583 22.891C38.0689 22.8776 38.0773 22.8663 38.0872 22.8544C38.097 22.841 38.1062 22.8304 38.1161 22.817C38.1259 22.8036 38.1351 22.791 38.1449 22.7776C38.1548 22.7635 38.164 22.7515 38.1752 22.7374C38.1851 22.7233 38.1928 22.71 38.2041 22.6959C38.214 22.6818 38.2217 22.6684 38.233 22.6529C38.2429 22.6381 38.2506 22.624 38.2619 22.6092C38.2717 22.5944 38.2809 22.5789 38.2908 22.5641C38.3006 22.5479 38.3098 22.5324 38.3196 22.5162C38.3295 22.5007 38.3373 22.4831 38.3485 22.4676C38.3584 22.4507 38.3661 22.4324 38.3774 22.4155C38.3873 22.3986 38.3964 22.3796 38.4063 22.3613C38.4162 22.3422 38.4253 22.3218 38.4352 22.3035C38.445 22.2831 38.4542 22.2626 38.4641 22.2429C38.4753 22.2211 38.4831 22.1992 38.4929 22.1774C38.5028 22.1549 38.512 22.1316 38.5232 22.1063C38.5331 22.0816 38.5408 22.0576 38.5514 22.033C38.562 22.0055 38.5711 21.9788 38.5796 21.9513C38.5909 21.9224 38.6 21.8907 38.6085 21.8597C38.6197 21.8266 38.6289 21.7921 38.6373 21.7569C38.6486 21.7167 38.6578 21.678 38.6662 21.6371C38.6789 21.5885 38.6867 21.5364 38.6965 21.4871C38.7092 21.4124 38.7184 21.3356 38.7254 21.2588C38.7339 21.1708 38.7381 21.0827 38.7381 20.9933V6.00928H38.7254Z" fill="#DEDFE2"/>
<path d="M35.327 15.9705C35.3185 15.936 35.3115 15.9043 35.2981 15.8712C35.2896 15.8493 35.2805 15.8261 35.2692 15.8036C35.2593 15.7859 35.2523 15.7662 35.2403 15.7486C35.2305 15.7338 35.2234 15.7183 35.2114 15.7035C35.2016 15.6894 35.1924 15.676 35.1826 15.6634C35.1727 15.6521 35.1657 15.6401 35.1537 15.6289C35.1438 15.6176 35.1354 15.607 35.1248 15.5972C35.1149 15.5873 35.1065 15.5781 35.0945 15.5697C35.0846 15.5598 35.0762 15.5535 35.0656 15.5436C35.0558 15.5366 35.0473 15.5288 35.0367 15.5218C35.0269 15.5147 35.0184 15.5077 35.0079 15.5013C34.998 15.4957 34.9895 15.4873 34.979 15.483C34.9691 15.4767 34.9607 15.4711 34.9501 15.4675C34.9388 15.4612 34.9318 15.4556 34.9212 15.4527C34.9099 15.4485 34.9029 15.4429 34.8909 15.4387C34.8811 15.4344 34.8726 15.4295 34.862 15.4253C34.8522 15.421 34.8437 15.4161 34.8332 15.4133C34.8233 15.4091 34.8148 15.4063 34.8043 15.402C34.7944 15.4006 34.786 15.3964 34.7754 15.3936C34.7655 15.3908 34.7571 15.3893 34.7465 15.3865L34.7338 15.3837C34.7282 15.3823 34.7226 15.3809 34.7176 15.3809C34.7092 15.3795 34.6993 15.3781 34.6888 15.3767C34.6789 15.3753 34.6704 15.3738 34.6599 15.3717C34.6486 15.3717 34.6416 15.3703 34.631 15.3703C34.6211 15.3689 34.6127 15.3675 34.6021 15.3675C34.5922 15.3661 34.5824 15.3661 34.5732 15.3647C34.562 15.3647 34.5535 15.3647 34.5443 15.3633H34.5387H34.5155H34.4866H34.4535H34.4232H34.3943H34.3654H34.3365H34.3077H34.2788H34.2499H34.221H34.1921H34.1647H34.1344H34.1055H34.0766H34.0477H34.0195H33.9907H33.9618H33.9329H33.904H33.8751H33.8463H33.8174H33.7885H33.7596H33.7307H33.7004H33.6716H33.6427H33.6152H33.5863H33.5574H33.5286H33.4997H33.4708H33.4419H33.413H33.3827H33.3546H33.3257H33.2968H33.2679H33.2376H33.2087H33.1799H33.151H33.1221H33.0932H33.0657H33.0369H33.008H32.9791H32.9502H32.9192H32.891H32.8622H32.8333H32.8058H32.791V16.9475H32.8058H32.8361H32.865H32.8939H32.9227H32.9516H32.9805H33.0108H33.0397H33.0686H33.0974H33.1263H33.1552H33.1855H33.2144H33.2433H33.2721H33.301H33.3299H33.3546H33.3834H33.4123H33.4412H33.4701H33.499H33.5279H33.5567H33.587H33.6159H33.6448H33.6737H33.7026H33.7314H33.7603H33.7892H33.8181H33.8477H33.878H33.9068H33.9357H33.9646H33.9935H34.0224H34.0512H34.0801H34.109H34.1379H34.1682H34.1971H34.2259H34.2548H34.283H34.3119H34.3408H34.3696H34.3985H34.4274H34.4577H34.4866H34.5155H34.5288H34.5443C34.5535 16.9475 34.562 16.9454 34.5732 16.9454C34.5824 16.944 34.5922 16.944 34.6021 16.9426C34.6127 16.9426 34.6211 16.9412 34.631 16.9412C34.6416 16.9398 34.6486 16.9398 34.6599 16.9384C34.6704 16.937 34.6789 16.9356 34.6888 16.9342C34.6993 16.9328 34.7092 16.9313 34.7176 16.9299C34.724 16.9285 34.7296 16.9271 34.7338 16.9257L34.7465 16.9229C34.7571 16.9215 34.7641 16.9187 34.7754 16.9158C34.786 16.913 34.7944 16.9102 34.8043 16.9074C34.8148 16.9046 34.8233 16.8996 34.8332 16.8968C34.8437 16.8926 34.8522 16.8898 34.862 16.8849C34.8726 16.8806 34.8811 16.8764 34.8909 16.8722C34.9015 16.8665 34.9099 16.8623 34.9212 16.8574C34.9318 16.8517 34.9388 16.8475 34.9501 16.8426C34.9593 16.837 34.9691 16.8313 34.979 16.8264C34.9895 16.8208 34.998 16.8137 35.0079 16.8081C35.0184 16.8024 35.0269 16.7947 35.0367 16.7883C35.0473 16.7806 35.0558 16.7736 35.0656 16.7665C35.0762 16.7581 35.0846 16.7503 35.0945 16.7419C35.1044 16.732 35.1135 16.7228 35.1248 16.713C35.1354 16.7017 35.1438 16.6925 35.1537 16.6827C35.1642 16.67 35.1727 16.6594 35.1826 16.6468C35.1924 16.6334 35.2016 16.6207 35.2114 16.6059C35.2234 16.5911 35.2305 16.5756 35.2403 16.5615C35.2523 16.5439 35.2593 16.5256 35.2692 16.508C35.2805 16.4847 35.2896 16.4629 35.2981 16.4375C35.3115 16.4058 35.3185 16.3741 35.327 16.3389C35.3418 16.2812 35.3474 16.2192 35.3474 16.1544C35.3474 16.0896 35.3404 16.0269 35.327 15.9705Z" fill="#DEDFE2"/>
<path d="M35.1283 13.5783C35.1213 13.5444 35.1128 13.5113 35.0994 13.4803C35.0896 13.4571 35.0825 13.4353 35.0706 13.4134C35.0621 13.3958 35.0522 13.3782 35.0417 13.3613C35.0318 13.3465 35.0234 13.3317 35.0128 13.3176C35.0029 13.3049 34.9945 13.293 34.9839 13.2803C34.9741 13.269 34.9656 13.2584 34.955 13.2479C34.9452 13.2373 34.9367 13.2281 34.9261 13.219C34.9163 13.2098 34.9078 13.2014 34.8973 13.1929C34.8874 13.1845 34.879 13.1767 34.867 13.1697C34.8585 13.1626 34.8487 13.1549 34.8381 13.1485C34.8282 13.1415 34.8198 13.1352 34.8092 13.1295C34.7994 13.1239 34.7909 13.1183 34.7803 13.1126C34.7705 13.1077 34.762 13.1021 34.7514 13.0978C34.7416 13.0922 34.7331 13.088 34.7226 13.0837C34.7127 13.0795 34.7043 13.0746 34.6937 13.0711C34.6838 13.0675 34.674 13.064 34.6648 13.0605C34.6549 13.057 34.6465 13.0534 34.6359 13.0506C34.6247 13.0478 34.6162 13.045 34.6056 13.0429C34.5958 13.0401 34.5873 13.0372 34.5768 13.0358C34.5683 13.033 34.5584 13.0309 34.5486 13.0295L34.5408 13.0281C34.5352 13.0274 34.5296 13.026 34.5197 13.0253C34.5105 13.0246 34.5021 13.0232 34.4908 13.0225C34.4802 13.021 34.4718 13.0203 34.4619 13.0196C34.4514 13.0189 34.4429 13.0182 34.433 13.0175C34.4225 13.0168 34.414 13.0161 34.4042 13.0161H34.3866H34.3753H34.3464H34.3175H34.2872H34.2583H34.2295H34.2006H34.171H34.1407H34.1118H34.0829H34.0541H34.0252H33.9949H33.966H33.9371H33.9082H33.8794H33.8505H33.8202H33.7913H33.7624H33.7335H33.7047H33.6758H33.6455H33.6166H33.5877H33.5588H33.53H33.5011H33.4708H33.4419H33.413H33.3841H33.3553H33.3292H33.3003H33.2714H33.2411H33.2123H33.1848H33.1559H33.1256H33.096H33.0672H33.0383H33.0094H32.9805H32.9516H32.9213H32.8925H32.8636H32.8347H32.8058H32.791V14.4743H32.8058H32.8065V14.4764H32.8354H32.8643H32.8932H32.922H32.9509H32.9798H33.0087H33.0376H33.0664H33.0939H33.1228H33.1517H33.1806H33.2094H33.2383H33.2686H33.2975H33.3264H33.3553H33.3827H33.4116H33.4412H33.4701H33.5004H33.5293H33.5581H33.587H33.6159H33.6406H33.6709H33.6997H33.7286H33.7575H33.7864H33.8153H33.8456H33.8744H33.9033H33.9322H33.9604H33.9893H34.0195H34.0484H34.0773H34.1062H34.1351H34.1654H34.2006H34.2295H34.2583H34.2872H34.3175H34.3464H34.3704H34.3753C34.3837 14.4764 34.3936 14.4764 34.4042 14.4764C34.414 14.4764 34.4225 14.475 34.433 14.475C34.4429 14.4736 34.4514 14.4736 34.4619 14.4722C34.4718 14.4722 34.4802 14.4708 34.4908 14.4694C34.5021 14.4694 34.5105 14.4679 34.5197 14.4665C34.5267 14.4651 34.5352 14.4644 34.5408 14.4637L34.5486 14.4623C34.5584 14.4602 34.5683 14.4588 34.5768 14.4567C34.5873 14.4546 34.5958 14.4524 34.6056 14.4496C34.6162 14.4468 34.6261 14.444 34.6359 14.4412C34.6465 14.4384 34.6549 14.4348 34.6648 14.432C34.6754 14.4285 34.6838 14.4243 34.6937 14.4207C34.7043 14.4165 34.7127 14.413 34.7226 14.4088C34.7331 14.4045 34.7416 14.3989 34.7514 14.3947C34.762 14.3905 34.7705 14.3848 34.7803 14.3799C34.7909 14.375 34.7994 14.3686 34.8092 14.363C34.8198 14.3574 34.8282 14.351 34.8381 14.3447C34.8487 14.3383 34.8585 14.3306 34.867 14.3235C34.879 14.3158 34.8874 14.3087 34.8973 14.3003C34.9078 14.2911 34.9163 14.2834 34.9261 14.2742C34.9367 14.2651 34.9452 14.2552 34.955 14.2453C34.9656 14.2355 34.9741 14.2242 34.9839 14.2129C34.9945 14.201 35.0029 14.1883 35.0128 14.1756C35.0234 14.1615 35.0318 14.1467 35.0417 14.1319C35.0522 14.115 35.0621 14.0974 35.0706 14.0798C35.0825 14.0587 35.091 14.0361 35.0994 14.0136C35.1128 13.9819 35.1213 13.9488 35.1283 13.915C35.1389 13.8621 35.1459 13.8051 35.1459 13.7466C35.1459 13.6874 35.1417 13.6311 35.1283 13.5783Z" fill="#DEDFE2"/>
</g>

		<g fill="none" class="all-icon" id="icon-mastercard">
<path d="M22.4183 8.31982C18.1837 8.31982 14.7383 11.7653 14.7383 15.9998C14.7383 20.2344 18.1837 23.6798 22.4183 23.6798C24.0192 23.6798 25.5065 23.1862 26.7383 22.3448C27.9699 23.1858 29.4571 23.6798 31.0583 23.6798C35.2941 23.6798 38.7383 20.2357 38.7383 15.9998C38.7383 11.764 35.2941 8.31982 31.0583 8.31982C29.4571 8.31982 27.9699 8.81385 26.7383 9.65482C25.5065 8.81345 24.0192 8.31982 22.4183 8.31982ZM31.0583 9.27982C34.7753 9.27982 37.7783 12.2828 37.7783 15.9998C37.7783 19.7169 34.7753 22.7198 31.0583 22.7198C29.7619 22.7198 28.5569 22.3482 27.5314 21.7148C29.1027 20.3075 30.0983 18.27 30.0983 15.9998C30.0983 13.7296 29.1027 11.6921 27.5314 10.2848C28.5569 9.65141 29.7619 9.27982 31.0583 9.27982Z" fill="#DEDFE2"/>
<rect x="25.7383" y="11" width="4" height="1" fill="#DEDFE2"/>
<rect x="25.7383" y="14" width="5" height="1" fill="#DEDFE2"/>
<rect x="25.7383" y="17" width="5" height="1" fill="#DEDFE2"/>
<rect x="25.7383" y="20" width="4" height="1" fill="#DEDFE2"/>
</g>

<g fill="none" class="all-icon" id="icon-paypal">
<path d="M34.52 10.9939V11.0806C34.52 13.847 33.2427 15.4443 32.1713 16.2971C30.9881 17.2389 29.4164 17.7789 27.8593 17.7789H25.1087C25.066 17.7789 24.9711 17.7789 24.9035 17.7863C24.8943 17.8169 24.8838 17.8619 24.8751 17.9249C24.8728 17.9426 24.8699 17.9601 24.8669 17.9777L23.9877 22.824C23.8308 23.6883 23.0801 24.3156 22.2024 24.3156H22.0345L21.9738 24.7125C21.9245 25.0356 22.0182 25.3629 22.2311 25.6108C22.4435 25.8582 22.7523 26 23.0781 26H25.2082C25.7487 26 26.2109 25.6137 26.3073 25.0816L27.0799 20.8232C27.0814 20.8148 27.0828 20.8062 27.0838 20.7977C27.1542 20.2805 27.3647 20.2564 27.7619 20.2564H30.1786C31.441 20.2564 32.7136 19.8197 33.6703 19.0583C34.5297 18.3744 35.5541 17.0887 35.5541 14.8481V13.5671C35.5543 12.544 35.1724 11.6525 34.52 10.9939V10.9939Z" fill="#DEDFE2"/>
<path d="M22.7985 22.6083L23.6778 17.7619C23.8366 16.5934 24.6586 16.5704 25.1086 16.5704H27.8591C30.0813 16.5704 33.3115 15.1501 33.3115 11.0804V9.62274C33.3115 7.39542 31.4935 6 29.2713 6H25.1086C21.9203 6.03906 21.6779 5.97818 21.0684 10.0495L19.179 22.4076C19.1227 22.7755 19.4067 23.1071 19.7781 23.1071H22.2022C22.4952 23.1071 22.7462 22.8971 22.7985 22.6083V22.6083Z" fill="#DEDFE2"/>
</g>

<g id="icon-visa" class="all-icon" fill="none">
<path d="M24.1878 11.2382L22.5615 20.7818H25.1625L26.7901 11.2382H24.1878Z" fill="#DEDFE2"/>
<path d="M20.3812 11.2491L17.8337 17.7576L17.5621 16.7749C17.0597 15.5908 15.6334 13.8902 13.959 12.8185L16.2884 20.7774L19.0406 20.7727L23.1367 11.2471L20.3812 11.2491Z" fill="#DEDFE2"/>
<path d="M16.5743 11.9321C16.4231 11.3507 15.9849 11.1775 15.4411 11.1567H11.4084L11.375 11.3467C14.5132 12.108 16.5897 13.9424 17.4513 16.148L16.5743 11.9321Z" fill="#DEDFE2"/>
<path d="M32.0616 13.0679C32.9125 13.0545 33.5293 13.2405 34.0083 13.4332L34.2431 13.5435L34.595 11.4751C34.0799 11.2817 33.2725 11.0743 32.265 11.0743C29.6948 11.0743 27.8832 12.3688 27.8691 14.2239C27.8524 15.5946 29.1596 16.36 30.147 16.8169C31.1605 17.2852 31.5003 17.5828 31.4956 18.001C31.4876 18.6398 30.6875 18.9329 29.9403 18.9329C28.8987 18.9329 28.3454 18.789 27.4911 18.4331L27.156 18.2806L26.79 20.4166C27.3988 20.6836 28.522 20.913 29.6881 20.9251C32.4222 20.9251 34.199 19.646 34.2177 17.6638C34.2291 16.5794 33.5354 15.7519 32.0322 15.0728C31.1224 14.63 30.5658 14.3356 30.5711 13.8887C30.5711 13.492 31.0434 13.0679 32.0616 13.0679Z" fill="#DEDFE2"/>
<path d="M41.2705 11.249H39.2609C38.6367 11.249 38.1724 11.4189 37.8982 12.0411L34.0361 20.7873H36.7676C36.7676 20.7873 37.2131 19.6113 37.3141 19.3537C37.6132 19.3537 40.267 19.3577 40.645 19.3577C40.7226 19.6909 40.9621 20.7873 40.9621 20.7873H43.3751L41.2705 11.249ZM38.0627 17.4003C38.2768 16.8524 39.099 14.7331 39.099 14.7331C39.0849 14.7592 39.311 14.1812 39.4455 13.8219L39.6208 14.6448C39.6208 14.6448 40.1192 16.9233 40.2235 17.4003H38.0627Z" fill="#DEDFE2"/>
</g>


</svg>
