<svg width="142" height="66" viewBox="0 0 142 66" fill="none" xmlns="http://www.w3.org/2000/svg">
<path d="M6.02993 48.5377H10.3053L15.0995 31.1609H15.1984L19.9309 48.5377H24.2309L30.162 24.5988H26.245L22.0809 42.3299H21.9821L17.1136 24.5988H13.5797L8.6495 42.3299H8.53829L4.41124 24.5988H0L6.02993 48.5377Z" fill="#757575"/>
<path d="M33.9434 48.5377H38.3052V38.8717H42.0121L47.3995 48.5377H52.132L46.1391 37.9674V37.7963C47.463 37.3989 48.6137 36.5734 49.4068 35.4523C50.1999 34.3312 50.5896 32.9792 50.5133 31.613C50.5133 26.945 47.6466 24.5988 42.0739 24.5988H33.9434V48.5377ZM38.3052 35.9022V27.9226H41.5796C44.6934 27.9226 46.0279 29.0346 46.0279 31.7597C46.0279 34.4847 44.7923 35.9022 41.6167 35.9022H38.3052Z" fill="#757575"/>
<path d="M70.4316 48.5376H74.7564V27.9837H81.6389V24.5987L68.1333 24.501C67.5896 25.6008 66.8977 26.7372 66.1934 27.9837H70.4316V48.5376Z" fill="#757575"/>
<path d="M85.5186 48.5377H100.828V45.1527H89.8557V37.8941H98.2086V34.5458H89.8557V27.9837H100.618V24.5988H85.5186V48.5377Z" fill="#757575"/>
<path d="M105.771 48.5377H110.108V38.8717H113.815L119.214 48.5377H123.947L117.942 37.9674V37.7963C119.268 37.4011 120.421 36.5766 121.217 35.4553C122.012 34.334 122.404 32.9808 122.328 31.613C122.328 26.945 119.461 24.5988 113.889 24.5988H105.771V48.5377ZM110.108 35.9022V27.9226H113.382C116.484 27.9226 117.83 29.0346 117.83 31.7597C117.83 34.4847 116.595 35.9022 113.419 35.9022H110.108Z" fill="#757575"/>
<path d="M133.351 48.9531C139.208 48.9531 142 46.1303 142 41.6212C142 37.3564 139.702 35.7922 135.896 34.7169L133.635 34.0081C131.238 33.3482 130.533 32.554 130.533 30.6599C130.533 28.7658 131.942 27.7026 134.487 27.7026C136.61 27.6837 138.714 28.0998 140.666 28.9246V25.5153C138.754 24.5615 136.626 24.1151 134.487 24.2199C129.014 24.2199 126.369 26.9816 126.369 31.0265C126.369 35.0713 128.458 36.8798 131.868 37.8208L134.166 38.4562C136.81 39.2505 137.7 40.0203 137.7 42.0122C137.7 44.0041 136.316 45.5071 133.079 45.5071C130.707 45.495 128.363 44.9956 126.196 44.0407V47.4256C128.445 48.5059 130.926 49.0301 133.425 48.9531H133.351Z" fill="#757575"/>
<path fill-rule="evenodd" clip-rule="evenodd" d="M55.3445 48.5621H56.9755C56.833 46.4994 56.833 44.4294 56.9755 42.3666C57.4698 37.8574 60.4971 36.11 62.2764 33.8859C64.0557 31.6619 65.1555 30.22 65.6744 28.3503C64.7227 29.3598 63.592 30.1881 62.3382 30.7943C64.0227 27.5029 66.151 24.4527 68.6647 21.7271C71.0582 18.9441 72.8647 15.7158 73.9779 12.2322L69.3196 14.664C70.6133 12.456 72.6129 10.7364 75.0035 9.77597C75.3692 6.51423 75.2192 3.21607 74.5587 0C68.677 4.88798 62.2023 14.5051 58.0011 28.1059C55.9762 34.7489 55.0785 41.6778 55.3445 48.611V48.5621Z" fill="#757575"/>
<path fill-rule="evenodd" clip-rule="evenodd" d="M72.4825 0.867676C68.472 5.54148 65.0758 10.6986 62.375 16.2159L65.4888 5.48682L72.4825 0.867676Z" fill="#757575"/>
<path fill-rule="evenodd" clip-rule="evenodd" d="M55.3448 48.9775H56.9759L57.5443 53.7678C57.5443 53.7678 57.0624 53.7678 56.4322 54.672C55.9192 55.6092 55.5052 56.5961 55.1965 57.6171H55.1348V53.7678C55.3059 53.7484 55.4648 53.6707 55.5843 53.5481C55.7038 53.4254 55.7764 53.2655 55.7897 53.0957C55.7998 52.9256 55.7516 52.7571 55.653 52.6174C55.5543 52.4777 55.4109 52.375 55.246 52.3258L55.3572 48.9775H55.3448Z" fill="#757575"/>
<path d="M62.1533 54.6598H62.7711C63.0553 54.6598 63.3519 54.6598 63.6855 54.7209C64.0191 54.782 64.3651 54.8187 64.7234 54.892C65.0599 54.949 65.3879 55.0475 65.6996 55.1853C65.9706 55.2976 66.2179 55.4593 66.4286 55.6619C66.6183 55.8411 66.7292 56.0869 66.7375 56.3462C66.7737 56.9011 66.6309 57.453 66.3298 57.9226C66.0039 58.4069 65.5839 58.8223 65.0941 59.1446C64.5591 59.5117 63.9774 59.8075 63.3642 60.0244C62.7346 60.2627 62.0909 60.4627 61.4366 60.6232C60.7817 60.7698 60.201 60.892 59.5708 60.9653C58.9406 61.0387 58.4958 61.0998 58.0757 61.0998L58.2487 65.7922C58.2487 65.8778 58.2487 65.9266 58.0757 65.9633H57.6679H56.9018C56.9018 65.6578 56.9018 65.2912 56.84 64.8757C56.7782 64.4602 56.84 64.0325 56.7659 63.6537L56.7041 62.3218C56.7041 61.8941 56.7041 61.5152 56.7041 61.1853C56.7041 60.3543 56.7041 59.6211 56.7041 58.9979C56.7057 58.4413 56.7512 57.8857 56.84 57.336C56.8861 56.9063 57.0206 56.4904 57.2354 56.114C57.446 55.7725 57.7502 55.4971 58.1127 55.3197C58.6168 55.0825 59.1542 54.9218 59.7067 54.8431C60.5254 54.7194 61.3504 54.6419 62.178 54.611L62.1533 54.6598ZM58.1992 57.5071C58.1992 57.6171 58.1992 57.7759 58.1992 57.9592L58.0757 58.5336C58.0757 58.7413 58.0757 58.9368 58.0757 59.1446C58.0762 59.3191 58.1054 59.4925 58.1622 59.6578C58.2182 59.7953 58.318 59.9111 58.4464 59.9877C58.6263 60.0502 58.8224 60.0502 59.0024 59.9877C59.3498 59.9727 59.6963 59.9401 60.0403 59.89C60.4687 59.8411 60.9259 59.7678 61.4119 59.67C61.8969 59.5723 62.3756 59.4458 62.8452 59.2912C63.2751 59.1402 63.689 58.9478 64.0809 58.7169C64.4307 58.5125 64.7404 58.2476 64.9953 57.9348C65.229 57.6495 65.3439 57.2867 65.3165 56.9205C65.2569 56.64 65.0995 56.3891 64.8717 56.2118C64.6092 56.0111 64.3056 55.8693 63.982 55.7963C63.6082 55.6879 63.2222 55.6263 62.8329 55.613C62.4213 55.5899 62.0088 55.5899 61.5972 55.613C61.1801 55.6597 60.767 55.7373 60.3616 55.8452C59.9945 55.9435 59.6384 56.0787 59.299 56.2484C59.0125 56.3851 58.753 56.5714 58.5329 56.7983C58.3519 56.9736 58.242 57.2083 58.2239 57.4582L58.1992 57.5071Z" fill="#757575"/>
<path d="M67.54 54.3911C67.8661 54.4478 68.1977 54.4683 68.5285 54.4522C68.9486 54.4522 69.4058 54.4522 69.9124 54.3911L71.4693 54.2811C72.0253 54.2811 72.5443 54.2078 73.0262 54.1833C73.5081 54.1589 73.9653 54.1833 74.3731 54.1833C74.6984 54.1821 75.0224 54.2232 75.3369 54.3055V55.1121C74.9282 55.1846 74.5156 55.2335 74.1012 55.2587L72.359 55.3565L70.5179 55.4909C69.9767 55.5434 69.44 55.6332 68.9115 55.7597C68.8497 56.1263 68.8003 56.4196 68.7756 56.664C68.7509 56.9084 68.7756 57.1161 68.7756 57.2994C68.7628 57.4662 68.7628 57.6337 68.7756 57.8005C68.7756 57.9593 68.7756 58.1304 68.7756 58.3015C68.7756 58.4726 68.7756 58.6925 68.8497 58.9247C68.9239 59.1569 68.8497 59.4502 68.8497 59.7923C69.4209 59.7668 69.9902 59.7097 70.5549 59.6212L72.1983 59.3524C72.742 59.2424 73.2857 59.1569 73.8294 59.0713C74.3902 58.987 74.9554 58.934 75.5222 58.9125V59.8045L68.9733 60.8921L69.2328 64.2159C70.0977 64.2159 70.8762 64.1548 71.5682 64.0326L73.5575 63.7882L75.411 63.5438C76.0288 63.4705 76.6466 63.4216 77.3633 63.385C77.3831 63.5023 77.3831 63.622 77.3633 63.7394C77.313 63.8716 77.2422 63.9953 77.1533 64.106C77.0768 64.2171 76.9753 64.3091 76.8567 64.3748C76.8075 64.4079 76.7494 64.4256 76.6899 64.4256C76.6304 64.4256 76.5723 64.4079 76.5231 64.3748L74.4348 64.6681L72.1118 64.9736L69.8506 65.2669L67.9354 65.5113L67.4658 54.4277L67.54 54.3911Z" fill="#757575"/>
<path d="M79.7732 64.6069C79.7742 64.645 79.7657 64.6827 79.7485 64.7168C79.7312 64.7509 79.7058 64.7803 79.6743 64.8024C79.6058 64.8542 79.525 64.8879 79.4396 64.9001H79.1924H79.0071C78.8901 64.9042 78.7751 64.8689 78.6809 64.8001C78.5866 64.7314 78.5187 64.6331 78.4881 64.5213C78.3477 64.1656 78.2643 63.7904 78.241 63.4093C78.1872 62.8365 78.1625 62.2615 78.1668 61.6863C78.1668 61.0264 78.1668 60.3054 78.1668 59.5111C78.1668 58.7168 78.1051 57.8981 78.0556 57.0671C77.9952 56.1621 77.888 55.2607 77.7344 54.3665C77.8332 54.171 77.9444 54.061 78.068 54.0488C78.1288 54.0342 78.1919 54.0321 78.2536 54.0426C78.3152 54.0531 78.374 54.076 78.4263 54.1099C78.5472 54.177 78.6558 54.2638 78.7476 54.3665L78.9824 54.6476C79.3043 54.337 79.6992 54.1103 80.1315 53.9877C80.6626 53.8239 81.2091 53.7134 81.7626 53.6578C82.935 53.5435 84.1181 53.6053 85.2718 53.8411C85.7017 53.9443 86.1168 54.1003 86.5074 54.3054C86.651 54.3696 86.7785 54.4641 86.8809 54.5824C86.9834 54.7006 87.0584 54.8397 87.1005 54.9898C87.103 55.1554 87.0677 55.3195 86.9971 55.4697C86.9265 55.6199 86.8224 55.7525 86.6928 55.8574C86.1901 56.2994 85.613 56.651 84.9876 56.8961L84.4068 57.1405L83.5172 57.4948L82.4792 57.8859L81.4537 58.3014L80.6011 58.668C80.4225 58.7434 80.2526 58.8376 80.0945 58.949C80.1031 59.0043 80.129 59.0556 80.1686 59.0957C80.2746 59.1893 80.3906 59.2712 80.5146 59.3401C80.6876 59.45 80.9594 59.5967 81.3177 59.78L82.7882 60.5254L85.1235 61.6741L88.5339 63.3482L88.7069 63.4582C88.7805 63.496 88.8473 63.5455 88.9046 63.6048L89.0776 63.7881C89.1256 63.8469 89.1518 63.9203 89.1517 63.9959C89.1584 64.0476 89.1503 64.1001 89.1285 64.1476C89.1067 64.1951 89.0719 64.2356 89.0282 64.2647C88.929 64.3261 88.8205 64.3715 88.7069 64.3991C88.5754 64.4119 88.443 64.4119 88.3115 64.3991H87.9655C87.6848 64.3944 87.4094 64.3232 87.1623 64.1914C86.7916 64.0203 86.3592 63.8003 85.9267 63.5315L84.3327 62.6028L82.6399 61.5763L81.0459 60.6354C80.5269 60.3543 80.0944 60.1221 79.7238 59.9511L79.7979 64.5335L79.7732 64.6069ZM79.2419 55.6496C79.1337 55.8174 79.0779 56.0128 79.0812 56.2117C79.0569 56.4229 79.0569 56.6361 79.0812 56.8472C79.1282 57.055 79.1901 57.2592 79.2666 57.4582C79.3202 57.6107 79.409 57.7488 79.5261 57.8614C79.7169 57.9071 79.916 57.9071 80.1068 57.8614L81.1324 57.5682C81.5154 57.4337 81.9356 57.2871 82.368 57.1038C82.8005 56.9205 83.2206 56.7494 83.6037 56.5539C83.9701 56.3854 84.3251 56.1936 84.6663 55.9796C84.922 55.8397 85.1518 55.6578 85.3459 55.4419C85.4819 55.283 85.5066 55.1364 85.4201 55.0142C85.2062 54.8555 84.946 54.7698 84.6787 54.7698C84.4463 54.7266 84.2108 54.7021 83.9744 54.6965C83.6655 54.6965 83.3318 54.6965 82.9611 54.6965C82.5905 54.6965 82.195 54.6965 81.7996 54.7942C81.4172 54.8375 81.0376 54.9027 80.6628 54.9898C80.3387 55.0603 80.0237 55.1669 79.7238 55.3075C79.4988 55.3968 79.3025 55.5446 79.1554 55.7352L79.2419 55.6496Z" fill="#757575"/>
<path d="M97.9862 59.7556C97.8379 59.7447 97.6921 59.7117 97.5538 59.6578C97.4972 59.6436 97.4476 59.61 97.4136 59.5631C97.3797 59.5161 97.3637 59.4588 97.3684 59.4012C97.3595 59.2735 97.3992 59.1471 97.4796 59.0468L97.7515 58.6925C97.8491 58.567 97.9398 58.4365 98.0233 58.3014C98.1074 58.1641 98.1582 58.0093 98.1716 57.8493C98.1716 57.7393 98.1716 57.556 98.1716 57.3116V54.5743C98.1716 54.2566 98.1716 53.9878 98.1716 53.7556C98.1716 53.5234 98.1716 53.3279 98.1716 53.2179C98.2441 53.1299 98.332 53.0554 98.4311 52.998C98.5349 52.9341 98.6472 52.8847 98.7647 52.8513C98.8771 52.8149 98.9983 52.8149 99.1107 52.8513C99.1698 52.8747 99.2227 52.911 99.2655 52.9576C99.3083 53.0042 99.3399 53.0598 99.3578 53.1202L99.5184 58.0081H99.9015H100.717L101.78 57.9226L102.916 57.7882C103.275 57.7882 103.608 57.666 103.917 57.5927C104.16 57.5317 104.393 57.4371 104.609 57.3116L104.436 52.8758C104.481 52.7981 104.55 52.7378 104.634 52.7047C104.757 52.6317 104.89 52.5781 105.029 52.5458C105.165 52.5339 105.302 52.5339 105.437 52.5458H105.746C105.746 52.7413 105.746 53.0346 105.746 53.4257C105.746 53.8167 105.746 54.2444 105.845 54.7332C105.944 55.222 105.931 55.7108 105.968 56.2363C106.006 56.7617 106.055 57.2627 106.092 57.7515C106.129 58.2403 106.166 58.6558 106.203 59.0468C106.24 59.4379 106.265 59.7312 106.277 59.9267L106.389 60.8187C106.389 61.112 106.487 61.4175 106.562 61.723C106.638 62.0179 106.733 62.3077 106.846 62.5906C106.954 62.8683 107.091 63.1344 107.254 63.3849C107.047 63.6149 106.783 63.7876 106.487 63.8859C106.172 63.9501 105.844 63.9025 105.561 63.7515C105.366 63.3597 105.209 62.9505 105.091 62.5295C104.98 62.1018 104.869 61.6619 104.795 61.2098C104.72 60.7576 104.659 60.3177 104.609 59.89C104.56 59.4623 104.535 59.0346 104.51 58.668H103.275C102.899 58.6773 102.523 58.7059 102.15 58.7536C101.766 58.7937 101.385 58.8673 101.014 58.9735C100.594 59.0877 100.181 59.2264 99.7779 59.389C99.7779 59.7067 99.7779 60.0611 99.7779 60.4521C99.7779 60.831 99.7779 61.2342 99.7779 61.6741C99.7779 62.1141 99.8644 62.4807 99.9262 62.8961C99.9805 63.2754 100.059 63.6509 100.161 64.0204L98.9253 64.2159L97.9862 59.7556Z" fill="#757575"/>
<path d="M107.983 58.6558C107.897 57.8853 107.959 57.1056 108.168 56.3584C108.373 55.6067 108.707 54.8957 109.157 54.2566C109.594 53.6424 110.153 53.1227 110.8 52.7291C111.461 52.3383 112.217 52.1314 112.987 52.1303C113.667 52.0458 114.357 52.1211 115.001 52.3503C115.673 52.5822 116.294 52.9389 116.83 53.4012C117.399 53.8967 117.868 54.4936 118.214 55.1609C118.604 55.8823 118.831 56.6784 118.881 57.4949C118.976 58.2156 118.922 58.9479 118.723 59.6474C118.523 60.3469 118.182 60.999 117.72 61.5641C116.628 62.5799 115.178 63.1326 113.679 63.1038C112.946 63.1469 112.211 63.0934 111.492 62.945C110.857 62.8275 110.255 62.5775 109.725 62.2118C109.201 61.8631 108.776 61.3878 108.489 60.8309C108.155 60.1535 107.982 59.4095 107.983 58.6558ZM109.367 58.3258C109.352 58.8568 109.448 59.3852 109.65 59.8774C109.852 60.3696 110.155 60.815 110.541 61.1853C111.432 61.8462 112.55 62.1357 113.654 61.9918C114.267 61.9841 114.872 61.8553 115.434 61.613C115.907 61.4091 116.329 61.1045 116.669 60.7209C116.993 60.3453 117.237 59.9089 117.386 59.4378C117.544 58.8902 117.607 58.3199 117.571 57.7515C117.524 57.0931 117.361 56.448 117.089 55.8452C116.868 55.3156 116.549 54.831 116.15 54.4154C115.755 54.0347 115.283 53.7393 114.766 53.5478C114.242 53.3511 113.683 53.2638 113.123 53.2912C112.747 53.2934 112.376 53.3768 112.036 53.5356C111.689 53.6943 111.372 53.9091 111.097 54.171C110.793 54.432 110.53 54.7369 110.318 55.0753C110.088 55.4111 109.897 55.7719 109.75 56.1507C109.6 56.5163 109.492 56.8975 109.428 57.2871C109.38 57.648 109.38 58.0138 109.428 58.3747L109.367 58.3258Z" fill="#757575"/>
<path d="M128.161 60.3911C127.704 60.8066 127.296 61.161 126.925 61.4543C126.575 61.7467 126.194 62.0008 125.788 62.2119C125.398 62.4123 124.983 62.5602 124.553 62.6518C124.087 62.7563 123.609 62.8015 123.132 62.7863C122.66 62.7548 122.206 62.594 121.822 62.3219C121.467 62.0769 121.179 61.7497 120.982 61.3687C120.759 60.9448 120.613 60.4859 120.549 60.0123C120.463 59.4749 120.421 58.9313 120.426 58.3871C120.414 57.7996 120.439 57.2119 120.5 56.6274C120.5 56.0286 120.623 55.4054 120.685 54.8555C120.747 54.3056 120.833 53.7313 120.895 53.218C120.957 52.7048 121.006 52.2526 121.019 51.8616H121.241H121.464C121.585 51.8264 121.716 51.8354 121.831 51.8869C121.947 51.9385 122.04 52.0292 122.094 52.1427C122.208 52.4683 122.254 52.8132 122.23 53.1569C122.23 53.5846 122.156 54.0979 122.069 54.66C121.983 55.2221 121.896 55.882 121.822 56.4441C121.748 57.0062 121.686 57.6661 121.649 58.2527C121.618 58.7969 121.655 59.3428 121.76 59.8779C121.833 60.3289 122.03 60.7514 122.329 61.0999C122.49 61.2597 122.683 61.3854 122.896 61.4694C123.108 61.5534 123.336 61.594 123.564 61.5887C124.208 61.6068 124.845 61.4504 125.405 61.1366C125.91 60.8324 126.333 60.4135 126.641 59.9146C126.968 59.3932 127.21 58.8241 127.358 58.2282C127.52 57.569 127.636 56.8993 127.704 56.2241C127.765 55.5276 127.802 54.8188 127.802 54.0979C127.802 53.3769 127.802 52.7048 127.802 52.0571C127.827 51.9171 127.896 51.7885 128 51.6905C128.078 51.6085 128.183 51.5565 128.297 51.5439C128.411 51.5209 128.529 51.5209 128.643 51.5439C128.776 51.5969 128.905 51.6624 129.026 51.7394C129.125 52.5093 129.174 53.3402 129.199 54.1834C129.223 55.0266 129.199 55.992 129.199 56.9085C129.199 57.825 129.199 58.7537 129.199 59.6579C129.199 60.5622 129.199 61.4421 129.322 62.273C129.328 62.3289 129.313 62.385 129.282 62.4317C129.25 62.4785 129.204 62.513 129.149 62.5296C129.017 62.5706 128.88 62.5912 128.742 62.5907C128.598 62.6032 128.453 62.6032 128.309 62.5907C128.216 62.5732 128.127 62.5356 128.05 62.4808L128.136 60.3667L128.161 60.3911Z" fill="#757575"/>
<path d="M132.424 61.943C132.426 61.983 132.418 62.0229 132.401 62.0591C132.383 62.0953 132.357 62.1268 132.325 62.1508C132.256 62.2026 132.176 62.2362 132.09 62.2485H131.843H131.658C131.539 62.2532 131.422 62.2184 131.326 62.1497C131.23 62.081 131.16 61.9825 131.126 61.8697C130.997 61.5114 130.918 61.1372 130.892 60.7577C130.892 60.2689 130.818 59.7068 130.818 59.0347C130.818 58.3626 130.818 57.6416 130.818 56.8595C130.818 56.0774 130.818 55.2343 130.719 54.4155C130.658 53.5105 130.55 52.6092 130.397 51.7149C130.496 51.5316 130.608 51.4216 130.731 51.3972C130.854 51.3808 130.979 51.4021 131.089 51.4583C131.208 51.5338 131.316 51.6242 131.411 51.7271L131.645 52.0082C131.965 51.6951 132.361 51.4679 132.795 51.3483C133.325 51.1821 133.872 51.0715 134.426 51.0184C135.598 50.9041 136.781 50.9659 137.935 51.2017C138.366 51.301 138.782 51.4572 139.171 51.666C139.315 51.7287 139.443 51.8228 139.546 51.9413C139.649 52.0597 139.723 52.1996 139.764 52.3503C139.766 52.516 139.731 52.6801 139.66 52.8303C139.59 52.9805 139.486 53.1131 139.356 53.218C138.85 53.6558 138.274 54.0069 137.651 54.2567L137.07 54.5011L136.168 54.8432L135.142 55.2465L134.117 55.6497L133.264 56.0163C133.084 56.0973 132.911 56.1913 132.745 56.2974C132.759 56.3534 132.789 56.4042 132.832 56.444C132.933 56.5467 133.05 56.6332 133.178 56.7007C133.351 56.8106 133.622 56.9573 133.981 57.1406L135.451 57.8738L137.787 59.0347L141.197 60.7088L141.37 60.8066L141.568 60.9654C141.631 61.0162 141.689 61.0735 141.741 61.1365C141.789 61.2 141.815 61.2771 141.815 61.3565C141.82 61.4064 141.812 61.4569 141.79 61.5022C141.768 61.5476 141.734 61.586 141.691 61.6131C141.593 61.6788 141.484 61.7283 141.37 61.7597H140.975H140.629C140.348 61.755 140.072 61.6838 139.825 61.552C139.455 61.3809 139.043 61.1609 138.59 60.8921L137.008 59.9634C136.44 59.609 135.884 59.2668 135.315 58.9369L133.709 57.996C133.202 57.7027 132.758 57.4827 132.399 57.3117L132.473 61.8819L132.424 61.943ZM131.893 52.998C131.802 53.1499 131.756 53.323 131.757 53.499C131.732 53.7102 131.732 53.9233 131.757 54.1345C131.804 54.3422 131.866 54.5464 131.942 54.7455C131.996 54.898 132.084 55.0361 132.201 55.1487C132.397 55.1698 132.595 55.149 132.782 55.0876C133.125 55.0113 133.463 54.9175 133.795 54.8066C134.191 54.6721 134.599 54.5255 135.031 54.3422C135.464 54.1589 135.884 53.9756 136.267 53.7923C136.631 53.619 136.985 53.4273 137.329 53.218C137.58 53.0707 137.809 52.8897 138.009 52.6803C138.145 52.5092 138.17 52.3748 138.083 52.2526C137.871 52.0896 137.611 51.9995 137.342 51.996C137.107 51.9783 136.872 51.9783 136.637 51.996C136.329 51.996 135.995 51.996 135.624 51.996L134.463 52.1059C134.08 52.1481 133.7 52.2134 133.326 52.3015C133.002 52.372 132.687 52.4786 132.387 52.6192C132.162 52.7086 131.966 52.8563 131.818 53.0469L131.893 52.998Z" fill="#757575"/>
</svg>
