<svg width="375" height="281" viewBox="0 0 375 281" fill="none" xmlns="http://www.w3.org/2000/svg">
<rect x="64" y="60" width="246" height="153" rx="12" fill="#FFE7E7"/>
<g filter="url(#filter0_d_3442_21429)">
<rect x="11" y="84" width="85" height="111" rx="12" fill="white"/>
<path d="M31.0008 111.104L34.1704 110.304C35.9797 108.801 37.132 106.535 37.132 104C37.132 100.089 34.3911 96.8187 30.7254 96.0046C26.4343 96.1494 23 99.6736 23 104C23 106.222 23.9062 108.233 25.3691 109.682L31.0008 111.104Z" fill="#CBE2FF"/>
<path d="M36.9659 104C36.9659 106.622 35.704 108.95 33.7545 110.409L36.6305 109.682C38.0935 108.233 38.9999 106.222 38.9999 104C38.9999 99.5817 35.4182 96 30.9999 96C30.6554 96 30.3159 96.0218 29.9829 96.0641C33.921 96.5637 36.9659 99.9262 36.9659 104Z" fill="#BED8FB"/>
<path d="M32.988 99.0299C32.988 98.6213 32.6568 98.29 32.2482 98.29H29.6988C28.7584 98.29 27.9961 99.0524 27.9961 99.9927V101.883H34.0026V100.02C34.0026 99.6109 33.6714 99.2797 33.2628 99.2797H33.2379C33.0999 99.2797 32.988 99.1679 32.988 99.0299Z" fill="#365E7D"/>
<path d="M33.2629 99.2795H33.238C33.1 99.2795 32.9881 99.1676 32.9881 99.0296C32.9881 98.621 32.6569 98.2898 32.2483 98.2898H31.9688V101.883H34.0027V100.019C34.0027 99.6107 33.6715 99.2795 33.2629 99.2795Z" fill="#2B4D66"/>
<path d="M36.2826 107.636C36.087 107.443 35.8451 107.293 35.5704 107.206L33.3864 106.515L31.0005 106.431L28.6136 106.515L26.4295 107.206C25.6906 107.44 25.1885 108.126 25.1885 108.901V109.498C26.5881 110.977 28.5463 111.922 30.7254 111.995C33.1669 111.453 35.1982 109.821 36.2826 107.636Z" fill="#4A80AA"/>
<path d="M36.8115 109.498V108.901C36.8115 108.353 36.5602 107.85 36.1519 107.52C34.9922 109.883 32.7012 111.59 29.9849 111.936C30.3127 111.977 30.6467 111.999 30.9857 112C31.3114 111.999 31.6328 111.981 31.9489 111.944C33.8561 111.719 35.5578 110.823 36.8115 109.498Z" fill="#407093"/>
<path d="M31.1809 111.88C31.665 110.919 32.9254 108.19 32.566 106.486L31.0003 105.877L29.4332 106.486C29.0627 108.243 30.4135 111.088 30.8607 111.964C30.9683 111.938 31.0751 111.91 31.1809 111.88Z" fill="#E4F6FF"/>
<path d="M32.0061 111.118L31.3713 108.621H30.6286L29.9954 111.111L30.7784 111.983C30.9772 111.938 31.1732 111.885 31.3662 111.825L32.0061 111.118Z" fill="#E28086"/>
<path d="M30.7907 111.997C30.8555 111.999 30.9205 112 30.9857 112C31.0612 112 31.1364 111.998 31.2114 111.996L31.6148 111.551C31.2973 111.662 30.9707 111.754 30.6364 111.825L30.7907 111.997Z" fill="#DD636E"/>
<path d="M32.3367 106.256V104.847H29.6624V106.256C29.6624 106.994 30.9995 107.801 30.9995 107.801C30.9995 107.801 32.3367 106.994 32.3367 106.256Z" fill="#FFDDCE"/>
<path d="M34.0029 101.635H33.4917C33.2073 101.635 32.9769 101.404 32.9769 101.12V100.838C32.9769 100.468 32.6145 100.206 32.2629 100.322C31.4428 100.593 30.5573 100.594 29.7372 100.323L29.7362 100.322C29.3846 100.206 29.0223 100.468 29.0223 100.838V101.12C29.0223 101.404 28.7918 101.635 28.5075 101.635H27.9963V102.477C27.9963 102.692 28.1707 102.866 28.3858 102.866C28.4537 102.866 28.5089 102.919 28.5132 102.987C28.5953 104.289 29.6768 105.32 30.9996 105.32C32.3224 105.32 33.4039 104.289 33.486 102.987C33.4903 102.919 33.5455 102.866 33.6134 102.866C33.8285 102.866 34.0029 102.692 34.0029 102.477V101.635H34.0029Z" fill="#FFDDCE"/>
<path d="M33.4917 101.635C33.2074 101.635 32.9769 101.405 32.9769 101.12V100.839C32.9769 100.468 32.6145 100.206 32.2629 100.323C32.1658 100.355 32.0677 100.383 31.9689 100.407V103.188C31.9553 104.092 31.4596 104.879 30.7275 105.305C30.8169 105.315 30.9076 105.32 30.9996 105.32C32.3224 105.32 33.4039 104.289 33.486 102.987C33.4903 102.919 33.5455 102.866 33.6134 102.866C33.8285 102.866 34.0029 102.692 34.0029 102.477V101.635H33.4917V101.635Z" fill="#FFCBBE"/>
<path d="M29.6625 105.877L28.6138 106.729L29.7135 108.089C29.8473 108.219 30.0579 108.227 30.2012 108.107L31.0282 107.416L29.6625 105.877Z" fill="#F4FBFF"/>
<path d="M32.3374 105.877L31.0283 107.416L31.8056 108.081C31.948 108.203 32.1596 108.197 32.2947 108.067L33.3866 106.729L32.3374 105.877Z" fill="#F4FBFF"/>
<path d="M29.6623 105.877L28.123 106.633C28.0058 106.69 27.9588 106.833 28.0186 106.949L28.3202 107.534C28.3983 107.685 28.3695 107.87 28.2489 107.99C28.1868 108.052 28.1195 108.119 28.0612 108.178C27.9569 108.282 27.9194 108.436 27.9654 108.576C28.3295 109.686 30.0818 111.383 30.7449 111.997C30.7895 111.998 30.8342 111.999 30.879 111.999C30.3981 111.064 28.6939 107.51 29.6623 105.877Z" fill="#365E7D"/>
<path d="M33.7506 107.99C33.6299 107.87 33.6011 107.685 33.6793 107.534L33.9808 106.949C34.0407 106.833 33.9936 106.69 33.8764 106.633L32.3372 105.877C33.3053 107.51 31.6023 111.062 31.1208 111.999C31.1661 111.998 31.2113 111.997 31.2563 111.995C31.9208 111.38 33.6703 109.685 34.0341 108.576C34.08 108.436 34.0425 108.282 33.9382 108.178C33.8799 108.119 33.8127 108.052 33.7506 107.99Z" fill="#365E7D"/>
<path d="M31.028 107.416L30.2136 108.097L30.6286 108.621H31.3713L31.7862 108.066L31.028 107.416Z" fill="#DD636E"/>
<rect width="29" height="3" rx="1.5" transform="matrix(1 0 0 -1 47 102)" fill="#9BA5FF"/>
<rect width="22" height="3" rx="1.5" transform="matrix(1 0 0 -1 47 109)" fill="#9BA5FF"/>
<rect x="23" y="124" width="61" height="5" rx="2.5" fill="#040405" fill-opacity="0.1"/>
<rect x="23" y="133" width="21" height="5" rx="2.5" fill="#040405" fill-opacity="0.1"/>
<rect x="23" y="142" width="61" height="5" rx="2.5" fill="#040405" fill-opacity="0.1"/>
<rect x="23" y="151" width="53" height="5" rx="2.5" fill="#040405" fill-opacity="0.1"/>
<rect x="23" y="160" width="61" height="5" rx="2.5" fill="#040405" fill-opacity="0.1"/>
<rect x="23" y="169" width="55" height="5" rx="2.5" fill="#040405" fill-opacity="0.1"/>
<rect x="23" y="178" width="48" height="5" rx="2.5" fill="#040405" fill-opacity="0.1"/>
</g>
<g filter="url(#filter1_d_3442_21429)">
<rect x="278" y="83" width="85" height="111" rx="12" fill="white"/>
<path d="M298.016 110.51L301.027 109.642C302.953 108.131 304.19 105.782 304.19 103.145C304.19 99.0909 301.268 95.72 297.416 95.0214C293.27 95.3205 290 98.7782 290 103C290 105.226 290.893 107.224 292.361 108.674L292.691 108.984L298.016 110.51Z" fill="#CBE2FF"/>
<path d="M298 95C297.655 95 297.316 95.0218 296.983 95.0641C300.921 95.5637 303.966 98.9262 303.966 103C303.966 105.988 302.328 108.593 299.901 109.967L303.309 108.984C304.96 107.518 306 105.381 306 103C306 98.5817 302.418 95 298 95V95Z" fill="#BED8FB"/>
<path d="M300.465 104.593C300.997 104.281 301.324 103.71 301.324 103.092C301.324 101.315 301.323 100.343 301.323 100.343C301.323 98.5073 299.835 97.0193 298 97.0193C296.164 97.0193 294.676 98.5073 294.676 100.343C294.676 100.343 294.676 101.315 294.675 103.092C294.675 103.71 295.002 104.281 295.535 104.593L295.909 104.813C296.543 105.185 297.265 105.381 298 105.381C298.735 105.381 299.456 105.185 300.09 104.813L300.465 104.593Z" fill="#EFC984"/>
<path d="M301.323 100.343C301.323 98.9649 300.485 97.7829 299.29 97.2791V105.174C299.568 105.082 299.836 104.962 300.09 104.813L300.465 104.593C300.997 104.281 301.324 103.71 301.324 103.092C301.324 101.315 301.323 100.343 301.323 100.343Z" fill="#EABC6B"/>
<path d="M298 108.066L300.109 106.582L299.257 105.551V103.201H296.742V105.551L295.891 106.582L298 108.066Z" fill="#FFDDCE"/>
<path d="M302.111 106.1L299.783 105.652C299.415 106.251 298.754 106.65 298 106.65C297.246 106.65 296.585 106.251 296.217 105.652L293.888 106.1C293.001 106.271 292.36 107.047 292.36 107.95V108.674C293.608 109.914 295.261 110.745 297.104 110.95C297.242 110.965 297.382 110.957 297.518 110.927L298.11 110.796C298.25 110.765 298.396 110.768 298.536 110.804C298.729 110.855 298.933 110.84 299.118 110.763C300.931 110.004 302.417 108.617 303.301 106.873C303.028 106.482 302.608 106.196 302.111 106.1Z" fill="#4A80AA"/>
<path d="M303.639 107.95C303.639 107.44 303.435 106.971 303.097 106.628C301.921 108.935 299.659 110.596 296.984 110.936C297.308 110.977 297.638 110.999 297.973 111H297.974C297.984 111 298.011 111 298.026 111H298.026C300.216 110.993 302.199 110.106 303.639 108.674V107.95H303.639Z" fill="#407093"/>
<path d="M298.162 110.785C298.46 109.922 299.078 107.971 299.225 106.253C298.881 106.503 298.458 106.65 298 106.65C297.542 106.65 297.119 106.503 296.774 106.253C296.925 108.016 297.573 110.026 297.861 110.851L298.162 110.785Z" fill="#E28086"/>
<path d="M297.836 110.78C297.865 110.863 297.891 110.937 297.913 110.999C298.077 111.001 298.02 111 298.087 110.999C298.117 110.914 298.154 110.808 298.196 110.685C298.077 110.719 297.957 110.751 297.836 110.78Z" fill="#DD636E"/>
<path d="M300.229 100.12C299.341 99.1639 299.176 98.2949 299.176 98.2949C298.735 99.4524 297.614 100.275 296.302 100.275C296.262 100.275 296.222 100.274 296.182 100.272C295.88 100.261 295.629 100.503 295.629 100.805V101.776C295.649 103.069 296.702 104.111 298 104.111C299.297 104.111 300.351 103.069 300.37 101.776V100.482C300.37 100.348 300.32 100.219 300.229 100.12Z" fill="#FFDDCE"/>
<path d="M300.229 100.12C299.695 99.5459 299.423 99.0031 299.29 98.6611V101.669C299.272 102.857 298.382 103.832 297.231 103.983C297.472 104.066 297.731 104.111 298 104.111C299.297 104.111 300.351 103.069 300.37 101.776V100.482C300.37 100.348 300.32 100.219 300.229 100.12Z" fill="#FFCBBE"/>
<path d="M295.371 105.733C295.27 105.795 295.25 105.934 295.329 106.022L295.822 106.57C295.893 106.648 295.886 106.769 295.807 106.839L295.482 107.127C295.414 107.188 295.38 107.28 295.396 107.37C295.578 108.384 297.201 110.323 297.789 110.997C297.83 110.998 297.872 110.999 297.913 111C297.629 110.204 296.742 107.558 296.742 105.551V104.893L295.371 105.733Z" fill="#365E7D"/>
<path d="M300.628 105.733L299.257 104.893V105.551C299.257 107.558 298.37 110.204 298.086 111C298.128 110.999 298.169 110.998 298.211 110.997C298.798 110.323 300.422 108.384 300.603 107.37C300.619 107.28 300.586 107.188 300.517 107.127L300.192 106.839C300.114 106.769 300.107 106.648 300.177 106.57L300.67 106.022C300.75 105.934 300.73 105.795 300.628 105.733Z" fill="#365E7D"/>
<path d="M300.73 100.486H300.37V101.674H300.73C301.058 101.674 301.324 101.408 301.324 101.08C301.323 100.752 301.058 100.486 300.73 100.486Z" fill="#FFDDCE"/>
<rect width="29" height="3" rx="1.5" transform="matrix(1 0 0 -1 314 101)" fill="#9BA5FF"/>
<rect width="22" height="3" rx="1.5" transform="matrix(1 0 0 -1 314 108)" fill="#9BA5FF"/>
<rect x="290" y="123" width="61" height="5" rx="2.5" fill="#040405" fill-opacity="0.1"/>
<rect x="290" y="132" width="21" height="5" rx="2.5" fill="#040405" fill-opacity="0.1"/>
<rect x="290" y="141" width="61" height="5" rx="2.5" fill="#040405" fill-opacity="0.1"/>
<rect x="290" y="150" width="53" height="5" rx="2.5" fill="#040405" fill-opacity="0.1"/>
<rect x="290" y="159" width="61" height="5" rx="2.5" fill="#040405" fill-opacity="0.1"/>
<rect x="290" y="168" width="55" height="5" rx="2.5" fill="#040405" fill-opacity="0.1"/>
<rect x="290" y="177" width="48" height="5" rx="2.5" fill="#040405" fill-opacity="0.1"/>
</g>
<g filter="url(#filter2_d_3442_21429)">
<rect x="104" y="20" width="166" height="233" rx="12" fill="white"/>
<path d="M157.383 76.1313C158.612 73.9275 159.313 71.3894 159.313 68.6874C159.313 60.2304 152.457 53.3748 144 53.3748C135.543 53.3748 128.687 60.2304 128.687 68.6874C128.687 71.3894 129.388 73.9275 130.616 76.1313H157.383Z" fill="#FF4155"/>
<path d="M148.631 71.6881C148.631 71.6879 148.632 71.6876 148.632 71.6876C148.595 71.6773 148.557 71.6678 148.52 71.6579C148.508 71.6546 148.495 71.6511 148.483 71.6478L148.483 71.648C148.357 71.615 148.23 71.583 148.102 71.5535C147.468 70.919 147.307 69.716 147.278 68.8744C146.947 69.2601 146.599 69.5827 146.267 69.8405C145.62 70.343 144.822 70.6158 144 70.6158C143.178 70.6158 142.379 70.343 141.732 69.8405C141.4 69.5827 141.053 69.26 140.722 68.8744C140.693 69.716 140.532 70.919 139.897 71.5535C139.767 71.5834 139.639 71.6159 139.512 71.6494C139.512 71.6494 139.511 71.6493 139.511 71.6492C139.5 71.6523 139.488 71.6556 139.476 71.6588C139.438 71.6688 139.4 71.6784 139.363 71.6887C139.363 71.6887 139.363 71.6891 139.363 71.6893C138.779 71.8495 138.214 72.0453 137.663 72.2765V73.768C138.691 75.1731 140.066 76.0491 140.854 76.38C141.207 76.5286 141.584 76.604 141.975 76.604H143.08L143.35 76.6978H144.649L144.92 76.604H146.025C146.415 76.604 146.792 76.5286 147.146 76.38C147.929 76.0509 149.293 75.183 150.319 73.7918V72.2693C149.772 72.0408 149.212 71.8469 148.631 71.6881Z" fill="#FFAA7B"/>
<path d="M141.732 69.8407C141.4 69.5828 141.053 69.2602 140.722 68.8745C140.693 69.7161 140.532 70.9191 139.897 71.5536C139.767 71.5835 139.639 71.616 139.512 71.6496C139.512 71.6496 139.512 71.6494 139.511 71.6494C139.5 71.6525 139.488 71.6558 139.476 71.659C139.438 71.669 139.4 71.6786 139.363 71.6889C139.363 71.6889 139.363 71.6894 139.363 71.6896C139.135 71.7521 138.911 71.8216 138.689 71.895C139.308 73.3742 140.608 75.9215 141.984 75.2159C143.894 74.2368 144 70.6159 144 70.6159C143.178 70.6159 142.379 70.3431 141.732 69.8407Z" fill="#FC9460"/>
<path d="M149.493 74.6926C148.642 75.4791 147.731 75.9465 147.146 76.1925C146.792 76.3412 146.415 76.4166 146.025 76.4166H144.92L144.649 76.5103C144.184 76.5103 143.815 76.5103 143.35 76.5103L143.08 76.4166H141.974C141.584 76.4166 141.207 76.3411 140.853 76.1925C140.728 76.1396 140.586 76.0758 140.434 76.0015V80.653C140.434 80.653 139.242 81.8304 140.12 83.503C141.359 83.8266 142.659 83.9998 144 83.9998C147.719 83.9998 151.128 82.6736 153.781 80.4687C153.781 80.3923 153.781 80.3164 153.781 80.2423C153.781 77.9139 150.99 75.7085 149.493 74.6926Z" fill="#FFC839"/>
<path d="M140.559 80.6533V76.0617C139.988 75.7943 139.229 75.3593 138.511 74.6968C137.017 75.71 134.225 77.9143 134.225 80.2417V80.4741C135.957 81.9126 138.012 82.9762 140.265 83.541C139.349 81.8484 140.559 80.6533 140.559 80.6533Z" fill="#FFB332"/>
<path d="M157.383 76.1311C157.37 76.1052 157.357 76.0791 157.343 76.0536C156.843 75.1129 156.004 74.3982 155.002 74.0364L150.762 72.5054C150.84 72.6628 150.893 72.8957 150.742 73.1523C150.347 73.8237 149.862 74.3691 149.364 74.8084C150.764 75.7416 153.601 77.9156 153.601 80.2144V80.6155C155.132 79.3817 156.42 77.8596 157.383 76.1311Z" fill="#FFDD40"/>
<path d="M137.257 73.1526C137.106 72.896 137.16 72.6631 137.238 72.5056L132.998 74.0366C131.996 74.3985 131.156 75.1132 130.656 76.0538C130.643 76.0793 130.63 76.1055 130.616 76.1313C131.58 77.8597 132.868 79.382 134.399 80.6157C134.399 80.4787 134.399 80.3446 134.399 80.2147C134.399 77.9158 137.235 75.7419 138.635 74.8086C138.137 74.3694 137.653 73.824 137.257 73.1526Z" fill="#FFC839"/>
<path d="M151.196 70.327C150.733 69.2463 149.231 68.6146 147.253 67.9524L147.117 69.0355C147.117 69.0355 148.366 73.961 144.65 76.5106H146.457C146.963 76.5106 147.464 76.4041 147.925 76.1952C148.505 75.9325 149.318 75.5054 150.043 74.9132C151.397 73.8063 151.885 71.9348 151.196 70.327Z" fill="#FEE77F"/>
<path d="M141.024 73.3299C140.336 73.1528 138.571 72.9217 138.101 75.0271C138.787 75.5603 139.533 75.9495 140.075 76.1951C140.536 76.4041 141.036 76.5104 141.543 76.5104H143.35C142.071 75.6326 141.38 74.4731 141.024 73.3299Z" fill="#FEE77F"/>
<path d="M140.883 69.0355L140.747 67.9524C138.769 68.6146 137.267 69.2462 136.804 70.327C136.115 71.9348 136.603 73.8063 137.958 74.9131C138.039 74.9795 138.121 75.0433 138.204 75.1055C138.673 72.5924 141.093 73.5378 141.093 73.5378L141.093 73.5374C140.312 71.2896 140.883 69.0355 140.883 69.0355Z" fill="#FFDD40"/>
<path d="M140.559 80.6532C140.266 80.6532 140.026 80.4133 140.026 80.12V75.7398C140.026 75.4465 140.266 75.2065 140.559 75.2065C140.852 75.2065 141.092 75.4465 141.092 75.7398V80.12C141.092 80.4133 140.852 80.6532 140.559 80.6532Z" fill="#DEEEFF"/>
<path d="M147.423 80.6532C147.13 80.6532 146.89 80.4133 146.89 80.12V75.7398C146.89 75.4465 147.13 75.2065 147.423 75.2065C147.716 75.2065 147.956 75.4465 147.956 75.7398V80.12C147.956 80.4133 147.716 80.6532 147.423 80.6532Z" fill="#DEEEFF"/>
<path d="M153.725 56.8591C152.614 57.6182 151.774 58.7805 152.066 60.5279C152.833 65.1062 149.301 67.4419 154.822 69.8966C156.784 70.7693 158.021 71.7903 158.79 72.6633C159.131 71.3954 159.313 70.0626 159.313 68.6873C159.313 63.9233 157.137 59.6676 153.725 56.8591Z" fill="#FF7186"/>
<path d="M134.275 56.8591C135.386 57.6182 136.226 58.7805 135.933 60.5279C135.167 65.1062 138.699 67.4419 133.178 69.8966C131.215 70.7693 129.979 71.7903 129.209 72.6633C128.869 71.3954 128.687 70.0626 128.687 68.6873C128.687 63.9233 130.863 59.6676 134.275 56.8591Z" fill="#FF7186"/>
<path d="M149.964 61.8801C150.371 60.2224 150.703 57.7385 149.824 55.6718C148.124 51.6753 143.499 51.9217 142.273 52.0624C142.145 52.0772 142.08 52.224 142.153 52.3308C142.888 53.4034 140.009 52.4316 138.445 55.7135C137.453 57.7934 137.702 60.2423 138.065 61.8802H149.964V61.8801Z" fill="#945230"/>
<path d="M143.933 56.4034C143.933 56.4034 143.472 55.3437 144.639 54.4687C145.804 53.5949 144.067 52.0248 144.063 52.0207C143.281 51.9712 142.632 52.0212 142.273 52.0624C142.145 52.0772 142.08 52.224 142.153 52.3308C142.888 53.4034 140.009 52.4316 138.445 55.7135C137.453 57.7935 137.702 60.2424 138.065 61.8802H140.785L141.649 61.5369L143.933 56.4034Z" fill="#753616"/>
<path d="M150.203 61.67C149.947 61.435 149.374 61.5542 149.153 61.698C149.201 61.9993 149.204 62.3076 149.162 62.612L148.902 64.5102C148.902 64.6632 148.897 64.8133 148.888 64.9608C149.523 65.1525 149.902 64.582 149.955 64.1904C149.978 64.0218 150.015 63.8557 150.067 63.6936C150.236 63.1657 150.846 62.2588 150.203 61.67Z" fill="#FFAA7B"/>
<path d="M137.797 61.67C138.053 61.435 138.626 61.5542 138.847 61.698C138.799 61.9993 138.796 62.3076 138.838 62.612L139.098 64.5102C139.098 64.6632 139.103 64.8133 139.112 64.9608C138.477 65.1525 138.098 64.582 138.045 64.1904C138.022 64.0218 137.985 63.8557 137.933 63.6936C137.764 63.1657 137.154 62.2588 137.797 61.67Z" fill="#FC9460"/>
<path d="M148.833 60.6574C148.544 60.2043 148.639 59.8343 148.644 59.4009C148.644 59.4009 148.888 57.4061 146.431 56.6978C145.72 56.4928 144.716 56.3701 143.688 56.4096C142.972 56.9141 142.501 57.6545 142.501 58.7036C142.501 59.1858 142.605 59.5626 142.309 60.0515C141.99 60.5787 141.804 61.3391 141.909 62.1479L142.175 64.1847C142.175 67.113 143.659 69.1033 144.922 70.1358C145.101 70.2826 145.293 70.4097 145.493 70.519C145.767 70.3981 146.028 70.2437 146.267 70.0577C147.507 69.0952 148.964 67.2399 148.964 64.5103L149.224 62.6121C149.327 61.8641 149.149 61.1539 148.833 60.6574Z" fill="#FFC7AB"/>
<path d="M144.934 70.0165C143.695 69.0029 142.238 67.049 142.238 64.1743L141.977 62.1748C141.874 61.3809 142.056 60.6343 142.369 60.1168C142.66 59.6368 142.558 59.2669 142.558 58.7935C142.558 57.6639 143.113 56.8979 143.933 56.4033C141.749 56.4335 139.355 57.1736 139.355 59.4009C139.355 59.8504 139.457 60.2017 139.167 60.6574C138.854 61.1489 138.671 61.8578 138.775 62.6116L139.036 64.5103C139.036 67.2399 140.493 69.0953 141.732 70.0577C142.379 70.5601 143.178 70.8329 144 70.8329C144.565 70.8329 145.12 70.7038 145.621 70.4596C145.379 70.3393 145.148 70.1914 144.934 70.0165Z" fill="#FFAA7B"/>
<path d="M147.509 66.7089C147.364 65.8447 146.74 64.9793 145.908 64.7905L144.636 64.4167C144.414 64.3518 144.193 64.4652 144.104 64.6578C144.088 64.693 144.038 64.693 144.022 64.6578C143.933 64.4652 143.712 64.3518 143.49 64.4167L142.218 64.7905C142.186 64.7977 142.155 64.8061 142.124 64.8151H142.136C142.001 65.1323 141.768 65.9198 142.432 66.5215C142.646 66.4122 142.875 66.3285 143.115 66.2754L143.343 66.2252C143.674 66.1521 143.93 65.8287 144.024 65.4841C144.035 65.4446 144.091 65.4446 144.102 65.4841C144.196 65.8287 144.452 66.1521 144.783 66.2252L145.011 66.2754C145.664 66.4196 146.236 66.7851 146.641 67.2961C146.557 67.6687 146.294 68.2349 145.48 68.5228C144.933 68.7158 144.337 68.3721 144.267 67.8033C144.266 67.7959 144.265 67.7885 144.264 67.781C144.253 67.6749 144.164 67.5934 144.056 67.5934C143.948 67.5934 143.859 67.6749 143.848 67.781C143.847 67.7885 143.846 67.7959 143.845 67.8033C143.807 68.1091 143.617 68.3487 143.365 68.476C143.295 68.754 143.202 69.3534 143.492 69.9354C143.702 70.3563 144.07 70.6821 144.589 70.9079C144.852 70.8548 145.109 70.7673 145.354 70.6429C146.627 69.9946 148.32 68.8683 148.862 65.9705C148.906 65.7323 148.929 65.49 148.929 65.2476C148.723 65.7563 148.294 66.3683 147.509 66.7089Z" fill="#945230"/>
<path d="M142.637 70.6422C143.295 70.9773 144.046 71.053 144.747 70.8716C143.035 70.2078 143.388 68.7128 143.482 68.4062C143.247 68.5722 142.932 68.6288 142.632 68.5228C141.88 68.2571 141.557 67.7539 141.418 67.385C141.703 66.9946 142.083 66.6819 142.523 66.477C141.8 65.8526 142.143 65.0065 142.255 64.7798L142.218 64.7905C141.369 64.983 140.737 65.8791 140.609 66.7601C139.74 66.4326 139.288 65.7828 139.071 65.2476V65.2478C139.071 65.4899 139.094 65.7318 139.138 65.9698C139.679 68.867 141.364 69.9932 142.637 70.6422Z" fill="#753616"/>
<rect x="168" y="56" width="78" height="8" rx="4" fill="#9BA5FF"/>
<rect x="168" y="72" width="58" height="8" rx="4" fill="#9BA5FF"/>
<rect x="128" y="116" width="116" height="8" rx="4" fill="#040405" fill-opacity="0.1"/>
<rect x="128" y="132" width="39" height="8" rx="4" fill="#040405" fill-opacity="0.1"/>
<rect x="128" y="148" width="116" height="8" rx="4" fill="#040405" fill-opacity="0.1"/>
<rect x="128" y="164" width="102" height="9" rx="4.5" fill="#040405" fill-opacity="0.1"/>
<rect x="128" y="181" width="116" height="8" rx="4" fill="#040405" fill-opacity="0.1"/>
<rect x="128" y="197" width="105" height="8" rx="4" fill="#040405" fill-opacity="0.1"/>
<rect x="128" y="213" width="92" height="8" rx="4" fill="#040405" fill-opacity="0.1"/>
</g>
<g filter="url(#filter3_d_3442_21429)">
<circle cx="107" cy="22" r="16" fill="white"/>
</g>
<path d="M107 10C100.344 10 95 15.3906 95 22C95 28.6562 100.344 34 107 34C113.609 34 119 28.6562 119 22C119 15.3906 113.609 10 107 10ZM112.391 19.9375L106.391 25.9375C106.156 26.2188 105.828 26.3125 105.5 26.3125C105.125 26.3125 104.797 26.2188 104.562 25.9375L101.562 22.9375C101.047 22.4219 101.047 21.625 101.562 21.1094C102.078 20.5938 102.875 20.5938 103.391 21.1094L105.5 23.1719L110.562 18.1094C111.078 17.5938 111.875 17.5938 112.391 18.1094C112.906 18.625 112.906 19.4219 112.391 19.9375Z" fill="#5AAC31"/>
<defs>
<filter id="filter0_d_3442_21429" x="-13" y="64" width="133" height="159" filterUnits="userSpaceOnUse" color-interpolation-filters="sRGB">
<feFlood flood-opacity="0" result="BackgroundImageFix"/>
<feColorMatrix in="SourceAlpha" type="matrix" values="0 0 0 0 0 0 0 0 0 0 0 0 0 0 0 0 0 0 127 0" result="hardAlpha"/>
<feOffset dy="4"/>
<feGaussianBlur stdDeviation="12"/>
<feComposite in2="hardAlpha" operator="out"/>
<feColorMatrix type="matrix" values="0 0 0 0 0 0 0 0 0 0 0 0 0 0 0 0 0 0 0.1 0"/>
<feBlend mode="normal" in2="BackgroundImageFix" result="effect1_dropShadow_3442_21429"/>
<feBlend mode="normal" in="SourceGraphic" in2="effect1_dropShadow_3442_21429" result="shape"/>
</filter>
<filter id="filter1_d_3442_21429" x="254" y="63" width="133" height="159" filterUnits="userSpaceOnUse" color-interpolation-filters="sRGB">
<feFlood flood-opacity="0" result="BackgroundImageFix"/>
<feColorMatrix in="SourceAlpha" type="matrix" values="0 0 0 0 0 0 0 0 0 0 0 0 0 0 0 0 0 0 127 0" result="hardAlpha"/>
<feOffset dy="4"/>
<feGaussianBlur stdDeviation="12"/>
<feComposite in2="hardAlpha" operator="out"/>
<feColorMatrix type="matrix" values="0 0 0 0 0 0 0 0 0 0 0 0 0 0 0 0 0 0 0.1 0"/>
<feBlend mode="normal" in2="BackgroundImageFix" result="effect1_dropShadow_3442_21429"/>
<feBlend mode="normal" in="SourceGraphic" in2="effect1_dropShadow_3442_21429" result="shape"/>
</filter>
<filter id="filter2_d_3442_21429" x="80" y="0" width="214" height="281" filterUnits="userSpaceOnUse" color-interpolation-filters="sRGB">
<feFlood flood-opacity="0" result="BackgroundImageFix"/>
<feColorMatrix in="SourceAlpha" type="matrix" values="0 0 0 0 0 0 0 0 0 0 0 0 0 0 0 0 0 0 127 0" result="hardAlpha"/>
<feOffset dy="4"/>
<feGaussianBlur stdDeviation="12"/>
<feComposite in2="hardAlpha" operator="out"/>
<feColorMatrix type="matrix" values="0 0 0 0 0 0 0 0 0 0 0 0 0 0 0 0 0 0 0.1 0"/>
<feBlend mode="normal" in2="BackgroundImageFix" result="effect1_dropShadow_3442_21429"/>
<feBlend mode="normal" in="SourceGraphic" in2="effect1_dropShadow_3442_21429" result="shape"/>
</filter>
<filter id="filter3_d_3442_21429" x="87" y="3" width="40" height="40" filterUnits="userSpaceOnUse" color-interpolation-filters="sRGB">
<feFlood flood-opacity="0" result="BackgroundImageFix"/>
<feColorMatrix in="SourceAlpha" type="matrix" values="0 0 0 0 0 0 0 0 0 0 0 0 0 0 0 0 0 0 127 0" result="hardAlpha"/>
<feOffset dy="1"/>
<feGaussianBlur stdDeviation="2"/>
<feComposite in2="hardAlpha" operator="out"/>
<feColorMatrix type="matrix" values="0 0 0 0 0 0 0 0 0 0 0 0 0 0 0 0 0 0 0.25 0"/>
<feBlend mode="normal" in2="BackgroundImageFix" result="effect1_dropShadow_3442_21429"/>
<feBlend mode="normal" in="SourceGraphic" in2="effect1_dropShadow_3442_21429" result="shape"/>
</filter>
</defs>
</svg>
