<svg width="623" height="409" viewBox="0 0 623 409" fill="none" xmlns="http://www.w3.org/2000/svg">
<rect x="70" y="61" width="483" height="280" rx="12" fill="#FFE7E7"/>
<g filter="url(#filter0_d_3426_20773)">
<rect x="24" y="95" width="135" height="216" rx="12" fill="white"/>
<path d="M52.0016 149.208L58.3409 147.607C61.9593 144.603 64.2641 140.071 64.2641 135C64.2641 127.179 58.7821 120.637 51.4508 119.009C42.8686 119.299 36 126.347 36 135C36 139.444 37.8125 143.465 40.7382 146.365L52.0016 149.208Z" fill="#CBE2FF"/>
<path d="M63.9321 135C63.9321 140.245 61.4083 144.899 57.5093 147.817L63.2613 146.365C66.1872 143.465 68 139.445 68 135C68 126.163 60.8366 119 52 119C51.311 119 50.6321 119.044 49.9661 119.128C57.8423 120.127 63.9321 126.852 63.9321 135Z" fill="#BED8FB"/>
<path d="M55.9763 125.06C55.9763 124.242 55.3139 123.58 54.4967 123.58H49.3978C47.5171 123.58 45.9925 125.105 45.9925 126.985V130.766H58.0056V127.039C58.0056 126.222 57.3431 125.559 56.5259 125.559H56.4761C56.2001 125.559 55.9763 125.336 55.9763 125.06Z" fill="#365E7D"/>
<path d="M56.5259 125.559H56.4761C56.2001 125.559 55.9763 125.335 55.9763 125.059C55.9763 124.242 55.3139 123.58 54.4967 123.58H53.9376V130.766H58.0055V127.039C58.0056 126.222 57.3431 125.559 56.5259 125.559Z" fill="#2B4D66"/>
<path d="M62.5653 142.272C62.1741 141.886 61.6903 141.587 61.141 141.413L56.7728 140.03L52.001 139.862L47.2273 140.03L42.8591 141.413C41.3813 141.881 40.377 143.252 40.377 144.802V145.996C43.1763 148.954 47.0927 150.844 51.451 150.991C56.334 149.906 60.3965 146.642 62.5653 142.272Z" fill="#4A80AA"/>
<path d="M63.623 145.996V144.802C63.623 143.706 63.1205 142.7 62.304 142.039C59.9845 146.766 55.4026 150.181 49.9698 150.871C50.6256 150.954 51.2935 150.999 51.9715 151C52.6229 150.999 53.2657 150.961 53.898 150.889C57.7124 150.438 61.1158 148.645 63.623 145.996Z" fill="#407093"/>
<path d="M52.3623 150.761C53.3303 148.839 55.8511 143.381 55.1323 139.972L52.001 138.754L48.8668 139.973C48.1258 143.487 50.8274 149.177 51.7218 150.928C51.9369 150.877 52.1505 150.821 52.3623 150.761Z" fill="#E4F6FF"/>
<path d="M54.0123 149.237L52.7427 144.242H51.2573L49.9908 149.223L51.5569 150.967C51.9545 150.876 52.3465 150.77 52.7325 150.651L54.0123 149.237Z" fill="#E28086"/>
<path d="M51.5814 150.994C51.7111 150.997 51.841 151 51.9715 151C52.1224 151 52.2728 150.997 52.4228 150.993L53.2295 150.102C52.5946 150.325 51.9414 150.508 51.2727 150.65L51.5814 150.994Z" fill="#DD636E"/>
<path d="M54.6734 139.511V136.695H49.3246V139.511C49.3246 140.988 51.999 142.602 51.999 142.602C51.999 142.602 54.6734 140.988 54.6734 139.511Z" fill="#FFDDCE"/>
<path d="M58.0056 130.27H56.9831C56.4145 130.27 55.9536 129.809 55.9536 129.24V128.677C55.9536 127.936 55.2289 127.412 54.5256 127.645C52.8854 128.187 51.1144 128.187 49.4742 127.645L49.4722 127.645C48.769 127.412 48.0444 127.936 48.0444 128.677V129.24C48.0444 129.809 47.5835 130.27 47.0149 130.27H45.9925V131.954C45.9925 132.384 46.3412 132.733 46.7715 132.733C46.9072 132.733 47.0177 132.839 47.0262 132.974C47.1905 135.579 49.3534 137.64 51.9991 137.64C54.6447 137.64 56.8076 135.579 56.9719 132.974C56.9804 132.839 57.0909 132.733 57.2266 132.733C57.6568 132.733 58.0056 132.384 58.0056 131.954V130.27H58.0056Z" fill="#FFDDCE"/>
<path d="M56.9831 130.27C56.4145 130.27 55.9536 129.809 55.9536 129.24V128.677C55.9536 127.936 55.2289 127.413 54.5256 127.645C54.3314 127.709 54.1352 127.765 53.9377 127.814V133.375C53.9103 135.184 52.919 136.759 51.4549 137.61C51.6337 137.629 51.8151 137.64 51.999 137.64C54.6446 137.64 56.8076 135.579 56.9718 132.974C56.9804 132.839 57.0908 132.732 57.2266 132.732C57.6568 132.732 58.0056 132.384 58.0056 131.953V130.27H56.9831V130.27Z" fill="#FFCBBE"/>
<path d="M49.3247 138.754L47.2273 140.458L49.4268 143.178C49.6944 143.438 50.1155 143.454 50.4021 143.215L52.0562 141.833L49.3247 138.754Z" fill="#F4FBFF"/>
<path d="M54.6744 138.754L52.0562 141.833L53.6108 143.162C53.8956 143.406 54.3187 143.393 54.589 143.134L56.7727 140.458L54.6744 138.754Z" fill="#F4FBFF"/>
<path d="M49.3246 138.754L46.2461 140.266C46.0118 140.381 45.9176 140.666 46.0373 140.899L46.6404 142.068C46.7968 142.371 46.7391 142.74 46.4978 142.981C46.3736 143.105 46.2391 143.239 46.1226 143.356C45.9139 143.564 45.839 143.872 45.9309 144.152C46.6591 146.371 50.1637 149.766 51.49 150.994C51.5792 150.996 51.6686 150.998 51.7581 150.999C50.7963 149.128 47.388 142.021 49.3246 138.754Z" fill="#365E7D"/>
<path d="M57.5012 142.981C57.2599 142.74 57.2023 142.371 57.3586 142.068L57.9617 140.898C58.0814 140.666 57.9873 140.381 57.7529 140.266L54.6744 138.754C56.6105 142.02 53.2046 149.124 52.2417 150.998C52.3322 150.996 52.4225 150.994 52.5126 150.991C53.8417 149.76 57.3406 146.369 58.0681 144.152C58.16 143.872 58.0851 143.564 57.8764 143.356C57.7599 143.239 57.6254 143.105 57.5012 142.981Z" fill="#365E7D"/>
<path d="M52.0561 141.833L50.4274 143.193L51.2572 144.242H52.7427L53.5726 143.131L52.0561 141.833Z" fill="#DD636E"/>
<rect x="76" y="123" width="71" height="8" rx="4" fill="#9BA5FF"/>
<rect x="76" y="139" width="53" height="8" rx="4" fill="#9BA5FF"/>
<rect x="36" y="183" width="97" height="8" rx="4" fill="#040405" fill-opacity="0.1"/>
<rect x="36" y="199" width="33" height="8" rx="4" fill="#040405" fill-opacity="0.1"/>
<rect x="36" y="215" width="97" height="8" rx="4" fill="#040405" fill-opacity="0.1"/>
<rect x="36" y="231" width="85" height="8" rx="4" fill="#040405" fill-opacity="0.1"/>
<rect x="36" y="247" width="97" height="8" rx="4" fill="#040405" fill-opacity="0.1"/>
<rect x="36" y="263" width="87" height="8" rx="4" fill="#040405" fill-opacity="0.1"/>
<rect x="36" y="279" width="77" height="8" rx="4" fill="#040405" fill-opacity="0.1"/>
</g>
<g filter="url(#filter1_d_3426_20773)">
<rect x="464" y="95" width="135" height="216" rx="12" fill="white"/>
<path d="M492.033 150.021L498.055 148.284C501.906 145.261 504.38 140.564 504.38 135.289C504.38 127.182 498.537 120.44 490.832 119.043C482.541 119.641 476 126.556 476 135C476 139.453 477.786 143.448 480.721 146.348L481.381 146.967L492.033 150.021Z" fill="#CBE2FF"/>
<path d="M492 119C491.311 119 490.632 119.044 489.966 119.128C497.842 120.127 503.932 126.852 503.932 135C503.932 140.976 500.656 146.186 495.802 148.933L502.619 146.967C505.919 144.036 508 139.761 508 135C508 126.163 500.837 119 492 119V119Z" fill="#BED8FB"/>
<path d="M496.93 138.187C497.995 137.562 498.649 136.419 498.649 135.185C498.648 131.63 498.647 129.686 498.647 129.686C498.647 126.015 495.671 123.039 492 123.039C488.329 123.039 485.353 126.015 485.353 129.686C485.353 129.686 485.352 131.631 485.351 135.185C485.351 136.419 486.005 137.562 487.07 138.187L487.82 138.626C489.087 139.37 490.53 139.762 492 139.762C493.47 139.762 494.913 139.37 496.181 138.626L496.93 138.187Z" fill="#EFC984"/>
<path d="M498.647 129.686C498.647 126.93 496.97 124.566 494.581 123.558V139.347C495.136 139.165 495.672 138.924 496.181 138.626L496.93 138.187C497.995 137.562 498.649 136.419 498.649 135.185C498.648 131.63 498.647 129.686 498.647 129.686Z" fill="#EABC6B"/>
<path d="M492 145.131L496.218 142.164L494.515 140.102V135.401H489.485V140.102L487.783 142.164L492 145.131Z" fill="#FFDDCE"/>
<path d="M500.223 141.2L495.566 140.304C494.83 141.501 493.508 142.3 492 142.3C490.492 142.3 489.17 141.501 488.434 140.304L483.777 141.2C482.003 141.542 480.721 143.094 480.721 144.9V146.348C483.215 148.828 486.523 150.489 490.208 150.9C490.484 150.931 490.764 150.914 491.035 150.854L492.22 150.593C492.501 150.531 492.793 150.536 493.072 150.609C493.458 150.71 493.867 150.681 494.236 150.526C497.863 149.009 500.834 146.235 502.603 142.747C502.057 141.963 501.217 141.392 500.223 141.2Z" fill="#4A80AA"/>
<path d="M503.279 144.9C503.279 143.88 502.87 142.941 502.195 142.256C499.843 146.87 495.318 150.192 489.968 150.872C490.616 150.954 491.277 150.998 491.947 151H491.948C491.969 151 492.022 151 492.052 151H492.053C496.433 150.986 500.398 149.212 503.279 146.348V144.9H503.279Z" fill="#407093"/>
<path d="M492.324 150.57C492.92 148.844 494.157 144.942 494.451 141.506C493.762 142.005 492.916 142.3 492 142.3C491.084 142.3 490.238 142.005 489.549 141.506C489.851 145.032 491.147 149.051 491.722 150.702L492.324 150.57Z" fill="#E28086"/>
<path d="M491.673 150.56C491.731 150.727 491.782 150.874 491.827 150.998C492.155 151.001 492.041 150.999 492.173 150.998C492.234 150.829 492.308 150.617 492.392 150.37C492.155 150.439 491.915 150.502 491.673 150.56Z" fill="#DD636E"/>
<path d="M496.458 129.241C494.682 127.328 494.352 125.59 494.352 125.59C493.47 127.905 491.229 129.55 488.604 129.55C488.524 129.55 488.444 129.548 488.364 129.545C487.76 129.522 487.259 130.006 487.259 130.611V132.552C487.298 135.138 489.405 137.223 492 137.223C494.595 137.223 496.702 135.138 496.741 132.552V129.965C496.741 129.696 496.64 129.437 496.458 129.241Z" fill="#FFDDCE"/>
<path d="M496.458 129.241C495.391 128.092 494.846 127.006 494.581 126.322V132.338C494.545 134.714 492.764 136.664 490.463 136.967C490.945 137.132 491.462 137.223 492 137.223C494.595 137.223 496.702 135.138 496.741 132.552V129.965C496.741 129.696 496.64 129.437 496.458 129.241Z" fill="#FFCBBE"/>
<path d="M486.742 140.466C486.54 140.59 486.5 140.867 486.659 141.044L487.645 142.139C487.786 142.296 487.772 142.537 487.615 142.677L486.965 143.255C486.828 143.376 486.761 143.559 486.793 143.739C487.156 145.769 490.403 149.646 491.578 150.995C491.661 150.997 491.744 150.998 491.827 150.999C491.259 149.407 489.485 144.117 489.485 140.102V138.785L486.742 140.466Z" fill="#365E7D"/>
<path d="M497.258 140.466L494.515 138.785V140.102C494.515 144.117 492.741 149.407 492.173 150.999C492.256 150.998 492.339 150.997 492.422 150.995C493.597 149.646 496.844 145.769 497.207 143.739C497.24 143.559 497.172 143.376 497.035 143.255L496.385 142.677C496.228 142.537 496.214 142.296 496.355 142.139L497.341 141.044C497.5 140.867 497.46 140.59 497.258 140.466Z" fill="#365E7D"/>
<path d="M497.46 129.972H496.741V132.347H497.46C498.116 132.347 498.648 131.816 498.648 131.16C498.647 130.504 498.116 129.972 497.46 129.972Z" fill="#FFDDCE"/>
<rect x="516" y="123" width="71" height="8" rx="4" fill="#9BA5FF"/>
<rect x="516" y="139" width="53" height="8" rx="4" fill="#9BA5FF"/>
<rect x="476" y="183" width="97" height="8" rx="4" fill="#040405" fill-opacity="0.1"/>
<rect x="476" y="199" width="33" height="8" rx="4" fill="#040405" fill-opacity="0.1"/>
<rect x="476" y="215" width="97" height="8" rx="4" fill="#040405" fill-opacity="0.1"/>
<rect x="476" y="231" width="85" height="8" rx="4" fill="#040405" fill-opacity="0.1"/>
<rect x="476" y="247" width="97" height="8" rx="4" fill="#040405" fill-opacity="0.1"/>
<rect x="476" y="263" width="87" height="8" rx="4" fill="#040405" fill-opacity="0.1"/>
<rect x="476" y="279" width="77" height="8" rx="4" fill="#040405" fill-opacity="0.1"/>
</g>
<g filter="url(#filter2_d_3426_20773)">
<rect x="180" y="20" width="262" height="361" rx="12" fill="white"/>
<path d="M262.767 100.263C265.224 95.855 266.625 90.7789 266.625 85.3748C266.625 68.4609 252.914 54.7495 236 54.7495C219.086 54.7495 205.375 68.4609 205.375 85.3748C205.375 90.7789 206.776 95.855 209.233 100.263H262.767Z" fill="#FF4155"/>
<path d="M245.263 91.3763C245.263 91.3759 245.264 91.3754 245.264 91.3754C245.19 91.3547 245.115 91.3357 245.04 91.3159C245.015 91.3094 244.991 91.3023 244.966 91.2958L244.966 91.2962C244.714 91.23 244.461 91.1662 244.205 91.107C242.936 89.838 242.614 87.4322 242.557 85.7489C241.894 86.5203 241.199 87.1655 240.535 87.6812C239.241 88.686 237.645 89.2318 236 89.2318C234.356 89.2318 232.759 88.686 231.465 87.6812C230.801 87.1655 230.106 86.5202 229.443 85.7489C229.385 87.4322 229.064 89.838 227.795 91.107C227.535 91.1669 227.279 91.2319 227.024 91.2989C227.024 91.2989 227.023 91.2987 227.023 91.2985C226.999 91.3047 226.976 91.3114 226.952 91.3176C226.877 91.3376 226.801 91.3569 226.726 91.3775C226.726 91.3775 226.727 91.3784 226.727 91.3788C225.558 91.699 224.429 92.0907 223.326 92.553V95.5362C225.382 98.3463 228.133 100.098 229.707 100.76C230.415 101.057 231.169 101.208 231.949 101.208H234.16L234.701 101.396H237.299L237.84 101.208H240.05C240.83 101.208 241.585 101.057 242.292 100.76C243.858 100.102 246.587 98.3662 248.639 95.5837V92.5388C247.544 92.0818 246.424 91.6939 245.263 91.3763Z" fill="#FFAA7B"/>
<path d="M231.465 87.6814C230.801 87.1656 230.106 86.5204 229.443 85.749C229.385 87.4323 229.064 89.8381 227.795 91.1071C227.535 91.167 227.279 91.232 227.024 91.2991C227.024 91.2991 227.023 91.2989 227.023 91.2988C227 91.305 226.976 91.3116 226.953 91.318C226.877 91.338 226.801 91.3573 226.726 91.3779C226.726 91.3779 226.727 91.3788 226.727 91.3791C226.271 91.5041 225.822 91.6433 225.378 91.79C226.617 94.7484 229.217 99.843 231.969 98.4319C235.787 96.4735 236 89.2319 236 89.2319C234.356 89.2319 232.759 88.6861 231.465 87.6814Z" fill="#FC9460"/>
<path d="M246.986 97.3856C245.284 98.9585 243.463 99.8934 242.292 100.385C241.585 100.683 240.831 100.833 240.051 100.833H237.84L237.299 101.021C236.369 101.021 235.631 101.021 234.701 101.021L234.16 100.833H231.95C231.17 100.833 230.415 100.683 229.708 100.385C229.456 100.28 229.173 100.152 228.869 100.003V109.306C228.869 109.306 226.485 111.661 228.241 115.006C230.719 115.654 233.319 116 236 116C243.438 116 250.256 113.347 255.562 108.938C255.562 108.785 255.562 108.633 255.562 108.485C255.562 103.828 249.981 99.4174 246.986 97.3856Z" fill="#FFC839"/>
<path d="M229.119 109.306V100.123C227.977 99.5884 226.459 98.7183 225.023 97.3933C222.034 99.4198 216.45 103.828 216.45 108.483V108.948C219.915 111.825 224.025 113.952 228.53 115.082C226.699 111.697 229.119 109.306 229.119 109.306Z" fill="#FFB332"/>
<path d="M262.767 100.262C262.74 100.211 262.714 100.158 262.687 100.107C261.687 98.2262 260.007 96.7969 258.003 96.0731L249.525 93.0111C249.681 93.326 249.787 93.7919 249.485 94.305C248.695 95.6479 247.725 96.7386 246.729 97.6171C249.529 99.4835 255.201 103.831 255.201 108.429V109.231C258.263 106.764 260.84 103.719 262.767 100.262Z" fill="#FFDD40"/>
<path d="M222.515 94.3051C222.213 93.792 222.319 93.3261 222.475 93.0112L213.997 96.0732C211.993 96.797 210.313 98.2264 209.313 100.108C209.286 100.159 209.26 100.211 209.233 100.263C211.16 103.719 213.737 106.764 216.799 109.231C216.799 108.957 216.799 108.689 216.799 108.429C216.799 103.832 222.471 99.4837 225.271 97.6172C224.275 96.7387 223.305 95.648 222.515 94.3051Z" fill="#FFC839"/>
<path d="M250.393 88.6538C249.466 86.4923 246.462 85.2289 242.506 83.9045L242.235 86.0707C242.235 86.0707 244.731 95.9217 237.299 101.021H240.914C241.927 101.021 242.928 100.808 243.85 100.39C245.01 99.8647 246.636 99.0105 248.085 97.8262C250.794 95.6124 251.771 91.8693 250.393 88.6538Z" fill="#FEE77F"/>
<path d="M230.048 94.66C228.671 94.3057 225.142 93.8436 224.202 98.0542C225.575 99.1207 227.066 99.8991 228.15 100.39C229.072 100.808 230.073 101.021 231.086 101.021H234.701C232.142 99.2652 230.76 96.9462 230.048 94.66Z" fill="#FEE77F"/>
<path d="M229.765 86.0707L229.494 83.9045C225.538 85.2289 222.534 86.4922 221.607 88.6538C220.229 91.8693 221.206 95.6124 223.915 97.826C224.077 97.9587 224.242 98.0864 224.408 98.2107C225.347 93.1845 230.185 95.0754 230.185 95.0754L230.185 95.0745C228.624 90.579 229.765 86.0707 229.765 86.0707Z" fill="#FFDD40"/>
<path d="M229.119 109.306C228.532 109.306 228.052 108.826 228.052 108.24V99.4795C228.052 98.8928 228.532 98.413 229.119 98.413C229.705 98.413 230.185 98.8928 230.185 99.4795V108.24C230.185 108.826 229.705 109.306 229.119 109.306Z" fill="#DEEEFF"/>
<path d="M242.847 109.306C242.26 109.306 241.78 108.826 241.78 108.24V99.4795C241.78 98.8928 242.26 98.413 242.847 98.413C243.433 98.413 243.913 98.8928 243.913 99.4795V108.24C243.913 108.826 243.433 109.306 242.847 109.306Z" fill="#DEEEFF"/>
<path d="M255.45 61.7183C253.229 63.2364 251.548 65.561 252.133 69.0558C253.667 78.2124 246.602 82.8839 257.643 87.7931C261.569 89.5386 264.041 91.5806 265.581 93.3265C266.261 90.7908 266.625 88.1253 266.625 85.3746C266.625 75.8466 262.274 67.3351 255.45 61.7183Z" fill="#FF7186"/>
<path d="M216.55 61.7183C218.771 63.2364 220.453 65.561 219.867 69.0558C218.333 78.2124 225.398 82.8839 214.357 87.7931C210.431 89.5386 207.959 91.5806 206.419 93.3265C205.739 90.7908 205.375 88.1253 205.375 85.3746C205.375 75.8466 209.726 67.3351 216.55 61.7183Z" fill="#FF7186"/>
<path d="M247.929 71.7602C248.742 68.4448 249.406 63.4771 247.648 59.3436C244.249 51.3506 234.998 51.8433 232.547 52.1248C232.289 52.1543 232.16 52.448 232.307 52.6616C233.776 54.8068 228.019 52.8632 224.89 59.427C222.907 63.5868 223.405 68.4846 224.13 71.7603H247.929V71.7602Z" fill="#945230"/>
<path d="M235.866 60.8067C235.866 60.8067 234.944 58.6875 237.278 56.9375C239.608 55.1897 236.134 52.0496 236.125 52.0415C234.562 51.9425 233.264 52.0425 232.547 52.1248C232.289 52.1545 232.16 52.448 232.307 52.6616C233.776 54.8068 228.019 52.8632 224.89 59.427C222.907 63.587 223.405 68.4847 224.13 71.7603H229.57L231.298 71.0738L235.866 60.8067Z" fill="#753616"/>
<path d="M248.407 71.3401C247.894 70.8701 246.748 71.1083 246.306 71.3961C246.403 71.9987 246.408 72.6152 246.325 73.2239L245.803 77.0204C245.803 77.3264 245.794 77.6267 245.776 77.9217C247.047 78.3051 247.803 77.1639 247.91 76.3808C247.956 76.0437 248.03 75.7114 248.134 75.3872C248.472 74.3314 249.692 72.5177 248.407 71.3401Z" fill="#FFAA7B"/>
<path d="M223.593 71.3401C224.106 70.8701 225.253 71.1083 225.694 71.3961C225.598 71.9987 225.592 72.6152 225.676 73.2239L226.197 77.0204C226.197 77.3264 226.207 77.6267 226.224 77.9217C224.953 78.3051 224.197 77.1639 224.09 76.3808C224.045 76.0437 223.97 75.7114 223.866 75.3872C223.528 74.3314 222.308 72.5177 223.593 71.3401Z" fill="#FC9460"/>
<path d="M245.666 69.3148C245.088 68.4086 245.279 67.6685 245.289 66.8019C245.289 66.8019 245.776 62.8123 240.862 61.3956C239.44 60.9855 237.432 60.7403 235.376 60.8191C233.944 61.8283 233.002 63.309 233.002 65.4073C233.002 66.3716 233.209 67.1253 232.618 68.103C231.979 69.1574 231.608 70.6783 231.819 72.2958L232.35 76.3694C232.35 82.2259 235.319 86.2065 237.844 88.2715C238.203 88.5653 238.586 88.8194 238.986 89.0379C239.535 88.7962 240.056 88.4874 240.535 88.1154C243.014 86.1904 245.928 82.4798 245.928 77.0206L246.449 73.2241C246.655 71.7283 246.298 70.3078 245.666 69.3148Z" fill="#FFC7AB"/>
<path d="M237.869 88.033C235.391 86.0058 232.476 82.098 232.476 76.3486L231.955 72.3495C231.748 70.7618 232.112 69.2686 232.739 68.2335C233.32 67.2736 233.116 66.5339 233.116 65.587C233.116 63.3279 234.227 61.7959 235.866 60.8066C231.499 60.867 226.711 62.3473 226.711 66.8019C226.711 67.7009 226.915 68.4034 226.334 69.3149C225.708 70.2978 225.343 71.7155 225.55 73.2233L226.072 77.0206C226.072 82.4799 228.986 86.1905 231.465 88.1154C232.759 89.1201 234.356 89.6659 236 89.6659C237.131 89.6659 238.24 89.4076 239.243 88.9193C238.758 88.6785 238.297 88.3828 237.869 88.033Z" fill="#FFAA7B"/>
<path d="M243.018 81.4179C242.728 79.6894 241.481 77.9586 239.816 77.581L237.271 76.8334C236.829 76.7035 236.386 76.9304 236.208 77.3156C236.175 77.386 236.077 77.386 236.044 77.3156C235.866 76.9304 235.423 76.7035 234.981 76.8334L232.436 77.581C232.373 77.5954 232.311 77.6121 232.249 77.6303H232.273C232.003 78.2645 231.537 79.8396 232.863 81.043C233.292 80.8244 233.75 80.657 234.231 80.5508L234.686 80.4504C235.348 80.3041 235.86 79.6574 236.048 78.9683C236.07 78.8891 236.182 78.8891 236.204 78.9683C236.392 79.6574 236.904 80.3041 237.567 80.4504L238.021 80.5508C239.328 80.8391 240.473 81.5703 241.282 82.5921C241.115 83.3374 240.589 84.4699 238.96 85.0455C237.867 85.4316 236.674 84.7443 236.534 83.6065C236.533 83.5918 236.531 83.577 236.529 83.562C236.506 83.3499 236.329 83.1868 236.112 83.1868C235.896 83.1868 235.718 83.3499 235.695 83.562C235.694 83.577 235.692 83.5918 235.69 83.6065C235.615 84.2181 235.234 84.6974 234.73 84.952C234.589 85.508 234.403 86.7068 234.984 87.8708C235.403 88.7126 236.14 89.3641 237.178 89.8158C237.704 89.7096 238.219 89.5346 238.708 89.2859C241.255 87.9893 244.641 85.7365 245.724 79.941C245.813 79.4645 245.858 78.98 245.858 78.4951C245.446 79.5126 244.589 80.7366 243.018 81.4179Z" fill="#945230"/>
<path d="M233.274 89.2844C234.589 89.9546 236.092 90.1061 237.494 89.7432C234.069 88.4157 234.777 85.4256 234.963 84.8123C234.494 85.1444 233.865 85.2576 233.264 85.0456C231.761 84.5142 231.114 83.5078 230.836 82.7699C231.406 81.9892 232.167 81.3638 233.045 80.9539C231.601 79.7052 232.286 78.0129 232.509 77.5596L232.436 77.5811C230.738 77.9661 229.474 79.7582 229.217 81.5202C227.48 80.8652 226.576 79.5657 226.142 78.4952V78.4957C226.142 78.9798 226.187 79.4637 226.276 79.9396C227.357 85.7339 230.727 87.9864 233.274 89.2844Z" fill="#753616"/>
<rect x="276" y="62" width="142" height="15" rx="7.5" fill="#9BA5FF"/>
<rect x="276" y="91" width="105" height="15" rx="7.5" fill="#9BA5FF"/>
<rect x="204" y="148" width="214" height="15" rx="7.5" fill="#040405" fill-opacity="0.1"/>
<rect x="204" y="179" width="72" height="15" rx="7.5" fill="#040405" fill-opacity="0.1"/>
<rect x="204" y="210" width="214" height="15" rx="7.5" fill="#040405" fill-opacity="0.1"/>
<rect x="204" y="241" width="188" height="15" rx="7.5" fill="#040405" fill-opacity="0.1"/>
<rect x="204" y="272" width="214" height="15" rx="7.5" fill="#040405" fill-opacity="0.1"/>
<rect x="204" y="303" width="193" height="15" rx="7.5" fill="#040405" fill-opacity="0.1"/>
<rect x="204" y="334" width="169" height="15" rx="7.5" fill="#040405" fill-opacity="0.1"/>
</g>
<g filter="url(#filter3_d_3426_20773)">
<circle cx="186" cy="20" r="16" fill="white"/>
</g>
<path d="M186 8C179.344 8 174 13.3906 174 20C174 26.6562 179.344 32 186 32C192.609 32 198 26.6562 198 20C198 13.3906 192.609 8 186 8ZM191.391 17.9375L185.391 23.9375C185.156 24.2188 184.828 24.3125 184.5 24.3125C184.125 24.3125 183.797 24.2188 183.562 23.9375L180.562 20.9375C180.047 20.4219 180.047 19.625 180.562 19.1094C181.078 18.5938 181.875 18.5938 182.391 19.1094L184.5 21.1719L189.562 16.1094C190.078 15.5938 190.875 15.5938 191.391 16.1094C191.906 16.625 191.906 17.4219 191.391 17.9375Z" fill="#5AAC31"/>
<defs>
<filter id="filter0_d_3426_20773" x="0" y="75" width="183" height="264" filterUnits="userSpaceOnUse" color-interpolation-filters="sRGB">
<feFlood flood-opacity="0" result="BackgroundImageFix"/>
<feColorMatrix in="SourceAlpha" type="matrix" values="0 0 0 0 0 0 0 0 0 0 0 0 0 0 0 0 0 0 127 0" result="hardAlpha"/>
<feOffset dy="4"/>
<feGaussianBlur stdDeviation="12"/>
<feComposite in2="hardAlpha" operator="out"/>
<feColorMatrix type="matrix" values="0 0 0 0 0 0 0 0 0 0 0 0 0 0 0 0 0 0 0.1 0"/>
<feBlend mode="normal" in2="BackgroundImageFix" result="effect1_dropShadow_3426_20773"/>
<feBlend mode="normal" in="SourceGraphic" in2="effect1_dropShadow_3426_20773" result="shape"/>
</filter>
<filter id="filter1_d_3426_20773" x="440" y="75" width="183" height="264" filterUnits="userSpaceOnUse" color-interpolation-filters="sRGB">
<feFlood flood-opacity="0" result="BackgroundImageFix"/>
<feColorMatrix in="SourceAlpha" type="matrix" values="0 0 0 0 0 0 0 0 0 0 0 0 0 0 0 0 0 0 127 0" result="hardAlpha"/>
<feOffset dy="4"/>
<feGaussianBlur stdDeviation="12"/>
<feComposite in2="hardAlpha" operator="out"/>
<feColorMatrix type="matrix" values="0 0 0 0 0 0 0 0 0 0 0 0 0 0 0 0 0 0 0.1 0"/>
<feBlend mode="normal" in2="BackgroundImageFix" result="effect1_dropShadow_3426_20773"/>
<feBlend mode="normal" in="SourceGraphic" in2="effect1_dropShadow_3426_20773" result="shape"/>
</filter>
<filter id="filter2_d_3426_20773" x="156" y="0" width="310" height="409" filterUnits="userSpaceOnUse" color-interpolation-filters="sRGB">
<feFlood flood-opacity="0" result="BackgroundImageFix"/>
<feColorMatrix in="SourceAlpha" type="matrix" values="0 0 0 0 0 0 0 0 0 0 0 0 0 0 0 0 0 0 127 0" result="hardAlpha"/>
<feOffset dy="4"/>
<feGaussianBlur stdDeviation="12"/>
<feComposite in2="hardAlpha" operator="out"/>
<feColorMatrix type="matrix" values="0 0 0 0 0 0 0 0 0 0 0 0 0 0 0 0 0 0 0.1 0"/>
<feBlend mode="normal" in2="BackgroundImageFix" result="effect1_dropShadow_3426_20773"/>
<feBlend mode="normal" in="SourceGraphic" in2="effect1_dropShadow_3426_20773" result="shape"/>
</filter>
<filter id="filter3_d_3426_20773" x="166" y="1" width="40" height="40" filterUnits="userSpaceOnUse" color-interpolation-filters="sRGB">
<feFlood flood-opacity="0" result="BackgroundImageFix"/>
<feColorMatrix in="SourceAlpha" type="matrix" values="0 0 0 0 0 0 0 0 0 0 0 0 0 0 0 0 0 0 127 0" result="hardAlpha"/>
<feOffset dy="1"/>
<feGaussianBlur stdDeviation="2"/>
<feComposite in2="hardAlpha" operator="out"/>
<feColorMatrix type="matrix" values="0 0 0 0 0 0 0 0 0 0 0 0 0 0 0 0 0 0 0.25 0"/>
<feBlend mode="normal" in2="BackgroundImageFix" result="effect1_dropShadow_3426_20773"/>
<feBlend mode="normal" in="SourceGraphic" in2="effect1_dropShadow_3426_20773" result="shape"/>
</filter>
</defs>
</svg>
