<svg width="86" height="140" viewBox="0 0 86 140" fill="none" xmlns="http://www.w3.org/2000/svg">
<g clip-path="url(#clip0_3921_18400)">
<g clip-path="url(#clip1_3921_18400)">
<path d="M26.687 139.448C26.8114 139.502 26.827 139.627 26.9747 139.603C27.0369 139.627 27.1147 139.603 27.1847 139.603C27.2314 139.51 27.2625 139.611 27.3169 139.541L27.3247 139.596C27.3403 139.572 27.3636 139.557 27.3636 139.588V139.603C27.3869 139.565 27.4025 139.596 27.4181 139.572V139.588H27.4414L27.4336 139.611C27.4725 139.572 27.5114 139.572 27.5347 139.596L27.5425 139.518C27.5969 139.596 27.6358 139.463 27.6825 139.565V139.58C27.7836 139.425 27.7758 139.72 27.8769 139.565C27.8614 139.588 27.8769 139.603 27.8691 139.619C27.908 139.603 27.9469 139.603 27.9625 139.463C27.9858 139.471 27.978 139.51 27.9703 139.557C27.978 139.502 28.0014 139.479 28.0247 139.479L28.0091 139.502L28.0714 139.495L28.0791 139.386C28.1025 139.425 28.0636 139.518 28.0947 139.495L28.1102 139.401C28.1491 139.425 28.1492 139.557 28.188 139.635C28.3436 139.697 28.5536 139.495 28.6858 139.674V139.751C28.6781 139.852 28.748 139.611 28.7402 139.705L28.7636 139.666C28.7636 139.681 28.7714 139.705 28.7636 139.728C28.7791 139.736 28.7791 139.72 28.7947 139.689L28.8025 139.751C28.8647 139.806 28.9347 139.697 28.9969 139.736C29.0591 139.876 29.2302 139.782 29.3313 139.728C29.4713 139.596 29.5647 140.016 29.7202 139.868C29.7202 139.884 29.7358 139.852 29.7358 139.845L29.8525 139.876C29.8525 139.876 30.4125 140 30.0702 139.113V139.09C30.0158 139.028 29.9769 139.012 29.9147 139.113C29.9225 138.981 29.868 139.09 29.8525 139.035V139.028C29.8058 139.121 29.7747 138.927 29.7358 139.02C29.7358 139.012 29.7436 138.973 29.7514 138.973C29.7203 138.989 29.6736 139.012 29.6891 138.934C29.6114 138.942 29.5336 138.895 29.4791 139.012L29.4869 138.989C29.4558 139.067 29.4558 138.997 29.4247 139.035V139.012C29.3858 139.09 29.3469 139.012 29.3236 139.043L29.3313 138.989H29.2769V139.004C29.2536 139.144 29.2458 138.911 29.1991 138.997C29.168 138.973 29.0903 139.284 29.0669 139.207C29.0436 139.269 29.098 139.098 29.0669 139.152C29.0747 139.074 29.0825 139.105 29.0825 139.051C29.0513 139.082 29.0514 138.973 29.0047 139.012L29.0125 138.958C28.958 139.059 28.9347 138.88 28.9036 138.965C28.8569 139.004 28.8958 138.794 28.8413 138.888L28.8336 138.81C28.818 138.794 28.8102 138.903 28.7947 138.864C28.8025 138.818 28.7714 138.818 28.7947 138.786C28.7558 138.709 28.6858 138.88 28.6391 138.74C28.6158 138.833 28.5925 138.771 28.5614 138.841C28.5691 138.802 28.4991 138.825 28.5458 138.74L28.5691 138.693C28.5536 138.584 28.4914 138.74 28.468 138.724C28.4758 138.748 28.4914 138.74 28.4758 138.779L28.4447 138.763L28.4602 138.716L28.4136 138.685V138.748C28.398 138.716 28.398 138.615 28.3591 138.693C28.3436 138.74 28.3669 138.771 28.3436 138.794C28.3203 138.748 28.2814 138.685 28.2425 138.662C28.2347 138.74 28.2269 138.724 28.2114 138.74L28.2191 138.685C28.1647 138.763 28.2191 138.553 28.1725 138.607V138.569L28.1414 138.685C28.0869 138.794 28.1414 138.561 28.0636 138.709C28.0791 138.701 28.048 138.833 28.0325 138.81L28.0481 138.755C28.0325 138.763 28.0247 138.786 28.0247 138.779C28.0325 138.748 28.0403 138.701 28.0247 138.701L28.0481 138.623L28.0014 138.716C27.9858 138.654 27.9392 138.724 27.9392 138.639C27.9392 138.639 27.8925 138.592 27.8614 138.677C27.8769 138.623 27.8536 138.6 27.8769 138.537C27.8536 138.592 27.7992 138.639 27.7992 138.569H27.8069C27.7603 138.491 27.6903 138.646 27.6514 138.553C27.6436 138.631 27.6203 138.576 27.6125 138.662C27.5347 138.74 27.5347 138.475 27.4725 138.74C27.4414 138.748 27.4569 138.677 27.4414 138.662H27.4492C27.3947 138.677 27.3869 138.677 27.348 138.662C27.3247 138.685 27.3014 138.818 27.2703 138.771C27.2858 138.724 27.2781 138.732 27.2625 138.732C27.2703 138.724 27.2781 138.709 27.2703 138.67C27.2625 138.685 27.2625 138.693 27.2547 138.701C27.2314 138.701 27.2314 138.716 27.2391 138.724V138.755C27.2314 138.693 27.1847 138.748 27.1925 138.677C27.1303 138.685 27.0758 138.771 27.0136 138.794C27.0136 138.748 27.0369 138.716 27.0525 138.701L27.0136 138.709C27.0214 138.646 27.0369 138.677 27.0525 138.662C27.0292 138.553 26.9514 138.74 26.9203 138.646L26.9047 138.693V138.685C26.8969 138.709 26.8814 138.748 26.8736 138.763C26.8736 138.709 26.8969 138.639 26.8736 138.639C26.8658 138.584 26.8114 138.654 26.7958 138.685C26.8114 138.693 26.7958 138.724 26.7881 138.74C26.7725 138.74 26.7803 138.685 26.7647 138.709V138.631C26.7569 138.709 26.718 138.709 26.7103 138.732C26.7103 138.677 26.7414 138.685 26.7491 138.654H26.6714C26.6325 138.701 26.6636 138.732 26.6403 138.786C26.617 138.794 26.5858 138.841 26.5625 138.794V138.856C26.508 138.903 26.4847 138.888 26.4692 138.818C26.0414 139.284 26.2592 139.518 26.2592 139.518C26.3525 139.65 26.4536 139.471 26.6169 139.44L26.687 139.448ZM34.6202 139.347L34.628 139.37C34.628 139.354 34.628 139.347 34.6202 139.347ZM35.0091 140.234H35.0013H35.0091Z" fill="#B1CBC0"/>
<path d="M34.4958 140.187C34.6281 140.218 34.667 140.343 34.807 140.288C34.8847 140.296 34.9469 140.265 35.0092 140.249C35.0403 140.148 35.087 140.249 35.1336 140.171L35.1492 140.226C35.1647 140.195 35.1725 140.179 35.1881 140.21V140.226C35.2036 140.179 35.227 140.21 35.2347 140.187V140.203L35.258 140.195V140.218C35.2892 140.171 35.3358 140.171 35.3514 140.187V140.109C35.4136 140.187 35.4292 140.031 35.5069 140.133V140.148C35.5847 139.969 35.6236 140.265 35.6936 140.094C35.6858 140.117 35.7014 140.125 35.7014 140.148C35.7325 140.125 35.7792 140.117 35.7792 139.993C35.8025 139.993 35.8025 140.031 35.8025 140.086C35.8025 140.031 35.8258 140.008 35.8414 140.008L35.8336 140.031L35.888 140.008L35.8725 139.899C35.9036 139.93 35.8803 140.031 35.9114 140.008V139.915C35.9503 139.93 35.9892 140.07 36.0203 140.133C36.1758 140.171 36.3547 139.93 36.518 140.086V140.164C36.5258 140.265 36.5569 140.008 36.5647 140.109L36.5803 140.063C36.588 140.078 36.5958 140.101 36.588 140.125C36.6036 140.125 36.6036 140.109 36.6191 140.078L36.6425 140.14C36.7203 140.187 36.7592 140.063 36.8292 140.086C36.9069 140.21 37.0625 140.094 37.1558 140.024C37.2725 139.868 37.4436 140.257 37.5603 140.101C37.568 140.117 37.5758 140.086 37.5758 140.07L37.6925 140.078C37.6925 140.078 38.268 140.101 37.7858 139.284V139.23C37.708 139.175 37.6769 139.168 37.6303 139.277C37.6147 139.144 37.5758 139.261 37.5525 139.222V139.214C37.5214 139.316 37.4747 139.137 37.4358 139.222C37.4358 139.214 37.4358 139.175 37.4436 139.175C37.4202 139.191 37.3814 139.222 37.3658 139.144C37.3036 139.168 37.2103 139.129 37.1714 139.261V139.23C37.148 139.308 37.1403 139.245 37.1169 139.284C37.1169 139.277 37.1169 139.269 37.1091 139.261C37.0858 139.339 37.0314 139.277 37.0158 139.316V139.261L36.9614 139.277L36.9847 139.284C36.9847 139.424 36.9458 139.207 36.9069 139.292C36.868 139.277 36.8447 139.588 36.8058 139.526C36.7902 139.603 36.8136 139.417 36.7903 139.471C36.7903 139.393 36.7981 139.424 36.7903 139.362C36.7669 139.401 36.7436 139.284 36.7125 139.339V139.284C36.6736 139.393 36.6347 139.207 36.6114 139.308C36.5725 139.354 36.5803 139.137 36.5336 139.253L36.5103 139.175C36.4947 139.16 36.5025 139.269 36.4791 139.238C36.4791 139.191 36.4481 139.199 36.4636 139.16C36.417 139.082 36.3703 139.269 36.3081 139.144C36.3003 139.238 36.2614 139.183 36.2536 139.253C36.2536 139.214 36.1914 139.245 36.2225 139.16L36.2303 139.113C36.1914 139.004 36.168 139.175 36.1291 139.16C36.1369 139.175 36.1525 139.175 36.1447 139.214L36.1136 139.207L36.1214 139.16L36.0747 139.137L36.0825 139.199C36.0591 139.168 36.0436 139.067 36.0203 139.152C36.0125 139.199 36.0436 139.23 36.0203 139.253C35.9892 139.214 35.9425 139.152 35.8958 139.137C35.9036 139.214 35.8881 139.199 35.8803 139.214V139.16C35.8414 139.238 35.8647 139.035 35.8181 139.098V139.059V139.183C35.7792 139.3 35.7947 139.067 35.7558 139.222C35.7714 139.214 35.7636 139.347 35.748 139.323V139.269C35.7403 139.284 35.7325 139.308 35.7247 139.292C35.7325 139.261 35.7247 139.214 35.7092 139.214V139.137L35.6781 139.238C35.6547 139.175 35.6158 139.253 35.6003 139.175C35.6003 139.175 35.5459 139.137 35.5381 139.222C35.5459 139.168 35.5147 139.144 35.5225 139.082C35.507 139.144 35.468 139.191 35.4447 139.129V139.121C35.3825 139.059 35.3436 139.214 35.2892 139.137C35.2892 139.214 35.2658 139.168 35.2736 139.253C35.2192 139.331 35.1725 139.082 35.1492 139.347C35.1259 139.362 35.1181 139.284 35.1025 139.269L35.1103 139.253C35.0636 139.277 35.048 139.277 35.0169 139.277C35.0014 139.3 34.9936 139.432 34.9625 139.401C34.9703 139.354 34.9625 139.362 34.947 139.362C34.9547 139.354 34.9547 139.339 34.9392 139.3C34.9392 139.316 34.9314 139.323 34.9314 139.331C34.9081 139.331 34.9158 139.347 34.9236 139.354V139.386C34.9003 139.323 34.8692 139.393 34.8614 139.308C34.7992 139.331 34.7603 139.417 34.7059 139.448C34.6981 139.401 34.7136 139.37 34.7292 139.347L34.6903 139.362C34.6903 139.3 34.7136 139.323 34.7214 139.316C34.6825 139.214 34.6436 139.417 34.5892 139.323L34.5814 139.37V139.362C34.5817 139.386 34.5764 139.41 34.5659 139.432C34.5581 139.378 34.5658 139.308 34.5425 139.308C34.527 139.253 34.4881 139.339 34.4648 139.362C34.4803 139.37 34.4725 139.401 34.4648 139.424C34.4492 139.424 34.4492 139.37 34.4336 139.393V139.316C34.4414 139.393 34.4025 139.393 34.3947 139.424C34.387 139.37 34.4103 139.378 34.4181 139.347C34.3714 139.354 34.3947 139.354 34.3403 139.362C34.3169 139.417 34.3481 139.44 34.3325 139.494C34.3092 139.51 34.2858 139.572 34.2547 139.518V139.58C34.2081 139.635 34.177 139.627 34.1536 139.557C33.8192 140.101 34.0759 140.288 34.0759 140.288C34.2159 140.428 34.2858 140.234 34.4414 140.179L34.4958 140.187ZM42.3358 138.864L42.3513 138.888C42.3435 138.872 42.3436 138.864 42.3358 138.864ZM42.818 139.72V139.728V139.72Z" fill="#B1CBC0"/>
<path d="M42.3125 139.72C42.4525 139.736 42.4992 139.852 42.6236 139.782C42.7014 139.782 42.7558 139.744 42.818 139.72C42.8336 139.619 42.8958 139.705 42.9269 139.619L42.9503 139.674C42.958 139.642 42.9736 139.619 42.9891 139.65V139.666C43.0047 139.619 43.028 139.642 43.0358 139.619V139.635L43.0592 139.627V139.65C43.0825 139.603 43.1214 139.596 43.1525 139.611L43.1447 139.533C43.2225 139.611 43.2225 139.456 43.3003 139.541V139.557C43.3469 139.37 43.4325 139.666 43.4791 139.479C43.4714 139.502 43.4869 139.51 43.4869 139.526C43.518 139.502 43.5647 139.487 43.5336 139.354C43.5569 139.354 43.5569 139.393 43.5725 139.432C43.5647 139.378 43.5803 139.354 43.6036 139.339V139.362L43.6581 139.339L43.6347 139.23C43.6658 139.261 43.658 139.362 43.6814 139.331V139.23C43.728 139.246 43.7591 139.386 43.8136 139.44C43.9847 139.456 44.1247 139.207 44.3036 139.339V139.417C44.3191 139.518 44.3269 139.261 44.3425 139.354L44.3502 139.308C44.358 139.323 44.3736 139.339 44.3658 139.362C44.3814 139.362 44.3813 139.347 44.3891 139.316L44.4125 139.378C44.4903 139.417 44.5213 139.3 44.5913 139.3C44.6925 139.417 44.8247 139.277 44.9025 139.199C45.0036 139.043 45.2136 139.409 45.3147 139.222C45.3224 139.238 45.3302 139.199 45.3225 139.191H45.4391C45.4391 139.191 46.0147 139.152 45.4469 138.39V138.366C45.3691 138.32 45.3303 138.32 45.3069 138.429C45.2758 138.296 45.2525 138.421 45.2291 138.382V138.374C45.2058 138.483 45.1358 138.296 45.1125 138.397C45.1125 138.39 45.1047 138.351 45.1125 138.343C45.0892 138.366 45.058 138.397 45.0347 138.32C44.9725 138.351 44.8791 138.327 44.8558 138.452C44.848 138.53 44.8247 138.467 44.8091 138.514C44.8091 138.506 44.8014 138.499 44.8014 138.499C44.7858 138.576 44.7236 138.522 44.7236 138.561L44.7158 138.506L44.6692 138.522H44.6925C44.708 138.662 44.638 138.444 44.6147 138.537C44.5758 138.522 44.5836 138.849 44.5369 138.771C44.5291 138.849 44.5369 138.662 44.5214 138.716C44.5136 138.639 44.5291 138.67 44.5136 138.607C44.4903 138.646 44.4592 138.53 44.4358 138.592L44.428 138.537C44.4047 138.646 44.3503 138.475 44.3269 138.576C44.288 138.631 44.2725 138.421 44.2491 138.53L44.218 138.452C44.1947 138.444 44.218 138.545 44.1947 138.514C44.1869 138.467 44.1636 138.475 44.1714 138.436C44.1169 138.358 44.0936 138.561 44.0158 138.436C44.0158 138.53 43.9769 138.483 43.9769 138.553C43.9691 138.514 43.9147 138.553 43.938 138.46L43.9458 138.413C43.8992 138.312 43.8914 138.491 43.8525 138.467C43.8681 138.483 43.8758 138.475 43.8758 138.522H43.8447V138.475L43.7903 138.452L43.8058 138.506C43.7747 138.483 43.7592 138.382 43.7436 138.467C43.7358 138.514 43.7747 138.545 43.7514 138.569C43.7125 138.53 43.658 138.475 43.6191 138.467C43.6347 138.53 43.6191 138.53 43.6113 138.545V138.491C43.5802 138.569 43.5803 138.366 43.5336 138.436V138.397L43.5414 138.522C43.518 138.639 43.5025 138.405 43.4791 138.569C43.4947 138.553 43.5025 138.693 43.4791 138.67V138.615C43.4714 138.631 43.4714 138.654 43.4558 138.639C43.4558 138.607 43.448 138.561 43.4325 138.561V138.483L43.4169 138.592C43.3858 138.537 43.3547 138.615 43.3391 138.537C43.3391 138.537 43.2847 138.506 43.2769 138.592C43.2769 138.537 43.2458 138.514 43.2458 138.46C43.238 138.522 43.2069 138.576 43.1836 138.514V138.506C43.1058 138.452 43.0902 138.607 43.028 138.537C43.0358 138.615 43.0047 138.569 43.0203 138.654C42.9736 138.748 42.8958 138.499 42.9114 138.763C42.888 138.779 42.8725 138.709 42.8569 138.685L42.8647 138.67C42.818 138.701 42.8103 138.701 42.7714 138.701C42.7558 138.732 42.7714 138.856 42.7325 138.825C42.7403 138.779 42.7247 138.786 42.7169 138.786C42.7247 138.779 42.7247 138.763 42.7014 138.732C42.7014 138.748 42.7014 138.755 42.6936 138.763C42.678 138.771 42.678 138.779 42.6936 138.786C42.6936 138.794 42.6936 138.802 42.7014 138.818C42.6703 138.755 42.6469 138.833 42.6236 138.74C42.5692 138.771 42.5458 138.856 42.4914 138.895C42.4836 138.856 42.4914 138.818 42.4991 138.794L42.468 138.818C42.4603 138.755 42.4836 138.779 42.4914 138.763C42.437 138.67 42.4136 138.872 42.3591 138.786V138.825C42.3591 138.849 42.3591 138.888 42.3514 138.903C42.3358 138.849 42.3358 138.779 42.3125 138.786C42.2891 138.74 42.2581 138.818 42.2347 138.849C42.2503 138.856 42.2503 138.888 42.2425 138.903C42.2269 138.903 42.2191 138.856 42.2114 138.88V138.802C42.2269 138.88 42.1881 138.88 42.1881 138.911C42.1725 138.856 42.2036 138.864 42.2036 138.818L42.1258 138.841C42.1025 138.903 42.1414 138.919 42.1336 138.973C42.1103 138.989 42.0947 139.051 42.0558 139.004L42.0714 139.067C42.0325 139.121 42.0091 139.121 41.9703 139.059C41.7058 139.635 41.9858 139.79 41.9858 139.79C42.118 139.946 42.1647 139.744 42.3125 139.674V139.72ZM49.958 137.557L49.9736 137.58C49.9736 137.573 49.9658 137.565 49.958 137.557Z" fill="#B1CBC0"/>
<path d="M50.028 138.413C50.168 138.413 50.2303 138.53 50.3547 138.444C50.4325 138.436 50.487 138.39 50.5414 138.366C50.5492 138.265 50.6192 138.343 50.6425 138.257L50.6658 138.312C50.6736 138.281 50.6814 138.257 50.697 138.288C50.7047 138.242 50.7281 138.265 50.7358 138.242V138.257L50.7592 138.242V138.265C50.7825 138.211 50.8136 138.203 50.837 138.218V138.156C50.9147 138.211 50.9148 138.078 50.9925 138.148V138.164C51.0236 137.969 51.1325 138.257 51.1636 138.071C51.1558 138.094 51.1792 138.102 51.1792 138.117C51.2103 138.086 51.2414 138.071 51.2103 137.938C51.2336 137.931 51.2414 137.977 51.2569 138.016C51.2414 137.962 51.257 137.938 51.2725 137.923V137.946L51.3192 137.915L51.2803 137.814C51.3192 137.837 51.3192 137.938 51.3425 137.907L51.3192 137.829C51.3658 137.837 51.4203 137.962 51.4747 138.016C51.6459 138.016 51.7625 137.744 51.9414 137.86L51.9647 137.923C51.9959 138.016 51.9647 137.767 51.9958 137.86V137.814C52.0036 137.829 52.0192 137.845 52.0192 137.868C52.0348 137.868 52.0347 137.853 52.0347 137.822L52.0659 137.876C52.1436 137.907 52.167 137.775 52.237 137.783C52.3536 137.884 52.4703 137.736 52.5481 137.643C52.6259 137.464 52.8825 137.814 52.9603 137.619C52.9681 137.635 52.9681 137.596 52.9681 137.588H53.0847C53.0847 137.588 53.6525 137.487 53.0069 136.794V136.771C52.9292 136.732 52.8903 136.732 52.8747 136.849C52.8281 136.724 52.8203 136.849 52.797 136.81V136.802C52.7892 136.911 52.6959 136.74 52.6881 136.841C52.6881 136.833 52.6803 136.794 52.6881 136.787C52.6647 136.81 52.6414 136.849 52.6103 136.771C52.5558 136.81 52.4548 136.794 52.4548 136.927V136.896C52.4548 136.973 52.4314 136.919 52.4158 136.973C52.408 136.966 52.4081 136.958 52.4081 136.958C52.4081 137.036 52.3303 136.989 52.3303 137.036V136.989L52.2836 137.012L52.307 137.02C52.3381 137.16 52.2447 136.942 52.2292 137.043C52.1903 137.036 52.2369 137.355 52.1825 137.292C52.1825 137.37 52.167 137.184 52.1592 137.238C52.1359 137.16 52.1592 137.191 52.1358 137.137C52.1203 137.176 52.0736 137.075 52.0581 137.129L52.0425 137.075C52.027 137.184 51.9492 137.02 51.9492 137.121C51.9181 137.176 51.8714 136.966 51.8714 137.082L51.8325 137.005C51.8092 136.997 51.8403 137.098 51.817 137.067C51.8092 137.02 51.778 137.036 51.778 136.989C51.7158 136.927 51.7159 137.121 51.6225 137.005C51.6303 137.098 51.5914 137.051 51.5992 137.129C51.5836 137.09 51.5369 137.137 51.5447 137.051V137.005C51.4825 136.911 51.4981 137.082 51.467 137.067C51.4825 137.082 51.4903 137.075 51.4981 137.113H51.467V137.067L51.4125 137.051L51.4359 137.106C51.4048 137.082 51.3736 136.989 51.3581 137.075C51.3581 137.121 51.397 137.152 51.3814 137.168C51.3425 137.137 51.2803 137.09 51.2259 137.09C51.2492 137.152 51.2336 137.152 51.2259 137.168L51.2103 137.113C51.1869 137.191 51.1636 136.997 51.1325 137.067L51.1247 137.028L51.1403 137.145C51.1325 137.269 51.0936 137.036 51.0859 137.199C51.1014 137.184 51.1247 137.324 51.1014 137.3L51.0936 137.246C51.0859 137.261 51.0859 137.285 51.0781 137.277C51.0781 137.246 51.0625 137.199 51.047 137.199L51.0392 137.121L51.0314 137.23C50.9925 137.176 50.9692 137.261 50.9536 137.184C50.9536 137.184 50.8914 137.16 50.8992 137.246C50.8992 137.191 50.8603 137.168 50.8525 137.113C50.8525 137.176 50.8292 137.238 50.7981 137.176V137.168C50.7203 137.121 50.7203 137.285 50.6425 137.215C50.6581 137.277 50.627 137.254 50.6503 137.331C50.6192 137.425 50.5103 137.176 50.5492 137.448C50.5259 137.471 50.5025 137.394 50.487 137.386V137.37C50.4481 137.401 50.4325 137.409 50.3936 137.409C50.3858 137.44 50.4092 137.565 50.3703 137.541C50.3703 137.495 50.3547 137.503 50.347 137.503C50.3547 137.495 50.3469 137.471 50.3314 137.448V137.479C50.3158 137.487 50.3236 137.503 50.3314 137.503C50.3314 137.51 50.3392 137.518 50.3392 137.534C50.3081 137.479 50.2848 137.549 50.2614 137.471C50.207 137.503 50.1836 137.604 50.1447 137.643C50.1292 137.604 50.1292 137.565 50.1447 137.541L50.1136 137.565C50.0981 137.503 50.1214 137.526 50.1292 137.51C50.0669 137.433 50.067 137.627 49.997 137.549V137.604H49.9892C49.9969 137.627 49.9892 137.666 49.9892 137.682C49.9736 137.627 49.958 137.557 49.9347 137.565C49.9036 137.518 49.8881 137.604 49.8725 137.643C49.8881 137.65 49.8881 137.682 49.8881 137.697C49.8803 137.705 49.857 137.65 49.857 137.674L49.8414 137.596C49.8647 137.674 49.8259 137.674 49.8259 137.705C49.8103 137.65 49.8336 137.658 49.8259 137.611C49.7792 137.627 49.8025 137.619 49.7481 137.643C49.7325 137.705 49.7714 137.72 49.7714 137.775C49.7559 137.798 49.7403 137.853 49.7092 137.814L49.7325 137.876C49.7014 137.938 49.6781 137.938 49.6314 137.876C49.4292 138.475 49.7247 138.6 49.7247 138.6C49.8803 138.716 49.9114 138.522 50.0358 138.429L50.028 138.413ZM57.3625 135.339V135.363C57.3625 135.347 57.3547 135.339 57.3469 135.339H57.3625Z" fill="#B1CBC0"/>
<path d="M57.5415 136.164C57.6815 136.141 57.7592 136.242 57.8681 136.149C57.9303 136.133 57.9926 136.071 58.047 136.04C58.0393 135.938 58.1248 136.008 58.1248 135.915L58.1559 135.962C58.1559 135.931 58.1637 135.907 58.187 135.931L58.1948 135.946C58.1948 135.9 58.2259 135.915 58.2259 135.892L58.2337 135.907L58.2492 135.892L58.257 135.915C58.2725 135.861 58.3037 135.837 58.3348 135.853L58.3037 135.791C58.3814 135.837 58.3581 135.697 58.4437 135.76V135.775C58.4437 135.581 58.5992 135.853 58.5992 135.658C58.5992 135.682 58.6148 135.689 58.6226 135.705C58.6459 135.674 58.677 135.651 58.6304 135.526C58.6537 135.518 58.6614 135.557 58.6848 135.604C58.6614 135.549 58.677 135.526 58.6925 135.511V135.534L58.7392 135.495L58.6848 135.394C58.7236 135.409 58.7392 135.518 58.7626 135.472L58.7314 135.394C58.7781 135.394 58.8481 135.51 58.9103 135.549C59.0814 135.526 59.1436 135.238 59.3614 135.332L59.3926 135.394C59.4314 135.487 59.377 135.238 59.4159 135.316V135.269C59.4236 135.285 59.447 135.3 59.447 135.324C59.4626 135.324 59.4548 135.308 59.4548 135.277L59.4937 135.324C59.5714 135.347 59.5714 135.215 59.6492 135.207C59.7737 135.285 59.8825 135.129 59.9292 135.028C59.9837 134.841 60.2792 135.153 60.3336 134.95C60.3414 134.958 60.3414 134.927 60.3336 134.919L60.4503 134.888C60.4503 134.888 60.9947 134.709 60.2559 134.11L60.2481 134.087C60.1703 134.063 60.1237 134.063 60.1314 134.188C60.0692 134.071 60.077 134.195 60.0536 134.164V134.157C60.0614 134.266 59.9447 134.11 59.9447 134.211C59.9447 134.203 59.9292 134.164 59.937 134.164C59.9214 134.188 59.8981 134.242 59.8592 134.164C59.8047 134.211 59.7036 134.211 59.7192 134.336L59.7114 134.312C59.727 134.39 59.6881 134.336 59.6803 134.39C59.6725 134.382 59.6725 134.374 59.6725 134.374C59.6803 134.452 59.6103 134.413 59.5948 134.452L59.5714 134.406L59.5248 134.437H59.5481C59.5948 134.569 59.4703 134.359 59.4703 134.468C59.4314 134.468 59.5247 134.779 59.4625 134.717C59.4703 134.795 59.4314 134.608 59.4314 134.67C59.4003 134.592 59.4237 134.623 59.3926 134.569C59.3848 134.608 59.3147 134.515 59.3147 134.577L59.2914 134.522C59.2914 134.639 59.1903 134.483 59.2137 134.585C59.1903 134.647 59.1203 134.429 59.1203 134.561L59.0736 134.499C59.0503 134.491 59.097 134.592 59.0659 134.577C59.0503 134.53 59.027 134.553 59.0192 134.499C58.9415 134.444 58.9726 134.639 58.8637 134.538C58.887 134.631 58.8403 134.592 58.8559 134.662C58.8403 134.623 58.7937 134.678 58.7937 134.585L58.7859 134.538C58.7081 134.46 58.747 134.616 58.7081 134.616C58.7237 134.631 58.7392 134.616 58.7392 134.662L58.7081 134.67L58.6925 134.623L58.6381 134.616L58.6692 134.67C58.6381 134.655 58.5914 134.561 58.5914 134.647C58.5992 134.693 58.6459 134.709 58.6304 134.74C58.5837 134.717 58.5215 134.678 58.4748 134.678C58.5059 134.74 58.4903 134.74 58.4903 134.756L58.467 134.701C58.4592 134.795 58.4048 134.592 58.3892 134.662L58.3737 134.623L58.4126 134.74C58.4203 134.865 58.3503 134.639 58.3659 134.795C58.3814 134.779 58.4203 134.911 58.3892 134.896L58.3737 134.841C58.3659 134.857 58.3737 134.88 58.3581 134.872C58.3503 134.841 58.3348 134.795 58.3192 134.81L58.3037 134.732L58.3114 134.841C58.2648 134.795 58.257 134.88 58.2181 134.81C58.2181 134.81 58.1559 134.795 58.1715 134.888C58.1637 134.834 58.1248 134.826 58.1092 134.764C58.117 134.826 58.1014 134.888 58.0626 134.841V134.834C57.9848 134.795 58.0003 134.958 57.9226 134.911C57.9459 134.974 57.907 134.95 57.9459 135.028C57.9226 135.129 57.7903 134.904 57.8681 135.16C57.8526 135.184 57.8137 135.114 57.7904 135.106V135.09C57.7515 135.129 57.7437 135.137 57.7125 135.145C57.7048 135.176 57.7515 135.3 57.7048 135.277C57.697 135.23 57.6892 135.238 57.6737 135.246C57.6814 135.238 57.6737 135.215 57.6504 135.191V135.223C57.627 135.238 57.6426 135.254 57.6504 135.254C57.6504 135.262 57.6581 135.269 57.6659 135.285C57.627 135.23 57.6115 135.308 57.5881 135.23C57.5415 135.269 57.5337 135.37 57.4948 135.417C57.4715 135.378 57.4714 135.339 57.4792 135.316L57.4559 135.347C57.4326 135.285 57.4637 135.308 57.4637 135.293C57.3859 135.215 57.417 135.417 57.3392 135.355V135.394C57.347 135.417 57.3548 135.456 57.347 135.472C57.3237 135.425 57.3003 135.355 57.2848 135.363C57.2459 135.324 57.2459 135.409 57.2303 135.44C57.2459 135.44 57.2537 135.472 57.2537 135.495C57.2459 135.503 57.2148 135.456 57.2148 135.479L57.1915 135.402C57.2226 135.464 57.1915 135.479 57.1915 135.511C57.1681 135.464 57.1914 135.456 57.1837 135.417C57.137 135.44 57.1604 135.433 57.1215 135.456C57.1137 135.518 57.1526 135.518 57.1604 135.588C57.1448 135.612 57.1448 135.666 57.0981 135.635L57.1292 135.689C57.1059 135.752 57.0826 135.767 57.0281 135.705C56.9114 136.328 57.2148 136.405 57.2148 136.405C57.4015 136.46 57.4014 136.25 57.5259 136.156L57.5415 136.164ZM64.3391 132.04L64.3625 132.056C64.3547 132.048 64.3469 132.04 64.3391 132.04ZM65.1403 132.624H65.1325H65.1403Z" fill="#B1CBC0"/>
<path d="M64.6504 132.834C64.7826 132.795 64.8837 132.881 64.9614 132.756C65.0237 132.733 65.0703 132.678 65.117 132.616C65.0937 132.515 65.1948 132.569 65.1792 132.476L65.2181 132.515C65.2181 132.484 65.2181 132.46 65.2415 132.476L65.2492 132.491C65.2414 132.445 65.2726 132.453 65.2726 132.429L65.2804 132.445V132.429L65.2881 132.453C65.2959 132.398 65.3192 132.375 65.3659 132.375L65.327 132.32C65.4204 132.351 65.3659 132.219 65.467 132.266L65.4748 132.281C65.4437 132.087 65.6303 132.328 65.6148 132.141C65.6148 132.165 65.6381 132.172 65.6459 132.18C65.6614 132.149 65.6926 132.118 65.6226 132.001C65.6459 131.993 65.6614 132.025 65.7003 132.079C65.6692 132.032 65.677 132.001 65.6925 131.986L65.7003 132.009L65.7392 131.962L65.6615 131.885C65.7003 131.892 65.7392 131.993 65.7392 131.962L65.6925 131.885C65.7392 131.877 65.8326 131.986 65.9026 132.017C66.0581 131.962 66.097 131.674 66.307 131.729L66.3459 131.783C66.4003 131.861 66.2992 131.628 66.3537 131.706L66.3459 131.659C66.3615 131.674 66.377 131.682 66.3848 131.706C66.4003 131.698 66.3926 131.682 66.3848 131.651L66.4314 131.698C66.5092 131.706 66.4937 131.573 66.5714 131.558C66.7114 131.62 66.7814 131.441 66.8203 131.34C66.8437 131.145 67.1937 131.402 67.2092 131.184C67.217 131.192 67.2092 131.161 67.2092 131.153L67.3181 131.099C67.3181 131.099 67.8237 130.826 66.9915 130.367H66.9837C66.9059 130.359 66.8592 130.367 66.8826 130.484C66.8048 130.375 66.8281 130.499 66.8048 130.468L66.797 130.461C66.8204 130.569 66.6803 130.429 66.7036 130.538C66.6959 130.531 66.6803 130.499 66.6881 130.492C66.6726 130.523 66.657 130.569 66.6103 130.499C66.5637 130.554 66.4704 130.577 66.5015 130.694L66.4937 130.671C66.517 130.748 66.4781 130.694 66.4781 130.748C66.4703 130.741 66.4703 130.733 66.4625 130.733C66.4859 130.811 66.4081 130.787 66.4081 130.826L66.377 130.78L66.3381 130.818H66.3614C66.4392 130.943 66.2837 130.764 66.2992 130.857C66.2603 130.857 66.4003 131.145 66.3303 131.106C66.3537 131.169 66.2837 131.005 66.2915 131.067C66.2526 131.005 66.2759 131.021 66.237 130.974C66.237 131.021 66.1592 130.935 66.1592 130.99L66.1281 130.943C66.1514 131.052 66.0192 130.92 66.0503 131.021C66.0426 131.083 65.9337 130.889 65.957 131.013L65.9026 130.959C65.8792 130.959 65.9415 131.036 65.9026 131.036C65.8792 130.997 65.8559 131.013 65.8481 130.974C65.7703 130.935 65.8248 131.114 65.6925 131.036C65.7314 131.114 65.677 131.091 65.7081 131.161C65.6848 131.13 65.6537 131.192 65.6304 131.083C65.6304 131.075 65.6381 131.075 65.6459 131.091L65.6226 131.044C65.5448 130.966 65.5992 131.122 65.5603 131.122C65.5759 131.13 65.5914 131.122 65.5992 131.161L65.5681 131.169L65.5448 131.122H65.4903L65.5292 131.169C65.4904 131.153 65.4359 131.075 65.4514 131.161C65.467 131.208 65.5137 131.215 65.4981 131.239C65.4514 131.223 65.3737 131.192 65.3425 131.2C65.3814 131.254 65.3737 131.262 65.3659 131.278L65.3348 131.231C65.3426 131.324 65.257 131.13 65.257 131.208L65.2415 131.169L65.2959 131.278C65.327 131.394 65.2181 131.184 65.257 131.34C65.2648 131.324 65.3348 131.449 65.2959 131.433L65.2726 131.379C65.2726 131.394 65.2803 131.418 65.2648 131.41C65.257 131.379 65.2259 131.332 65.2181 131.355L65.1948 131.293L65.2181 131.394C65.1637 131.355 65.1715 131.441 65.1248 131.379C65.1248 131.379 65.0626 131.371 65.0937 131.457C65.0781 131.402 65.0392 131.402 65.0159 131.348C65.0392 131.41 65.0237 131.472 64.977 131.425V131.418C64.8992 131.394 64.9381 131.55 64.8448 131.511C64.8837 131.565 64.837 131.55 64.8915 131.62C64.8837 131.721 64.7126 131.527 64.837 131.76C64.8215 131.783 64.7825 131.721 64.7592 131.721V131.706C64.7281 131.752 64.7203 131.76 64.6815 131.783C64.6815 131.814 64.7437 131.923 64.697 131.916C64.6815 131.869 64.6737 131.885 64.6659 131.892C64.6659 131.885 64.6581 131.861 64.6348 131.846C64.6426 131.861 64.6426 131.869 64.6426 131.877C64.627 131.892 64.6348 131.908 64.6504 131.908C64.6504 131.916 64.6581 131.923 64.6659 131.931C64.6192 131.885 64.6192 131.962 64.5726 131.892C64.5337 131.939 64.5415 132.048 64.5104 132.095C64.487 132.063 64.4714 132.017 64.4792 132.001L64.4559 132.032C64.4248 131.978 64.4559 131.993 64.4559 131.978C64.3781 131.916 64.4326 132.11 64.347 132.056L64.3626 132.102V132.095C64.3751 132.116 64.3831 132.14 64.3859 132.165C64.3548 132.118 64.3237 132.056 64.3081 132.071C64.2692 132.032 64.277 132.126 64.2693 132.165C64.2848 132.165 64.3003 132.196 64.3003 132.211C64.2926 132.219 64.2615 132.172 64.2615 132.204L64.2225 132.141C64.2614 132.196 64.2303 132.219 64.2459 132.25C64.2148 132.204 64.2381 132.196 64.2225 132.172C64.1837 132.204 64.207 132.188 64.1681 132.219C64.1759 132.281 64.207 132.274 64.2303 132.336C64.2148 132.359 64.2225 132.414 64.1759 132.39L64.2148 132.445C64.1992 132.523 64.1759 132.523 64.1215 132.476C64.1059 133.114 64.417 133.145 64.417 133.145C64.5725 133.184 64.5415 132.989 64.6504 132.857V132.834ZM70.6392 127.62L70.6625 127.636C70.6548 127.62 70.647 127.613 70.6392 127.62ZM71.5103 128.041V128.048V128.041Z" fill="#B1CBC0"/>
<path d="M71.0981 128.336C71.2225 128.258 71.3314 128.344 71.4092 128.212C71.4637 128.173 71.5025 128.103 71.5414 128.056C71.5025 127.963 71.6036 127.994 71.5803 127.9L71.627 127.932C71.6192 127.9 71.6192 127.877 71.6425 127.893L71.6503 127.908C71.6348 127.862 71.6659 127.869 71.6581 127.846L71.6658 127.862V127.838L71.6814 127.862C71.6736 127.807 71.697 127.784 71.7359 127.784L71.6892 127.737C71.7903 127.753 71.7125 127.628 71.8136 127.659V127.675C71.7514 127.496 71.9692 127.69 71.9225 127.519C71.9303 127.543 71.9459 127.542 71.9614 127.558C71.977 127.519 71.9925 127.48 71.907 127.387C71.9303 127.371 71.9537 127.402 71.9848 127.441C71.9459 127.395 71.9459 127.364 71.9614 127.348V127.371L71.9925 127.317L71.9147 127.239C71.9614 127.239 72.0081 127.332 72.0159 127.293L71.9536 127.216C71.9925 127.2 72.1092 127.293 72.187 127.309C72.3426 127.231 72.3114 126.936 72.537 126.943L72.5914 126.99C72.6692 127.068 72.5136 126.85 72.5914 126.912L72.5759 126.866C72.5914 126.873 72.6148 126.881 72.6226 126.904C72.6381 126.897 72.6303 126.881 72.6148 126.85L72.6692 126.881C72.747 126.873 72.7081 126.749 72.7781 126.725C72.9336 126.764 72.9647 126.57 72.9803 126.461C72.9725 126.266 73.3536 126.453 73.3303 126.243C73.3459 126.251 73.3303 126.22 73.3225 126.212L73.4236 126.134C73.4236 126.134 73.8748 125.776 72.957 125.48L72.9414 125.465C72.8636 125.473 72.817 125.488 72.8637 125.597C72.7626 125.504 72.817 125.621 72.7703 125.605L72.7625 125.597C72.8092 125.698 72.6459 125.589 72.6847 125.675C72.677 125.667 72.6537 125.636 72.6614 125.628C72.6537 125.659 72.6458 125.706 72.5836 125.652C72.5525 125.714 72.4592 125.745 72.5059 125.862L72.4903 125.846C72.5292 125.924 72.4747 125.877 72.4903 125.924C72.4825 125.916 72.4748 125.916 72.4748 125.908C72.5137 125.986 72.4281 125.971 72.4359 126.01L72.397 125.971L72.3659 126.017L72.3892 126.01C72.4825 126.119 72.2959 125.971 72.3348 126.064C72.2959 126.072 72.4903 126.329 72.4125 126.297C72.4436 126.36 72.3503 126.22 72.3659 126.266C72.3114 126.212 72.3426 126.227 72.2881 126.189C72.2959 126.235 72.2103 126.165 72.2103 126.22L72.1714 126.181C72.2103 126.282 72.0625 126.181 72.1092 126.259C72.1092 126.321 71.9692 126.15 72.0159 126.266L71.9381 126.22C71.9148 126.22 71.9925 126.297 71.9536 126.282C71.9225 126.243 71.907 126.274 71.8759 126.227C71.7981 126.204 71.8837 126.383 71.7437 126.321C71.7981 126.399 71.7359 126.383 71.7825 126.438C71.7514 126.406 71.7281 126.476 71.7048 126.383L71.6814 126.336C71.5803 126.282 71.6736 126.414 71.6348 126.438C71.6581 126.445 71.6659 126.43 71.6814 126.469L71.6503 126.484L71.6192 126.445L71.5647 126.461L71.6114 126.5C71.5725 126.492 71.5025 126.422 71.5336 126.508C71.557 126.554 71.6114 126.554 71.5959 126.585C71.5414 126.578 71.4714 126.562 71.4247 126.578C71.4714 126.624 71.4637 126.632 71.4637 126.655L71.4247 126.617C71.4481 126.694 71.3236 126.539 71.347 126.609L71.3236 126.578L71.4014 126.679C71.4481 126.788 71.3081 126.601 71.3781 126.757C71.3858 126.741 71.4714 126.85 71.4403 126.834V126.78C71.4403 126.795 71.4559 126.819 71.4403 126.811C71.4247 126.788 71.3859 126.749 71.3859 126.764L71.347 126.702L71.3936 126.803C71.3314 126.772 71.3548 126.858 71.3003 126.803C71.3003 126.803 71.2381 126.811 71.2847 126.881C71.2536 126.834 71.2225 126.834 71.1836 126.788C71.2147 126.842 71.2148 126.904 71.1603 126.866C71.0825 126.858 71.1447 127.006 71.0514 126.982C71.0981 127.029 71.0514 127.021 71.1136 127.083C71.1292 127.185 70.9192 127.021 71.0825 127.239C71.0747 127.27 71.0203 127.216 71.0047 127.208L70.997 127.192C70.9736 127.239 70.9658 127.255 70.9347 127.27C70.9425 127.301 71.0125 127.395 70.9737 127.395C70.9503 127.348 70.9425 127.364 70.9347 127.371C70.9347 127.364 70.927 127.348 70.8958 127.332C70.9036 127.348 70.9114 127.356 70.9114 127.364V127.356C70.9114 127.379 70.9192 127.395 70.9347 127.387C70.9425 127.395 70.9425 127.402 70.9581 127.41C70.9036 127.379 70.9192 127.449 70.8648 127.387C70.8336 127.441 70.857 127.542 70.8414 127.597C70.8103 127.566 70.7947 127.519 70.7947 127.519L70.7792 127.558C70.7403 127.511 70.7714 127.519 70.7714 127.504C70.6781 127.457 70.7714 127.636 70.6781 127.605L70.7014 127.651H70.6936C70.7092 127.675 70.7248 127.706 70.7248 127.714C70.6859 127.675 70.647 127.62 70.6314 127.636C70.5848 127.613 70.6081 127.69 70.6081 127.729C70.6236 127.729 70.6392 127.753 70.6469 127.768C70.6392 127.776 70.6003 127.745 70.6081 127.768L70.5614 127.714C70.6081 127.76 70.5847 127.791 70.6003 127.815C70.5614 127.776 70.5847 127.768 70.5614 127.737C70.5303 127.776 70.5459 127.753 70.5147 127.791C70.5303 127.854 70.5614 127.838 70.5925 127.9C70.5847 127.924 70.6003 127.978 70.5536 127.963L70.6003 128.009C70.6003 128.087 70.577 128.087 70.5225 128.056C70.6236 128.679 70.9347 128.663 70.9347 128.663C71.1136 128.686 71.0437 128.507 71.1214 128.352L71.0981 128.336ZM75.9748 122.057L75.9981 122.064C75.9903 122.057 75.9826 122.057 75.9748 122.057ZM76.9237 122.313L76.9315 122.321L76.9237 122.313Z" fill="#B1CBC0"/>
<path d="M76.5736 122.679C76.6825 122.601 76.8069 122.64 76.8458 122.492C76.8925 122.446 76.9236 122.368 76.9392 122.306C76.8769 122.228 76.9858 122.228 76.9469 122.15L77.0014 122.173C76.9858 122.142 76.978 122.119 77.0091 122.127L77.0247 122.135C77.0014 122.096 77.0325 122.088 77.0247 122.072L77.0403 122.08V122.057L77.0558 122.072C77.0402 122.018 77.0558 121.994 77.0947 121.979L77.0403 121.94C77.1414 121.932 77.0403 121.831 77.1492 121.839L77.1647 121.847C77.0636 121.691 77.3203 121.823 77.2425 121.66C77.2503 121.683 77.2736 121.675 77.2892 121.691C77.2969 121.652 77.3047 121.613 77.2114 121.535C77.2269 121.52 77.2581 121.543 77.2892 121.574C77.2425 121.543 77.2347 121.496 77.2425 121.496L77.258 121.52L77.2736 121.465L77.1803 121.411C77.2269 121.403 77.2969 121.489 77.2892 121.442L77.2114 121.388C77.2503 121.364 77.3669 121.426 77.4447 121.434C77.5769 121.325 77.4914 121.045 77.7092 121.006L77.7714 121.037C77.8492 121.092 77.678 120.921 77.7558 120.96L77.7325 120.921C77.7481 120.928 77.7714 120.928 77.7869 120.952C77.8025 120.944 77.787 120.928 77.7714 120.905L77.8336 120.928C77.9114 120.905 77.8492 120.788 77.9114 120.749C78.0669 120.757 78.067 120.563 78.067 120.438C78.0203 120.251 78.4325 120.36 78.378 120.158C78.3936 120.166 78.3703 120.135 78.3625 120.127L78.4403 120.049C78.4403 120.049 78.8058 119.606 77.8569 119.504L77.8414 119.489C77.7636 119.512 77.7247 119.536 77.7947 119.645C77.678 119.567 77.7558 119.676 77.7169 119.668L77.7092 119.66C77.7714 119.738 77.5925 119.676 77.6469 119.761C77.6391 119.753 77.608 119.73 77.608 119.722C77.608 119.753 77.608 119.8 77.5458 119.761C77.5225 119.824 77.4447 119.878 77.5225 119.979L77.5069 119.964C77.5614 120.041 77.4992 119.995 77.5225 120.041C77.5147 120.034 77.5069 120.034 77.5069 120.034C77.5614 120.111 77.4758 120.111 77.4914 120.143L77.4447 120.111L77.4214 120.158L77.4447 120.15C77.5614 120.228 77.3514 120.135 77.4058 120.213C77.3669 120.228 77.6081 120.446 77.5303 120.43C77.577 120.485 77.4525 120.353 77.4758 120.407C77.4136 120.368 77.4447 120.368 77.398 120.345C77.4136 120.384 77.3203 120.337 77.3358 120.392L77.2892 120.36C77.3514 120.454 77.1802 120.376 77.2502 120.462C77.2658 120.524 77.0947 120.384 77.1569 120.485L77.0792 120.454C77.0558 120.462 77.1569 120.532 77.1102 120.516C77.0714 120.485 77.0636 120.516 77.0325 120.477C76.9392 120.469 77.0636 120.617 76.9236 120.594C77.0014 120.672 76.9314 120.656 76.978 120.703C76.9469 120.679 76.9391 120.749 76.8847 120.672L76.8536 120.633C76.7447 120.602 76.8614 120.711 76.8303 120.742C76.8536 120.742 76.8536 120.734 76.8847 120.757L76.8613 120.781L76.8225 120.749L76.768 120.773L76.8225 120.804C76.7836 120.804 76.698 120.749 76.7447 120.827C76.7758 120.866 76.8225 120.858 76.8225 120.89C76.768 120.89 76.6902 120.897 76.6669 120.913C76.7213 120.952 76.7136 120.96 76.7214 120.975L76.6747 120.944C76.7136 121.022 76.5658 120.882 76.5969 120.952L76.5658 120.928L76.6592 121.006C76.7369 121.107 76.5503 120.952 76.6514 121.084C76.6514 121.061 76.7602 121.162 76.7291 121.162L76.6903 121.123C76.6903 121.139 76.7058 121.154 76.698 121.154C76.6747 121.131 76.6358 121.1 76.6358 121.123L76.5891 121.069L76.6514 121.146C76.5892 121.131 76.628 121.209 76.558 121.17C76.558 121.17 76.4958 121.193 76.558 121.247C76.5192 121.209 76.4802 121.216 76.4414 121.17C76.4802 121.216 76.4958 121.279 76.4336 121.247H76.4258C76.348 121.255 76.4414 121.388 76.348 121.38C76.4025 121.419 76.3558 121.419 76.4258 121.458C76.4569 121.551 76.2236 121.434 76.4258 121.613C76.4258 121.644 76.348 121.598 76.348 121.605V121.59C76.3403 121.644 76.3325 121.652 76.3091 121.683C76.3169 121.714 76.4181 121.792 76.3714 121.8C76.3403 121.761 76.3402 121.777 76.3325 121.784C76.3325 121.777 76.3169 121.761 76.2858 121.753C76.2936 121.761 76.3014 121.777 76.3091 121.777L76.3014 121.769C76.3014 121.792 76.3169 121.8 76.3247 121.8C76.3325 121.808 76.3403 121.808 76.348 121.816C76.2858 121.792 76.3169 121.862 76.2469 121.816C76.2314 121.878 76.2703 121.971 76.2703 122.026C76.2314 122.002 76.208 121.971 76.208 121.948L76.2002 121.987C76.1536 121.948 76.1847 121.948 76.1769 121.932C76.0758 121.901 76.208 122.065 76.0991 122.049L76.1303 122.088H76.1069C76.1302 122.103 76.1458 122.135 76.1536 122.142C76.1069 122.111 76.0525 122.065 76.0447 122.088C75.9902 122.072 76.0369 122.15 76.0447 122.189C76.0602 122.181 76.0836 122.205 76.0913 122.22C76.0836 122.228 76.0369 122.205 76.0525 122.228L75.9902 122.181C76.0447 122.22 76.0291 122.259 76.0525 122.275C76.0058 122.243 76.0291 122.228 75.998 122.197C75.9747 122.243 75.9825 122.22 75.9669 122.259C75.998 122.314 76.0214 122.298 76.068 122.352C76.068 122.384 76.0913 122.43 76.0447 122.43L76.0991 122.461C76.1147 122.539 76.0914 122.539 76.0214 122.524C76.2547 123.123 76.5503 123.037 76.5503 123.037C76.6514 122.998 76.5425 122.827 76.5969 122.671L76.5736 122.679ZM80.0736 115.552H80.1048C80.0892 115.552 80.0814 115.544 80.0736 115.552ZM81.0614 115.598L81.0692 115.606L81.0614 115.598Z" fill="#B1CBC0"/>
<path d="M80.7736 116.042C80.8514 115.933 80.9836 115.964 81.0069 115.808C81.0458 115.754 81.0458 115.676 81.0613 115.606C80.9836 115.528 81.0925 115.528 81.038 115.45L81.0924 115.458C81.0691 115.435 81.0613 115.412 81.0924 115.412H81.108C81.0769 115.373 81.108 115.365 81.0924 115.349L81.108 115.357V115.334H81.1236C81.1003 115.287 81.108 115.256 81.1391 115.233L81.0769 115.209C81.1703 115.186 81.0536 115.1 81.1547 115.085H81.1702C81.038 114.945 81.3258 115.03 81.2091 114.89C81.2247 114.906 81.2402 114.898 81.2558 114.906C81.2558 114.867 81.2558 114.828 81.1391 114.773C81.1547 114.75 81.1858 114.773 81.2325 114.789C81.178 114.766 81.1702 114.735 81.1702 114.711L81.1858 114.727L81.1936 114.665L81.0924 114.626C81.1313 114.61 81.2169 114.672 81.2013 114.641L81.1236 114.602C81.1547 114.571 81.2947 114.61 81.3725 114.602C81.4736 114.462 81.3414 114.213 81.5514 114.135L81.6136 114.159C81.7069 114.198 81.4969 114.058 81.5824 114.081L81.5514 114.05C81.5669 114.05 81.5903 114.05 81.6058 114.065C81.6136 114.05 81.598 114.042 81.5824 114.019L81.6447 114.026C81.7225 113.988 81.6291 113.886 81.6836 113.832C81.8391 113.809 81.7925 113.614 81.7614 113.521C81.6836 113.35 82.1036 113.365 81.9947 113.186C82.0103 113.186 81.9869 113.163 81.9713 113.163L82.0336 113.062C82.0336 113.062 82.3058 112.556 81.3569 112.641L81.3413 112.634C81.2636 112.673 81.2403 112.711 81.318 112.789C81.1936 112.743 81.2869 112.828 81.2402 112.828H81.2325C81.3103 112.906 81.1236 112.867 81.1936 112.937C81.1858 112.929 81.1469 112.914 81.1547 112.906C81.1625 112.937 81.1702 112.984 81.1002 112.953C81.0924 113.03 81.0225 113.085 81.1158 113.186L81.1002 113.178C81.178 113.233 81.1003 113.209 81.1314 113.256C81.1236 113.256 81.1158 113.256 81.108 113.248C81.1702 113.303 81.0925 113.326 81.1158 113.357L81.0691 113.342V113.396H81.0847C81.2169 113.458 80.9836 113.396 81.0536 113.474C81.0225 113.497 81.2869 113.653 81.2091 113.661C81.2636 113.7 81.1158 113.606 81.1547 113.645C81.0769 113.614 81.1158 113.614 81.0613 113.599C81.0847 113.637 80.9836 113.606 81.0069 113.653L80.9524 113.63C81.0302 113.707 80.8514 113.669 80.9291 113.739C80.9525 113.793 80.758 113.692 80.8513 113.777H80.7736C80.758 113.793 80.8513 113.832 80.8125 113.832C80.7658 113.809 80.7658 113.84 80.7347 113.809C80.6414 113.816 80.7969 113.941 80.6569 113.941C80.7347 113.995 80.6725 113.995 80.7347 114.034C80.6958 114.019 80.7036 114.089 80.6336 114.019L80.6025 113.995C80.4858 113.98 80.6336 114.073 80.6025 114.104C80.6258 114.104 80.6258 114.089 80.6569 114.112L80.6336 114.135L80.5947 114.112L80.548 114.143L80.6025 114.159C80.5636 114.167 80.4702 114.135 80.5247 114.19C80.5636 114.221 80.6025 114.205 80.6025 114.237C80.5558 114.252 80.478 114.268 80.4469 114.299C80.5091 114.322 80.5013 114.33 80.5091 114.346L80.4547 114.322C80.5091 114.4 80.3302 114.283 80.3769 114.346L80.338 114.322L80.4469 114.384C80.5247 114.462 80.3303 114.353 80.4547 114.462C80.4547 114.439 80.5714 114.509 80.5325 114.517L80.4858 114.486C80.4936 114.501 80.5091 114.517 80.5014 114.517C80.478 114.501 80.4236 114.478 80.4236 114.501L80.3613 114.462L80.4391 114.54C80.3769 114.54 80.4235 114.602 80.3613 114.579C80.3613 114.579 80.3069 114.61 80.3769 114.657C80.3302 114.626 80.2991 114.641 80.2447 114.61C80.2914 114.649 80.3225 114.703 80.2603 114.688H80.2525C80.1747 114.711 80.2914 114.82 80.198 114.844C80.2602 114.867 80.2136 114.882 80.2991 114.921C80.3536 114.999 80.0969 114.937 80.3302 115.077C80.3302 115.108 80.2525 115.077 80.2525 115.085L80.2447 115.077C80.2447 115.131 80.2447 115.155 80.2213 115.17C80.2369 115.201 80.3458 115.248 80.2991 115.271C80.2602 115.24 80.2603 115.256 80.2603 115.264C80.2603 115.256 80.2447 115.24 80.2058 115.24C80.2214 115.248 80.2291 115.256 80.2291 115.264C80.2291 115.279 80.2447 115.287 80.2525 115.279C80.2602 115.279 80.268 115.287 80.2836 115.287C80.2213 115.279 80.2602 115.342 80.1902 115.303C80.1825 115.365 80.2447 115.443 80.2525 115.505C80.2136 115.489 80.1747 115.466 80.1747 115.443V115.482C80.1202 115.45 80.1513 115.45 80.1436 115.435C80.0347 115.427 80.198 115.559 80.0969 115.559L80.1358 115.591H80.128C80.1513 115.598 80.1824 115.629 80.1824 115.637C80.128 115.622 80.0736 115.583 80.0658 115.606C80.0114 115.598 80.0658 115.668 80.0813 115.707C80.0969 115.699 80.1202 115.715 80.1358 115.731C80.1358 115.746 80.0813 115.723 80.0969 115.746L80.0191 115.715C80.0814 115.738 80.0736 115.777 80.0969 115.793C80.0425 115.777 80.0658 115.754 80.0191 115.731L79.9958 115.808C80.0347 115.855 80.058 115.832 80.1125 115.886C80.1125 115.917 80.1514 115.964 80.1047 115.964L80.1669 115.987C80.198 116.05 80.1747 116.065 80.1047 116.065C80.4469 116.61 80.7269 116.454 80.7269 116.454C80.8825 116.423 80.7502 116.275 80.7658 116.112L80.7736 116.042ZM83.8069 108.222V108.229V108.222Z" fill="#B1CBC0"/>
<path d="M83.6125 108.704C83.6747 108.58 83.8069 108.58 83.7914 108.432C83.8147 108.37 83.8069 108.292 83.8069 108.222C83.7291 108.167 83.8225 108.144 83.7525 108.082H83.8069C83.7836 108.058 83.768 108.043 83.7991 108.035V108.043C83.7603 108.012 83.7913 107.996 83.7758 107.988L83.7914 107.996V107.973L83.8147 107.981C83.7758 107.934 83.7836 107.903 83.8147 107.879H83.7369C83.8147 107.833 83.698 107.778 83.7991 107.747V107.755C83.6436 107.638 83.9547 107.677 83.7991 107.56C83.8147 107.576 83.8303 107.568 83.8458 107.568C83.838 107.529 83.838 107.49 83.7058 107.459C83.7136 107.436 83.7525 107.451 83.7991 107.459C83.7447 107.444 83.7213 107.42 83.7213 107.397H83.7447L83.7369 107.335H83.628C83.6669 107.311 83.7602 107.358 83.7447 107.327L83.6669 107.304C83.6902 107.265 83.8225 107.28 83.9003 107.257C83.978 107.101 83.7913 106.868 83.978 106.767H84.0558C84.1569 106.79 83.9236 106.689 84.0169 106.704L83.978 106.673C83.9936 106.673 84.0169 106.665 84.0403 106.681C84.048 106.665 84.0325 106.665 84.0091 106.642H84.0714C84.1336 106.588 84.0325 106.51 84.0714 106.448C84.2114 106.393 84.1492 106.214 84.0947 106.113C83.978 105.957 84.4058 105.903 84.2658 105.739C84.2814 105.739 84.2503 105.724 84.2425 105.716L84.2814 105.607C84.2814 105.607 84.4525 105.063 83.5425 105.312H83.5191C83.4414 105.366 83.4413 105.389 83.5269 105.467C83.3947 105.444 83.5036 105.514 83.4491 105.522H83.4413C83.5347 105.584 83.3402 105.584 83.418 105.638C83.4102 105.638 83.3714 105.623 83.3714 105.615C83.3791 105.646 83.4025 105.693 83.3247 105.669C83.3325 105.747 83.2702 105.825 83.3869 105.887L83.3636 105.88C83.4414 105.918 83.3713 105.911 83.4025 105.957H83.3791C83.4569 106.004 83.3713 106.035 83.4025 106.059H83.348V106.113L83.3636 106.097C83.5036 106.136 83.2702 106.113 83.348 106.175C83.3247 106.206 83.6202 106.308 83.5425 106.331C83.6047 106.362 83.4413 106.292 83.488 106.331C83.4102 106.315 83.4491 106.308 83.3869 106.3C83.418 106.331 83.3091 106.323 83.348 106.362L83.2935 106.346C83.3869 106.409 83.2002 106.401 83.2935 106.455C83.3324 106.51 83.1225 106.448 83.2158 106.51H83.138C83.1224 106.525 83.2313 106.541 83.1846 106.557C83.138 106.541 83.138 106.572 83.1069 106.549C83.0291 106.58 83.1847 106.665 83.0524 106.704C83.1458 106.743 83.0758 106.759 83.1458 106.782C83.1069 106.774 83.1224 106.844 83.0446 106.79C83.0369 106.782 83.0369 106.782 83.0602 106.782L83.0058 106.767C82.8891 106.774 83.0447 106.844 83.0213 106.876C83.0447 106.868 83.0369 106.852 83.0758 106.876L83.0602 106.907H83.0136L82.9747 106.946L83.0369 106.953C82.998 106.969 82.9047 106.953 82.9747 107C83.0136 107.023 83.0524 107 83.068 107.023L82.9124 107.101C82.9747 107.117 82.9746 107.125 82.9902 107.14L82.9358 107.125C83.0136 107.187 82.8113 107.109 82.858 107.163H82.8191L82.9358 107.202C83.0369 107.265 82.8113 107.195 82.9591 107.28C82.9513 107.265 83.0835 107.304 83.0524 107.319L82.998 107.304C83.0058 107.319 83.0291 107.327 83.0136 107.335C82.9824 107.319 82.9358 107.311 82.9358 107.327L82.8736 107.296L82.9669 107.35C82.9047 107.358 82.9669 107.412 82.8891 107.405C82.8891 107.405 82.8424 107.444 82.9202 107.483C82.8736 107.459 82.8425 107.483 82.788 107.459C82.8425 107.49 82.8813 107.537 82.8191 107.537V107.529C82.7413 107.568 82.8813 107.654 82.788 107.685C82.8502 107.7 82.8113 107.716 82.8969 107.732C82.9746 107.809 82.7024 107.786 82.9591 107.872C82.9669 107.903 82.8813 107.887 82.8813 107.895L82.8658 107.887C82.8735 107.942 82.8735 107.965 82.858 107.988C82.8813 108.012 82.998 108.051 82.9591 108.066C82.9124 108.043 82.9202 108.058 82.9202 108.066C82.9124 108.058 82.8969 108.051 82.8658 108.058C82.8813 108.066 82.8891 108.074 82.8969 108.074C82.8969 108.097 82.9124 108.097 82.9202 108.089C82.928 108.089 82.9358 108.097 82.9513 108.097C82.8735 108.097 82.9435 108.152 82.858 108.136C82.8658 108.198 82.9358 108.261 82.9591 108.323C82.9124 108.315 82.8813 108.292 82.8658 108.276L82.8736 108.315C82.8113 108.3 82.8424 108.284 82.8347 108.268C82.7258 108.284 82.9124 108.377 82.8113 108.401L82.858 108.424H82.8502C82.8735 108.432 82.9047 108.455 82.9124 108.463C82.858 108.455 82.788 108.432 82.788 108.455C82.7336 108.463 82.8035 108.517 82.8191 108.549C82.8347 108.541 82.858 108.549 82.8736 108.564C82.8736 108.58 82.8191 108.572 82.8424 108.587L82.7646 108.572C82.8424 108.587 82.8269 108.626 82.858 108.634C82.8035 108.626 82.8191 108.603 82.7802 108.587C82.7724 108.634 82.7802 108.611 82.7724 108.665C82.8191 108.704 82.8502 108.681 82.8969 108.712C82.9046 108.735 82.9513 108.774 82.8969 108.79H82.9591C82.998 108.844 82.9824 108.868 82.9124 108.883C83.348 109.35 83.5969 109.155 83.5969 109.155C83.7525 109.039 83.5814 108.922 83.5658 108.766L83.6125 108.704ZM84.2736 100.767L84.3047 100.759C84.2891 100.759 84.2814 100.767 84.2736 100.767ZM85.207 100.479H85.2148H85.207Z" fill="#B1CBC0"/>
<path d="M85.0903 100.985C85.1369 100.853 85.2614 100.83 85.2225 100.689C85.2381 100.627 85.2147 100.549 85.207 100.479C85.1136 100.44 85.2147 100.402 85.1292 100.347L85.1836 100.339C85.1603 100.324 85.137 100.308 85.1681 100.3H85.1836C85.1447 100.277 85.1681 100.261 85.1525 100.246H85.1681L85.1603 100.223L85.1836 100.23C85.1447 100.191 85.1447 100.153 85.1603 100.129H85.0825C85.1603 100.075 85.0281 100.036 85.1214 99.9891H85.1369C84.9658 99.9113 85.2692 99.888 85.1059 99.7946C85.1292 99.8024 85.1447 99.7946 85.1603 99.7946C85.1447 99.7557 85.137 99.7168 85.0047 99.7168C85.0047 99.6934 85.0514 99.7012 85.0981 99.7012C85.0436 99.6935 85.0203 99.6701 85.0203 99.6546L85.0436 99.6623L85.028 99.6078H84.9192C84.9503 99.5845 85.0514 99.6079 85.028 99.5767L84.9347 99.5689C84.958 99.53 85.0903 99.5145 85.1681 99.4911C85.2225 99.3355 85.0125 99.1332 85.1758 98.9931H85.2536C85.3548 98.9931 85.0981 98.9387 85.1992 98.9387L85.1525 98.9153C85.1681 98.9153 85.1914 98.8998 85.2148 98.9153C85.2225 98.8998 85.2069 98.8998 85.1758 98.8842L85.2381 98.8686C85.2925 98.8064 85.1759 98.7441 85.207 98.6741C85.3392 98.5963 85.2381 98.4407 85.1758 98.3395C85.0358 98.2072 85.4481 98.0827 85.2847 97.9505C85.3003 97.9505 85.2692 97.9349 85.2536 97.9349L85.2769 97.8182C85.2769 97.8182 85.3547 97.2501 84.4991 97.647H84.4758C84.4214 97.7092 84.398 97.7481 84.5069 97.8026C84.3747 97.8026 84.4913 97.8571 84.4447 97.8648H84.4369C84.5381 97.9115 84.3436 97.9427 84.4369 97.9816C84.4292 97.9816 84.3903 97.9738 84.3903 97.966C84.4058 97.9971 84.4291 98.0438 84.3513 98.0282C84.3669 98.0905 84.3202 98.1839 84.4447 98.2306H84.4214C84.4992 98.2617 84.4292 98.2617 84.4758 98.2928H84.4525C84.5302 98.324 84.4603 98.3706 84.4914 98.394H84.4369V98.4484L84.4525 98.4329C84.5925 98.4484 84.3591 98.464 84.4525 98.5107C84.4291 98.5418 84.7403 98.5885 84.6703 98.6352C84.7325 98.6585 84.5614 98.6118 84.6158 98.643C84.538 98.643 84.5691 98.6274 84.5069 98.6274C84.538 98.6585 84.4292 98.6663 84.4758 98.7052H84.4214C84.5225 98.7519 84.3436 98.783 84.4369 98.8142C84.4836 98.8608 84.2658 98.8297 84.3747 98.892H84.2969C84.2814 98.9075 84.3902 98.9153 84.3513 98.9309C84.3047 98.9231 84.3125 98.9542 84.2736 98.9387C84.1958 98.9776 84.3747 99.0398 84.2425 99.0943C84.3358 99.1176 84.2813 99.141 84.3513 99.1565C84.3125 99.1565 84.3358 99.2188 84.2502 99.1799L84.2036 99.1643C84.0947 99.1955 84.258 99.2421 84.2347 99.2655C84.258 99.2577 84.2503 99.2421 84.2892 99.2577V99.2888L84.2425 99.281L84.2113 99.3277H84.2736C84.2425 99.3511 84.1413 99.3511 84.2191 99.3822C84.2658 99.3978 84.2969 99.3666 84.3202 99.39C84.2814 99.4211 84.2114 99.4678 84.1958 99.4989C84.2736 99.4989 84.258 99.5145 84.2736 99.5223H84.2191C84.2969 99.5689 84.0869 99.53 84.1414 99.5767L84.1025 99.5689L84.2191 99.5923C84.328 99.639 84.0947 99.6001 84.2502 99.6701C84.2424 99.6545 84.3747 99.6701 84.3513 99.6934L84.2969 99.6857C84.3047 99.7012 84.328 99.7012 84.3202 99.709C84.2891 99.7012 84.2425 99.7012 84.2425 99.7168H84.1647L84.2658 99.7557C84.2036 99.779 84.2736 99.8179 84.188 99.8335C84.188 99.8335 84.1491 99.8802 84.2269 99.9113C84.1725 99.8958 84.1491 99.9269 84.0869 99.9113C84.1491 99.9269 84.1958 99.9736 84.1258 99.9891H84.118C84.0402 100.044 84.1958 100.098 84.118 100.145C84.1958 100.145 84.1491 100.176 84.2347 100.176C84.3125 100.238 84.0558 100.254 84.3125 100.308C84.328 100.332 84.2503 100.332 84.2347 100.347H84.2191C84.2347 100.394 84.2347 100.409 84.2269 100.448C84.2502 100.472 84.3825 100.479 84.3436 100.51C84.2969 100.495 84.3047 100.51 84.3047 100.518C84.2969 100.51 84.2814 100.503 84.2425 100.518C84.258 100.518 84.2658 100.526 84.2736 100.534C84.2736 100.557 84.2892 100.557 84.2969 100.542H84.328C84.2658 100.557 84.328 100.596 84.2502 100.596C84.2658 100.658 84.3514 100.713 84.3747 100.752C84.328 100.752 84.2969 100.736 84.2814 100.721L84.2969 100.759C84.2347 100.752 84.2658 100.736 84.2502 100.721C84.1491 100.752 84.3436 100.814 84.2502 100.861H84.2892C84.3141 100.862 84.3381 100.87 84.3591 100.884C84.3047 100.884 84.2347 100.868 84.2347 100.892C84.1803 100.907 84.258 100.946 84.2814 100.97C84.2891 100.954 84.3203 100.962 84.3436 100.97C84.3436 100.985 84.2891 100.985 84.3125 100.993L84.2347 100.985C84.3125 100.985 84.3125 101.024 84.3358 101.032C84.2814 101.032 84.2891 101.008 84.258 101.001C84.258 101.047 84.258 101.024 84.2658 101.079C84.3202 101.11 84.3436 101.079 84.398 101.102C84.4136 101.125 84.4603 101.156 84.4136 101.18H84.4758C84.5225 101.226 84.5147 101.257 84.4447 101.273C84.9503 101.662 85.1603 101.429 85.1603 101.429C85.3159 101.296 85.1214 101.211 85.0825 101.04L85.0903 100.985ZM84.5069 93.0482L84.5303 93.0405C84.5225 93.0405 84.5147 93.0405 84.5069 93.0482ZM85.4014 92.6281H85.4092H85.4014Z" fill="#B1CBC0"/>
<path d="M85.3624 93.1494C85.3857 93.0171 85.5179 92.9704 85.4557 92.8381C85.4635 92.7603 85.4324 92.6981 85.4091 92.6358C85.308 92.6125 85.4013 92.558 85.3157 92.5191L85.3701 92.5035C85.339 92.4958 85.3235 92.4802 85.3546 92.4646H85.3701C85.3235 92.4491 85.3546 92.4257 85.3313 92.4179H85.3468L85.339 92.3946H85.3624C85.3157 92.3635 85.3079 92.3323 85.3313 92.3012H85.2535C85.3313 92.2234 85.1757 92.2234 85.2691 92.1456H85.2846C85.1057 92.0833 85.4013 92.0211 85.2302 91.9588C85.2535 91.9666 85.2613 91.951 85.2846 91.951C85.2613 91.9199 85.2535 91.8732 85.129 91.8888C85.129 91.8655 85.1679 91.8655 85.2224 91.8577C85.1679 91.8577 85.1446 91.8421 85.1446 91.8188H85.168L85.1446 91.7643L85.0357 91.7799C85.0668 91.7487 85.1679 91.7643 85.1446 91.741H85.0513C85.0668 91.7021 85.2069 91.6632 85.2691 91.6242C85.3002 91.4531 85.0591 91.2896 85.2068 91.1262L85.2846 91.1185C85.3857 91.1107 85.129 91.0873 85.2302 91.0718H85.1835C85.199 91.064 85.2224 91.0562 85.2457 91.064C85.2457 91.0484 85.2302 91.0484 85.1991 91.0407L85.2613 91.0173C85.308 90.9395 85.1835 90.9006 85.2068 90.8305C85.3313 90.7372 85.2068 90.5971 85.129 90.5037C84.9735 90.387 85.3624 90.2081 85.168 90.0913C85.1835 90.0836 85.1524 90.0758 85.1368 90.0758V89.959C85.1368 89.959 85.1213 89.3832 84.3358 89.9046H84.3124C84.2658 89.9824 84.258 90.0135 84.3747 90.0446C84.2424 90.068 84.3669 90.0991 84.3202 90.1225H84.3124C84.4213 90.1536 84.2347 90.2003 84.328 90.2392C84.3202 90.2392 84.2813 90.2392 84.2736 90.2314C84.2969 90.2547 84.328 90.2937 84.2502 90.3092C84.2735 90.3715 84.2502 90.4648 84.3747 90.496H84.3513C84.4291 90.5115 84.3669 90.5271 84.4135 90.5504C84.4058 90.5504 84.398 90.5504 84.3902 90.5582C84.468 90.5738 84.4135 90.636 84.4446 90.6516L84.3902 90.6594L84.4058 90.7138L84.4135 90.6905C84.5535 90.6827 84.3358 90.7372 84.4213 90.7683C84.4058 90.8072 84.7324 90.815 84.6546 90.8617C84.7324 90.8772 84.5457 90.8539 84.6002 90.8772C84.5224 90.885 84.5536 90.8694 84.4913 90.8772C84.5302 90.9006 84.4135 90.9239 84.468 90.955L84.4135 90.9628C84.5224 90.994 84.3357 91.0407 84.4446 91.064C84.4913 91.1029 84.2736 91.1029 84.3902 91.1418L84.3124 91.1652C84.2969 91.1885 84.4058 91.1729 84.3747 91.1963C84.328 91.1963 84.3358 91.2274 84.2969 91.2196C84.2191 91.2741 84.4136 91.2974 84.2813 91.3752C84.3747 91.383 84.3202 91.4141 84.398 91.4219C84.3591 91.4297 84.398 91.4842 84.3046 91.4531H84.258C84.1491 91.492 84.3202 91.5153 84.3046 91.5464C84.3202 91.5386 84.3202 91.5231 84.3591 91.5309V91.562H84.3124L84.2891 91.6087H84.3513C84.3202 91.632 84.2191 91.6476 84.3046 91.6709C84.3513 91.6787 84.3824 91.6398 84.4058 91.6709C84.3669 91.7021 84.3125 91.7487 84.2969 91.7954C84.3747 91.7877 84.3591 91.7954 84.3747 91.811L84.3202 91.8188C84.398 91.8577 84.1958 91.8421 84.258 91.881H84.2191L84.3436 91.8888C84.4602 91.9199 84.2269 91.9199 84.3824 91.951C84.3747 91.9355 84.5069 91.9355 84.4836 91.9588H84.4291C84.4447 91.9666 84.468 91.9744 84.4524 91.9822C84.4213 91.9744 84.3747 91.9822 84.3747 91.9977L84.2969 91.99L84.398 92.0133C84.3358 92.0444 84.4136 92.0756 84.3358 92.0911C84.3358 92.0911 84.2969 92.1456 84.3902 92.1534C84.3358 92.1456 84.3124 92.1767 84.2502 92.1689C84.3124 92.1767 84.3669 92.2156 84.2969 92.2467H84.2891C84.2269 92.309 84.3824 92.3479 84.3046 92.4024C84.3824 92.3946 84.3358 92.4257 84.4213 92.4179C84.4991 92.4724 84.2502 92.5269 84.5224 92.5346C84.538 92.558 84.4602 92.5658 84.4446 92.5813V92.5736C84.468 92.6202 84.4758 92.6358 84.468 92.6669C84.4913 92.6825 84.6235 92.6825 84.5924 92.7136C84.5457 92.7058 84.5535 92.7214 84.5535 92.7292C84.5457 92.7214 84.5302 92.7214 84.4913 92.737C84.5069 92.737 84.5147 92.7448 84.5224 92.7448C84.5224 92.7603 84.538 92.7603 84.5457 92.7525C84.5535 92.7525 84.5613 92.7525 84.5769 92.7448C84.5147 92.7681 84.5846 92.7992 84.4991 92.807C84.5224 92.8692 84.608 92.9082 84.6546 92.9626C84.608 92.9704 84.5769 92.9626 84.5535 92.947L84.5691 92.9782C84.5069 92.9782 84.5302 92.9626 84.5224 92.947C84.4213 92.9937 84.6313 93.0249 84.538 93.0793L84.5847 93.0871H84.5769C84.6011 93.0868 84.625 93.0921 84.6469 93.1027C84.5924 93.1105 84.5224 93.1105 84.5224 93.1338C84.468 93.1572 84.5536 93.1883 84.5847 93.2116C84.5924 93.196 84.6235 93.2038 84.6469 93.2038C84.6469 93.2194 84.5924 93.2272 84.6158 93.235L84.538 93.2427C84.6158 93.235 84.6157 93.2739 84.6469 93.2739C84.5924 93.2817 84.6002 93.2583 84.5691 93.2583C84.5769 93.305 84.5769 93.2816 84.5847 93.3361C84.6391 93.3595 84.6624 93.3283 84.7169 93.3361C84.7324 93.3595 84.7946 93.3828 84.7402 93.4139H84.8024C84.8568 93.4528 84.8491 93.4917 84.7868 93.5151C85.3313 93.8263 85.5179 93.5618 85.5179 93.5618C85.6501 93.4061 85.4557 93.3439 85.3935 93.1961L85.3624 93.1494ZM83.5425 85.4148L83.5658 85.3992C83.5581 85.3992 83.5503 85.407 83.5425 85.4148ZM84.3358 84.839H84.3436H84.3358Z" fill="#B1CBC0"/>
<path d="M84.398 85.3448C84.398 85.2048 84.5069 85.1425 84.4213 85.018C84.4136 84.9402 84.3669 84.8857 84.3436 84.8313C84.2425 84.8235 84.3202 84.7535 84.2269 84.7301L84.2813 84.7068C84.2502 84.699 84.2269 84.6912 84.258 84.6756H84.2736C84.2269 84.6679 84.2502 84.6445 84.2269 84.6367H84.2425L84.2269 84.6134H84.2502C84.1958 84.59 84.188 84.5589 84.1958 84.5356L84.1336 84.5511C84.188 84.4733 84.0558 84.4733 84.118 84.3955H84.1336C83.9391 84.3644 84.2113 84.2555 84.0402 84.2243C84.0636 84.2321 84.0713 84.2088 84.0869 84.2088C84.0558 84.1776 84.0402 84.1465 83.908 84.1776C83.9002 84.1543 83.9469 84.1465 83.9858 84.131C83.9313 84.1465 83.908 84.131 83.8925 84.1154H83.9158L83.8847 84.0687L83.7836 84.1076C83.8069 84.0687 83.908 84.0687 83.8769 84.0454L83.7991 84.0687C83.8069 84.022 83.9313 83.9676 83.9858 83.9131C83.978 83.7419 83.7136 83.6252 83.8302 83.4462L83.8925 83.4229C83.9858 83.3917 83.7369 83.4229 83.8302 83.3917L83.7836 83.384C83.7991 83.3762 83.8147 83.3606 83.838 83.3606C83.838 83.345 83.8225 83.345 83.7913 83.345L83.8458 83.3139C83.8769 83.2361 83.7447 83.2128 83.7525 83.1427C83.8536 83.026 83.7058 82.9093 83.6125 82.8315C83.4336 82.7537 83.7836 82.4969 83.5891 82.4191C83.6047 82.4113 83.5658 82.4113 83.558 82.4113L83.5424 82.2946C83.5424 82.2946 83.4335 81.7265 82.7491 82.388H82.7258C82.6947 82.4658 82.6869 82.5047 82.8036 82.5202C82.6791 82.5669 82.8036 82.5747 82.7647 82.598H82.7569C82.8658 82.6058 82.6947 82.6992 82.7958 82.707C82.788 82.707 82.7491 82.7148 82.7491 82.707C82.7724 82.7303 82.8114 82.7537 82.7336 82.7848C82.7725 82.8393 82.7569 82.9404 82.8891 82.9404H82.8658C82.9436 82.9404 82.8891 82.9638 82.9435 82.9793C82.9358 82.9871 82.928 82.9871 82.928 82.9871C83.0058 82.9871 82.9591 83.0649 83.0058 83.0649L82.9591 83.0805L82.9825 83.1272L82.9902 83.1038C83.1302 83.0727 82.9125 83.1661 83.0136 83.1816C83.0058 83.2205 83.3247 83.1739 83.2625 83.2283C83.3402 83.2283 83.1536 83.2439 83.208 83.2517C83.1302 83.275 83.1613 83.2517 83.1069 83.275C83.1458 83.2906 83.0447 83.3373 83.0991 83.3528H83.0447C83.1536 83.3606 82.9902 83.4462 83.0913 83.4462C83.1458 83.4773 82.9358 83.524 83.0524 83.524L82.9747 83.5629C82.9669 83.5863 83.068 83.5474 83.0369 83.5785C82.9902 83.594 83.0058 83.6174 82.9591 83.6174C82.8969 83.6796 83.0914 83.6796 82.9747 83.773C83.068 83.7575 83.0213 83.8041 83.0991 83.7964C83.0602 83.8119 83.1069 83.8586 83.0214 83.8508H82.9747C82.8814 83.9131 83.0524 83.8975 83.0524 83.9286C83.068 83.9131 83.0602 83.9053 83.0991 83.8975V83.9286L83.0524 83.9364L83.0369 83.9909L83.0913 83.9675C83.068 83.9987 82.9747 84.0298 83.0602 84.0454C83.1069 84.0454 83.138 84.0065 83.1536 84.022C83.1225 84.0609 83.0758 84.1232 83.0758 84.1776C83.138 84.1543 83.138 84.1699 83.1536 84.1776L83.0991 84.1932C83.1769 84.2166 82.9824 84.2399 83.0524 84.271H83.0136L83.1303 84.2555C83.2547 84.2632 83.0213 84.3021 83.1847 84.3099C83.1691 84.2944 83.3091 84.271 83.2858 84.2944L83.2313 84.3021C83.2469 84.3099 83.2702 84.3099 83.2625 84.3177C83.2314 84.3177 83.1847 84.3333 83.1847 84.3488H83.1069H83.2158C83.1614 84.3877 83.2469 84.4033 83.1691 84.4266C83.1691 84.4266 83.1458 84.4889 83.2313 84.4811C83.1769 84.4811 83.1536 84.52 83.0991 84.5278C83.1613 84.5278 83.2236 84.5511 83.1613 84.5823H83.1536C83.1069 84.6601 83.2702 84.6601 83.2002 84.7379C83.2624 84.7223 83.2391 84.7535 83.3169 84.7301C83.4102 84.7612 83.1613 84.8702 83.4335 84.8313C83.4569 84.8546 83.3791 84.878 83.3714 84.8935H83.3558C83.3869 84.9324 83.3947 84.948 83.3947 84.9869C83.4258 84.9947 83.5502 84.9713 83.5269 85.0102C83.4802 85.0102 83.488 85.0258 83.488 85.0336C83.4802 85.0258 83.4569 85.0336 83.4335 85.0491H83.4647C83.4725 85.0647 83.488 85.0569 83.488 85.0491C83.4958 85.0491 83.5036 85.0414 83.5191 85.0414C83.4647 85.0725 83.5347 85.0958 83.4569 85.1192C83.488 85.1736 83.5891 85.197 83.628 85.2359C83.5891 85.2515 83.5502 85.2515 83.5269 85.2359L83.5502 85.267C83.488 85.2826 83.5113 85.2592 83.4958 85.2515C83.418 85.3137 83.6124 85.3137 83.5347 85.3837H83.5891L83.5813 85.3915C83.6047 85.3837 83.6436 85.3915 83.6591 85.3915C83.6047 85.4071 83.5347 85.4149 83.5424 85.4382C83.4958 85.4693 83.5813 85.4849 83.6202 85.5005C83.628 85.4849 83.6591 85.4849 83.6747 85.4849C83.6824 85.4927 83.628 85.516 83.6513 85.516L83.5735 85.5316C83.6513 85.5082 83.6513 85.5471 83.6824 85.5471C83.628 85.5627 83.628 85.5394 83.5891 85.5471C83.6047 85.5938 83.5969 85.5705 83.6202 85.625C83.6824 85.6405 83.698 85.6016 83.7525 85.6016C83.7758 85.6172 83.8302 85.6327 83.7913 85.6639L83.8536 85.6405C83.9158 85.6716 83.9158 85.695 83.8536 85.7417C84.4525 85.944 84.5847 85.6639 84.5847 85.6639C84.7091 85.5082 84.5069 85.4771 84.4291 85.3371L84.398 85.3448ZM81.2091 78.046L81.2325 78.0305C81.2169 78.0305 81.2091 78.0382 81.2091 78.046ZM81.8936 77.3457H81.9014H81.8936Z" fill="#B1CBC0"/>
<path d="M82.0492 77.8359C82.0258 77.7036 82.1269 77.618 82.0258 77.5091C82.0103 77.4468 81.948 77.3924 81.9169 77.3379C81.8158 77.3457 81.878 77.2601 81.7925 77.2601L81.8391 77.229C81.808 77.229 81.7847 77.2212 81.8081 77.1978L81.8236 77.1901C81.7769 77.1901 81.7925 77.1589 81.7692 77.1589L81.7847 77.1512L81.7692 77.1356H81.7925C81.738 77.12 81.7147 77.0889 81.7302 77.0578L81.6681 77.0889C81.7147 77.0111 81.5747 77.0344 81.6369 76.9488L81.6525 76.9411C81.458 76.9411 81.7302 76.7854 81.5358 76.7854C81.5591 76.7854 81.5669 76.7699 81.5825 76.7621C81.5514 76.7388 81.528 76.7076 81.4036 76.7621C81.3958 76.7388 81.4347 76.7232 81.4814 76.7076C81.4269 76.731 81.4036 76.7232 81.388 76.6998H81.4114L81.3725 76.6532L81.2792 76.7076C81.2947 76.6687 81.3958 76.6454 81.3569 76.6298L81.2792 76.6687C81.2792 76.622 81.3958 76.5442 81.4347 76.482C81.4036 76.3108 81.1236 76.2485 81.2014 76.0384L81.2636 76.0073C81.3569 75.9606 81.1081 76.0307 81.1858 75.984H81.1391C81.1547 75.9684 81.1703 75.9528 81.1936 75.9528C81.1936 75.9373 81.178 75.9451 81.1391 75.9451L81.1858 75.9062C81.2014 75.8283 81.0692 75.8283 81.0692 75.7505C81.1469 75.626 80.9914 75.5171 80.8903 75.4704C80.7036 75.4159 81.0069 75.1125 80.8125 75.0658C80.8203 75.058 80.7892 75.058 80.7814 75.0658L80.7502 74.9491C80.7502 74.9491 80.5558 74.4044 79.9725 75.1592L79.9492 75.1669C79.9258 75.2447 79.9336 75.2914 80.0503 75.2837C79.9336 75.3459 80.058 75.3381 80.0269 75.3615H80.0192C80.1281 75.3537 79.9725 75.4704 80.0736 75.4704C80.0658 75.4704 80.0269 75.486 80.0269 75.4782C80.0503 75.4938 80.1047 75.5171 80.0269 75.556C80.0736 75.6105 80.0736 75.7116 80.2058 75.6961L80.1825 75.7038C80.2603 75.6883 80.2059 75.7272 80.2603 75.735C80.2525 75.7427 80.2447 75.7428 80.2447 75.7428C80.3225 75.735 80.2836 75.805 80.3225 75.8206L80.2758 75.8439L80.307 75.8828V75.8595C80.4392 75.805 80.2447 75.9373 80.3381 75.9373C80.3381 75.9762 80.6336 75.8828 80.5869 75.9451C80.6647 75.9373 80.4781 75.9762 80.5403 75.9762C80.4625 76.0073 80.4936 75.984 80.4392 76.0151C80.4781 76.0229 80.3847 76.0929 80.447 76.0929L80.3925 76.1163C80.5092 76.1085 80.3536 76.2174 80.4547 76.1941C80.517 76.2174 80.2992 76.2874 80.4314 76.2874L80.3691 76.3341C80.3614 76.3575 80.4625 76.3108 80.447 76.3419C80.4003 76.3575 80.4236 76.3808 80.3691 76.3886C80.3147 76.4664 80.5091 76.4353 80.4158 76.5442C80.5091 76.5209 80.4703 76.5676 80.5403 76.552C80.5014 76.5676 80.5558 76.6142 80.4625 76.6142L80.4158 76.622C80.338 76.6998 80.4936 76.6609 80.4936 76.6998C80.5092 76.6843 80.4936 76.6687 80.5325 76.6687V76.6998L80.4858 76.7154L80.478 76.7699L80.5325 76.7388C80.5169 76.7699 80.4236 76.8166 80.5091 76.8166C80.5558 76.8088 80.5714 76.7621 80.6025 76.7777C80.5792 76.8243 80.5403 76.8944 80.5403 76.9333C80.6025 76.9022 80.6025 76.9177 80.618 76.9177L80.5636 76.9411C80.6569 76.9488 80.4547 77.0033 80.5247 77.0189L80.4858 77.0344L80.6025 76.9955C80.727 76.9878 80.5014 77.0733 80.6647 77.0422C80.6491 77.0267 80.7814 76.9877 80.7658 77.0111L80.7114 77.0267C80.7269 77.0344 80.7503 77.0267 80.7425 77.0422C80.7114 77.05 80.6647 77.0733 80.6803 77.0811L80.6025 77.0967L80.7114 77.0889C80.6647 77.1356 80.7503 77.1434 80.6803 77.1823C80.6803 77.1823 80.6647 77.2445 80.758 77.2212C80.7036 77.229 80.6958 77.2679 80.6336 77.2834C80.6958 77.2757 80.758 77.2912 80.7114 77.3301H80.7036C80.6647 77.4079 80.8281 77.3924 80.7814 77.4702C80.8436 77.4391 80.8202 77.4857 80.898 77.4391C80.9991 77.4546 80.7736 77.5947 81.0303 77.5169C81.0536 77.5324 80.9836 77.5713 80.9758 77.5947H80.9603C80.9992 77.6336 81.0069 77.6414 81.0147 77.6725C81.0458 77.6803 81.1703 77.6336 81.1469 77.6725C81.1003 77.6803 81.108 77.6881 81.1158 77.7036C81.108 77.6958 81.0847 77.7036 81.0614 77.7348C81.0769 77.7348 81.0847 77.727 81.0925 77.727C81.108 77.7503 81.1236 77.7348 81.1236 77.727C81.1314 77.727 81.1391 77.7192 81.1547 77.7114C81.1003 77.7581 81.178 77.7659 81.108 77.7892C81.1469 77.8359 81.248 77.8437 81.2947 77.867C81.2558 77.8904 81.2169 77.8904 81.1936 77.8826L81.2247 77.9059C81.1703 77.9293 81.1858 77.8982 81.1703 77.8982C81.0925 77.976 81.2947 77.9371 81.2325 78.0227L81.2792 78.0149L81.2714 78.0227C81.2947 78.0149 81.3336 78.0071 81.3491 78.0149C81.3025 78.0382 81.2325 78.0616 81.248 78.0927C81.2091 78.1316 81.2947 78.1316 81.3258 78.1472C81.3258 78.1316 81.357 78.1238 81.3803 78.1238C81.3881 78.1316 81.3414 78.1627 81.3647 78.1627L81.2869 78.1938C81.3491 78.1627 81.3647 78.1938 81.3958 78.1861C81.3491 78.2094 81.3414 78.1861 81.3025 78.2016L81.3414 78.2639C81.4036 78.2639 81.4036 78.2328 81.4658 78.225C81.4892 78.2405 81.5436 78.2405 81.5125 78.2872L81.5669 78.2561C81.6292 78.2794 81.6447 78.3028 81.5825 78.3573C82.2047 78.4584 82.2825 78.1549 82.2825 78.1549C82.3369 77.9604 82.1269 77.9682 82.0258 77.8437L82.0492 77.8359ZM77.8958 71.0662V71.0429C77.8881 71.0506 77.8803 71.0584 77.8803 71.0662H77.8958ZM78.4947 70.2881H78.5025H78.4947Z" fill="#B1CBC0"/>
<path d="M78.6892 70.7705C78.6503 70.6382 78.7436 70.5371 78.6269 70.4593C78.6036 70.397 78.5492 70.3503 78.4947 70.3037C78.3936 70.327 78.4481 70.2258 78.3625 70.2414L78.4014 70.2025C78.3703 70.2025 78.3469 70.2025 78.3703 70.1791L78.3858 70.1714C78.3392 70.1792 78.3547 70.148 78.3314 70.148H78.3469L78.3314 70.1325H78.3547C78.3003 70.1247 78.2769 70.1013 78.2769 70.0547L78.2225 70.0936C78.2536 70.0002 78.1214 70.0469 78.1758 69.9535L78.1914 69.9457C77.9969 69.9691 78.2381 69.7901 78.0592 69.8057C78.0825 69.8057 78.0903 69.7823 78.1058 69.7745C78.0747 69.7512 78.0436 69.7278 77.927 69.7901C77.9192 69.7667 77.9503 69.7512 78.0047 69.7123C77.9581 69.7434 77.9269 69.7356 77.9114 69.7201H77.9347L77.888 69.6811L77.7947 69.7434C77.8103 69.7045 77.9114 69.6656 77.8725 69.6656L77.7947 69.7123C77.7869 69.6656 77.8958 69.58 77.9347 69.51C77.888 69.3543 77.5925 69.3076 77.6625 69.0976L77.7169 69.0587C77.7947 69.0042 77.5614 69.0976 77.6391 69.0431H77.5925C77.608 69.0275 77.6158 69.012 77.6391 69.0042C77.6314 68.9886 77.6236 68.9964 77.5847 69.0042L77.6314 68.9575C77.6392 68.8797 77.5069 68.8797 77.4991 68.8174C77.5769 68.6851 77.3903 68.6073 77.2892 68.5606C77.0947 68.5295 77.3669 68.1949 77.1569 68.1716C77.1647 68.1638 77.1336 68.1638 77.1258 68.1716L77.0792 68.0626C77.0792 68.0626 76.8303 67.5491 76.3325 68.3506H76.3092C76.2936 68.4284 76.3092 68.4751 76.4181 68.4595C76.3092 68.5373 76.4336 68.514 76.4025 68.5373L76.3947 68.5451C76.5036 68.5295 76.3636 68.6618 76.457 68.6462C76.4492 68.654 76.4181 68.6696 76.4103 68.6618C76.4414 68.6774 76.4881 68.6929 76.4181 68.7396C76.4647 68.7863 76.4803 68.8952 76.6125 68.8563L76.5892 68.8641C76.6669 68.8408 76.6125 68.8875 76.6669 68.8875C76.6591 68.8953 76.6514 68.8952 76.6514 68.903C76.7292 68.8797 76.6981 68.9653 76.7447 68.9653L76.6981 68.9964L76.7369 69.0353V69.012C76.8614 68.9341 76.6825 69.0898 76.7758 69.0742C76.7758 69.1131 77.0714 68.9964 77.0247 69.0509C77.1025 69.0353 76.9236 69.0898 76.9781 69.0898C76.9158 69.1287 76.9314 69.1053 76.8847 69.1365C76.9314 69.1442 76.8381 69.2143 76.9003 69.2143L76.8536 69.2454C76.9625 69.2298 76.8225 69.3543 76.9314 69.3232C76.9936 69.3388 76.7992 69.4322 76.9158 69.4166L76.8536 69.4711C76.8536 69.4944 76.9469 69.4322 76.9314 69.4711C76.8847 69.4944 76.9081 69.5177 76.8536 69.5255C76.807 69.6033 76.9936 69.5566 76.9158 69.6811C77.0092 69.6422 76.9703 69.7045 77.0403 69.6734C77.0014 69.6967 77.0636 69.7278 76.9625 69.7512C76.9547 69.7512 76.9547 69.7434 76.9703 69.7356L76.9158 69.759C76.838 69.8368 76.9936 69.7823 76.9936 69.8212C77.0014 69.8057 76.9936 69.7901 77.0325 69.7823V69.8134H76.9858V69.8679L77.0325 69.829C77.0169 69.8679 76.9314 69.9224 77.0247 69.9068C77.0714 69.8912 77.0792 69.8446 77.1025 69.8601C77.087 69.9068 77.0558 69.9768 77.0558 70.0157C77.1103 69.9768 77.1181 69.9924 77.1336 69.9924L77.087 70.0235C77.1803 70.0235 76.9858 70.1013 77.0636 70.1013L77.0247 70.1169L77.1336 70.0702C77.2503 70.0469 77.0403 70.148 77.1959 70.1091C77.1803 70.1013 77.3047 70.0313 77.2892 70.0702L77.2347 70.0936C77.2503 70.1013 77.2736 70.0858 77.2658 70.1013C77.2347 70.1091 77.188 70.1402 77.2114 70.148L77.1336 70.1714L77.2425 70.148C77.2036 70.2025 77.2892 70.1947 77.2269 70.2414C77.2269 70.2414 77.2191 70.3037 77.3047 70.2725C77.2503 70.2881 77.2503 70.327 77.1881 70.3503C77.2503 70.3348 77.3125 70.3426 77.2658 70.3892H77.258C77.2269 70.4671 77.3903 70.4359 77.3358 70.5215C77.3903 70.4826 77.3747 70.5293 77.4447 70.4826C77.5458 70.4904 77.3436 70.6538 77.5847 70.5449C77.6081 70.5604 77.5459 70.5993 77.5381 70.6227H77.5225C77.5692 70.6538 77.577 70.6616 77.5847 70.7005C77.6159 70.7005 77.7247 70.646 77.7169 70.6849C77.6703 70.7005 77.6859 70.7083 77.6859 70.7161C77.6781 70.7161 77.6547 70.7161 77.6391 70.7472C77.6547 70.7394 77.6625 70.7394 77.6703 70.7394C77.6858 70.755 77.7014 70.7472 77.7014 70.7316C77.7092 70.7316 77.717 70.7238 77.7247 70.7161C77.6781 70.7627 77.7559 70.7628 77.6859 70.8094C77.7325 70.8483 77.8414 70.8483 77.8803 70.8717C77.8521 70.8893 77.8201 70.9 77.7869 70.9028L77.8181 70.9262C77.7636 70.9573 77.7792 70.9262 77.7636 70.9262C77.6858 71.004 77.8958 70.9495 77.8414 71.0429L77.888 71.0273V71.0351C77.9114 71.0195 77.9503 71.0117 77.9658 71.0195C77.9192 71.0506 77.857 71.0818 77.8725 71.0973C77.8336 71.1362 77.9192 71.1362 77.9503 71.144C77.9503 71.1285 77.9814 71.1207 77.9969 71.1129C78.0047 71.1207 77.958 71.1518 77.9892 71.1518L77.927 71.1907C77.9814 71.1518 78.0047 71.1829 78.0358 71.1751C77.9891 71.2063 77.9814 71.1829 77.9581 71.1985C77.9892 71.2374 77.9736 71.2218 78.0047 71.2607C78.0669 71.2607 78.0669 71.2218 78.1291 71.2063C78.1525 71.2218 78.2069 71.2141 78.1836 71.2607L78.238 71.2218C78.3003 71.2374 78.3159 71.2607 78.2692 71.3152C78.8914 71.3463 78.9381 71.0273 78.9381 71.0273C78.977 70.825 78.7825 70.8561 78.6581 70.755L78.6892 70.7705ZM73.8514 64.4522L73.867 64.4288C73.8592 64.4366 73.8514 64.4444 73.8514 64.4522ZM74.3958 63.6196H74.4036H74.3958Z" fill="#B1CBC0"/>
<path d="M74.6137 64.0865C74.567 63.9542 74.6525 63.853 74.5359 63.7752C74.5048 63.713 74.4425 63.6741 74.3959 63.6196C74.2948 63.6507 74.3492 63.5418 74.2559 63.5651L74.2948 63.5184C74.2637 63.5262 74.2403 63.5262 74.2559 63.4951L74.2715 63.4873C74.2248 63.4951 74.2326 63.464 74.2092 63.4717L74.2248 63.464L74.2092 63.4484H74.2326C74.1781 63.4484 74.1548 63.4173 74.1548 63.3862L74.1003 63.4251C74.1237 63.3317 73.9992 63.3939 74.0381 63.2928H74.0537C73.867 63.3317 74.0848 63.1372 73.8981 63.1605C73.9214 63.1527 73.9215 63.1372 73.937 63.1294C73.8981 63.1138 73.8748 63.0905 73.7659 63.1605C73.7503 63.1372 73.7892 63.1216 73.8281 63.0827C73.7814 63.1138 73.7503 63.1138 73.7348 63.0983L73.7581 63.0905L73.7114 63.0593L73.6337 63.1372C73.6414 63.0983 73.7425 63.0593 73.7114 63.0438L73.6337 63.0983C73.6259 63.0516 73.727 62.9582 73.7581 62.8882C73.6959 62.7325 73.4003 62.717 73.447 62.4991L73.5015 62.4524C73.5792 62.3902 73.3459 62.4991 73.4236 62.4446L73.377 62.4524C73.3925 62.4368 73.4003 62.4213 73.4236 62.4135C73.4159 62.3979 73.4003 62.4057 73.3692 62.4135L73.4081 62.3668C73.4081 62.289 73.2837 62.3124 73.2526 62.2345C73.307 62.0945 73.1281 62.0322 73.0192 62.0011C72.8248 61.9855 73.0659 61.6354 72.8637 61.6276C72.8714 61.612 72.8403 61.6276 72.8325 61.6354L72.7781 61.5264C72.7781 61.5264 72.4825 61.0362 72.0547 61.8766L72.0392 61.8844C72.0314 61.9622 72.047 62.0089 72.1636 61.9778C72.0548 62.0556 72.1792 62.0322 72.1559 62.0556V62.0634C72.2647 62.0322 72.1326 62.1801 72.2337 62.1567C72.2198 62.1675 72.2039 62.1755 72.187 62.1801C72.2181 62.1956 72.2647 62.2034 72.2025 62.2579C72.257 62.2968 72.2803 62.3979 72.4048 62.359H72.3892C72.467 62.3279 72.4203 62.3746 72.467 62.3746L72.4514 62.3902C72.5292 62.3668 72.5059 62.4446 72.5447 62.4446L72.5059 62.4758L72.5447 62.5147V62.4913C72.6692 62.4135 72.4903 62.5691 72.5914 62.5536C72.5992 62.5925 72.8714 62.4446 72.8403 62.5147C72.9025 62.4913 72.7392 62.5614 72.8014 62.5536C72.7392 62.6003 72.7548 62.5691 72.7081 62.608C72.7548 62.608 72.6692 62.6859 72.7314 62.6859L72.6847 62.717C72.7936 62.6936 72.6692 62.8259 72.7625 62.7948C72.8248 62.8026 72.6381 62.9193 72.7548 62.8882L72.7003 62.9504C72.7003 62.9738 72.7781 62.9037 72.7781 62.9426C72.7392 62.9738 72.7626 62.9893 72.7159 63.0049C72.677 63.0827 72.8714 63.0204 72.7936 63.1449C72.8714 63.0983 72.8481 63.1605 72.9181 63.1294C72.887 63.1527 72.9492 63.1838 72.8559 63.2072C72.8481 63.2072 72.8481 63.2072 72.8559 63.1916L72.8092 63.2228C72.7314 63.3161 72.887 63.2383 72.9025 63.2772C72.9103 63.2617 72.9025 63.2461 72.9414 63.2383L72.957 63.2694L72.9103 63.2928V63.3472L72.957 63.3083C72.9492 63.3472 72.8637 63.4095 72.9492 63.3862C72.9959 63.3706 73.0036 63.3239 73.027 63.3317C73.0114 63.3784 72.9881 63.4562 72.9959 63.4873C73.0503 63.4484 73.0503 63.4562 73.0736 63.4562L73.027 63.4873C73.1203 63.4795 72.9337 63.5651 73.0114 63.5651L72.9725 63.5885L73.0814 63.5262C73.1981 63.4951 73.0037 63.604 73.1592 63.5573C73.1437 63.5496 73.2603 63.4795 73.2526 63.5107L73.2059 63.5418C73.2214 63.5418 73.2448 63.534 73.237 63.5496C73.2059 63.5573 73.1592 63.5962 73.1825 63.604L73.1203 63.6352L73.2214 63.604C73.1825 63.6585 73.2681 63.6507 73.2137 63.7052C73.2137 63.7052 73.2137 63.7674 73.2914 63.7285C73.2448 63.7519 73.2448 63.783 73.1825 63.8063C73.237 63.783 73.307 63.7908 73.2603 63.8375H73.2526C73.2292 63.9153 73.3848 63.8686 73.3537 63.962C73.4081 63.9231 73.3925 63.9698 73.4625 63.9153C73.5636 63.9153 73.3848 64.102 73.6181 63.962C73.6414 63.9775 73.587 64.0242 73.5792 64.0398H73.5636C73.6103 64.0709 73.6181 64.0787 73.6415 64.1176C73.6726 64.1176 73.7737 64.0398 73.7737 64.0942C73.727 64.1098 73.7425 64.1176 73.7503 64.1254C73.7425 64.1254 73.727 64.1332 73.7036 64.1643C73.7192 64.1565 73.727 64.1565 73.7348 64.1565L73.727 64.1643C73.7503 64.1721 73.7659 64.1565 73.7659 64.1487C73.7737 64.1487 73.7815 64.1409 73.7892 64.1254C73.7503 64.1798 73.8281 64.1721 73.7581 64.2188C73.8048 64.2577 73.9137 64.2421 73.9603 64.2654C73.9292 64.2966 73.8825 64.3043 73.867 64.3043L73.8981 64.3277C73.8436 64.3588 73.8592 64.3277 73.8437 64.3277C73.7815 64.4211 73.9759 64.3433 73.9214 64.4366L73.9681 64.4211V64.4288C73.9891 64.4153 74.0132 64.4072 74.0381 64.4055C73.9992 64.4444 73.937 64.4833 73.9603 64.4833C73.9292 64.53 74.0148 64.5144 74.0537 64.5144C74.0537 64.4989 74.0848 64.4833 74.1003 64.4755C74.1081 64.4833 74.0692 64.5222 74.0925 64.5144L74.0303 64.5533C74.0848 64.5144 74.1081 64.5378 74.1392 64.5222C74.1003 64.5611 74.0925 64.53 74.0614 64.5533C74.0925 64.5922 74.077 64.5689 74.1081 64.6078C74.1703 64.6 74.1626 64.5689 74.2248 64.53C74.2481 64.5378 74.3025 64.53 74.287 64.5767L74.3336 64.53C74.4114 64.5378 74.4115 64.5611 74.3726 64.6234C74.9948 64.5922 75.0181 64.2732 75.0181 64.2732C75.0025 64.1176 74.8081 64.1565 74.6759 64.0631L74.6137 64.0865ZM69.2858 58.1727L69.3014 58.1494C69.2936 58.1572 69.2858 58.165 69.2858 58.1727ZM69.7603 57.3012L69.7681 57.2935L69.7603 57.3012Z" fill="#B1CBC0"/>
<path d="M70.0247 57.7603C69.9703 57.6358 70.0403 57.5269 69.9158 57.449C69.8847 57.3946 69.8148 57.3557 69.7603 57.309C69.667 57.3479 69.7058 57.2467 69.6203 57.2623L69.6592 57.2156C69.6281 57.2234 69.6047 57.2234 69.6203 57.1923L69.6358 57.1845C69.5892 57.1923 69.5969 57.1611 69.5736 57.1689L69.5892 57.1611L69.5659 57.1456H69.5892C69.5347 57.1456 69.5114 57.1222 69.5114 57.0911L69.457 57.1378C69.4803 57.0444 69.3558 57.1067 69.3792 57.0133L69.3947 57.0055C69.2081 57.06 69.418 56.8499 69.2392 56.8888C69.2625 56.881 69.2625 56.8655 69.278 56.8577C69.2392 56.8421 69.2003 56.8188 69.107 56.9044C69.0914 56.881 69.1303 56.8655 69.1614 56.8266C69.1147 56.8655 69.0836 56.8577 69.0681 56.8499L69.0914 56.8421L69.0447 56.811L68.967 56.8888C68.9747 56.8421 69.0681 56.7954 69.0292 56.7954L68.9514 56.8499C68.9436 56.8032 69.0292 56.6943 69.0603 56.632C68.9825 56.4764 68.6947 56.4764 68.7258 56.2663L68.7725 56.2196C68.8503 56.1574 68.6325 56.2819 68.6947 56.2196L68.648 56.2352C68.6558 56.2196 68.6636 56.1963 68.687 56.1963C68.6792 56.1807 68.6636 56.1885 68.6325 56.2041L68.6714 56.1496C68.6714 56.0718 68.5392 56.1029 68.5158 56.0329C68.5625 55.8772 68.3758 55.8383 68.2669 55.815C68.0725 55.815 68.2903 55.4415 68.0803 55.4493C68.0881 55.4337 68.057 55.4493 68.0492 55.457L67.9869 55.3559C67.9869 55.3559 67.6603 54.889 67.2869 55.745L67.2714 55.7527C67.2714 55.8306 67.2869 55.8772 67.3958 55.8306C67.2947 55.9239 67.4192 55.8772 67.3958 55.9084V55.9161C67.4969 55.8772 67.3803 56.0329 67.4736 55.994C67.4659 56.0017 67.4347 56.0251 67.427 56.0173C67.4581 56.0251 67.5047 56.0406 67.4425 56.0951C67.4969 56.134 67.5203 56.2274 67.6525 56.1729H67.6369C67.7147 56.1418 67.6681 56.1885 67.7147 56.1807C67.707 56.1885 67.707 56.1963 67.6992 56.1963C67.777 56.1651 67.7536 56.2507 67.8003 56.243L67.7614 56.2741L67.8003 56.3052V56.2819C67.917 56.204 67.7536 56.3597 67.847 56.3363C67.8547 56.3752 68.1192 56.2041 68.0803 56.2741C68.1425 56.243 67.987 56.3285 68.0414 56.3208C67.987 56.3675 67.9948 56.3441 67.9636 56.383C68.0103 56.383 67.9325 56.4608 67.9869 56.4608L67.9403 56.4997C68.0492 56.4686 67.9325 56.6087 68.018 56.5776C68.0803 56.5776 67.9014 56.7098 68.018 56.6709L67.9714 56.7332C67.9714 56.7565 68.0492 56.6865 68.0492 56.7254C68.0103 56.7565 68.0336 56.7721 67.9947 56.7876C67.9636 56.8655 68.1503 56.7954 68.0725 56.9277C68.1503 56.881 68.1347 56.9355 68.197 56.9044C68.1659 56.9355 68.2281 56.9588 68.1347 56.9822C68.127 56.9822 68.127 56.9822 68.1347 56.9666L68.0881 56.9977C68.0258 57.0911 68.1658 57.0133 68.1814 57.0522C68.1892 57.0289 68.1736 57.0211 68.2125 57.0055V57.0366L68.1736 57.06V57.1145L68.2125 57.0756C68.2047 57.1145 68.1347 57.1845 68.2125 57.1534C68.2592 57.13 68.2592 57.0756 68.2903 57.0911C68.2825 57.1378 68.2592 57.2156 68.2747 57.2623C68.3214 57.2156 68.3292 57.2312 68.3525 57.2312L68.3058 57.2701C68.3991 57.2545 68.2125 57.3635 68.2903 57.3479L68.2592 57.3712L68.3603 57.2934C68.4769 57.2545 68.2825 57.3868 68.4381 57.3168C68.4225 57.309 68.5314 57.239 68.5158 57.2623L68.4692 57.2934C68.4847 57.2934 68.508 57.2856 68.5003 57.2934C68.4692 57.309 68.438 57.3401 68.4536 57.3479L68.3914 57.379L68.4925 57.3401C68.4614 57.3946 68.547 57.379 68.4925 57.4413C68.4925 57.4413 68.4925 57.5035 68.5703 57.4646C68.5236 57.488 68.5236 57.5269 68.4692 57.558C68.5236 57.5346 68.5936 57.5347 68.547 57.5813H68.5392C68.5236 57.6592 68.6792 57.6047 68.648 57.6981C68.7025 57.6514 68.6869 57.698 68.7492 57.6436C68.8503 57.6358 68.6714 57.8303 68.9047 57.6825C68.9358 57.6903 68.8736 57.7447 68.8736 57.7603H68.8581C68.9047 57.7837 68.9125 57.7914 68.9359 57.8226C68.967 57.8226 69.0681 57.7447 69.0603 57.7914C69.0136 57.8148 69.0292 57.8148 69.0369 57.8303C69.0292 57.8303 69.0136 57.8381 68.9981 57.8692C69.0136 57.8615 69.0214 57.8615 69.0292 57.8537V57.8615C69.0525 57.8692 69.0681 57.8537 69.0681 57.8459C69.0758 57.8381 69.0836 57.8381 69.0914 57.8226C69.0525 57.877 69.1303 57.8615 69.0681 57.9159C69.1225 57.9471 69.2236 57.9315 69.2703 57.947C69.2448 57.972 69.2122 57.9883 69.177 57.9937L69.2081 58.0093C69.1614 58.0482 69.1692 58.0171 69.1536 58.0171C69.0992 58.1105 69.2858 58.0249 69.2469 58.1182L69.2936 58.0949H69.2858C69.3092 58.0793 69.3403 58.0638 69.3636 58.0638C69.3247 58.1027 69.2625 58.1416 69.2858 58.1571C69.2547 58.2038 69.3403 58.1805 69.3792 58.1883C69.3792 58.1727 69.4025 58.1572 69.4258 58.1494C69.4336 58.1572 69.3947 58.1961 69.4181 58.1883L69.3636 58.235C69.4181 58.1883 69.4414 58.2116 69.4725 58.1961C69.4336 58.235 69.4258 58.2116 69.3947 58.235C69.4336 58.2661 69.4103 58.2505 69.4492 58.2894C69.5114 58.2739 69.5036 58.2427 69.5581 58.2116C69.5814 58.2194 69.6358 58.2038 69.6203 58.2583L69.6669 58.2116C69.7447 58.2116 69.7448 58.2427 69.7136 58.305C70.3359 58.2272 70.3359 57.9159 70.3359 57.9159C70.3436 57.7292 70.1569 57.7914 70.0247 57.7058V57.7603ZM64.3159 52.22L64.3314 52.1967C64.3236 52.2045 64.3159 52.2123 64.3159 52.22ZM64.7514 51.3252H64.7591H64.7514Z" fill="#B1CBC0"/>
<path d="M65.0313 51.7532C64.9691 51.6287 65.0391 51.5197 64.9069 51.4419C64.868 51.3875 64.798 51.3641 64.7513 51.3174C64.658 51.3563 64.6969 51.2552 64.5958 51.2863L64.6269 51.2396C64.5958 51.2474 64.5724 51.2474 64.588 51.2241H64.6036C64.5569 51.2396 64.5647 51.2085 64.5413 51.2163L64.5569 51.2085L64.5335 51.1929L64.5569 51.1774C64.5025 51.1851 64.4791 51.1618 64.4791 51.1229L64.4324 51.1696C64.448 51.0684 64.3236 51.1462 64.3547 51.0451V51.0373C64.1758 51.0996 64.3702 50.8817 64.1991 50.9284C64.2224 50.9206 64.2224 50.905 64.238 50.8895C64.1991 50.8739 64.1602 50.8583 64.0669 50.9439C64.0513 50.9206 64.0825 50.8972 64.1213 50.8661C64.0747 50.905 64.0435 50.905 64.028 50.8895L64.0513 50.8817L63.9969 50.8506L63.9191 50.9284C63.9191 50.8817 64.0125 50.835 63.9736 50.8272L63.8958 50.8895C63.8802 50.8506 63.9735 50.7338 63.9891 50.656C63.9113 50.5004 63.6158 50.5315 63.6313 50.3059L63.678 50.2514C63.7558 50.1736 63.538 50.3292 63.6002 50.2514L63.5535 50.267C63.5613 50.2514 63.5691 50.2281 63.5924 50.2203C63.5846 50.2047 63.5691 50.2125 63.538 50.2281L63.5691 50.1736C63.5613 50.0958 63.4369 50.1347 63.4135 50.0647C63.4524 49.909 63.258 49.8779 63.1491 49.8623C62.9547 49.8701 63.1491 49.4888 62.9391 49.5122C62.9469 49.4966 62.9158 49.5122 62.908 49.52L62.8302 49.4266C62.8302 49.4266 62.4725 48.9753 62.1613 49.8623L62.1458 49.8779C62.1536 49.9557 62.1691 50.0024 62.278 49.9557C62.1847 50.0491 62.3013 50.0024 62.278 50.0335H62.2702C62.3714 49.9946 62.2624 50.1503 62.348 50.1113C62.3402 50.1191 62.3091 50.1425 62.3013 50.1347C62.3325 50.1425 62.3791 50.1503 62.3247 50.2125C62.3869 50.2436 62.418 50.337 62.5424 50.2903L62.5269 50.3059C62.6047 50.267 62.558 50.3214 62.6047 50.3137C62.5969 50.3214 62.5969 50.3292 62.5891 50.3292C62.6669 50.2903 62.6513 50.3759 62.6902 50.3681L62.6513 50.407L62.698 50.4382L62.6902 50.4148C62.7991 50.3214 62.6513 50.5082 62.7447 50.4693C62.7525 50.5082 63.0091 50.3137 62.978 50.3915C63.0402 50.3603 62.8847 50.4537 62.9391 50.4382C62.8847 50.4926 62.9002 50.4615 62.8613 50.516C62.908 50.5082 62.8302 50.5938 62.8925 50.5938L62.8536 50.6327C62.9625 50.5938 62.8458 50.7416 62.9313 50.6949C62.9936 50.6949 62.8225 50.835 62.9391 50.7883L62.8925 50.8506C62.8925 50.8739 62.9702 50.7961 62.9702 50.835C62.9313 50.8661 62.9624 50.8817 62.9158 50.9128C62.8924 50.9906 63.0713 50.9128 63.0091 51.0451C63.0869 50.9906 63.0713 51.0529 63.1258 51.014C63.0947 51.0451 63.1647 51.0684 63.0713 51.0918C63.0635 51.0918 63.0635 51.0918 63.0713 51.0762L63.0247 51.1151C62.9702 51.2163 63.1024 51.1229 63.1258 51.1618C63.1336 51.1385 63.118 51.1307 63.1569 51.1151L63.1724 51.1462L63.1336 51.1696L63.1491 51.2241L63.188 51.1774C63.1802 51.2163 63.1102 51.2863 63.1958 51.2552C63.2425 51.2318 63.2424 51.1774 63.2736 51.1929C63.2658 51.2474 63.2502 51.3174 63.2658 51.3641C63.3124 51.3174 63.3202 51.3252 63.3436 51.3252L63.3046 51.3641C63.3824 51.3408 63.2269 51.4653 63.2969 51.4419L63.2658 51.4653L63.3669 51.3875C63.4758 51.3408 63.2891 51.4808 63.4446 51.4108C63.4291 51.403 63.538 51.3174 63.5224 51.3486L63.4758 51.3797C63.4913 51.3797 63.5147 51.3641 63.5069 51.3797C63.4835 51.3952 63.4447 51.4341 63.4602 51.4341L63.398 51.4731L63.4991 51.4264C63.468 51.4886 63.5535 51.4653 63.4991 51.5275C63.4991 51.5275 63.5069 51.5898 63.5769 51.5431C63.5302 51.5742 63.538 51.6053 63.4836 51.6442C63.538 51.6131 63.6002 51.6131 63.5613 51.6676H63.5535C63.5458 51.7454 63.6936 51.6831 63.6702 51.7765C63.7169 51.7298 63.7091 51.7765 63.7713 51.7143C63.8725 51.6987 63.7091 51.9088 63.9269 51.7454C63.958 51.7532 63.9035 51.8076 63.8958 51.8232L63.8802 51.831C63.9269 51.8543 63.9424 51.8621 63.958 51.8932C63.9891 51.8855 64.0824 51.8154 64.0824 51.8543C64.0358 51.8777 64.0513 51.8855 64.0591 51.8932C64.0513 51.8932 64.0358 51.901 64.0202 51.9399C64.0358 51.9322 64.0435 51.9244 64.0513 51.9244H64.0435C64.0669 51.9244 64.0825 51.9166 64.0747 51.901C64.0825 51.8932 64.0902 51.8932 64.098 51.8777C64.0669 51.9322 64.1369 51.9166 64.0747 51.9788C64.1291 52.01 64.2302 51.9866 64.2846 52.0022C64.2535 52.0333 64.2224 52.0489 64.2069 52.0489L64.2458 52.0644C64.1991 52.1033 64.2069 52.0722 64.1913 52.0722C64.1447 52.1734 64.3235 52.0722 64.2924 52.1656L64.3391 52.1422H64.3313C64.3546 52.1267 64.3858 52.1111 64.3935 52.1111C64.3547 52.15 64.3002 52.1889 64.3158 52.2123C64.2925 52.259 64.3702 52.2356 64.4091 52.2356C64.4091 52.22 64.4324 52.2045 64.448 52.1967C64.4558 52.2045 64.4247 52.2434 64.448 52.2356L64.3935 52.2823C64.4402 52.2356 64.4713 52.259 64.4947 52.2434C64.4558 52.2823 64.448 52.259 64.4169 52.2823C64.4557 52.3134 64.4324 52.2979 64.4713 52.329C64.5335 52.3134 64.518 52.2823 64.5802 52.2512C64.6035 52.259 64.658 52.2434 64.6424 52.2901L64.6891 52.2434C64.7669 52.2434 64.7669 52.2667 64.7358 52.3212C65.358 52.2123 65.3269 51.8932 65.3269 51.8932C65.3502 51.6909 65.1713 51.7687 65.0158 51.6909L65.0313 51.7532ZM59.0192 46.5553L59.0347 46.532C59.0269 46.5398 59.0192 46.5475 59.0192 46.5553ZM59.3925 45.6216H59.4003H59.3925Z" fill="#B1CBC0"/>
<path d="M59.6958 46.0417C59.618 45.925 59.688 45.8083 59.5558 45.746C59.5169 45.6916 59.4469 45.6682 59.3847 45.6293C59.2913 45.676 59.3225 45.5671 59.2291 45.606L59.2603 45.5593C59.2291 45.5671 59.2058 45.5748 59.2213 45.5437H59.2369C59.1902 45.5593 59.198 45.5281 59.1747 45.5359L59.1902 45.5282L59.1669 45.5204L59.1825 45.5048C59.128 45.5126 59.1047 45.4892 59.1047 45.4581L59.058 45.5048C59.0658 45.4037 58.9491 45.4892 58.9802 45.3881H58.9958C58.8169 45.4659 59.0036 45.2325 58.8247 45.2869C58.848 45.2792 58.848 45.2558 58.8558 45.248C58.8169 45.2402 58.778 45.2169 58.7002 45.3103C58.6847 45.2947 58.7158 45.2636 58.7469 45.2325C58.708 45.2714 58.6691 45.2792 58.6536 45.2636H58.6769L58.6225 45.2402L58.5447 45.3181C58.5447 45.2714 58.6225 45.2169 58.5913 45.2169L58.5292 45.2791C58.5136 45.2402 58.5914 45.1235 58.6069 45.0457C58.5136 44.8901 58.218 44.9446 58.2336 44.7189L58.2803 44.6644C58.358 44.5866 58.148 44.7422 58.2025 44.6722L58.1558 44.6956C58.1636 44.68 58.1713 44.6566 58.1947 44.6489C58.1869 44.6333 58.1713 44.6489 58.148 44.6567L58.1791 44.6022C58.1636 44.5244 58.0469 44.5711 58.008 44.501C58.0391 44.3454 57.8525 44.3221 57.7358 44.3143C57.5414 44.3298 57.7203 43.9408 57.5025 43.9719C57.5103 43.9563 57.4791 43.9719 57.4713 43.9797L57.3936 43.8863C57.3936 43.8863 57.0047 43.4583 56.748 44.3532V44.3687C56.7558 44.4466 56.7791 44.4855 56.888 44.4466C56.8102 44.5477 56.9191 44.4932 56.8958 44.5244V44.5322C56.9969 44.4855 56.8958 44.6489 56.9736 44.61C56.9658 44.6177 56.9425 44.6411 56.9347 44.6411C56.9658 44.6489 57.0125 44.6566 56.958 44.7189C57.0203 44.75 57.0591 44.8434 57.1758 44.7811L57.1603 44.7967C57.238 44.75 57.1914 44.8123 57.238 44.7967C57.2302 44.8045 57.2302 44.8123 57.2302 44.8123C57.308 44.7734 57.2925 44.859 57.3314 44.8434L57.2925 44.8823L57.3391 44.9134L57.3314 44.8901C57.4325 44.7967 57.3002 44.9835 57.3858 44.9446C57.4014 44.9835 57.6425 44.7889 57.6191 44.8667C57.6813 44.8278 57.5414 44.9446 57.588 44.9134C57.5336 44.9679 57.5492 44.9368 57.5103 44.9912C57.5569 44.9835 57.4869 45.0691 57.5414 45.0691L57.5025 45.108C57.6036 45.0613 57.5025 45.2169 57.5958 45.1624C57.658 45.1546 57.4947 45.3025 57.6036 45.2558L57.5569 45.3336C57.5647 45.357 57.6347 45.2714 57.6191 45.3181C57.5802 45.3492 57.6113 45.3647 57.5647 45.3959C57.5413 45.4737 57.7202 45.3881 57.6658 45.5204C57.7436 45.4581 57.728 45.5282 57.7825 45.4815C57.7514 45.5126 57.8214 45.5281 57.7358 45.5593C57.728 45.5593 57.728 45.5593 57.7358 45.5437L57.6891 45.5826C57.6425 45.6838 57.7669 45.5826 57.7903 45.6215C57.798 45.5982 57.7825 45.5982 57.8136 45.5748V45.606L57.7747 45.6371L57.7903 45.6916L57.8291 45.6449C57.8214 45.6838 57.7514 45.7616 57.8369 45.7227C57.8758 45.6993 57.8758 45.6449 57.9147 45.6449C57.9069 45.6993 57.8991 45.7771 57.9147 45.8161C57.9613 45.7694 57.9692 45.7771 57.9925 45.7771L57.9536 45.8161C58.0313 45.7927 57.8758 45.9172 57.9536 45.8939L57.9225 45.9172L58.0158 45.8394C58.1247 45.7849 57.938 45.9406 58.0936 45.855C58.078 45.8472 58.1714 45.7616 58.1714 45.7927L58.1247 45.8316C58.1403 45.8316 58.1636 45.8161 58.1558 45.8316C58.1325 45.8472 58.0936 45.8861 58.1169 45.8939L58.0625 45.9328L58.1558 45.8861C58.1325 45.9483 58.2102 45.9172 58.1636 45.9872C58.1636 45.9872 58.1714 46.0495 58.2414 46.0028C58.1947 46.0339 58.2024 46.0651 58.148 46.104C58.2024 46.0728 58.2647 46.0651 58.2258 46.1195H58.218C58.2102 46.2129 58.358 46.1273 58.3347 46.2207C58.3814 46.174 58.3736 46.2207 58.428 46.1429C58.5291 46.1195 58.3736 46.3374 58.5836 46.1662C58.6147 46.174 58.5602 46.2285 58.5602 46.244H58.5447C58.5913 46.2596 58.6069 46.2674 58.6225 46.2985C58.6536 46.2907 58.7469 46.2051 58.7469 46.2518C58.708 46.2829 58.7236 46.2829 58.7313 46.2907C58.7236 46.2907 58.708 46.2985 58.6925 46.3374C58.708 46.3296 58.7158 46.3218 58.7236 46.3218H58.7158C58.7391 46.3218 58.7469 46.3141 58.7469 46.2985L58.7703 46.2751C58.7391 46.3374 58.8169 46.3141 58.7547 46.3763C58.8091 46.4074 58.9103 46.3763 58.9647 46.3841C58.9414 46.4152 58.9025 46.4386 58.8869 46.4386L58.9258 46.4541C58.8791 46.5008 58.8869 46.4619 58.8714 46.4697C58.8325 46.5708 59.0036 46.4619 58.9724 46.5631L59.0114 46.5319V46.5397C59.0269 46.5242 59.0658 46.5008 59.0736 46.5008C59.0424 46.5475 58.9802 46.5786 58.9958 46.602C58.9725 46.6564 59.0502 46.6253 59.0891 46.6175C59.0891 46.602 59.1124 46.5864 59.128 46.5708C59.1358 46.5786 59.1047 46.6175 59.128 46.6097L59.0736 46.6642C59.1202 46.6097 59.1513 46.6331 59.1747 46.6175C59.1436 46.6642 59.128 46.6331 59.0969 46.6642C59.1358 46.6953 59.1203 46.6798 59.1591 46.7109C59.2136 46.6876 59.2058 46.6564 59.2603 46.6331C59.2836 46.6409 59.338 46.6175 59.338 46.672L59.3769 46.6175C59.4547 46.6097 59.4547 46.6331 59.4313 46.6953C60.038 46.5553 59.9991 46.2285 59.9991 46.2285C60.0147 46.0339 59.8436 46.1195 59.688 46.0495L59.6958 46.0417ZM53.4969 41.2329L53.5125 41.2095C53.497 41.2173 53.4969 41.2251 53.4969 41.2329ZM53.8703 40.3303H53.878H53.8703Z" fill="#B1CBC0"/>
<path d="M54.1348 40.6727C54.0725 40.5715 54.1347 40.4626 54.0181 40.4237C53.987 40.377 53.917 40.3614 53.8626 40.3459C53.7848 40.4003 53.8081 40.2992 53.7303 40.3381L53.7614 40.2914C53.7381 40.307 53.7147 40.3147 53.7225 40.2836L53.7303 40.2681C53.6914 40.2914 53.6914 40.2603 53.6759 40.2681H53.6836L53.6681 40.2603L53.6836 40.2447C53.637 40.2603 53.6059 40.2447 53.6059 40.2136L53.5592 40.2681C53.567 40.1747 53.4659 40.268 53.4814 40.1669L53.4892 40.1513C53.3336 40.2447 53.497 39.9957 53.3336 40.0735C53.357 40.0657 53.357 40.0424 53.3648 40.0346C53.3337 40.0268 53.3025 40.019 53.2092 40.1124C53.1937 40.0969 53.2248 40.0735 53.2559 40.0346C53.217 40.0813 53.1781 40.0813 53.1781 40.0735L53.2014 40.058L53.1548 40.0424L53.0925 40.1202C53.0925 40.0813 53.1703 40.0191 53.1392 40.0191L53.077 40.0969C53.0614 40.058 53.1392 39.9412 53.1548 39.8634C53.077 39.7467 52.8126 39.8245 52.8281 39.6144L52.867 39.56C52.9292 39.4822 52.7426 39.6378 52.7892 39.5755L52.7503 39.5989C52.7581 39.5833 52.7659 39.56 52.7814 39.5522C52.7737 39.5366 52.7659 39.5522 52.7348 39.5677L52.7659 39.5133C52.7581 39.4355 52.6414 39.4977 52.6103 39.4355C52.6414 39.2954 52.4703 39.2954 52.377 39.3032C52.2059 39.3499 52.3692 38.9608 52.1825 39.0231C52.1903 39.0075 52.1592 39.0308 52.1514 39.0386L52.0892 38.9608C52.0892 38.9608 51.7625 38.6184 51.4981 39.4899L51.4826 39.5055C51.4904 39.5833 51.5059 39.6144 51.607 39.5522C51.5292 39.6611 51.6303 39.5911 51.6148 39.63H51.607C51.7003 39.5755 51.5992 39.7389 51.6848 39.6922C51.677 39.7 51.6537 39.7311 51.6459 39.7234C51.677 39.7234 51.7237 39.7234 51.6692 39.7856C51.7237 39.809 51.747 39.8868 51.8637 39.809L51.8481 39.8245C51.9259 39.7701 51.8714 39.8323 51.9259 39.8167C51.9181 39.8245 51.9181 39.8323 51.9181 39.8323C51.9959 39.7856 51.9726 39.8634 52.0115 39.8479L51.9803 39.8868L52.0192 39.9023L52.0115 39.8868C52.1048 39.7856 51.9803 39.9801 52.0581 39.9257C52.0659 39.9568 52.2914 39.7389 52.2759 39.809C52.3303 39.77 52.1981 39.8868 52.2448 39.8556C52.1981 39.9101 52.2059 39.8868 52.167 39.9335C52.2059 39.9179 52.1437 40.0113 52.1981 39.9957L52.1592 40.0424C52.2526 39.9879 52.1592 40.1436 52.237 40.0813C52.2914 40.0657 52.1437 40.2369 52.2448 40.1591L52.2059 40.2369C52.2059 40.2603 52.2836 40.1747 52.2681 40.2136C52.237 40.2525 52.2603 40.2603 52.2214 40.2914C52.1981 40.3692 52.3537 40.2603 52.2992 40.3925C52.377 40.3303 52.3537 40.3848 52.4081 40.3381C52.3848 40.3692 52.4392 40.377 52.3614 40.4159C52.3536 40.4237 52.3536 40.4159 52.3614 40.4003L52.3225 40.4392C52.2759 40.5404 52.4003 40.4315 52.4159 40.4626C52.4236 40.4392 52.4081 40.4392 52.4392 40.4159L52.4548 40.4392L52.4159 40.4704V40.517L52.447 40.4704C52.4392 40.5093 52.3692 40.5871 52.4548 40.5482C52.4937 40.517 52.4937 40.4704 52.5325 40.4704C52.5224 40.5216 52.5198 40.574 52.5248 40.626C52.5637 40.5715 52.5714 40.5793 52.587 40.5793L52.5481 40.626C52.6259 40.5871 52.4703 40.7271 52.5403 40.7038L52.5092 40.7349L52.587 40.6571C52.6881 40.5949 52.5092 40.7583 52.6492 40.6649C52.6337 40.6649 52.727 40.5637 52.727 40.5871L52.6881 40.626C52.7037 40.626 52.7192 40.6104 52.7192 40.6182C52.6959 40.6338 52.6648 40.6805 52.6803 40.6805L52.6259 40.7271L52.7036 40.6649C52.6803 40.7271 52.7503 40.6882 52.7036 40.7427C52.7036 40.7427 52.7114 40.7972 52.7814 40.7427C52.7426 40.7738 52.7425 40.805 52.7036 40.8516C52.7503 40.8127 52.8126 40.7972 52.7814 40.8594H52.7737C52.7659 40.9372 52.8981 40.8516 52.8748 40.9372C52.9214 40.8828 52.9136 40.9294 52.9525 40.8594C53.0459 40.8283 52.8981 41.0462 53.0925 40.8594C53.1159 40.8594 53.0692 40.9217 53.0692 40.9372H53.0536C53.1003 40.945 53.1081 40.9528 53.1315 40.9761C53.1626 40.9683 53.2403 40.875 53.2403 40.9139C53.2014 40.945 53.217 40.945 53.2248 40.9528C53.217 40.9528 53.2015 40.9683 53.1859 40.9995C53.1937 40.9917 53.2092 40.9839 53.2092 40.9839L53.2014 40.9917C53.2248 40.9917 53.2326 40.9761 53.2326 40.9684C53.2403 40.9606 53.2403 40.9528 53.2481 40.945C53.217 41.0073 53.287 40.9761 53.2326 41.0384C53.2792 41.0539 53.3648 41.015 53.4192 41.015C53.3959 41.0539 53.357 41.0695 53.3414 41.0773H53.3726C53.3337 41.124 53.3337 41.0929 53.3181 41.0929C53.2792 41.194 53.4425 41.0617 53.4114 41.1707L53.4503 41.1395V41.1473C53.4575 41.137 53.4668 41.1282 53.4775 41.1215C53.4882 41.1148 53.5001 41.1104 53.5126 41.1084C53.4814 41.1551 53.4347 41.2018 53.4347 41.2096C53.4114 41.2563 53.4892 41.2173 53.5126 41.2096C53.5126 41.194 53.5359 41.1784 53.5514 41.1629C53.5592 41.1707 53.5281 41.2096 53.5514 41.2018L53.5048 41.2563C53.5514 41.2018 53.5825 41.2174 53.5981 41.2018C53.567 41.2485 53.5514 41.2251 53.5203 41.2563C53.5514 41.2796 53.5359 41.264 53.5748 41.2874C53.6292 41.264 53.6214 41.2329 53.6681 41.194C53.6914 41.194 53.7459 41.1707 53.7303 41.2173L53.7692 41.1629C53.8315 41.1473 53.847 41.1707 53.8159 41.2407C54.3759 41.0228 54.3448 40.7427 54.3448 40.7427C54.3603 40.6026 54.1892 40.7038 54.0647 40.6649L54.1348 40.6727Z" fill="#B1CBC0"/>
</g>
<path d="M-0.208706 0.00779321C0.460182 -0.163394 60.279 5.37685 60.279 5.37685L47.2124 16.0761L-0.216492 0.00779321H-0.208706Z" fill="#E3EFF9"/>
<path d="M47.7957 33.7551L47.228 16.0917L-0.200867 0.015625L14.3825 12.3956L47.7957 33.7551Z" fill="#BCD4E8"/>
<g opacity="0.5">
<path d="M38.7735 22.2778L47.7957 33.7474L33.5235 25.1335L38.7735 22.2778Z" fill="#E3EFF9"/>
</g>
<path d="M38.7736 22.2777L23.9336 34.6032L-0.208679 0L38.7736 22.2777Z" fill="#E3EFF9"/>
</g>
<defs>
<clipPath id="clip0_3921_18400">
<rect width="86" height="140" fill="white"/>
</clipPath>
<clipPath id="clip1_3921_18400">
<rect width="57" height="140" fill="white" transform="matrix(-1 0 0 1 86 0)"/>
</clipPath>
</defs>
</svg>
