<svg width="144" height="49" viewBox="0 0 144 49" fill="none" xmlns="http://www.w3.org/2000/svg">
<g clip-path="url(#clip0_3414_20518)">
<path d="M53.7126 13.2716H45.8374C45.2985 13.2716 44.8402 13.6631 44.7561 14.1951L41.571 34.3892C41.5077 34.7877 41.8163 35.1469 42.2205 35.1469H45.9802C46.5191 35.1469 46.9774 34.7554 47.0614 34.2223L47.9205 28.7756C48.0034 28.2425 48.4628 27.8509 49.0006 27.8509H51.4936C56.6812 27.8509 59.6751 25.3406 60.457 20.3661C60.8094 18.1897 60.472 16.4797 59.4529 15.2822C58.3336 13.9671 56.3484 13.2716 53.7126 13.2716ZM54.6211 20.6471C54.1905 23.4729 52.0314 23.4729 49.9437 23.4729H48.7553L49.589 18.1955C49.6385 17.8765 49.9149 17.6416 50.2373 17.6416H50.782C52.2041 17.6416 53.5456 17.6416 54.2388 18.4523C54.6522 18.9359 54.7789 19.6545 54.6211 20.6471Z" fill="#253B80"/>
<path d="M77.2532 20.5561H73.482C73.1607 20.5561 72.8832 20.791 72.8337 21.11L72.6667 22.1647L72.403 21.7824C71.5866 20.5975 69.766 20.2014 67.949 20.2014C63.7816 20.2014 60.2223 23.3577 59.5291 27.7853C59.1687 29.9939 59.6811 32.1058 60.9339 33.5786C62.0831 34.9327 63.7275 35.497 65.6839 35.497C69.0417 35.497 70.9037 33.3379 70.9037 33.3379L70.7356 34.3858C70.6723 34.7865 70.9809 35.1458 71.3828 35.1458H74.7797C75.3198 35.1458 75.7758 34.7543 75.861 34.2211L77.8992 21.3138C77.9637 20.9165 77.6562 20.5561 77.2532 20.5561ZM71.9965 27.8958C71.6326 30.0503 69.9226 31.4966 67.7417 31.4966C66.6466 31.4966 65.7714 31.1454 65.2095 30.4798C64.6522 29.8189 64.4403 28.8781 64.6176 27.8302C64.9573 25.6941 66.6961 24.2006 68.8437 24.2006C69.9146 24.2006 70.7851 24.5564 71.3586 25.2278C71.9332 25.906 72.1612 26.8526 71.9965 27.8958Z" fill="#253B80"/>
<path d="M97.3379 20.556H93.5482C93.1867 20.556 92.847 20.7357 92.642 21.0362L87.4153 28.7352L85.1997 21.3368C85.0604 20.8738 84.6332 20.556 84.1496 20.556H80.4256C79.973 20.556 79.6587 20.9982 79.8026 21.4243L83.9768 33.6741L80.0525 39.214C79.7439 39.6505 80.0548 40.2504 80.5879 40.2504H84.373C84.7322 40.2504 85.0685 40.0754 85.2723 39.7806L97.8768 21.5866C98.1785 21.1514 97.8687 20.556 97.3379 20.556Z" fill="#253B80"/>
<path d="M109.885 13.2716H102.008C101.471 13.2716 101.012 13.6631 100.928 14.1951L97.7431 34.3892C97.6798 34.7877 97.9884 35.1469 98.3903 35.1469H102.432C102.807 35.1469 103.129 34.8729 103.188 34.4998L104.091 28.7756C104.174 28.2425 104.634 27.8509 105.172 27.8509H107.663C112.852 27.8509 115.845 25.3406 116.628 20.3661C116.981 18.1897 116.642 16.4797 115.623 15.2822C114.505 13.9671 112.521 13.2716 109.885 13.2716ZM110.793 20.6471C110.364 23.4729 108.205 23.4729 106.116 23.4729H104.929L105.763 18.1955C105.813 17.8765 106.087 17.6416 106.411 17.6416H106.955C108.376 17.6416 109.719 17.6416 110.412 18.4523C110.825 18.9359 110.951 19.6545 110.793 20.6471Z" fill="#179BD7"/>
<path d="M133.424 20.5561H129.655C129.332 20.5561 129.056 20.791 129.008 21.11L128.841 22.1647L128.576 21.7824C127.76 20.5975 125.94 20.2014 124.123 20.2014C119.956 20.2014 116.398 23.3577 115.705 27.7853C115.345 29.9939 115.855 32.1058 117.108 33.5786C118.26 34.9327 119.902 35.497 121.858 35.497C125.216 35.497 127.078 33.3379 127.078 33.3379L126.91 34.3858C126.847 34.7865 127.155 35.1458 127.559 35.1458H130.955C131.493 35.1458 131.951 34.7543 132.035 34.2211L134.075 21.3138C134.137 20.9165 133.828 20.5561 133.424 20.5561ZM128.167 27.8958C127.806 30.0503 126.094 31.4966 123.913 31.4966C122.82 31.4966 121.942 31.1454 121.38 30.4798C120.823 29.8189 120.613 28.8781 120.788 27.8302C121.13 25.6941 122.867 24.2006 125.015 24.2006C126.085 24.2006 126.956 24.5564 127.529 25.2278C128.106 25.906 128.334 26.8526 128.167 27.8958Z" fill="#179BD7"/>
<path d="M137.87 13.8254L134.638 34.3892C134.574 34.7876 134.883 35.1469 135.285 35.1469H138.534C139.074 35.1469 139.533 34.7554 139.616 34.2222L142.803 14.0292C142.866 13.6308 142.558 13.2704 142.156 13.2704H138.517C138.196 13.2715 137.919 13.5064 137.87 13.8254Z" fill="#179BD7"/>
<path d="M8.86683 39.0713L9.46907 35.246L8.12756 35.2149H1.72168L6.17344 6.98781C6.18725 6.90259 6.23216 6.82314 6.2978 6.76671C6.36344 6.71029 6.4475 6.6792 6.53501 6.6792H17.3362C20.922 6.6792 23.3966 7.42538 24.6886 8.89817C25.2943 9.58908 25.6801 10.3111 25.8666 11.1056C26.0624 11.9393 26.0659 12.9354 25.8747 14.1502L25.8609 14.2389V15.0173L26.4666 15.3605C26.9767 15.6311 27.382 15.9408 27.6929 16.2955C28.2111 16.8862 28.5462 17.637 28.6879 18.5271C28.8341 19.4426 28.7857 20.5319 28.5462 21.7652C28.2699 23.1839 27.8231 24.4194 27.2197 25.4305C26.6646 26.362 25.9576 27.1347 25.1182 27.7335C24.3167 28.3024 23.3644 28.7342 22.2877 29.0105C21.2445 29.2823 20.055 29.4193 18.7503 29.4193H17.9097C17.3086 29.4193 16.7248 29.6358 16.2665 30.0239C15.807 30.42 15.503 30.9612 15.4097 31.5531L15.3464 31.8974L14.2824 38.6395L14.234 38.8871C14.2214 38.9654 14.1995 39.0045 14.1673 39.031C14.1385 39.0552 14.097 39.0713 14.0567 39.0713H8.86683Z" fill="#253B80"/>
<path d="M27.0401 14.3286C27.0079 14.5347 26.971 14.7455 26.9296 14.9619C25.5052 22.2752 20.632 24.8016 14.408 24.8016H11.239C10.4779 24.8016 9.8365 25.3544 9.7179 26.1052L8.09541 36.3951L7.63596 39.3119C7.5588 39.8047 7.9388 40.2492 8.43626 40.2492H14.0568C14.7224 40.2492 15.2878 39.7656 15.3926 39.1092L15.4478 38.8236L16.5061 32.108L16.574 31.7395C16.6777 31.0809 17.2442 30.5972 17.9098 30.5972H18.7504C24.1959 30.5972 28.4588 28.3863 29.7047 21.9885C30.2252 19.3158 29.9558 17.0842 28.5786 15.5147C28.1617 15.0414 27.6447 14.6487 27.0401 14.3286Z" fill="#179BD7"/>
<path d="M25.55 13.7345C25.3323 13.6712 25.1078 13.6136 24.8775 13.5618C24.646 13.5111 24.4088 13.4662 24.1647 13.4271C23.3103 13.2889 22.3741 13.2233 21.3711 13.2233H12.9052C12.6967 13.2233 12.4987 13.2705 12.3213 13.3557C11.931 13.5434 11.6408 13.913 11.5706 14.3656L9.76959 25.7725L9.71777 26.1053C9.83638 25.3545 10.4778 24.8018 11.2389 24.8018H14.4079C20.6318 24.8018 25.505 22.2742 26.9295 14.9621C26.9721 14.7456 27.0078 14.5348 27.04 14.3287C26.6796 14.1376 26.2892 13.9741 25.8689 13.8347C25.7653 13.8002 25.6582 13.7668 25.55 13.7345Z" fill="#222D65"/>
<path d="M11.5707 14.3655C11.6409 13.913 11.9311 13.5433 12.3214 13.3568C12.4999 13.2716 12.6968 13.2244 12.9053 13.2244H21.3712C22.3742 13.2244 23.3103 13.29 24.1648 13.4282C24.4089 13.4673 24.6461 13.5122 24.8776 13.5629C25.1079 13.6147 25.3324 13.6723 25.55 13.7356C25.6583 13.7679 25.7654 13.8013 25.8702 13.8347C26.2905 13.974 26.6808 14.1387 27.0413 14.3287C27.465 11.6261 27.0378 9.78594 25.5765 8.1197C23.9656 6.28533 21.058 5.5 17.3374 5.5H6.53623C5.77623 5.5 5.12793 6.05273 5.01047 6.80467L0.511502 35.3219C0.422836 35.8862 0.858108 36.3952 1.42696 36.3952H8.09538L9.76968 25.7724L11.5707 14.3655Z" fill="#253B80"/>
</g>
<defs>
<clipPath id="clip0_3414_20518">
<rect width="143" height="48" fill="white" transform="translate(0.5 0.5)"/>
</clipPath>
</defs>
</svg>
