<svg width="38" height="38" viewBox="0 0 38 38" fill="none" xmlns="http://www.w3.org/2000/svg">
<path d="M34.2233 12.1103L24.4086 2.29556C22.6623 0.549268 19.8268 0.549268 18.0805 2.29556C17.4392 2.93682 17.0169 3.73994 16.8492 4.61013C15.093 3.01775 12.372 3.06908 10.6809 4.7621C9.95088 5.49215 9.52661 6.41173 9.40628 7.36275C7.73694 6.5439 5.65721 6.82601 4.26804 8.21518C2.73292 9.75234 2.54941 12.1359 3.71752 13.8743C2.80987 14.0283 1.97317 14.4584 1.30823 15.1214C-0.436117 16.8658 -0.436117 19.7052 1.30823 21.4495L4.45553 24.5968V28.1348C4.45553 33.0303 8.43944 37.0142 13.335 37.0142H23.059C25.9576 37.0142 28.6826 35.8855 30.7348 33.8354L34.2234 30.3468C36.6583 27.9119 38.0001 24.6739 38.0001 21.2286C38.0001 17.7834 36.6583 14.5452 34.2233 12.1103ZM32.8302 28.9516L29.3416 32.4402C27.6624 34.1174 25.4307 35.0409 23.0609 35.0409H13.335C9.52671 35.0409 6.42871 31.943 6.42871 28.1346V26.5699L8.69001 28.8331C9.07478 29.2179 9.70032 29.2179 10.0851 28.8331C10.2765 28.6397 10.3732 28.3872 10.3732 28.1346C10.3732 27.882 10.2785 27.6295 10.0851 27.4361L2.70332 20.0543C2.23169 19.5827 1.97123 18.9533 1.97123 18.2863C1.97123 17.6193 2.23169 16.9899 2.70332 16.5183C3.64852 15.5731 5.29612 15.5731 6.24131 16.5183L8.6901 18.9671C9.07487 19.3518 9.70041 19.3518 10.0852 18.9671C10.2766 18.7737 10.3733 18.5212 10.3733 18.2686C10.3733 18.0159 10.2786 17.7634 10.0852 17.57L5.66323 13.1481C4.68843 12.1733 4.68843 10.5849 5.66323 9.61008C6.63802 8.63529 8.22642 8.63529 9.20122 9.61008L13.6232 14.034C14.008 14.4188 14.6335 14.4188 15.0183 14.034C15.2117 13.8406 15.3064 13.5881 15.3064 13.3355C15.3064 13.0829 15.2117 12.8304 15.0183 12.637L12.0762 9.6949C11.6046 9.22327 11.3441 8.59385 11.3441 7.92688C11.3441 7.2599 11.6046 6.63048 12.0782 6.15885C13.053 5.18405 14.6414 5.18405 15.6162 6.15885L18.5582 9.1009C18.943 9.48568 19.5685 9.48568 19.9533 9.1009C20.1447 8.9075 20.2414 8.65499 20.2414 8.40239C20.2414 8.14979 20.1467 7.89728 19.9533 7.70387L19.4778 7.22836C18.503 6.25356 18.503 4.66516 19.4778 3.69037C20.423 2.74517 22.0706 2.74517 23.0158 3.69037L32.8305 13.5051C34.8925 15.5671 36.0291 18.3118 36.0291 21.2283C36.0291 24.1447 34.8922 26.8896 32.8302 28.9516Z" fill="black"/>
<path d="M32.8302 28.9516L29.3416 32.4402C27.6624 34.1174 25.4307 35.0409 23.0609 35.0409H13.335C9.52671 35.0409 6.42871 31.943 6.42871 28.1346V26.5699L8.69001 28.8331C9.07478 29.2179 9.70032 29.2179 10.0851 28.8331C10.2765 28.6397 10.3732 28.3872 10.3732 28.1346C10.3732 27.882 10.2785 27.6295 10.0851 27.4361L2.70332 20.0543C2.23169 19.5827 1.97123 18.9533 1.97123 18.2863C1.97123 17.6193 2.23169 16.9899 2.70332 16.5183C3.64852 15.5731 5.29612 15.5731 6.24131 16.5183L8.6901 18.9671C9.07487 19.3518 9.70041 19.3518 10.0852 18.9671C10.2766 18.7737 10.3733 18.5212 10.3733 18.2686C10.3733 18.0159 10.2786 17.7634 10.0852 17.57L5.66323 13.1481C4.68843 12.1733 4.68843 10.5849 5.66323 9.61008C6.63802 8.63529 8.22642 8.63529 9.20122 9.61008L13.6232 14.034C14.008 14.4188 14.6335 14.4188 15.0183 14.034C15.2117 13.8406 15.3064 13.5881 15.3064 13.3355C15.3064 13.0829 15.2117 12.8304 15.0183 12.637L12.0762 9.6949C11.6046 9.22327 11.3441 8.59385 11.3441 7.92688C11.3441 7.2599 11.6046 6.63048 12.0782 6.15885C13.053 5.18405 14.6414 5.18405 15.6162 6.15885L18.5582 9.1009C18.943 9.48568 19.5685 9.48568 19.9533 9.1009C20.1447 8.9075 20.2414 8.65499 20.2414 8.40239C20.2414 8.14979 20.1467 7.89728 19.9533 7.70387L19.4778 7.22836C18.503 6.25356 18.503 4.66516 19.4778 3.69037C20.423 2.74517 22.0706 2.74517 23.0158 3.69037L32.8305 13.5051C34.8925 15.5671 36.0291 18.3118 36.0291 21.2283C36.0291 24.1447 34.8922 26.8896 32.8302 28.9516Z" fill="white"/>
</svg>
