<svg width="24" height="24" viewBox="0 0 24 24" fill="none" xmlns="http://www.w3.org/2000/svg">
<g clip-path="url(#clip0_3422_20625)">
<path d="M21.1864 16.027C20.5413 17.7753 19.5658 19.2955 18.2864 20.5448C16.8302 21.9668 14.9233 23.0968 12.6187 23.9028C12.5431 23.9291 12.4642 23.9508 12.3849 23.9667C12.2802 23.9874 12.1736 23.9985 12.0679 24H12.0473C11.9346 24 11.8215 23.9887 11.7092 23.9667C11.63 23.9508 11.5521 23.9291 11.4769 23.9033C9.16956 23.0986 7.26032 21.9692 5.80261 20.5472C4.5227 19.2979 3.5473 17.7786 2.90313 16.0303C1.7318 12.8516 1.79846 9.34991 1.85211 6.53594L1.85302 6.49273C1.86382 6.26037 1.87078 6.01629 1.87463 5.74676C1.89422 4.42345 2.94635 3.32866 4.26983 3.25487C7.02924 3.10088 9.16389 2.20092 10.9878 0.423144L11.0037 0.408496C11.3066 0.130725 11.6882 -0.00550601 12.0679 0.000170293C12.4342 0.00493105 12.7989 0.140978 13.091 0.408496L13.1065 0.423144C14.9308 2.20092 17.0655 3.10088 19.8249 3.25487C21.1483 3.32866 22.2005 4.42345 22.2201 5.74676C22.2239 6.01812 22.2309 6.26183 22.2417 6.49273L22.2422 6.51104C22.2957 9.33032 22.362 12.839 21.1864 16.027Z" fill="#00DD80"/>
<path d="M21.1864 16.0271C20.5413 17.7753 19.5658 19.2955 18.2864 20.5448C16.8302 21.9668 14.9233 23.0968 12.6187 23.9028C12.5431 23.9292 12.4642 23.9508 12.3849 23.9667C12.2802 23.9874 12.1736 23.9986 12.0679 24V0.000183105C12.4341 0.00494386 12.7989 0.140991 13.0909 0.408509L13.1065 0.423157C14.9308 2.20093 17.0654 3.10089 19.8248 3.25489C21.1483 3.32868 22.2005 4.42347 22.2201 5.74677C22.2239 6.01813 22.2309 6.26185 22.2417 6.49274L22.2422 6.51105C22.2957 9.33033 22.362 12.839 21.1864 16.0271Z" fill="#00AA63"/>
<path d="M18.0282 12C18.0282 15.291 15.3562 17.9698 12.0679 17.9815H12.0469C8.74896 17.9815 6.06536 15.2981 6.06536 12C6.06536 8.70209 8.74896 6.01868 12.0469 6.01868H12.0679C15.3562 6.0304 18.0282 8.70923 18.0282 12Z" fill="white"/>
<path d="M18.0282 12C18.0282 15.291 15.3562 17.9698 12.0679 17.9815V6.01868C15.3562 6.0304 18.0282 8.70923 18.0282 12Z" fill="#E1EBF0"/>
<path d="M14.7618 11.1387L12.0679 13.8329L11.4858 14.415C11.3483 14.5525 11.168 14.6212 10.9878 14.6212C10.8074 14.6212 10.6273 14.5525 10.4896 14.415L9.23804 13.1629C8.96302 12.8879 8.96302 12.4424 9.23804 12.1672C9.5127 11.8921 9.95875 11.8921 10.2338 12.1672L10.9878 12.9212L13.7661 10.1429C14.0411 9.86772 14.4871 9.86772 14.7618 10.1429C15.0368 10.418 15.0368 10.864 14.7618 11.1387Z" fill="#B4D2D7"/>
<path d="M14.7618 11.1387L12.0679 13.8329V11.8409L13.7661 10.1429C14.0411 9.86772 14.4871 9.86772 14.7618 10.1429C15.0368 10.418 15.0368 10.864 14.7618 11.1387Z" fill="#6FA5AA"/>
</g>
<defs>
<clipPath id="clip0_3422_20625">
<rect width="24" height="24" fill="white"/>
</clipPath>
</defs>
</svg>
